<svg width="320" height="212" viewBox="0 0 320 212" fill="none" xmlns="http://www.w3.org/2000/svg">
<path d="M74 24V48" stroke="#1F1F21"/>
<rect x="34.5" y="0.5" width="79" height="23" rx="3.5" stroke="black" stroke-dasharray="2 2"/>
<path d="M45.3774 18L43.3754 7.64H45.4894L46.3154 12.694C46.4694 13.786 46.6374 14.892 46.7914 15.998H46.8474C47.0574 14.892 47.2814 13.772 47.5054 12.694L48.7094 7.64H50.4734L51.6774 12.694C51.9014 13.758 52.1114 14.878 52.3354 15.998H52.4054C52.5594 14.878 52.7134 13.772 52.8674 12.694L53.6794 7.64H55.6534L53.7354 18H51.1594L49.9974 12.876C49.8294 12.064 49.6754 11.266 49.5494 10.482H49.4934C49.3534 11.266 49.2134 12.064 49.0454 12.876L47.9114 18H45.3774ZM57.908 18V7.64H64.264V9.362H59.98V11.756H63.62V13.492H59.98V16.264H64.418V18H57.908ZM67.2213 18V7.64H70.6513C72.7793 7.64 74.4033 8.256 74.4033 10.188C74.4033 11.14 73.8713 12.12 72.9893 12.428V12.498C74.1093 12.764 74.9353 13.548 74.9353 14.948C74.9353 17.034 73.1993 18 70.9173 18H67.2213ZM69.2933 11.854H70.4973C71.8133 11.854 72.3873 11.322 72.3873 10.496C72.3873 9.586 71.7713 9.222 70.5253 9.222H69.2933V11.854ZM69.2933 16.404H70.7353C72.1493 16.404 72.9193 15.9 72.9193 14.822C72.9193 13.814 72.1633 13.394 70.7353 13.394H69.2933V16.404ZM77.6606 12.96L76.4566 12.554C76.7506 11.602 76.9606 10.034 77.0306 8.9L78.2066 9.054C78.1786 10.216 77.9546 11.882 77.6606 12.96ZM82.9806 15.984H87.1666V15.34H82.9806V15.984ZM87.1666 13.506H82.9806V14.164H87.1666V13.506ZM88.7346 12.288V17.622C88.7346 18.35 88.5946 18.742 88.0906 18.966C87.6006 19.204 86.9006 19.204 85.9346 19.204C85.8786 18.798 85.6826 18.196 85.4866 17.79C86.0606 17.832 86.7186 17.818 86.9006 17.818C87.0966 17.818 87.1666 17.762 87.1666 17.594V17.132H82.9806V19.232H81.4406V12.288H88.7346ZM85.8646 10.566H89.6726V11.756H80.5026V10.566H84.2126V9.964H81.3146L81.3426 10.034L80.2506 10.566C80.1526 10.16 79.9566 9.572 79.7326 9.026V19.204H78.2346V6.142H79.7326V8.382L80.5306 8.046C80.8246 8.648 81.1466 9.432 81.3146 9.95V8.844H84.2126V8.284H80.9366V7.094H84.2126V6.142H85.8646V7.094H89.2526V8.284H85.8646V8.844H88.8746V9.964H85.8646V10.566ZM95.6226 12.75L95.1746 12.624C95.3286 12.204 95.5386 11.602 95.6646 11.126H93.5366C93.7746 11.63 93.9706 12.232 94.0266 12.624L93.5786 12.75H95.6226ZM95.3706 8.76V9.726H97.7086V11.126H96.5466L97.0926 11.266C96.8546 11.784 96.6446 12.33 96.4486 12.75H97.4986V14.15H95.3706V15.228H97.3446V16.628H95.3706V19.176H93.8306V16.628H91.7446V15.228H93.8306V14.15H91.6326V12.75H92.6826C92.5986 12.302 92.4166 11.714 92.2206 11.252L92.7246 11.126H91.3386V9.726H93.8306V8.76H91.8286V7.388H93.8306V6.17H95.3706V7.388H97.1906V8.76H95.3706ZM99.4726 13.422V17.874C99.9766 17.468 100.425 16.992 100.817 16.446C100.271 15.55 99.8226 14.528 99.4726 13.422ZM102.385 12.848H100.649C100.901 13.618 101.237 14.346 101.643 15.018C101.965 14.346 102.217 13.604 102.385 12.848ZM103.127 11.462L104.121 11.812C103.855 13.506 103.365 15.074 102.651 16.39C103.225 17.02 103.869 17.552 104.597 17.916C104.233 18.224 103.757 18.812 103.519 19.232C102.861 18.84 102.287 18.336 101.769 17.748C101.321 18.322 100.817 18.826 100.243 19.246C100.061 18.966 99.7666 18.644 99.4726 18.378V19.204H97.9606V6.73H103.799V9.362C103.799 10.076 103.645 10.482 103.099 10.706C102.567 10.93 101.811 10.944 100.789 10.944C100.719 10.496 100.509 9.922 100.313 9.516C100.999 9.544 101.769 9.544 101.979 9.544C102.189 9.53 102.259 9.488 102.259 9.334V8.186H99.4726V11.532H102.847L103.127 11.462Z" fill="#1F1F21"/>
<rect x="39" y="40" width="72" height="72" rx="36" fill="#BFC8D9"/>
<path d="M57.3411 70.156L58.8111 70.73C57.9291 71.934 56.6271 73.292 55.4651 74.146C55.2551 73.81 54.8491 73.222 54.5971 72.928C55.5911 72.228 56.7531 71.066 57.3411 70.156ZM57.5931 73.138L59.0491 73.684C58.7411 74.244 58.3771 74.818 57.9851 75.378V83.246H56.4311V77.254C56.0671 77.646 55.7031 77.982 55.3391 78.29C55.1851 77.926 54.7371 77.086 54.4711 76.736C55.6331 75.854 56.8651 74.496 57.5931 73.138ZM64.3271 78.612V81.37C64.7051 81.426 65.1111 81.454 65.5171 81.454C65.8951 81.468 67.3511 81.454 67.8411 81.454C67.6171 81.818 67.4211 82.588 67.3511 83.008H65.3911C63.4731 83.008 61.9051 82.546 60.7991 80.852C60.4631 81.804 60.0011 82.616 59.3711 83.274C59.1331 82.98 58.4751 82.392 58.0971 82.14C59.3851 80.922 59.7911 78.85 59.9031 76.414L61.5691 76.526C61.5131 77.352 61.4291 78.122 61.3031 78.85C61.6531 79.732 62.1291 80.334 62.7031 80.74V74.916H59.4131V73.334H61.3311C61.0231 72.592 60.4911 71.584 60.0151 70.842L61.3871 70.24C61.9611 71.066 62.5771 72.158 62.8711 72.9L61.9751 73.334H65.3211L64.2431 72.928C64.6911 72.186 65.2511 71.024 65.5451 70.142L67.1691 70.702C66.7071 71.64 66.2031 72.62 65.7691 73.334H67.4491V74.916H64.3271V77.086H67.0711V78.612H64.3271ZM74.3231 73.264H72.0411C72.5311 74.02 73.0491 75.014 73.2311 75.7L71.9011 76.218H74.3231V73.264ZM78.4531 73.264H76.0871V76.218H78.4391L77.2631 75.812C77.6691 75.126 78.1731 74.076 78.4531 73.264ZM81.4631 77.814H77.0811C78.2851 79.27 80.0771 80.614 81.8271 81.342C81.4491 81.678 80.9171 82.336 80.6651 82.742C78.9851 81.902 77.3471 80.502 76.0871 78.906V83.204H74.3231V78.934C73.0491 80.502 71.4111 81.874 69.7311 82.714C69.4651 82.308 68.9471 81.65 68.5551 81.314C70.3191 80.586 72.1251 79.256 73.3431 77.814H68.9471V76.218H71.5931C71.4391 75.546 70.9911 74.566 70.5431 73.81L71.9851 73.264H69.6051V71.668H74.3231V70.142H76.0871V71.668H80.9311V73.264H78.6071L80.2171 73.74C79.7271 74.65 79.1951 75.588 78.7471 76.218H81.4631V77.814ZM85.4251 77.73H87.8891L87.5811 76.596C87.2591 75.518 86.9791 74.328 86.6711 73.208H86.6151C86.3491 74.342 86.0411 75.518 85.7331 76.596L85.4251 77.73ZM89.0651 82L88.3371 79.34H84.9771L84.2491 82H82.1491L85.4671 71.64H87.9031L91.2351 82H89.0651ZM92.4478 82V71.64H94.5198V82H92.4478Z" fill="#1F1F21"/>
<path d="M205 24V48" stroke="#1F1F21"/>
<rect x="169" y="40" width="72" height="72" rx="36" fill="#1F1F21"/>
<g clip-path="url(#clip0_12_3093)">
<path d="M180 79.0085V63.9999H182.589V66.0603C183.867 64.8404 185.529 64.0689 187.382 64.0042C192.047 63.8447 194.317 67.3771 194.317 71.5193V79.0085H191.728V71.5193C191.728 68.8534 190.578 66.349 187.382 66.446C184.219 66.543 182.589 69.112 182.589 70.4913L182.557 79.0085H180Z" fill="white"/>
<path d="M223.641 64H222.721L220.293 66.4397H223.769C225.815 66.4397 227.413 67.1228 227.413 69.4677H223.323C219.265 69.4677 216.899 71.4267 216.996 74.5409C217.093 77.7198 219.84 79.2284 223.355 78.972C225.783 78.8125 226.68 77.7845 227.446 76.9483V79.0065H230.002V70.0776C230 65.9353 228.179 64 223.641 64ZM227.443 73.6099C227.443 73.6099 225.942 76.0819 223.512 76.4353C221.371 76.7888 219.645 76.0496 219.709 74.1875C219.741 72.7737 221.02 71.875 223.321 71.875H227.443V73.6099Z" fill="white"/>
<path d="M219.214 64C217.959 64 217.727 64.0022 217.487 64.0194C215.666 64.1164 214.643 65.0151 213.652 66.0431V64H211.063V68.7069C210.808 68.9957 208.571 71.7263 207.1 73.2996C204.766 75.7716 203.649 76.5108 201.858 76.5431C198.694 76.6401 197.512 74.1336 197.512 71.5022V64H194.956V71.5C194.956 75.6099 197.193 79.1746 201.89 78.9828C203.711 78.9181 205.373 78.1487 206.684 76.9267V79.0086H209.272V74.5517C210.551 73.0431 212.052 71.3728 213.14 70.056C215.121 67.7112 216.649 66.4914 217.736 66.4461C217.777 66.4461 217.817 66.4418 217.862 66.4397H218.933L221.363 64H219.214Z" fill="white"/>
<path d="M209.273 64H206.684V72.4957L209.273 69.6703V64Z" fill="white"/>
<path d="M211.063 79.0087H213.652V70.666L211.063 73.7479V79.0087Z" fill="white"/>
<path d="M187.453 85.1507C187.453 84.7779 187.522 84.418 187.659 84.071C187.796 83.7218 187.992 83.4158 188.247 83.1486C188.506 82.8749 188.802 82.6637 189.141 82.515C189.478 82.3662 189.832 82.293 190.203 82.293C190.662 82.293 191.082 82.3986 191.464 82.6076C191.848 82.8167 192.178 83.1227 192.455 83.5236L191.893 83.9309C191.711 83.6335 191.466 83.3943 191.162 83.2175C190.857 83.0408 190.537 82.9503 190.203 82.9503C189.937 82.9503 189.68 83.0063 189.433 83.1184C189.184 83.2305 188.965 83.39 188.777 83.5968C188.584 83.8037 188.436 84.043 188.333 84.3102C188.23 84.5775 188.178 84.8576 188.178 85.1486C188.178 85.4395 188.23 85.7197 188.333 85.9848C188.436 86.252 188.584 86.4891 188.777 86.696C188.965 86.9007 189.184 87.0602 189.431 87.1701C189.677 87.28 189.935 87.3361 190.203 87.3361C190.621 87.3361 191.009 87.2025 191.372 86.9331C191.732 86.6637 191.975 86.3296 192.099 85.9287H189.834V85.2714H192.94V85.4029C192.94 85.7132 192.873 86.0214 192.738 86.3296C192.603 86.6378 192.416 86.9158 192.174 87.1637C191.91 87.4309 191.61 87.6356 191.271 87.78C190.932 87.9244 190.578 87.9956 190.205 87.9956C189.832 87.9956 189.474 87.9223 189.135 87.7757C188.796 87.6292 188.498 87.418 188.24 87.1443C187.989 86.8792 187.794 86.5731 187.659 86.2283C187.524 85.8835 187.455 85.5214 187.455 85.1486L187.453 85.1507Z" fill="white"/>
<path d="M200.762 85.7953V85.138H201.667C202.021 85.138 202.323 85.0324 202.576 84.819C202.829 84.6078 202.956 84.3514 202.956 84.0496C202.956 83.722 202.84 83.4591 202.606 83.2544C202.373 83.0518 202.072 82.9505 201.703 82.9505C201.335 82.9505 201.034 83.0518 200.8 83.2544C200.567 83.457 200.449 83.722 200.449 84.0496V87.9289H199.719V84.0496C199.719 83.5302 199.904 83.1078 200.275 82.7802C200.646 82.4527 201.122 82.291 201.703 82.291C202.285 82.291 202.761 82.4548 203.132 82.7802C203.503 83.1057 203.687 83.5281 203.687 84.0496C203.687 84.5712 203.484 84.9893 203.074 85.3277C203.481 85.5281 203.687 85.9031 203.687 86.4548V87.9289H202.958V86.5087C202.958 86.2781 202.9 86.1014 202.784 85.9785C202.669 85.8557 202.499 85.7953 202.276 85.7953H200.766H200.762Z" fill="white"/>
<path d="M210.705 87.9285V82.3682H211.434V87.9285H210.705Z" fill="white"/>
<path d="M219.503 87.269H219.72C219.967 87.269 220.213 87.2195 220.46 87.1225C220.707 87.0255 220.93 86.8897 221.125 86.7151C221.588 86.3057 221.82 85.7841 221.82 85.1526C221.82 84.5212 221.592 83.9932 221.14 83.5858C220.945 83.4091 220.724 83.2712 220.475 83.1742C220.226 83.0772 219.975 83.0276 219.72 83.0276H219.19V87.9285H218.461V82.3682H219.722C220.119 82.3682 220.49 82.4328 220.837 82.5643C221.185 82.6957 221.485 82.8832 221.743 83.1289C222.006 83.3811 222.208 83.6807 222.345 84.0276C222.485 84.3725 222.553 84.7475 222.553 85.1505C222.553 85.5535 222.485 85.9285 222.345 86.2712C222.206 86.616 222.004 86.9156 221.743 87.1677C221.485 87.4134 221.185 87.6009 220.837 87.7302C220.49 87.8595 220.119 87.9242 219.722 87.9242H219.505V87.2669L219.503 87.269Z" fill="white"/>
</g>
<rect x="165.5" y="0.5" width="79" height="23" rx="3.5" stroke="black" stroke-dasharray="2 2"/>
<path d="M176.377 18L174.375 7.64H176.489L177.315 12.694C177.469 13.786 177.637 14.892 177.791 15.998H177.847C178.057 14.892 178.281 13.772 178.505 12.694L179.709 7.64H181.473L182.677 12.694C182.901 13.758 183.111 14.878 183.335 15.998H183.405C183.559 14.878 183.713 13.772 183.867 12.694L184.679 7.64H186.653L184.735 18H182.159L180.997 12.876C180.829 12.064 180.675 11.266 180.549 10.482H180.493C180.353 11.266 180.213 12.064 180.045 12.876L178.911 18H176.377ZM188.908 18V7.64H195.264V9.362H190.98V11.756H194.62V13.492H190.98V16.264H195.418V18H188.908ZM198.221 18V7.64H201.651C203.779 7.64 205.403 8.256 205.403 10.188C205.403 11.14 204.871 12.12 203.989 12.428V12.498C205.109 12.764 205.935 13.548 205.935 14.948C205.935 17.034 204.199 18 201.917 18H198.221ZM200.293 11.854H201.497C202.813 11.854 203.387 11.322 203.387 10.496C203.387 9.586 202.771 9.222 201.525 9.222H200.293V11.854ZM200.293 16.404H201.735C203.149 16.404 203.919 15.9 203.919 14.822C203.919 13.814 203.163 13.394 201.735 13.394H200.293V16.404ZM208.661 12.96L207.457 12.554C207.751 11.602 207.961 10.034 208.031 8.9L209.207 9.054C209.179 10.216 208.955 11.882 208.661 12.96ZM213.981 15.984H218.167V15.34H213.981V15.984ZM218.167 13.506H213.981V14.164H218.167V13.506ZM219.735 12.288V17.622C219.735 18.35 219.595 18.742 219.091 18.966C218.601 19.204 217.901 19.204 216.935 19.204C216.879 18.798 216.683 18.196 216.487 17.79C217.061 17.832 217.719 17.818 217.901 17.818C218.097 17.818 218.167 17.762 218.167 17.594V17.132H213.981V19.232H212.441V12.288H219.735ZM216.865 10.566H220.673V11.756H211.503V10.566H215.213V9.964H212.315L212.343 10.034L211.251 10.566C211.153 10.16 210.957 9.572 210.733 9.026V19.204H209.235V6.142H210.733V8.382L211.531 8.046C211.825 8.648 212.147 9.432 212.315 9.95V8.844H215.213V8.284H211.937V7.094H215.213V6.142H216.865V7.094H220.253V8.284H216.865V8.844H219.875V9.964H216.865V10.566ZM226.623 12.75L226.175 12.624C226.329 12.204 226.539 11.602 226.665 11.126H224.537C224.775 11.63 224.971 12.232 225.027 12.624L224.579 12.75H226.623ZM226.371 8.76V9.726H228.709V11.126H227.547L228.093 11.266C227.855 11.784 227.645 12.33 227.449 12.75H228.499V14.15H226.371V15.228H228.345V16.628H226.371V19.176H224.831V16.628H222.745V15.228H224.831V14.15H222.633V12.75H223.683C223.599 12.302 223.417 11.714 223.221 11.252L223.725 11.126H222.339V9.726H224.831V8.76H222.829V7.388H224.831V6.17H226.371V7.388H228.191V8.76H226.371ZM230.473 13.422V17.874C230.977 17.468 231.425 16.992 231.817 16.446C231.271 15.55 230.823 14.528 230.473 13.422ZM233.385 12.848H231.649C231.901 13.618 232.237 14.346 232.643 15.018C232.965 14.346 233.217 13.604 233.385 12.848ZM234.127 11.462L235.121 11.812C234.855 13.506 234.365 15.074 233.651 16.39C234.225 17.02 234.869 17.552 235.597 17.916C235.233 18.224 234.757 18.812 234.519 19.232C233.861 18.84 233.287 18.336 232.769 17.748C232.321 18.322 231.817 18.826 231.243 19.246C231.061 18.966 230.767 18.644 230.473 18.378V19.204H228.961V6.73H234.799V9.362C234.799 10.076 234.645 10.482 234.099 10.706C233.567 10.93 232.811 10.944 231.789 10.944C231.719 10.496 231.509 9.922 231.313 9.516C231.999 9.544 232.769 9.544 232.979 9.544C233.189 9.53 233.259 9.488 233.259 9.334V8.186H230.473V11.532H233.847L234.127 11.462Z" fill="#1F1F21"/>
<path d="M205 112L205 159" stroke="#1F1F21"/>
<path d="M119 160V176" stroke="#1F1F21"/>
<path d="M176 160V176" stroke="#1F1F21"/>
<path d="M233 160V176" stroke="#1F1F21"/>
<path d="M290 160V176" stroke="#1F1F21"/>
<path d="M118.5 159.5L290.5 159.5" stroke="black"/>
<rect x="134" y="124" width="141" height="24" rx="4" fill="#1F1F21"/>
<path d="M147.331 133.932H145.567C145.351 134.424 145.111 134.88 144.847 135.324C145.447 135.672 146.083 136.104 146.563 136.488C146.887 135.72 147.139 134.868 147.331 133.932ZM151.459 130.86V136.452C152.227 137.124 153.091 137.676 153.967 138.06C153.619 138.36 153.163 138.936 152.923 139.308C152.419 139.044 151.927 138.72 151.459 138.36V142.02H149.971V136.968C149.431 136.38 148.939 135.72 148.507 135.036C147.607 138.432 145.939 140.724 143.803 141.936C143.563 141.624 143.011 141.096 142.663 140.868C143.983 140.184 145.075 139.152 145.915 137.76C145.447 137.328 144.751 136.812 144.115 136.392C143.923 136.656 143.719 136.884 143.503 137.1C143.251 136.86 142.663 136.392 142.315 136.188C143.635 134.988 144.607 132.984 145.135 130.836L146.551 131.112C146.419 131.616 146.275 132.096 146.107 132.576H147.775L148.027 132.528L148.963 132.852C148.903 133.212 148.843 133.56 148.783 133.896L149.227 133.728C149.431 134.112 149.683 134.508 149.971 134.88V130.86H151.459ZM161.179 131.988V133.224H155.395V131.988H157.591V130.92H158.971V131.988H161.179ZM159.391 138.636H157.147V140.22H159.391V138.636ZM155.827 142.056V137.4H160.783V142.008H159.391V141.456H157.147V142.056H155.827ZM159.283 133.26L160.627 133.548C160.363 134.208 160.123 134.868 159.919 135.324H161.311V136.62H155.143V135.324H156.511C156.475 134.844 156.295 134.1 156.091 133.548L157.255 133.308C157.507 133.848 157.699 134.568 157.747 135.06L156.619 135.324H159.811L158.791 135.072C158.971 134.568 159.187 133.812 159.283 133.26ZM165.283 131.46L166.327 132.108C165.907 133.272 165.379 134.652 164.899 135.672C165.919 136.752 166.099 137.688 166.099 138.48C166.099 139.356 165.907 139.944 165.451 140.268C165.223 140.424 164.935 140.52 164.635 140.568C164.359 140.604 164.011 140.604 163.675 140.592C163.675 140.208 163.555 139.596 163.327 139.188C163.591 139.212 163.819 139.224 163.999 139.212C164.167 139.2 164.323 139.176 164.443 139.116C164.659 138.984 164.731 138.708 164.731 138.3C164.731 137.652 164.467 136.788 163.507 135.852C163.855 135 164.239 133.776 164.527 132.864H163.075V142.044H161.683V131.52H165.067L165.283 131.46ZM168.571 136.68L167.539 136.332C167.791 135.516 167.971 134.172 168.031 133.2L169.039 133.332C169.015 134.328 168.823 135.756 168.571 136.68ZM173.131 139.272H176.719V138.72H173.131V139.272ZM176.719 137.148H173.131V137.712H176.719V137.148ZM178.063 136.104V140.676C178.063 141.3 177.943 141.636 177.511 141.828C177.091 142.032 176.491 142.032 175.663 142.032C175.615 141.684 175.447 141.168 175.279 140.82C175.771 140.856 176.335 140.844 176.491 140.844C176.659 140.844 176.719 140.796 176.719 140.652V140.256H173.131V142.056H171.811V136.104H178.063ZM175.603 134.628H178.867V135.648H171.007V134.628H174.187V134.112H171.703L171.727 134.172L170.791 134.628C170.707 134.28 170.539 133.776 170.347 133.308V142.032H169.063V130.836H170.347V132.756L171.031 132.468C171.283 132.984 171.559 133.656 171.703 134.1V133.152H174.187V132.672H171.379V131.652H174.187V130.836H175.603V131.652H178.507V132.672H175.603V133.152H178.183V134.112H175.603V134.628ZM183.967 136.5L183.583 136.392C183.715 136.032 183.895 135.516 184.003 135.108H182.179C182.383 135.54 182.551 136.056 182.599 136.392L182.215 136.5H183.967ZM183.751 133.08V133.908H185.755V135.108H184.759L185.227 135.228C185.023 135.672 184.843 136.14 184.675 136.5H185.575V137.7H183.751V138.624H185.443V139.824H183.751V142.008H182.431V139.824H180.643V138.624H182.431V137.7H180.547V136.5H181.447C181.375 136.116 181.219 135.612 181.051 135.216L181.483 135.108H180.295V133.908H182.431V133.08H180.715V131.904H182.431V130.86H183.751V131.904H185.311V133.08H183.751ZM187.267 137.076V140.892C187.699 140.544 188.083 140.136 188.419 139.668C187.951 138.9 187.567 138.024 187.267 137.076ZM189.763 136.584H188.275C188.491 137.244 188.779 137.868 189.127 138.444C189.403 137.868 189.619 137.232 189.763 136.584ZM190.399 135.396L191.251 135.696C191.023 137.148 190.603 138.492 189.991 139.62C190.483 140.16 191.035 140.616 191.659 140.928C191.347 141.192 190.939 141.696 190.735 142.056C190.171 141.72 189.679 141.288 189.235 140.784C188.851 141.276 188.419 141.708 187.927 142.068C187.771 141.828 187.519 141.552 187.267 141.324V142.032H185.971V131.34H190.975V133.596C190.975 134.208 190.843 134.556 190.375 134.748C189.919 134.94 189.271 134.952 188.395 134.952C188.335 134.568 188.155 134.076 187.987 133.728C188.575 133.752 189.235 133.752 189.415 133.752C189.595 133.74 189.655 133.704 189.655 133.572V132.588H187.267V135.456H190.159L190.399 135.396ZM195.427 140.292C197.371 139.488 198.655 138.3 199.531 137.04C200.419 135.756 200.755 134.4 200.947 133.416C201.067 132.864 201.115 132.264 201.103 131.964L203.047 132.24C202.903 132.696 202.771 133.284 202.687 133.632C202.375 135.036 201.895 136.5 201.019 137.844C200.083 139.296 198.751 140.604 196.855 141.528L195.427 140.292ZM193.639 132.816L195.175 132.024C195.775 132.864 196.807 134.7 197.251 135.54L195.667 136.44C195.175 135.372 194.287 133.728 193.639 132.816ZM206.203 137.328V135.444C206.635 135.48 207.511 135.516 208.135 135.516H214.579C215.131 135.516 215.671 135.468 215.983 135.444V137.328C215.695 137.316 215.083 137.268 214.579 137.268H208.135C207.451 137.268 206.647 137.292 206.203 137.328ZM226.125 132.132L227.109 132.864C227.013 132.996 226.797 133.368 226.689 133.608C226.281 134.544 225.609 135.828 224.805 136.908C225.993 137.94 227.445 139.476 228.153 140.34L226.785 141.528C226.005 140.448 224.889 139.224 223.761 138.132C222.489 139.476 220.893 140.724 219.249 141.504L218.013 140.208C219.945 139.476 221.805 138.024 222.933 136.764C223.725 135.864 224.457 134.676 224.721 133.824H220.653C220.149 133.824 219.489 133.896 219.237 133.908V132.204C219.561 132.252 220.293 132.288 220.653 132.288H224.877C225.405 132.288 225.885 132.216 226.125 132.132ZM238.593 132.636L239.421 134.016C239.061 134.232 238.677 134.436 238.245 134.652C237.501 135.024 236.013 135.72 234.933 136.416C233.937 137.064 233.277 137.748 233.277 138.576C233.277 139.428 234.105 139.884 235.749 139.884C236.973 139.884 238.581 139.692 239.637 139.452L239.613 141.168C238.605 141.336 237.345 141.456 235.797 141.456C233.433 141.456 231.645 140.796 231.645 138.756C231.645 137.436 232.473 136.464 233.613 135.624C233.061 134.604 232.485 133.344 231.945 132.084L233.445 131.472C233.901 132.708 234.453 133.848 234.933 134.76C235.905 134.196 236.937 133.668 237.501 133.356C237.945 133.092 238.293 132.888 238.593 132.636ZM247.797 136.44H249.009V135.84H247.797V136.44ZM247.797 134.34V134.916H249.009V134.34H247.797ZM251.649 134.34H250.401V134.916H251.649V134.34ZM251.649 136.44V135.84H250.401V136.44H251.649ZM249.009 140.232V139.116H245.877V137.952H249.009V137.424H246.501V133.344H249.009V132.852H246.021V131.7H249.009V130.848H250.401V131.7H253.545V132.852H250.401V133.344H253.017V137.424H250.401V137.952H253.689V139.116H250.401V140.232H249.009ZM245.817 133.044L244.641 133.944C244.305 133.356 243.513 132.528 242.841 131.952L243.933 131.136C244.605 131.676 245.433 132.468 245.817 133.044ZM245.493 135.492V139.32C245.961 140.124 246.801 140.46 248.025 140.508C249.465 140.568 252.297 140.532 253.953 140.4C253.785 140.736 253.581 141.396 253.509 141.792C252.021 141.864 249.477 141.888 248.013 141.828C246.585 141.768 245.625 141.42 244.905 140.496C244.425 140.964 243.933 141.42 243.321 141.936L242.649 140.52C243.117 140.22 243.657 139.824 244.137 139.416V136.8H242.793V135.492H245.493ZM262.485 133.488V133.02H261.117V133.488H262.485ZM262.485 134.808V134.316H261.117V134.808H262.485ZM262.485 136.152V135.624H261.117V136.152H262.485ZM259.005 135.816L259.185 137.1C258.777 137.232 258.357 137.364 257.937 137.484V140.532C257.937 141.192 257.829 141.552 257.469 141.78C257.097 142.008 256.593 142.056 255.801 142.044C255.765 141.696 255.609 141.108 255.453 140.724C255.873 140.748 256.293 140.748 256.437 140.736C256.581 140.736 256.641 140.688 256.641 140.532V137.88C256.245 138 255.861 138.108 255.501 138.204L255.189 136.836C255.597 136.74 256.101 136.62 256.641 136.476V134.412H255.381V133.104H256.641V130.848H257.937V133.104H259.029V133.2C259.665 132.564 260.193 131.724 260.481 130.824L261.705 131.124C261.597 131.436 261.477 131.736 261.333 132.036H262.677C262.857 131.64 263.025 131.196 263.133 130.848L264.513 131.16C264.345 131.46 264.177 131.76 264.021 132.036H266.145V133.02H263.757V133.488H265.797V134.316H263.757V134.808H265.797V135.624H263.757V136.152H266.253V137.148H259.893V134.148C259.749 134.292 259.605 134.436 259.461 134.556C259.365 134.424 259.197 134.232 259.029 134.04V134.412H257.937V136.116L259.005 135.816ZM264.261 138.588H266.373C266.373 138.588 266.361 138.912 266.325 139.092C266.205 140.604 266.037 141.324 265.725 141.636C265.461 141.888 265.185 141.984 264.801 142.008C264.477 142.044 263.889 142.044 263.301 142.02C263.277 141.648 263.121 141.168 262.905 140.844C263.457 140.904 263.997 140.916 264.237 140.916C264.429 140.916 264.561 140.892 264.657 140.808C264.801 140.676 264.909 140.316 264.993 139.596H264.033C263.997 139.764 263.949 139.92 263.913 140.064L262.701 139.884C262.797 139.56 262.905 139.164 263.001 138.756H262.065C261.753 140.448 260.961 141.444 259.449 142.08C259.293 141.804 258.825 141.288 258.549 141.048C259.785 140.628 260.433 139.92 260.649 138.756H259.221V137.616H263.553V137.628H264.465C264.405 137.94 264.333 138.264 264.261 138.588Z" fill="white"/>
<rect x="91.5" y="176.5" width="49" height="35" rx="3.5" stroke="#1F1F21"/>
<path d="M103.503 195.797C103.503 195.621 103.484 195.465 103.445 195.328C103.409 195.188 103.341 195.061 103.239 194.947C103.138 194.834 102.993 194.723 102.806 194.613C102.622 194.504 102.384 194.393 102.091 194.279C101.755 194.15 101.441 194.01 101.148 193.857C100.859 193.701 100.603 193.525 100.38 193.33C100.161 193.131 99.9895 192.898 99.8645 192.633C99.7395 192.367 99.677 192.059 99.677 191.707C99.677 191.359 99.7375 191.043 99.8586 190.758C99.9836 190.469 100.159 190.221 100.386 190.014C100.616 189.803 100.89 189.641 101.206 189.527C101.523 189.41 101.872 189.352 102.255 189.352C102.806 189.352 103.277 189.469 103.667 189.703C104.062 189.938 104.362 190.252 104.57 190.646C104.78 191.041 104.886 191.479 104.886 191.959H103.468C103.468 191.682 103.425 191.436 103.339 191.221C103.253 191.006 103.12 190.838 102.941 190.717C102.761 190.596 102.529 190.535 102.243 190.535C101.982 190.535 101.765 190.586 101.593 190.688C101.425 190.789 101.3 190.928 101.218 191.104C101.14 191.279 101.101 191.48 101.101 191.707C101.101 191.863 101.134 192.006 101.2 192.135C101.267 192.26 101.362 192.375 101.487 192.48C101.612 192.586 101.765 192.686 101.945 192.779C102.124 192.873 102.331 192.963 102.566 193.049C102.964 193.193 103.312 193.354 103.609 193.529C103.905 193.705 104.15 193.902 104.341 194.121C104.536 194.336 104.681 194.58 104.775 194.854C104.872 195.127 104.921 195.438 104.921 195.785C104.921 196.137 104.861 196.457 104.739 196.746C104.622 197.031 104.45 197.275 104.224 197.479C103.997 197.682 103.724 197.84 103.404 197.953C103.083 198.062 102.724 198.117 102.325 198.117C101.958 198.117 101.605 198.062 101.265 197.953C100.929 197.844 100.628 197.678 100.362 197.455C100.097 197.229 99.8859 196.945 99.7297 196.605C99.5773 196.266 99.5012 195.867 99.5012 195.41H100.925C100.925 195.684 100.958 195.918 101.025 196.113C101.091 196.305 101.187 196.463 101.312 196.588C101.441 196.709 101.591 196.799 101.763 196.857C101.939 196.912 102.134 196.939 102.349 196.939C102.614 196.939 102.831 196.893 102.999 196.799C103.171 196.701 103.298 196.566 103.38 196.395C103.462 196.223 103.503 196.023 103.503 195.797ZM111.55 196.811V198H107.847V196.811H111.55ZM108.222 189.469V198H106.798V189.469H108.222ZM111.052 193.02V194.191H107.847V193.02H111.052ZM111.515 189.469V190.664H107.847V189.469H111.515ZM119.117 193.037V194.49C119.117 195.092 119.047 195.619 118.906 196.072C118.77 196.525 118.57 196.904 118.309 197.209C118.051 197.51 117.738 197.736 117.371 197.889C117.008 198.041 116.602 198.117 116.152 198.117C115.707 198.117 115.301 198.041 114.934 197.889C114.57 197.736 114.256 197.51 113.99 197.209C113.729 196.904 113.525 196.525 113.381 196.072C113.24 195.619 113.17 195.092 113.17 194.49V193.037C113.17 192.428 113.24 191.895 113.381 191.438C113.521 190.977 113.723 190.592 113.984 190.283C114.25 189.975 114.564 189.742 114.928 189.586C115.295 189.43 115.699 189.352 116.141 189.352C116.59 189.352 116.996 189.43 117.359 189.586C117.727 189.742 118.041 189.975 118.303 190.283C118.564 190.592 118.766 190.977 118.906 191.438C119.047 191.895 119.117 192.428 119.117 193.037ZM117.705 194.49V193.025C117.705 192.592 117.67 192.221 117.6 191.912C117.533 191.6 117.434 191.346 117.301 191.15C117.168 190.951 117.004 190.805 116.809 190.711C116.617 190.613 116.395 190.564 116.141 190.564C115.895 190.564 115.674 190.613 115.479 190.711C115.287 190.805 115.123 190.951 114.986 191.15C114.854 191.346 114.752 191.6 114.682 191.912C114.615 192.221 114.582 192.592 114.582 193.025V194.49C114.582 194.916 114.617 195.283 114.687 195.592C114.758 195.896 114.859 196.146 114.992 196.342C115.129 196.533 115.295 196.676 115.49 196.77C115.686 196.863 115.906 196.91 116.152 196.91C116.402 196.91 116.625 196.863 116.82 196.77C117.016 196.676 117.178 196.533 117.307 196.342C117.439 196.146 117.539 195.896 117.605 195.592C117.672 195.283 117.705 194.916 117.705 194.49ZM125.746 193.02V194.414C125.746 195.082 125.688 195.652 125.571 196.125C125.457 196.594 125.295 196.975 125.084 197.268C124.877 197.561 124.627 197.775 124.334 197.912C124.045 198.049 123.723 198.117 123.368 198.117C123.086 198.117 122.823 198.074 122.577 197.988C122.33 197.902 122.108 197.768 121.909 197.584C121.713 197.4 121.545 197.164 121.405 196.875C121.268 196.582 121.161 196.232 121.082 195.826C121.008 195.42 120.971 194.949 120.971 194.414V193.02C120.971 192.348 121.03 191.781 121.147 191.32C121.264 190.855 121.428 190.479 121.639 190.189C121.85 189.896 122.1 189.684 122.389 189.551C122.682 189.418 123.006 189.352 123.362 189.352C123.643 189.352 123.907 189.395 124.153 189.48C124.399 189.562 124.62 189.693 124.815 189.873C125.01 190.053 125.178 190.287 125.319 190.576C125.459 190.861 125.565 191.207 125.635 191.613C125.709 192.016 125.746 192.484 125.746 193.02ZM124.387 194.619V192.803C124.387 192.467 124.371 192.17 124.34 191.912C124.309 191.654 124.266 191.436 124.211 191.256C124.157 191.076 124.086 190.932 124 190.822C123.918 190.709 123.823 190.627 123.713 190.576C123.608 190.521 123.491 190.494 123.362 190.494C123.202 190.494 123.057 190.535 122.928 190.617C122.803 190.699 122.696 190.832 122.606 191.016C122.52 191.195 122.454 191.434 122.407 191.73C122.36 192.023 122.336 192.381 122.336 192.803V194.619C122.336 194.959 122.352 195.258 122.383 195.516C122.414 195.773 122.459 195.996 122.518 196.184C122.577 196.367 122.647 196.518 122.729 196.635C122.811 196.748 122.905 196.832 123.01 196.887C123.12 196.941 123.239 196.969 123.368 196.969C123.532 196.969 123.676 196.926 123.801 196.84C123.93 196.754 124.037 196.619 124.123 196.436C124.209 196.248 124.274 196.004 124.317 195.703C124.364 195.402 124.387 195.041 124.387 194.619ZM130.964 189.439V198H129.598V191.15L127.899 191.854V190.664L130.8 189.439H130.964Z" fill="#1F1F21"/>
<rect x="148.5" y="176.5" width="49" height="35" rx="3.5" stroke="#1F1F21"/>
<path d="M160.503 195.797C160.503 195.621 160.484 195.465 160.445 195.328C160.409 195.188 160.341 195.061 160.239 194.947C160.138 194.834 159.993 194.723 159.806 194.613C159.622 194.504 159.384 194.393 159.091 194.279C158.755 194.15 158.441 194.01 158.148 193.857C157.859 193.701 157.603 193.525 157.38 193.33C157.161 193.131 156.989 192.898 156.864 192.633C156.739 192.367 156.677 192.059 156.677 191.707C156.677 191.359 156.737 191.043 156.859 190.758C156.984 190.469 157.159 190.221 157.386 190.014C157.616 189.803 157.89 189.641 158.206 189.527C158.523 189.41 158.872 189.352 159.255 189.352C159.806 189.352 160.277 189.469 160.667 189.703C161.062 189.938 161.362 190.252 161.57 190.646C161.78 191.041 161.886 191.479 161.886 191.959H160.468C160.468 191.682 160.425 191.436 160.339 191.221C160.253 191.006 160.12 190.838 159.941 190.717C159.761 190.596 159.529 190.535 159.243 190.535C158.982 190.535 158.765 190.586 158.593 190.688C158.425 190.789 158.3 190.928 158.218 191.104C158.14 191.279 158.101 191.48 158.101 191.707C158.101 191.863 158.134 192.006 158.2 192.135C158.267 192.26 158.362 192.375 158.487 192.48C158.612 192.586 158.765 192.686 158.945 192.779C159.124 192.873 159.331 192.963 159.566 193.049C159.964 193.193 160.312 193.354 160.609 193.529C160.905 193.705 161.15 193.902 161.341 194.121C161.536 194.336 161.681 194.58 161.775 194.854C161.872 195.127 161.921 195.438 161.921 195.785C161.921 196.137 161.861 196.457 161.739 196.746C161.622 197.031 161.45 197.275 161.224 197.479C160.997 197.682 160.724 197.84 160.404 197.953C160.083 198.062 159.724 198.117 159.325 198.117C158.958 198.117 158.605 198.062 158.265 197.953C157.929 197.844 157.628 197.678 157.362 197.455C157.097 197.229 156.886 196.945 156.73 196.605C156.577 196.266 156.501 195.867 156.501 195.41H157.925C157.925 195.684 157.958 195.918 158.025 196.113C158.091 196.305 158.187 196.463 158.312 196.588C158.441 196.709 158.591 196.799 158.763 196.857C158.939 196.912 159.134 196.939 159.349 196.939C159.614 196.939 159.831 196.893 159.999 196.799C160.171 196.701 160.298 196.566 160.38 196.395C160.462 196.223 160.503 196.023 160.503 195.797ZM168.55 196.811V198H164.847V196.811H168.55ZM165.222 189.469V198H163.798V189.469H165.222ZM168.052 193.02V194.191H164.847V193.02H168.052ZM168.515 189.469V190.664H164.847V189.469H168.515ZM176.117 193.037V194.49C176.117 195.092 176.047 195.619 175.906 196.072C175.77 196.525 175.57 196.904 175.309 197.209C175.051 197.51 174.738 197.736 174.371 197.889C174.008 198.041 173.602 198.117 173.152 198.117C172.707 198.117 172.301 198.041 171.934 197.889C171.57 197.736 171.256 197.51 170.99 197.209C170.729 196.904 170.525 196.525 170.381 196.072C170.24 195.619 170.17 195.092 170.17 194.49V193.037C170.17 192.428 170.24 191.895 170.381 191.438C170.521 190.977 170.723 190.592 170.984 190.283C171.25 189.975 171.564 189.742 171.928 189.586C172.295 189.43 172.699 189.352 173.141 189.352C173.59 189.352 173.996 189.43 174.359 189.586C174.727 189.742 175.041 189.975 175.303 190.283C175.564 190.592 175.766 190.977 175.906 191.438C176.047 191.895 176.117 192.428 176.117 193.037ZM174.705 194.49V193.025C174.705 192.592 174.67 192.221 174.6 191.912C174.533 191.6 174.434 191.346 174.301 191.15C174.168 190.951 174.004 190.805 173.809 190.711C173.617 190.613 173.395 190.564 173.141 190.564C172.895 190.564 172.674 190.613 172.479 190.711C172.287 190.805 172.123 190.951 171.986 191.15C171.854 191.346 171.752 191.6 171.682 191.912C171.615 192.221 171.582 192.592 171.582 193.025V194.49C171.582 194.916 171.617 195.283 171.687 195.592C171.758 195.896 171.859 196.146 171.992 196.342C172.129 196.533 172.295 196.676 172.49 196.77C172.686 196.863 172.906 196.91 173.152 196.91C173.402 196.91 173.625 196.863 173.82 196.77C174.016 196.676 174.178 196.533 174.307 196.342C174.439 196.146 174.539 195.896 174.605 195.592C174.672 195.283 174.705 194.916 174.705 194.49ZM182.746 193.02V194.414C182.746 195.082 182.688 195.652 182.571 196.125C182.457 196.594 182.295 196.975 182.084 197.268C181.877 197.561 181.627 197.775 181.334 197.912C181.045 198.049 180.723 198.117 180.368 198.117C180.086 198.117 179.823 198.074 179.577 197.988C179.33 197.902 179.108 197.768 178.909 197.584C178.713 197.4 178.545 197.164 178.405 196.875C178.268 196.582 178.161 196.232 178.082 195.826C178.008 195.42 177.971 194.949 177.971 194.414V193.02C177.971 192.348 178.03 191.781 178.147 191.32C178.264 190.855 178.428 190.479 178.639 190.189C178.85 189.896 179.1 189.684 179.389 189.551C179.682 189.418 180.006 189.352 180.362 189.352C180.643 189.352 180.907 189.395 181.153 189.48C181.399 189.562 181.62 189.693 181.815 189.873C182.01 190.053 182.178 190.287 182.319 190.576C182.459 190.861 182.565 191.207 182.635 191.613C182.709 192.016 182.746 192.484 182.746 193.02ZM181.387 194.619V192.803C181.387 192.467 181.371 192.17 181.34 191.912C181.309 191.654 181.266 191.436 181.211 191.256C181.157 191.076 181.086 190.932 181 190.822C180.918 190.709 180.823 190.627 180.713 190.576C180.608 190.521 180.491 190.494 180.362 190.494C180.202 190.494 180.057 190.535 179.928 190.617C179.803 190.699 179.696 190.832 179.606 191.016C179.52 191.195 179.454 191.434 179.407 191.73C179.36 192.023 179.336 192.381 179.336 192.803V194.619C179.336 194.959 179.352 195.258 179.383 195.516C179.414 195.773 179.459 195.996 179.518 196.184C179.577 196.367 179.647 196.518 179.729 196.635C179.811 196.748 179.905 196.832 180.01 196.887C180.12 196.941 180.239 196.969 180.368 196.969C180.532 196.969 180.676 196.926 180.801 196.84C180.93 196.754 181.037 196.619 181.123 196.436C181.209 196.248 181.274 196.004 181.317 195.703C181.364 195.402 181.387 195.041 181.387 194.619ZM189.487 196.852V198H184.577V197.01L186.903 193.992C187.157 193.652 187.352 193.359 187.489 193.113C187.63 192.863 187.727 192.639 187.782 192.439C187.837 192.24 187.864 192.045 187.864 191.854C187.864 191.588 187.827 191.354 187.753 191.15C187.682 190.947 187.577 190.789 187.436 190.676C187.296 190.559 187.124 190.5 186.921 190.5C186.667 190.5 186.458 190.568 186.294 190.705C186.13 190.838 186.009 191.023 185.93 191.262C185.852 191.496 185.813 191.766 185.813 192.07H184.448C184.448 191.574 184.544 191.119 184.735 190.705C184.93 190.291 185.214 189.963 185.585 189.721C185.956 189.475 186.407 189.352 186.938 189.352C187.43 189.352 187.846 189.447 188.186 189.639C188.53 189.83 188.79 190.102 188.966 190.453C189.145 190.805 189.235 191.223 189.235 191.707C189.235 191.973 189.198 192.238 189.124 192.504C189.054 192.766 188.954 193.025 188.825 193.283C188.696 193.541 188.54 193.801 188.356 194.062C188.177 194.324 187.977 194.59 187.759 194.859L186.288 196.852H189.487Z" fill="#1F1F21"/>
<rect x="205.5" y="176.5" width="53" height="35" rx="3.5" stroke="#1F1F21"/>
<path d="M231.1 184.596H226.24V186.06H230.044V190.188C230.044 190.776 229.912 191.1 229.48 191.28C229.024 191.46 228.352 191.472 227.38 191.472C227.32 191.136 227.164 190.668 226.996 190.368C227.716 190.404 228.424 190.404 228.628 190.392C228.832 190.38 228.892 190.332 228.892 190.164V187.152H226.24V192.972H225.088V187.152H222.628V191.496H221.512V186.06H225.088V184.596H220.324V183.516H225.076V181.872H226.264V183.516H231.1V184.596ZM241.948 183.84V183.06H238.444V183.84H241.948ZM241.948 185.388V184.596H238.444V185.388H241.948ZM242.98 182.256V186.192H237.436V182.256H242.98ZM236.404 188.148L236.644 189.132C235.444 189.744 234.148 190.392 233.14 190.872L232.708 189.756C233.14 189.588 233.68 189.36 234.268 189.108V185.532H232.948V184.476H234.268V182.052H235.3V184.476H236.512V185.532H235.3V188.652C235.66 188.484 236.032 188.316 236.404 188.148ZM243.82 187.716H238.972C238.84 187.968 238.696 188.208 238.528 188.436H243.544C243.544 188.436 243.532 188.712 243.52 188.856C243.328 191.256 243.148 192.192 242.824 192.552C242.62 192.78 242.392 192.852 242.104 192.888C241.828 192.912 241.384 192.924 240.904 192.9C240.892 192.636 240.796 192.24 240.652 192C241.06 192.048 241.432 192.048 241.588 192.048C241.768 192.048 241.864 192.036 241.96 191.916C242.14 191.712 242.296 191.028 242.44 189.336H241.72C241.24 190.728 240.304 192.228 239.308 192.984C239.128 192.78 238.78 192.516 238.504 192.36C239.44 191.736 240.28 190.548 240.784 189.336H239.836C239.188 190.524 238.048 191.796 236.98 192.468C236.812 192.24 236.5 191.964 236.236 191.796C237.184 191.292 238.168 190.332 238.828 189.336H237.82C237.364 189.84 236.86 190.272 236.344 190.62C236.188 190.44 235.804 190.08 235.588 189.924C236.488 189.408 237.304 188.628 237.856 187.716H236.32V186.768H243.82V187.716ZM223.816 197.84L223.024 198.176C222.784 197.696 222.4 196.976 222.076 196.52L222.844 196.196C223.144 196.628 223.576 197.372 223.816 197.84ZM220.984 198.296H216.94C216.532 198.296 216.088 198.32 215.764 198.344V197.108C216.124 197.156 216.544 197.18 216.928 197.18H220.984C221.356 197.18 221.812 197.156 222.184 197.108V198.344C221.8 198.32 221.368 198.296 220.984 198.296ZM215.44 200.204H223.288C223.54 200.204 223.996 200.192 224.296 200.144V201.38C224.02 201.368 223.6 201.356 223.288 201.356H220.204C220.156 202.628 219.916 203.684 219.46 204.548C219.028 205.364 218.116 206.252 217.084 206.792L215.968 205.976C216.856 205.616 217.72 204.92 218.188 204.188C218.704 203.384 218.872 202.424 218.908 201.356H215.44C215.08 201.356 214.684 201.368 214.348 201.392V200.144C214.696 200.18 215.068 200.204 215.44 200.204ZM223.432 196.016L224.2 195.692C224.524 196.136 224.98 196.88 225.196 197.324L224.416 197.66C224.164 197.144 223.768 196.46 223.432 196.016ZM227.176 202.124V200.648C227.56 200.684 228.304 200.72 228.952 200.72H235.468C236.056 200.72 236.524 200.672 236.812 200.648V202.124C236.548 202.112 236.008 202.076 235.48 202.076H228.952C228.28 202.076 227.572 202.1 227.176 202.124ZM248.236 197.72L249.208 198.32C249.1 198.524 248.956 198.824 248.872 199.064C248.572 200.06 247.984 201.332 247.168 202.508C247.612 202.796 248.02 203.06 248.32 203.276L247.48 204.38C247.192 204.14 246.796 203.852 246.34 203.54C245.272 204.752 243.808 205.868 241.768 206.648L240.676 205.688C242.788 205.052 244.252 203.96 245.296 202.844C244.408 202.268 243.484 201.704 242.836 201.344L243.628 200.444C244.3 200.792 245.224 201.32 246.1 201.848C246.76 200.9 247.3 199.772 247.516 198.932H243.7C242.908 200.024 241.828 201.176 240.544 202.052L239.512 201.272C241.6 199.988 242.788 198.248 243.352 197.18C243.508 196.94 243.724 196.448 243.808 196.1L245.176 196.532C244.948 196.892 244.684 197.348 244.564 197.588L244.42 197.852H247.336C247.672 197.852 248.008 197.804 248.236 197.72Z" fill="#1F1F21"/>
<rect x="269.5" y="176.5" width="40" height="35" rx="3.5" stroke="#1F1F21"/>
<path d="M281.472 184.62V183.3H279.336V184.62H281.472ZM281.472 186.828V185.484H279.336V186.828H281.472ZM281.472 189.036V187.668H279.336V189.036H281.472ZM282.564 182.388V189.936H278.28V182.388H282.564ZM279.06 190.128L280.128 190.392C279.756 191.364 279.132 192.348 278.496 192.96C278.292 192.78 277.848 192.456 277.608 192.3C278.22 191.772 278.772 190.956 279.06 190.128ZM280.716 190.524L281.628 190.116C282.132 190.692 282.684 191.484 282.924 192.024L281.976 192.516C281.736 191.964 281.208 191.124 280.716 190.524ZM288.732 184.74V185.784H287.304V191.616C287.304 192.216 287.16 192.54 286.8 192.732C286.428 192.9 285.852 192.948 284.976 192.948C284.928 192.648 284.748 192.156 284.58 191.856C285.204 191.88 285.768 191.88 285.936 191.868C286.128 191.868 286.2 191.808 286.2 191.616V187.212C285.432 188.772 284.436 190.176 283.356 191.052C283.176 190.812 282.84 190.44 282.588 190.248C283.872 189.324 285.06 187.572 285.792 185.784H282.9V184.74H286.2V181.968H287.304V184.74H288.732ZM298.212 188.592H300.948C300.948 188.592 300.936 188.88 300.912 189.036C300.708 191.184 300.492 192.108 300.156 192.468C299.916 192.708 299.676 192.78 299.352 192.828C299.052 192.852 298.56 192.852 298.02 192.828C297.996 192.516 297.876 192.084 297.72 191.796C298.188 191.844 298.632 191.856 298.836 191.856C299.016 191.856 299.112 191.832 299.22 191.724C299.424 191.544 299.592 190.932 299.748 189.528H298.008C297.6 191.004 296.76 192.204 294.864 192.948C294.732 192.684 294.432 192.276 294.204 192.084C295.764 191.52 296.496 190.62 296.868 189.528H295.188V188.592H297.108C297.168 188.22 297.216 187.848 297.252 187.452H298.356C298.32 187.848 298.272 188.22 298.212 188.592ZM299.112 184.092H296.892C297.204 184.584 297.612 185.016 298.104 185.412C298.524 185.04 298.86 184.596 299.112 184.092ZM301.164 184.092H300.336C300.012 184.848 299.556 185.484 299.004 186.012C299.712 186.42 300.54 186.72 301.428 186.912C301.2 187.128 300.876 187.56 300.732 187.848C299.772 187.596 298.896 187.212 298.128 186.696C297.396 187.176 296.532 187.536 295.596 187.824C295.536 187.692 295.416 187.512 295.284 187.332C295.08 188.04 294.852 188.748 294.624 189.264L293.856 188.88C294.048 188.412 294.228 187.74 294.384 187.08H293.46V191.688C293.46 192.228 293.376 192.528 293.016 192.72C292.668 192.876 292.176 192.9 291.432 192.9C291.396 192.6 291.252 192.144 291.108 191.844C291.588 191.868 292.068 191.868 292.212 191.856C292.356 191.844 292.404 191.82 292.404 191.676V188.424C291.96 189.456 291.396 190.428 290.784 191.028C290.676 190.704 290.412 190.248 290.22 189.96C290.94 189.324 291.624 188.184 292.056 187.08H290.388V186.108H293.448C292.788 185.628 291.744 185.064 290.88 184.692L291.576 183.972C291.912 184.104 292.296 184.272 292.656 184.452C293.028 184.164 293.388 183.804 293.688 183.444H290.532V182.496H294.48L294.66 182.46L295.38 182.904C294.936 183.612 294.216 184.356 293.508 184.908C293.892 185.124 294.216 185.352 294.468 185.544L293.952 186.108H294.696L294.864 186.048L295.536 186.288C295.5 186.444 295.464 186.6 295.428 186.768C296.112 186.576 296.724 186.324 297.264 186.012C296.856 185.628 296.496 185.208 296.196 184.752C295.956 185.016 295.716 185.244 295.476 185.448C295.26 185.268 294.828 184.956 294.552 184.812C295.5 184.128 296.352 183.048 296.832 181.92L297.876 182.208C297.732 182.532 297.564 182.844 297.384 183.156H301.164V184.092ZM278.388 201.608L277.548 201.332C277.8 200.528 277.992 199.196 278.064 198.248L278.868 198.356C278.832 199.304 278.64 200.708 278.388 201.608ZM281.412 199.316L280.656 199.676C280.536 199.256 280.284 198.548 280.044 197.996V206.936H279.024V195.932H280.044V197.9L280.74 197.624C280.992 198.164 281.304 198.872 281.412 199.316ZM282.768 204.32H286.74V203.576H282.768V204.32ZM286.74 202.004H282.768V202.748H286.74V202.004ZM287.796 201.164V205.796C287.796 206.3 287.688 206.588 287.328 206.744C286.956 206.9 286.392 206.912 285.564 206.912C285.516 206.636 285.372 206.216 285.24 205.952C285.792 205.988 286.368 205.976 286.524 205.976C286.692 205.964 286.74 205.916 286.74 205.772V205.124H282.768V206.936H281.736V201.164H287.796ZM285.288 199.748H288.684V200.576H280.896V199.748H284.184V199.052H281.556V198.272H284.184V197.648H281.268V196.82H284.184V195.932H285.288V196.82H288.324V197.648H285.288V198.272H288.012V199.052H285.288V199.748ZM293.976 201.56L293.568 201.452C293.736 201.044 293.952 200.444 294.072 200.012H291.996C292.212 200.48 292.416 201.068 292.464 201.452L292.068 201.56H293.976ZM293.544 198.02V199.064H295.644V200.012H294.528L295.044 200.144C294.84 200.648 294.624 201.176 294.432 201.56H295.5V202.52H293.544V203.648H295.344V204.596H293.544V206.912H292.5V204.596H290.616V203.648H292.5V202.52H290.508V201.56H291.552C291.492 201.152 291.312 200.588 291.096 200.144L291.588 200.012H290.304V199.064H292.5V198.02H290.736V197.084H292.5V195.956H293.544V197.084H295.2V198.02H293.544ZM296.976 201.428V206.108C297.528 205.724 297.996 205.232 298.404 204.668C297.792 203.72 297.324 202.616 296.976 201.428ZM299.832 201.428H297.912C298.176 202.244 298.536 203.024 298.98 203.732C299.364 203.012 299.64 202.232 299.832 201.428ZM300.336 200.468L301.02 200.72C300.78 202.148 300.324 203.492 299.664 204.632C300.18 205.232 300.78 205.724 301.452 206.06C301.212 206.264 300.876 206.672 300.708 206.948C300.096 206.588 299.544 206.108 299.052 205.532C298.632 206.084 298.14 206.564 297.588 206.96C297.444 206.756 297.204 206.492 296.976 206.312V206.948H295.968V196.46H300.744V198.728C300.744 199.244 300.636 199.532 300.216 199.688C299.82 199.844 299.208 199.844 298.308 199.844C298.26 199.556 298.116 199.148 297.972 198.884C298.656 198.908 299.292 198.908 299.472 198.896C299.652 198.884 299.7 198.848 299.7 198.716V197.444H296.976V200.516H300.156L300.336 200.468Z" fill="#1F1F21"/>
<defs>
<clipPath id="clip0_12_3093">
<rect width="50" height="24" fill="white" transform="translate(180 64)"/>
</clipPath>
</defs>
</svg>
