<svg width="292" height="195" viewBox="0 0 292 195" fill="none" xmlns="http://www.w3.org/2000/svg">
<line y1="194" x2="292" y2="194" stroke="#BFC8D9" stroke-width="2"/>
<path d="M81 65L75.2265 75H86.7735L81 65ZM81 129L86.7735 119H75.2265L81 129ZM81 74H80V120H81H82V74H81Z" fill="black"/>
<path d="M81 1L75.2265 11H86.7735L81 1ZM81 65L86.7735 55H75.2265L81 65ZM81 10H80V56H81H82V10H81Z" fill="black"/>
<rect x="41" y="85" width="80" height="24" rx="4" fill="#1F1F21"/>
<path d="M69.464 102.188H72.768V103.77H64.06V102.188H67.798V99.388H65.096V97.834H67.798V95.538H66.258C66.048 96.266 65.768 96.938 65.474 97.47C65.138 97.26 64.382 96.882 63.99 96.714C64.13 96.462 64.27 96.196 64.41 95.902L63.612 96.266C63.528 95.846 63.318 95.23 63.08 94.656V104.218H61.414V94.208C61.33 95.384 61.106 96.924 60.784 97.918L59.552 97.47C59.888 96.546 60.14 94.978 60.238 93.83L61.414 93.998V91.142H63.08V93.788L63.892 93.452C64.172 93.998 64.466 94.67 64.662 95.216C65.012 94.194 65.264 92.99 65.404 91.8L67.028 92.024C66.93 92.682 66.818 93.34 66.678 93.97H67.798V91.226H69.464V93.97H72.32V95.538H69.464V97.834H72.026V99.388H69.464V102.188ZM85.634 97.428H83.702C82.064 97.428 81.672 96.938 81.672 95.398V91.184H83.324V93.186C84.262 92.822 85.186 92.388 85.844 92.024L86.908 93.228C85.858 93.732 84.542 94.18 83.324 94.544V95.37C83.324 95.874 83.408 95.93 83.94 95.93H85.466C85.914 95.93 86.012 95.72 86.068 94.502C86.404 94.754 87.09 95.02 87.538 95.118C87.356 96.91 86.922 97.428 85.634 97.428ZM76.828 100.326H78.928V99.5H76.828V100.326ZM78.928 97.54H76.828V98.268H78.928V97.54ZM80.566 96.168V102.524C80.566 103.252 80.426 103.658 79.964 103.896C79.488 104.162 78.844 104.176 78.004 104.176C77.92 103.742 77.682 103.098 77.472 102.706C77.962 102.734 78.522 102.72 78.704 102.706C78.872 102.706 78.928 102.664 78.928 102.496V101.558H76.828V104.204H75.288V96.168H80.566ZM78.466 92.598L79.866 92.066C80.552 93.074 81.294 94.404 81.56 95.314L80.034 95.93C79.978 95.706 79.894 95.454 79.782 95.188C77.934 95.314 76.03 95.426 74.602 95.51L74.462 93.928C74.798 93.928 75.162 93.914 75.554 93.9C75.946 93.018 76.338 91.94 76.576 91.086L78.312 91.436C77.99 92.248 77.612 93.088 77.262 93.83L79.124 93.746C78.914 93.354 78.69 92.962 78.466 92.598ZM83.954 102.664H85.55C86.026 102.664 86.124 102.398 86.194 100.984C86.544 101.236 87.216 101.488 87.65 101.6C87.468 103.574 87.048 104.12 85.704 104.12H83.716C82.078 104.12 81.672 103.644 81.672 102.104V97.708H83.31V99.598C84.304 99.192 85.27 98.73 85.942 98.282L87.048 99.5C85.97 100.088 84.584 100.592 83.31 100.984V102.104C83.31 102.594 83.408 102.664 83.954 102.664ZM97.772 100.718V102.468H101.706V103.91H92.27V102.468H96.064V100.718H93.614V99.29H100.74V100.718H97.772ZM96.526 97.078H101.916V98.534H93.81C93.194 101.012 92.06 102.972 90.464 104.204C90.17 103.896 89.456 103.308 89.05 103.056C90.52 102.09 91.5 100.48 92.004 98.534H89.47V97.078H94.818V96.336H90.8V94.964H94.818V94.222H90.072V92.78H92.508C92.326 92.43 92.102 92.038 91.864 91.73L93.306 91.17C93.698 91.632 94.09 92.29 94.258 92.738L94.16 92.78H97.128C97.422 92.304 97.758 91.604 97.926 91.128L99.746 91.562C99.452 92.01 99.158 92.43 98.892 92.78H101.412V94.222H96.526V94.964H100.67V96.336H96.526V97.078Z" fill="white"/>
<rect x="41" y="21" width="80" height="24" rx="4" fill="#1F1F21"/>
<path d="M62.114 38.188H65.418V39.77H56.71V38.188H60.448V35.388H57.746V33.834H60.448V31.538H58.908C58.698 32.266 58.418 32.938 58.124 33.47C57.788 33.26 57.032 32.882 56.64 32.714C56.78 32.462 56.92 32.196 57.06 31.902L56.262 32.266C56.178 31.846 55.968 31.23 55.73 30.656V40.218H54.064V30.208C53.98 31.384 53.756 32.924 53.434 33.918L52.202 33.47C52.538 32.546 52.79 30.978 52.888 29.83L54.064 29.998V27.142H55.73V29.788L56.542 29.452C56.822 29.998 57.116 30.67 57.312 31.216C57.662 30.194 57.914 28.99 58.054 27.8L59.678 28.024C59.58 28.682 59.468 29.34 59.328 29.97H60.448V27.226H62.114V29.97H64.97V31.538H62.114V33.834H64.676V35.388H62.114V38.188ZM78.284 33.428H76.352C74.714 33.428 74.322 32.938 74.322 31.398V27.184H75.974V29.186C76.912 28.822 77.836 28.388 78.494 28.024L79.558 29.228C78.508 29.732 77.192 30.18 75.974 30.544V31.37C75.974 31.874 76.058 31.93 76.59 31.93H78.116C78.564 31.93 78.662 31.72 78.718 30.502C79.054 30.754 79.74 31.02 80.188 31.118C80.006 32.91 79.572 33.428 78.284 33.428ZM69.478 36.326H71.578V35.5H69.478V36.326ZM71.578 33.54H69.478V34.268H71.578V33.54ZM73.216 32.168V38.524C73.216 39.252 73.076 39.658 72.614 39.896C72.138 40.162 71.494 40.176 70.654 40.176C70.57 39.742 70.332 39.098 70.122 38.706C70.612 38.734 71.172 38.72 71.354 38.706C71.522 38.706 71.578 38.664 71.578 38.496V37.558H69.478V40.204H67.938V32.168H73.216ZM71.116 28.598L72.516 28.066C73.202 29.074 73.944 30.404 74.21 31.314L72.684 31.93C72.628 31.706 72.544 31.454 72.432 31.188C70.584 31.314 68.68 31.426 67.252 31.51L67.112 29.928C67.448 29.928 67.812 29.914 68.204 29.9C68.596 29.018 68.988 27.94 69.226 27.086L70.962 27.436C70.64 28.248 70.262 29.088 69.912 29.83L71.774 29.746C71.564 29.354 71.34 28.962 71.116 28.598ZM76.604 38.664H78.2C78.676 38.664 78.774 38.398 78.844 36.984C79.194 37.236 79.866 37.488 80.3 37.6C80.118 39.574 79.698 40.12 78.354 40.12H76.366C74.728 40.12 74.322 39.644 74.322 38.104V33.708H75.96V35.598C76.954 35.192 77.92 34.73 78.592 34.282L79.698 35.5C78.62 36.088 77.234 36.592 75.96 36.984V38.104C75.96 38.594 76.058 38.664 76.604 38.664ZM86.25 33.162L86.432 34.646C86.026 34.772 85.606 34.884 85.186 35.01V38.342C85.186 39.168 85.046 39.616 84.598 39.868C84.136 40.148 83.478 40.204 82.512 40.204C82.47 39.756 82.26 39.042 82.05 38.58C82.596 38.608 83.17 38.608 83.352 38.594C83.52 38.594 83.59 38.538 83.59 38.328V35.458L82.036 35.878L81.686 34.268C82.218 34.156 82.876 34.002 83.59 33.834V31.314H81.966V29.788H83.59V27.156H85.186V29.788H86.264V31.314H85.186V33.442L86.25 33.162ZM88.294 30.88V32.616C88.294 34.8 88.028 38.09 86.544 40.176C86.264 39.896 85.578 39.434 85.2 39.252C86.572 37.348 86.712 34.562 86.712 32.602V29.368H89.918V27.156H91.57V29.368H94.664V30.88H88.294ZM95.028 39.644L93.474 40.162C93.418 39.784 93.32 39.35 93.194 38.888C91.346 39.098 89.414 39.322 87.972 39.476L87.692 37.936L88.77 37.852C89.26 36.074 89.75 33.54 89.974 31.58L91.71 31.846C91.36 33.82 90.856 36.032 90.38 37.712C91.15 37.628 91.962 37.558 92.76 37.474C92.466 36.606 92.102 35.71 91.724 34.912L93.138 34.464C93.978 36.116 94.79 38.244 95.028 39.644ZM109.266 32.616H104.338C105.262 35.346 106.956 37.544 109.574 38.608C109.154 38.958 108.608 39.7 108.342 40.176C105.808 38.986 104.184 36.942 103.092 34.24C102.336 36.578 100.824 38.762 97.856 40.19C97.59 39.728 97.1 39.126 96.61 38.776C99.816 37.348 101.146 35.024 101.692 32.616H96.876V30.894H101.972C102.112 29.578 102.098 28.304 102.112 27.156H103.932C103.918 28.304 103.904 29.592 103.764 30.894H109.266V32.616Z" fill="white"/>
<rect x="154" y="129" width="114" height="64" fill="#BFC8D9"/>
<rect x="24" y="129" width="114" height="64" fill="#BFC8D9"/>
<path d="M172.341 155.156L173.811 155.73C172.929 156.934 171.627 158.292 170.465 159.146C170.255 158.81 169.849 158.222 169.597 157.928C170.591 157.228 171.753 156.066 172.341 155.156ZM172.593 158.138L174.049 158.684C173.741 159.244 173.377 159.818 172.985 160.378V168.246H171.431V162.254C171.067 162.646 170.703 162.982 170.339 163.29C170.185 162.926 169.737 162.086 169.471 161.736C170.633 160.854 171.865 159.496 172.593 158.138ZM179.327 163.612V166.37C179.705 166.426 180.111 166.454 180.517 166.454C180.895 166.468 182.351 166.454 182.841 166.454C182.617 166.818 182.421 167.588 182.351 168.008H180.391C178.473 168.008 176.905 167.546 175.799 165.852C175.463 166.804 175.001 167.616 174.371 168.274C174.133 167.98 173.475 167.392 173.097 167.14C174.385 165.922 174.791 163.85 174.903 161.414L176.569 161.526C176.513 162.352 176.429 163.122 176.303 163.85C176.653 164.732 177.129 165.334 177.703 165.74V159.916H174.413V158.334H176.331C176.023 157.592 175.491 156.584 175.015 155.842L176.387 155.24C176.961 156.066 177.577 157.158 177.871 157.9L176.975 158.334H180.321L179.243 157.928C179.691 157.186 180.251 156.024 180.545 155.142L182.169 155.702C181.707 156.64 181.203 157.62 180.769 158.334H182.449V159.916H179.327V162.086H182.071V163.612H179.327ZM189.323 158.264H187.041C187.531 159.02 188.049 160.014 188.231 160.7L186.901 161.218H189.323V158.264ZM193.453 158.264H191.087V161.218H193.439L192.263 160.812C192.669 160.126 193.173 159.076 193.453 158.264ZM196.463 162.814H192.081C193.285 164.27 195.077 165.614 196.827 166.342C196.449 166.678 195.917 167.336 195.665 167.742C193.985 166.902 192.347 165.502 191.087 163.906V168.204H189.323V163.934C188.049 165.502 186.411 166.874 184.731 167.714C184.465 167.308 183.947 166.65 183.555 166.314C185.319 165.586 187.125 164.256 188.343 162.814H183.947V161.218H186.593C186.439 160.546 185.991 159.566 185.543 158.81L186.985 158.264H184.605V156.668H189.323V155.142H191.087V156.668H195.931V158.264H193.607L195.217 158.74C194.727 159.65 194.195 160.588 193.747 161.218H196.463V162.814ZM201.027 164.48C201.601 164.48 202.161 163.612 202.721 161.736C203.043 160.714 203.295 159.524 203.463 158.376C201.167 158.852 199.949 160.868 199.949 162.394C199.949 163.794 200.509 164.48 201.027 164.48ZM204.835 167.574L203.799 165.936C204.331 165.866 204.723 165.796 205.087 165.712C206.865 165.292 208.237 164.018 208.237 162.002C208.237 160.084 207.201 158.656 205.339 158.334C205.143 159.51 204.905 160.798 204.513 162.1C203.687 164.9 202.483 166.608 200.971 166.608C199.445 166.608 198.143 164.914 198.143 162.576C198.143 159.384 200.929 156.64 204.527 156.64C207.957 156.64 210.127 159.034 210.127 162.058C210.127 164.97 208.335 167.042 204.835 167.574ZM219.101 166.188H224.533V167.826H211.947V166.188H217.351V163.374H213.557V161.764H217.351V159.3H214.453C214.047 160.07 213.613 160.784 213.151 161.33C212.815 161.064 212.073 160.56 211.653 160.336C212.745 159.16 213.655 157.228 214.131 155.324L215.853 155.702C215.657 156.374 215.433 157.032 215.195 157.676H217.351V155.156H219.101V157.676H223.819V159.3H219.101V161.764H223.287V163.374H219.101V166.188ZM236.195 159.608L237.861 160.014C237.287 161.834 236.461 163.458 235.453 164.816C235.859 165.824 236.307 166.412 236.755 166.412C237.091 166.412 237.259 165.712 237.329 163.962C237.707 164.354 238.295 164.718 238.743 164.9C238.477 167.49 237.917 168.106 236.615 168.106C235.635 168.106 234.865 167.406 234.249 166.258C233.535 167 232.751 167.63 231.883 168.162C231.631 167.798 231.029 167.112 230.679 166.79C231.757 166.202 232.723 165.432 233.535 164.522C233.059 162.94 232.751 160.98 232.569 158.88H228.509V160.378H231.967C231.967 160.378 231.953 160.812 231.953 161.008C231.911 163.948 231.827 165.194 231.505 165.6C231.239 165.964 230.959 166.09 230.539 166.16C230.175 166.216 229.573 166.216 228.929 166.202C228.901 165.712 228.719 165.068 228.467 164.648C228.971 164.69 229.447 164.704 229.671 164.704C229.867 164.704 229.979 164.676 230.091 164.536C230.231 164.34 230.287 163.668 230.329 161.904H228.509C228.453 163.948 228.159 166.678 227.011 168.386C226.717 168.064 225.975 167.448 225.597 167.252C226.661 165.572 226.759 163.136 226.759 161.316V157.228H232.471C232.443 156.542 232.415 155.856 232.415 155.156H234.165C234.151 155.856 234.165 156.542 234.193 157.228H236.335C235.817 156.808 235.117 156.36 234.543 156.01L235.551 155.016C236.321 155.408 237.343 156.052 237.833 156.514L237.161 157.228H238.617V158.88H234.291C234.417 160.28 234.613 161.596 234.851 162.716C235.397 161.778 235.859 160.742 236.195 159.608ZM242.425 162.73H244.889L244.581 161.596C244.259 160.518 243.979 159.328 243.671 158.208H243.615C243.349 159.342 243.041 160.518 242.733 161.596L242.425 162.73ZM246.065 167L245.337 164.34H241.977L241.249 167H239.149L242.467 156.64H244.903L248.235 167H246.065ZM249.448 167V156.64H251.52V167H249.448Z" fill="#1F1F21"/>
<path d="M42.3411 155.156L43.8111 155.73C42.9291 156.934 41.6271 158.292 40.4651 159.146C40.2551 158.81 39.8491 158.222 39.5971 157.928C40.5911 157.228 41.7531 156.066 42.3411 155.156ZM42.5931 158.138L44.0491 158.684C43.7411 159.244 43.3771 159.818 42.9851 160.378V168.246H41.4311V162.254C41.0671 162.646 40.7031 162.982 40.3391 163.29C40.1851 162.926 39.7371 162.086 39.4711 161.736C40.6331 160.854 41.8651 159.496 42.5931 158.138ZM49.3271 163.612V166.37C49.7051 166.426 50.1111 166.454 50.5171 166.454C50.8951 166.468 52.3511 166.454 52.8411 166.454C52.6171 166.818 52.4211 167.588 52.3511 168.008H50.3911C48.4731 168.008 46.9051 167.546 45.7991 165.852C45.4631 166.804 45.0011 167.616 44.3711 168.274C44.1331 167.98 43.4751 167.392 43.0971 167.14C44.3851 165.922 44.7911 163.85 44.9031 161.414L46.5691 161.526C46.5131 162.352 46.4291 163.122 46.3031 163.85C46.6531 164.732 47.1291 165.334 47.7031 165.74V159.916H44.4131V158.334H46.3311C46.0231 157.592 45.4911 156.584 45.0151 155.842L46.3871 155.24C46.9611 156.066 47.5771 157.158 47.8711 157.9L46.9751 158.334H50.3211L49.2431 157.928C49.6911 157.186 50.2511 156.024 50.5451 155.142L52.1691 155.702C51.7071 156.64 51.2031 157.62 50.7691 158.334H52.4491V159.916H49.3271V162.086H52.0711V163.612H49.3271ZM59.3231 158.264H57.0411C57.5311 159.02 58.0491 160.014 58.2311 160.7L56.9011 161.218H59.3231V158.264ZM63.4531 158.264H61.0871V161.218H63.4391L62.2631 160.812C62.6691 160.126 63.1731 159.076 63.4531 158.264ZM66.4631 162.814H62.0811C63.2851 164.27 65.0771 165.614 66.8271 166.342C66.4491 166.678 65.9171 167.336 65.6651 167.742C63.9851 166.902 62.3471 165.502 61.0871 163.906V168.204H59.3231V163.934C58.0491 165.502 56.4111 166.874 54.7311 167.714C54.4651 167.308 53.9471 166.65 53.5551 166.314C55.3191 165.586 57.1251 164.256 58.3431 162.814H53.9471V161.218H56.5931C56.4391 160.546 55.9911 159.566 55.5431 158.81L56.9851 158.264H54.6051V156.668H59.3231V155.142H61.0871V156.668H65.9311V158.264H63.6071L65.2171 158.74C64.7271 159.65 64.1951 160.588 63.7471 161.218H66.4631V162.814ZM71.0271 164.48C71.6011 164.48 72.1611 163.612 72.7211 161.736C73.0431 160.714 73.2951 159.524 73.4631 158.376C71.1671 158.852 69.9491 160.868 69.9491 162.394C69.9491 163.794 70.5091 164.48 71.0271 164.48ZM74.8351 167.574L73.7991 165.936C74.3311 165.866 74.7231 165.796 75.0871 165.712C76.8651 165.292 78.2371 164.018 78.2371 162.002C78.2371 160.084 77.2011 158.656 75.3391 158.334C75.1431 159.51 74.9051 160.798 74.5131 162.1C73.6871 164.9 72.4831 166.608 70.9711 166.608C69.4451 166.608 68.1431 164.914 68.1431 162.576C68.1431 159.384 70.9291 156.64 74.5271 156.64C77.9571 156.64 80.1271 159.034 80.1271 162.058C80.1271 164.97 78.3351 167.042 74.8351 167.574ZM89.1011 166.188H94.5331V167.826H81.9471V166.188H87.3511V163.374H83.5571V161.764H87.3511V159.3H84.4531C84.0471 160.07 83.6131 160.784 83.1511 161.33C82.8151 161.064 82.0731 160.56 81.6531 160.336C82.7451 159.16 83.6551 157.228 84.1311 155.324L85.8531 155.702C85.6571 156.374 85.4331 157.032 85.1951 157.676H87.3511V155.156H89.1011V157.676H93.8191V159.3H89.1011V161.764H93.2871V163.374H89.1011V166.188ZM106.195 159.608L107.861 160.014C107.287 161.834 106.461 163.458 105.453 164.816C105.859 165.824 106.307 166.412 106.755 166.412C107.091 166.412 107.259 165.712 107.329 163.962C107.707 164.354 108.295 164.718 108.743 164.9C108.477 167.49 107.917 168.106 106.615 168.106C105.635 168.106 104.865 167.406 104.249 166.258C103.535 167 102.751 167.63 101.883 168.162C101.631 167.798 101.029 167.112 100.679 166.79C101.757 166.202 102.723 165.432 103.535 164.522C103.059 162.94 102.751 160.98 102.569 158.88H98.5091V160.378H101.967C101.967 160.378 101.953 160.812 101.953 161.008C101.911 163.948 101.827 165.194 101.505 165.6C101.239 165.964 100.959 166.09 100.539 166.16C100.175 166.216 99.5731 166.216 98.9291 166.202C98.9011 165.712 98.7191 165.068 98.4671 164.648C98.9711 164.69 99.4471 164.704 99.6711 164.704C99.8671 164.704 99.9791 164.676 100.091 164.536C100.231 164.34 100.287 163.668 100.329 161.904H98.5091C98.4531 163.948 98.1591 166.678 97.0111 168.386C96.7171 168.064 95.9751 167.448 95.5971 167.252C96.6611 165.572 96.7591 163.136 96.7591 161.316V157.228H102.471C102.443 156.542 102.415 155.856 102.415 155.156H104.165C104.151 155.856 104.165 156.542 104.193 157.228H106.335C105.817 156.808 105.117 156.36 104.543 156.01L105.551 155.016C106.321 155.408 107.343 156.052 107.833 156.514L107.161 157.228H108.617V158.88H104.291C104.417 160.28 104.613 161.596 104.851 162.716C105.397 161.778 105.859 160.742 106.195 159.608ZM112.425 162.73H114.889L114.581 161.596C114.259 160.518 113.979 159.328 113.671 158.208H113.615C113.349 159.342 113.041 160.518 112.733 161.596L112.425 162.73ZM116.065 167L115.337 164.34H111.977L111.249 167H109.149L112.467 156.64H114.903L118.235 167H116.065ZM119.448 167V156.64H121.52V167H119.448Z" fill="#1F1F21"/>
<rect x="154" y="65" width="114" height="64" fill="#FBEA00"/>
<path d="M174.608 94V83.64H176.722L179.732 89.156L180.768 91.396H180.838C180.726 90.318 180.572 88.946 180.572 87.77V83.64H182.532V94H180.432L177.436 88.456L176.386 86.23H176.316C176.414 87.35 176.568 88.652 176.568 89.842V94H174.608ZM187.25 94.196C185.57 94.196 184.842 93.02 184.842 91.06V86.16H186.9V90.794C186.9 92.012 187.236 92.432 187.992 92.432C188.636 92.432 189.056 92.152 189.588 91.452V86.16H191.646V94H189.966L189.812 92.88H189.756C189.084 93.678 188.328 94.196 187.25 94.196ZM193.84 94V86.16H195.52L195.66 87.546H195.716C196.29 86.524 197.13 85.964 197.942 85.964C198.376 85.964 198.628 86.034 198.866 86.132L198.502 87.91C198.236 87.826 198.012 87.784 197.69 87.784C197.074 87.784 196.332 88.19 195.884 89.324V94H193.84ZM201.433 94.196C200.033 94.196 199.109 93.202 199.109 91.872C199.109 90.192 200.467 89.31 203.617 88.974C203.589 88.204 203.253 87.616 202.287 87.616C201.559 87.616 200.859 87.938 200.131 88.358L199.389 87C200.313 86.426 201.433 85.964 202.665 85.964C204.653 85.964 205.675 87.154 205.675 89.422V94H203.995L203.841 93.16H203.799C203.113 93.748 202.329 94.196 201.433 94.196ZM202.105 92.586C202.693 92.586 203.127 92.306 203.617 91.816V90.234C201.713 90.486 201.069 91.004 201.069 91.704C201.069 92.32 201.503 92.586 202.105 92.586ZM210.544 82.45L212 83.178C211.608 83.892 211.132 84.578 210.6 85.236C211.272 86.692 211.398 88.218 211.398 89.814C211.398 91.746 211.244 93.622 210.6 94.476C210.39 94.756 210.082 94.952 209.718 95.036C209.172 95.162 208.584 95.176 207.926 95.148C207.912 94.616 207.758 94.028 207.478 93.552C208.164 93.608 208.668 93.594 208.962 93.566C209.158 93.538 209.284 93.468 209.396 93.314C209.676 92.964 209.788 91.76 209.816 90.276C209.256 90.948 208.668 91.564 208.108 92.012C207.842 91.634 207.394 91.074 207.002 90.794C207.968 90.178 209.06 89.016 209.718 87.91C209.648 87.434 209.564 86.986 209.424 86.552C209.018 86.958 208.584 87.336 208.15 87.672C207.898 87.336 207.366 86.846 207.002 86.58C207.604 86.146 208.192 85.6 208.738 85.012C208.36 84.41 207.842 83.836 207.184 83.276L208.332 82.394C208.892 82.842 209.34 83.304 209.718 83.794C210.026 83.332 210.32 82.884 210.544 82.45ZM213.736 88.89H214.954V86.16H213.736V88.89ZM217.796 86.16H216.634V88.89H217.796V86.16ZM220.302 94.658L218.636 95.204C218.566 94.896 218.454 94.532 218.342 94.154C215.948 94.434 213.47 94.714 211.678 94.91L211.398 93.146C212.364 93.062 213.61 92.964 214.954 92.838V90.318H212.098V84.732H214.954V82.184H216.634V84.732H219.546V90.318H216.634V92.67L217.768 92.558C217.572 92.012 217.348 91.494 217.166 91.004L218.706 90.57C219.294 91.872 220.008 93.58 220.302 94.658ZM224.39 92.964H231.04V91.508H224.39V92.964ZM231.04 88.526H224.39V89.968H231.04V88.526ZM231.04 85.544H224.39V86.986H231.04V85.544ZM228.016 83.948H232.818V95.19H231.04V94.504H224.39V95.204H222.696V83.948H226.28C226.434 83.346 226.588 82.674 226.658 82.114L228.674 82.338C228.464 82.898 228.24 83.444 228.016 83.948ZM238.488 91.48C239.062 91.48 239.622 90.612 240.182 88.736C240.504 87.714 240.756 86.524 240.924 85.376C238.628 85.852 237.41 87.868 237.41 89.394C237.41 90.794 237.97 91.48 238.488 91.48ZM242.296 94.574L241.26 92.936C241.792 92.866 242.184 92.796 242.548 92.712C244.326 92.292 245.698 91.018 245.698 89.002C245.698 87.084 244.662 85.656 242.8 85.334C242.604 86.51 242.366 87.798 241.974 89.1C241.148 91.9 239.944 93.608 238.432 93.608C236.906 93.608 235.604 91.914 235.604 89.576C235.604 86.384 238.39 83.64 241.988 83.64C245.418 83.64 247.588 86.034 247.588 89.058C247.588 91.97 245.796 94.042 242.296 94.574ZM170.511 105.378H174.039C174.333 105.378 175.005 105.322 175.313 105.294V107.1C174.935 107.072 174.459 107.044 174.081 107.044H170.455C170.245 109.396 169.237 111.384 166.871 112.798L165.093 111.594C167.221 110.614 168.341 109.116 168.607 107.044H164.757C164.323 107.044 163.805 107.072 163.441 107.1V105.294C163.819 105.336 164.295 105.378 164.729 105.378H168.677V103.39C167.333 103.502 165.863 103.544 164.925 103.572L164.491 101.948C165.555 101.976 167.725 101.948 169.265 101.724C170.665 101.528 172.093 101.206 172.793 100.884L173.941 102.424C173.465 102.536 173.101 102.634 172.863 102.69C172.177 102.872 171.351 103.026 170.511 103.152V105.378ZM186.149 110.474H187.045C187.409 110.474 188.053 110.46 188.417 110.418V112.224C188.137 112.21 187.451 112.182 187.087 112.182H179.709C179.205 112.182 178.855 112.196 178.323 112.224V110.404C178.701 110.446 179.219 110.474 179.709 110.474H184.245C184.441 109.284 184.749 107.296 184.791 106.512H181.011C180.563 106.512 180.017 106.554 179.611 106.582V104.734C179.975 104.776 180.619 104.818 180.997 104.818H184.581C184.875 104.818 185.449 104.762 185.631 104.664L186.975 105.322C186.905 105.504 186.863 105.77 186.835 105.91C186.723 106.736 186.359 109.144 186.149 110.474ZM191.637 107.716V105.518C192.141 105.56 193.163 105.602 193.891 105.602H201.409C202.053 105.602 202.683 105.546 203.047 105.518V107.716C202.711 107.702 201.997 107.646 201.409 107.646H193.891C193.093 107.646 192.155 107.674 191.637 107.716ZM207.025 101.36C208.005 102.018 209.825 103.474 210.637 104.314L209.209 105.784C208.481 105 206.731 103.474 205.709 102.76L207.025 101.36ZM205.275 110.684C207.459 110.376 209.279 109.662 210.637 108.85C213.017 107.436 214.851 105.294 215.733 103.404L216.825 105.378C215.761 107.268 213.899 109.2 211.645 110.558C210.231 111.412 208.425 112.196 206.451 112.532L205.275 110.684ZM225.995 104.104H229.145C229.789 104.104 230.377 104.048 230.671 104.02V105.924C230.377 105.91 229.691 105.868 229.131 105.868H225.981C225.897 108.682 225.015 110.978 221.991 112.784L220.255 111.496C222.999 110.25 223.937 108.234 224.049 105.868H220.479C219.863 105.868 219.303 105.91 218.869 105.938V104.006C219.289 104.048 219.863 104.104 220.423 104.104H224.063V102.564C224.063 102.088 224.007 101.36 223.881 100.926H226.107C226.023 101.36 225.995 102.144 225.995 102.578V104.104ZM238.721 103.67C238.987 104.272 239.673 106.092 239.869 106.736L238.189 107.324C238.021 106.638 237.405 104.944 237.055 104.216L238.721 103.67ZM241.913 104.062L243.887 104.692C243.719 105.14 243.635 105.434 243.551 105.714C243.187 107.128 242.599 108.584 241.647 109.816C240.345 111.496 238.595 112.672 236.957 113.288L235.487 111.79C237.027 111.384 238.973 110.32 240.135 108.864C241.087 107.674 241.759 105.812 241.913 104.062ZM235.473 104.412C235.823 105.126 236.495 106.82 236.775 107.604L235.067 108.248C234.829 107.492 234.129 105.63 233.793 105.014L235.473 104.412ZM257.705 102.536C258.139 102.536 258.503 102.172 258.503 101.738C258.503 101.29 258.139 100.926 257.705 100.926C257.257 100.926 256.893 101.29 256.893 101.738C256.893 102.172 257.257 102.536 257.705 102.536ZM248.773 102.06H255.255C255.451 102.06 255.745 102.046 256.053 102.004C256.039 101.92 256.025 101.836 256.025 101.738C256.025 100.814 256.781 100.058 257.705 100.058C258.615 100.058 259.371 100.814 259.371 101.738C259.371 102.648 258.615 103.404 257.705 103.404C257.649 103.404 257.579 103.404 257.523 103.39L257.411 103.81C257.089 105.182 256.487 107.352 255.311 108.906C254.051 110.586 252.189 111.972 249.683 112.77L248.157 111.104C250.943 110.446 252.511 109.242 253.645 107.814C254.569 106.652 255.101 105.07 255.297 103.866H248.773C248.129 103.866 247.471 103.894 247.107 103.922V101.948C247.513 102.004 248.311 102.06 248.773 102.06Z" fill="#1F1F21"/>
<rect x="154" y="1" width="114" height="64" fill="#0D84FF"/>
<path d="M178.926 20.298C179.318 20.886 179.934 21.894 180.242 22.538L178.982 23.084C178.576 22.202 178.226 21.53 177.708 20.802L178.926 20.298ZM180.802 19.528C181.208 20.088 181.838 21.082 182.16 21.712L180.942 22.3C180.494 21.418 180.116 20.774 179.598 20.074L180.802 19.528ZM169.504 26.024C169.924 25.674 170.232 25.38 170.652 24.96C171.296 24.316 172.388 22.944 173.34 21.796C174.18 20.802 174.936 20.704 176.084 21.67C177.022 22.468 178.072 23.574 178.94 24.512C179.878 25.534 181.376 27.13 182.384 28.292L180.886 29.916C179.99 28.768 178.716 27.214 177.89 26.248C177.022 25.212 175.832 23.91 175.314 23.476C174.824 23.056 174.586 23.056 174.18 23.56C173.634 24.26 172.626 25.646 172.052 26.416C171.73 26.85 171.394 27.354 171.156 27.718L169.504 26.024ZM186.374 19.36C187.354 20.018 189.174 21.474 189.986 22.314L188.558 23.784C187.83 23 186.08 21.474 185.058 20.76L186.374 19.36ZM184.624 28.684C186.808 28.376 188.628 27.662 189.986 26.85C192.366 25.436 194.2 23.294 195.082 21.404L196.174 23.378C195.11 25.268 193.248 27.2 190.994 28.558C189.58 29.412 187.774 30.196 185.8 30.532L184.624 28.684ZM205.162 23.378H208.69C208.984 23.378 209.656 23.322 209.964 23.294V25.1C209.586 25.072 209.11 25.044 208.732 25.044H205.106C204.896 27.396 203.888 29.384 201.522 30.798L199.744 29.594C201.872 28.614 202.992 27.116 203.258 25.044H199.408C198.974 25.044 198.456 25.072 198.092 25.1V23.294C198.47 23.336 198.946 23.378 199.38 23.378H203.328V21.39C201.984 21.502 200.514 21.544 199.576 21.572L199.142 19.948C200.206 19.976 202.376 19.948 203.916 19.724C205.316 19.528 206.744 19.206 207.444 18.884L208.592 20.424C208.116 20.536 207.752 20.634 207.514 20.69C206.828 20.872 206.002 21.026 205.162 21.152V23.378ZM222.942 20.032L224.342 21.18C224.146 21.404 223.964 21.586 223.866 21.768C222.858 23.406 221.066 25.646 219.092 27.242C219.89 28.04 220.716 28.95 221.262 29.608L219.624 30.91C219.036 30.126 217.86 28.824 216.95 27.886C216.138 27.06 214.71 25.8 213.87 25.198L215.354 24.008C215.914 24.428 216.838 25.184 217.72 25.954C219.302 24.694 220.618 23.07 221.276 21.922H213.87C213.31 21.922 212.554 21.992 212.26 22.02V20.06C212.624 20.116 213.394 20.186 213.87 20.186H221.64C222.172 20.186 222.648 20.13 222.942 20.032ZM226.288 25.716V23.518C226.792 23.56 227.814 23.602 228.542 23.602H236.06C236.704 23.602 237.334 23.546 237.698 23.518V25.716C237.362 25.702 236.648 25.646 236.06 25.646H228.542C227.744 25.646 226.806 25.674 226.288 25.716ZM250.158 20.41L251.586 21.292C251.432 21.558 251.236 21.95 251.124 22.3C250.746 23.546 249.948 25.408 248.688 26.976C247.358 28.6 245.664 29.874 243.032 30.924L241.38 29.44C244.25 28.586 245.804 27.368 247.022 25.982C247.974 24.89 248.786 23.21 249.01 22.16H245.076C244.138 23.378 242.92 24.61 241.548 25.548L239.98 24.386C242.43 22.888 243.648 21.082 244.348 19.878C244.558 19.528 244.852 18.884 244.978 18.408L247.022 19.08C246.686 19.57 246.336 20.2 246.168 20.508L246.126 20.578H248.94C249.374 20.578 249.836 20.508 250.158 20.41ZM182.409 38.228C184.117 38.466 186.875 38.41 188.373 38.228V40.02C186.665 40.174 184.159 40.174 182.423 40.02L182.409 38.228ZM181.933 44.01L183.529 44.164C183.417 44.612 183.361 44.948 183.361 45.326C183.361 45.942 183.893 46.306 185.293 46.306C186.539 46.306 187.561 46.194 188.765 45.942L188.807 47.818C187.911 47.986 186.791 48.098 185.223 48.098C182.829 48.098 181.695 47.23 181.695 45.816C181.695 45.242 181.793 44.654 181.933 44.01ZM178.335 37.15L180.281 37.318C180.169 37.598 180.001 38.298 179.945 38.55C179.749 39.474 179.273 42.246 179.273 43.632C179.273 43.898 179.287 44.234 179.329 44.528C179.525 44.038 179.749 43.576 179.945 43.128L180.813 43.8C180.421 44.962 179.959 46.46 179.819 47.202C179.777 47.398 179.735 47.706 179.735 47.846C179.749 48 179.749 48.224 179.763 48.42L178.167 48.532C177.887 47.566 177.621 45.872 177.621 43.996C177.621 41.91 178.041 39.572 178.195 38.508C178.251 38.116 178.335 37.584 178.335 37.15ZM196.353 45.774C196.353 45.648 196.353 45.48 196.339 45.298C195.975 45.242 195.583 45.2 195.191 45.2C194.113 45.2 193.469 45.564 193.469 46.152C193.469 46.838 194.169 47.09 195.135 47.09C196.031 47.09 196.353 46.684 196.353 45.774ZM202.345 46.418L201.281 48.07C200.497 47.286 199.447 46.46 198.215 45.9C198.229 46.082 198.229 46.236 198.229 46.376C198.229 47.594 197.599 48.77 195.275 48.77C193.301 48.77 191.677 48.126 191.677 46.236C191.677 44.794 192.909 43.646 195.457 43.646C195.737 43.646 196.017 43.66 196.283 43.688C196.241 42.61 196.185 41.42 196.185 40.692C196.185 39.852 196.171 39.026 196.157 38.438C196.143 37.752 196.101 37.164 196.017 36.814H198.103C198.047 37.22 198.005 37.892 197.977 38.438C197.977 38.746 197.977 39.096 197.977 39.446C199.069 39.418 200.693 39.362 201.841 39.236L201.911 40.888C200.749 41 199.097 41.056 197.977 41.084C198.005 41.924 198.061 43.016 198.131 44.038C199.895 44.57 201.393 45.522 202.345 46.418ZM207.041 36.716L208.945 36.8C208.749 37.486 208.469 38.9 208.385 39.67C209.043 38.606 210.247 37.43 211.815 37.43C213.747 37.43 215.245 39.32 215.245 42.372C215.245 46.292 212.837 48.168 209.169 48.84L208.119 47.23C211.199 46.754 213.355 45.746 213.355 42.386C213.355 40.244 212.641 39.054 211.493 39.054C209.855 39.054 208.427 41.518 208.357 43.338C208.343 43.716 208.343 44.164 208.427 44.808L206.705 44.92C206.635 44.388 206.537 43.534 206.537 42.61C206.537 41.322 206.719 39.6 206.929 38.172C206.999 37.668 207.027 37.108 207.041 36.716ZM228.643 40.16H226.417C226.697 41.49 227.075 42.708 227.607 43.786C228.097 42.764 228.433 41.56 228.643 40.16ZM231.401 40.16H230.365C230.015 42.274 229.455 43.996 228.615 45.41C229.385 46.404 230.379 47.202 231.625 47.706C231.233 48.042 230.715 48.714 230.477 49.19C229.273 48.616 228.321 47.832 227.537 46.852C226.613 47.86 225.451 48.658 223.981 49.274C223.799 48.896 223.295 48.154 222.973 47.79C224.541 47.23 225.703 46.46 226.585 45.41C226.053 44.43 225.647 43.324 225.311 42.106C225.115 42.428 224.905 42.708 224.681 42.974C224.513 42.806 224.191 42.568 223.883 42.344V42.848H222.273V42.386H220.355V45.144C220.355 45.634 220.439 45.704 220.943 45.704H222.371C222.791 45.704 222.875 45.508 222.931 44.234C223.267 44.486 223.967 44.766 224.415 44.864C224.219 46.768 223.785 47.258 222.525 47.258H220.705C219.179 47.258 218.731 46.81 218.731 45.158V40.874H222.273V38.746H218.745V37.206H223.883V41.056C224.765 39.754 225.381 37.99 225.731 36.156L227.467 36.464C227.313 37.192 227.131 37.906 226.907 38.592H231.401V40.16ZM241.649 46.558H236.063V47.51H241.649V46.558ZM234.425 49.218V45.284H243.357V49.176H241.649V48.784H236.063V49.218H234.425ZM237.967 42.302H236.175C236.399 42.652 236.609 43.086 236.693 43.38L236.259 43.492H237.967V42.302ZM241.565 42.302H239.675V43.492H241.635L241.033 43.394C241.201 43.086 241.411 42.652 241.565 42.302ZM242.685 43.492H245.205V44.766H232.535V43.492H235.013C234.887 43.142 234.691 42.75 234.495 42.428L235.097 42.302H232.983V41.084H237.967V40.524H234.285V39.348H237.967V38.83H233.375V37.612H235.685C235.545 37.248 235.349 36.828 235.139 36.506L236.665 36.128C236.973 36.548 237.267 37.136 237.407 37.542L237.169 37.612H240.305L240.235 37.598C240.473 37.164 240.781 36.548 240.921 36.114L242.671 36.38C242.405 36.856 242.153 37.276 241.929 37.612H244.365V38.83H239.675V39.348H243.469V40.524H239.675V41.084H244.785V42.302H242.867L243.343 42.372C243.091 42.82 242.881 43.198 242.685 43.492Z" fill="white"/>
<line y1="64.5" x2="292" y2="64.5" stroke="#BFC8D9" stroke-dasharray="2 4"/>
<line y1="0.5" x2="292" y2="0.5" stroke="#BFC8D9" stroke-dasharray="2 4"/>
<line y1="128.5" x2="292" y2="128.5" stroke="#BFC8D9" stroke-dasharray="2 4"/>
</svg>
