<svg width="292" height="131" viewBox="0 0 292 131" fill="none" xmlns="http://www.w3.org/2000/svg">
<line y1="130" x2="292" y2="130" stroke="#BFC8D9" stroke-width="2"/>
<path d="M81 1L75.2265 11H86.7735L81 1ZM81 65L86.7735 55H75.2265L81 65ZM81 10H80V56H81H82V10H81Z" fill="black"/>
<rect x="41" y="21" width="80" height="24" rx="4" fill="#1F1F21"/>
<path d="M69.464 38.188H72.768V39.77H64.06V38.188H67.798V35.388H65.096V33.834H67.798V31.538H66.258C66.048 32.266 65.768 32.938 65.474 33.47C65.138 33.26 64.382 32.882 63.99 32.714C64.13 32.462 64.27 32.196 64.41 31.902L63.612 32.266C63.528 31.846 63.318 31.23 63.08 30.656V40.218H61.414V30.208C61.33 31.384 61.106 32.924 60.784 33.918L59.552 33.47C59.888 32.546 60.14 30.978 60.238 29.83L61.414 29.998V27.142H63.08V29.788L63.892 29.452C64.172 29.998 64.466 30.67 64.662 31.216C65.012 30.194 65.264 28.99 65.404 27.8L67.028 28.024C66.93 28.682 66.818 29.34 66.678 29.97H67.798V27.226H69.464V29.97H72.32V31.538H69.464V33.834H72.026V35.388H69.464V38.188ZM85.634 33.428H83.702C82.064 33.428 81.672 32.938 81.672 31.398V27.184H83.324V29.186C84.262 28.822 85.186 28.388 85.844 28.024L86.908 29.228C85.858 29.732 84.542 30.18 83.324 30.544V31.37C83.324 31.874 83.408 31.93 83.94 31.93H85.466C85.914 31.93 86.012 31.72 86.068 30.502C86.404 30.754 87.09 31.02 87.538 31.118C87.356 32.91 86.922 33.428 85.634 33.428ZM76.828 36.326H78.928V35.5H76.828V36.326ZM78.928 33.54H76.828V34.268H78.928V33.54ZM80.566 32.168V38.524C80.566 39.252 80.426 39.658 79.964 39.896C79.488 40.162 78.844 40.176 78.004 40.176C77.92 39.742 77.682 39.098 77.472 38.706C77.962 38.734 78.522 38.72 78.704 38.706C78.872 38.706 78.928 38.664 78.928 38.496V37.558H76.828V40.204H75.288V32.168H80.566ZM78.466 28.598L79.866 28.066C80.552 29.074 81.294 30.404 81.56 31.314L80.034 31.93C79.978 31.706 79.894 31.454 79.782 31.188C77.934 31.314 76.03 31.426 74.602 31.51L74.462 29.928C74.798 29.928 75.162 29.914 75.554 29.9C75.946 29.018 76.338 27.94 76.576 27.086L78.312 27.436C77.99 28.248 77.612 29.088 77.262 29.83L79.124 29.746C78.914 29.354 78.69 28.962 78.466 28.598ZM83.954 38.664H85.55C86.026 38.664 86.124 38.398 86.194 36.984C86.544 37.236 87.216 37.488 87.65 37.6C87.468 39.574 87.048 40.12 85.704 40.12H83.716C82.078 40.12 81.672 39.644 81.672 38.104V33.708H83.31V35.598C84.304 35.192 85.27 34.73 85.942 34.282L87.048 35.5C85.97 36.088 84.584 36.592 83.31 36.984V38.104C83.31 38.594 83.408 38.664 83.954 38.664ZM97.772 36.718V38.468H101.706V39.91H92.27V38.468H96.064V36.718H93.614V35.29H100.74V36.718H97.772ZM96.526 33.078H101.916V34.534H93.81C93.194 37.012 92.06 38.972 90.464 40.204C90.17 39.896 89.456 39.308 89.05 39.056C90.52 38.09 91.5 36.48 92.004 34.534H89.47V33.078H94.818V32.336H90.8V30.964H94.818V30.222H90.072V28.78H92.508C92.326 28.43 92.102 28.038 91.864 27.73L93.306 27.17C93.698 27.632 94.09 28.29 94.258 28.738L94.16 28.78H97.128C97.422 28.304 97.758 27.604 97.926 27.128L99.746 27.562C99.452 28.01 99.158 28.43 98.892 28.78H101.412V30.222H96.526V30.964H100.67V32.336H96.526V33.078Z" fill="white"/>
<rect x="154" y="65" width="114" height="64" fill="#BFC8D9"/>
<rect x="24" y="65" width="114" height="64" fill="#BFC8D9"/>
<path d="M172.341 91.156L173.811 91.73C172.929 92.934 171.627 94.292 170.465 95.146C170.255 94.81 169.849 94.222 169.597 93.928C170.591 93.228 171.753 92.066 172.341 91.156ZM172.593 94.138L174.049 94.684C173.741 95.244 173.377 95.818 172.985 96.378V104.246H171.431V98.254C171.067 98.646 170.703 98.982 170.339 99.29C170.185 98.926 169.737 98.086 169.471 97.736C170.633 96.854 171.865 95.496 172.593 94.138ZM179.327 99.612V102.37C179.705 102.426 180.111 102.454 180.517 102.454C180.895 102.468 182.351 102.454 182.841 102.454C182.617 102.818 182.421 103.588 182.351 104.008H180.391C178.473 104.008 176.905 103.546 175.799 101.852C175.463 102.804 175.001 103.616 174.371 104.274C174.133 103.98 173.475 103.392 173.097 103.14C174.385 101.922 174.791 99.85 174.903 97.414L176.569 97.526C176.513 98.352 176.429 99.122 176.303 99.85C176.653 100.732 177.129 101.334 177.703 101.74V95.916H174.413V94.334H176.331C176.023 93.592 175.491 92.584 175.015 91.842L176.387 91.24C176.961 92.066 177.577 93.158 177.871 93.9L176.975 94.334H180.321L179.243 93.928C179.691 93.186 180.251 92.024 180.545 91.142L182.169 91.702C181.707 92.64 181.203 93.62 180.769 94.334H182.449V95.916H179.327V98.086H182.071V99.612H179.327ZM189.323 94.264H187.041C187.531 95.02 188.049 96.014 188.231 96.7L186.901 97.218H189.323V94.264ZM193.453 94.264H191.087V97.218H193.439L192.263 96.812C192.669 96.126 193.173 95.076 193.453 94.264ZM196.463 98.814H192.081C193.285 100.27 195.077 101.614 196.827 102.342C196.449 102.678 195.917 103.336 195.665 103.742C193.985 102.902 192.347 101.502 191.087 99.906V104.204H189.323V99.934C188.049 101.502 186.411 102.874 184.731 103.714C184.465 103.308 183.947 102.65 183.555 102.314C185.319 101.586 187.125 100.256 188.343 98.814H183.947V97.218H186.593C186.439 96.546 185.991 95.566 185.543 94.81L186.985 94.264H184.605V92.668H189.323V91.142H191.087V92.668H195.931V94.264H193.607L195.217 94.74C194.727 95.65 194.195 96.588 193.747 97.218H196.463V98.814ZM201.027 100.48C201.601 100.48 202.161 99.612 202.721 97.736C203.043 96.714 203.295 95.524 203.463 94.376C201.167 94.852 199.949 96.868 199.949 98.394C199.949 99.794 200.509 100.48 201.027 100.48ZM204.835 103.574L203.799 101.936C204.331 101.866 204.723 101.796 205.087 101.712C206.865 101.292 208.237 100.018 208.237 98.002C208.237 96.084 207.201 94.656 205.339 94.334C205.143 95.51 204.905 96.798 204.513 98.1C203.687 100.9 202.483 102.608 200.971 102.608C199.445 102.608 198.143 100.914 198.143 98.576C198.143 95.384 200.929 92.64 204.527 92.64C207.957 92.64 210.127 95.034 210.127 98.058C210.127 100.97 208.335 103.042 204.835 103.574ZM219.101 102.188H224.533V103.826H211.947V102.188H217.351V99.374H213.557V97.764H217.351V95.3H214.453C214.047 96.07 213.613 96.784 213.151 97.33C212.815 97.064 212.073 96.56 211.653 96.336C212.745 95.16 213.655 93.228 214.131 91.324L215.853 91.702C215.657 92.374 215.433 93.032 215.195 93.676H217.351V91.156H219.101V93.676H223.819V95.3H219.101V97.764H223.287V99.374H219.101V102.188ZM236.195 95.608L237.861 96.014C237.287 97.834 236.461 99.458 235.453 100.816C235.859 101.824 236.307 102.412 236.755 102.412C237.091 102.412 237.259 101.712 237.329 99.962C237.707 100.354 238.295 100.718 238.743 100.9C238.477 103.49 237.917 104.106 236.615 104.106C235.635 104.106 234.865 103.406 234.249 102.258C233.535 103 232.751 103.63 231.883 104.162C231.631 103.798 231.029 103.112 230.679 102.79C231.757 102.202 232.723 101.432 233.535 100.522C233.059 98.94 232.751 96.98 232.569 94.88H228.509V96.378H231.967C231.967 96.378 231.953 96.812 231.953 97.008C231.911 99.948 231.827 101.194 231.505 101.6C231.239 101.964 230.959 102.09 230.539 102.16C230.175 102.216 229.573 102.216 228.929 102.202C228.901 101.712 228.719 101.068 228.467 100.648C228.971 100.69 229.447 100.704 229.671 100.704C229.867 100.704 229.979 100.676 230.091 100.536C230.231 100.34 230.287 99.668 230.329 97.904H228.509C228.453 99.948 228.159 102.678 227.011 104.386C226.717 104.064 225.975 103.448 225.597 103.252C226.661 101.572 226.759 99.136 226.759 97.316V93.228H232.471C232.443 92.542 232.415 91.856 232.415 91.156H234.165C234.151 91.856 234.165 92.542 234.193 93.228H236.335C235.817 92.808 235.117 92.36 234.543 92.01L235.551 91.016C236.321 91.408 237.343 92.052 237.833 92.514L237.161 93.228H238.617V94.88H234.291C234.417 96.28 234.613 97.596 234.851 98.716C235.397 97.778 235.859 96.742 236.195 95.608ZM242.425 98.73H244.889L244.581 97.596C244.259 96.518 243.979 95.328 243.671 94.208H243.615C243.349 95.342 243.041 96.518 242.733 97.596L242.425 98.73ZM246.065 103L245.337 100.34H241.977L241.249 103H239.149L242.467 92.64H244.903L248.235 103H246.065ZM249.448 103V92.64H251.52V103H249.448Z" fill="#1F1F21"/>
<path d="M42.3411 91.156L43.8111 91.73C42.9291 92.934 41.6271 94.292 40.4651 95.146C40.2551 94.81 39.8491 94.222 39.5971 93.928C40.5911 93.228 41.7531 92.066 42.3411 91.156ZM42.5931 94.138L44.0491 94.684C43.7411 95.244 43.3771 95.818 42.9851 96.378V104.246H41.4311V98.254C41.0671 98.646 40.7031 98.982 40.3391 99.29C40.1851 98.926 39.7371 98.086 39.4711 97.736C40.6331 96.854 41.8651 95.496 42.5931 94.138ZM49.3271 99.612V102.37C49.7051 102.426 50.1111 102.454 50.5171 102.454C50.8951 102.468 52.3511 102.454 52.8411 102.454C52.6171 102.818 52.4211 103.588 52.3511 104.008H50.3911C48.4731 104.008 46.9051 103.546 45.7991 101.852C45.4631 102.804 45.0011 103.616 44.3711 104.274C44.1331 103.98 43.4751 103.392 43.0971 103.14C44.3851 101.922 44.7911 99.85 44.9031 97.414L46.5691 97.526C46.5131 98.352 46.4291 99.122 46.3031 99.85C46.6531 100.732 47.1291 101.334 47.7031 101.74V95.916H44.4131V94.334H46.3311C46.0231 93.592 45.4911 92.584 45.0151 91.842L46.3871 91.24C46.9611 92.066 47.5771 93.158 47.8711 93.9L46.9751 94.334H50.3211L49.2431 93.928C49.6911 93.186 50.2511 92.024 50.5451 91.142L52.1691 91.702C51.7071 92.64 51.2031 93.62 50.7691 94.334H52.4491V95.916H49.3271V98.086H52.0711V99.612H49.3271ZM59.3231 94.264H57.0411C57.5311 95.02 58.0491 96.014 58.2311 96.7L56.9011 97.218H59.3231V94.264ZM63.4531 94.264H61.0871V97.218H63.4391L62.2631 96.812C62.6691 96.126 63.1731 95.076 63.4531 94.264ZM66.4631 98.814H62.0811C63.2851 100.27 65.0771 101.614 66.8271 102.342C66.4491 102.678 65.9171 103.336 65.6651 103.742C63.9851 102.902 62.3471 101.502 61.0871 99.906V104.204H59.3231V99.934C58.0491 101.502 56.4111 102.874 54.7311 103.714C54.4651 103.308 53.9471 102.65 53.5551 102.314C55.3191 101.586 57.1251 100.256 58.3431 98.814H53.9471V97.218H56.5931C56.4391 96.546 55.9911 95.566 55.5431 94.81L56.9851 94.264H54.6051V92.668H59.3231V91.142H61.0871V92.668H65.9311V94.264H63.6071L65.2171 94.74C64.7271 95.65 64.1951 96.588 63.7471 97.218H66.4631V98.814ZM71.0271 100.48C71.6011 100.48 72.1611 99.612 72.7211 97.736C73.0431 96.714 73.2951 95.524 73.4631 94.376C71.1671 94.852 69.9491 96.868 69.9491 98.394C69.9491 99.794 70.5091 100.48 71.0271 100.48ZM74.8351 103.574L73.7991 101.936C74.3311 101.866 74.7231 101.796 75.0871 101.712C76.8651 101.292 78.2371 100.018 78.2371 98.002C78.2371 96.084 77.2011 94.656 75.3391 94.334C75.1431 95.51 74.9051 96.798 74.5131 98.1C73.6871 100.9 72.4831 102.608 70.9711 102.608C69.4451 102.608 68.1431 100.914 68.1431 98.576C68.1431 95.384 70.9291 92.64 74.5271 92.64C77.9571 92.64 80.1271 95.034 80.1271 98.058C80.1271 100.97 78.3351 103.042 74.8351 103.574ZM89.1011 102.188H94.5331V103.826H81.9471V102.188H87.3511V99.374H83.5571V97.764H87.3511V95.3H84.4531C84.0471 96.07 83.6131 96.784 83.1511 97.33C82.8151 97.064 82.0731 96.56 81.6531 96.336C82.7451 95.16 83.6551 93.228 84.1311 91.324L85.8531 91.702C85.6571 92.374 85.4331 93.032 85.1951 93.676H87.3511V91.156H89.1011V93.676H93.8191V95.3H89.1011V97.764H93.2871V99.374H89.1011V102.188ZM106.195 95.608L107.861 96.014C107.287 97.834 106.461 99.458 105.453 100.816C105.859 101.824 106.307 102.412 106.755 102.412C107.091 102.412 107.259 101.712 107.329 99.962C107.707 100.354 108.295 100.718 108.743 100.9C108.477 103.49 107.917 104.106 106.615 104.106C105.635 104.106 104.865 103.406 104.249 102.258C103.535 103 102.751 103.63 101.883 104.162C101.631 103.798 101.029 103.112 100.679 102.79C101.757 102.202 102.723 101.432 103.535 100.522C103.059 98.94 102.751 96.98 102.569 94.88H98.5091V96.378H101.967C101.967 96.378 101.953 96.812 101.953 97.008C101.911 99.948 101.827 101.194 101.505 101.6C101.239 101.964 100.959 102.09 100.539 102.16C100.175 102.216 99.5731 102.216 98.9291 102.202C98.9011 101.712 98.7191 101.068 98.4671 100.648C98.9711 100.69 99.4471 100.704 99.6711 100.704C99.8671 100.704 99.9791 100.676 100.091 100.536C100.231 100.34 100.287 99.668 100.329 97.904H98.5091C98.4531 99.948 98.1591 102.678 97.0111 104.386C96.7171 104.064 95.9751 103.448 95.5971 103.252C96.6611 101.572 96.7591 99.136 96.7591 97.316V93.228H102.471C102.443 92.542 102.415 91.856 102.415 91.156H104.165C104.151 91.856 104.165 92.542 104.193 93.228H106.335C105.817 92.808 105.117 92.36 104.543 92.01L105.551 91.016C106.321 91.408 107.343 92.052 107.833 92.514L107.161 93.228H108.617V94.88H104.291C104.417 96.28 104.613 97.596 104.851 98.716C105.397 97.778 105.859 96.742 106.195 95.608ZM112.425 98.73H114.889L114.581 97.596C114.259 96.518 113.979 95.328 113.671 94.208H113.615C113.349 95.342 113.041 96.518 112.733 97.596L112.425 98.73ZM116.065 103L115.337 100.34H111.977L111.249 103H109.149L112.467 92.64H114.903L118.235 103H116.065ZM119.448 103V92.64H121.52V103H119.448Z" fill="#1F1F21"/>
<rect x="154" y="1" width="114" height="64" fill="#FBEA00"/>
<path d="M174.608 30V19.64H176.722L179.732 25.156L180.768 27.396H180.838C180.726 26.318 180.572 24.946 180.572 23.77V19.64H182.532V30H180.432L177.436 24.456L176.386 22.23H176.316C176.414 23.35 176.568 24.652 176.568 25.842V30H174.608ZM187.25 30.196C185.57 30.196 184.842 29.02 184.842 27.06V22.16H186.9V26.794C186.9 28.012 187.236 28.432 187.992 28.432C188.636 28.432 189.056 28.152 189.588 27.452V22.16H191.646V30H189.966L189.812 28.88H189.756C189.084 29.678 188.328 30.196 187.25 30.196ZM193.84 30V22.16H195.52L195.66 23.546H195.716C196.29 22.524 197.13 21.964 197.942 21.964C198.376 21.964 198.628 22.034 198.866 22.132L198.502 23.91C198.236 23.826 198.012 23.784 197.69 23.784C197.074 23.784 196.332 24.19 195.884 25.324V30H193.84ZM201.433 30.196C200.033 30.196 199.109 29.202 199.109 27.872C199.109 26.192 200.467 25.31 203.617 24.974C203.589 24.204 203.253 23.616 202.287 23.616C201.559 23.616 200.859 23.938 200.131 24.358L199.389 23C200.313 22.426 201.433 21.964 202.665 21.964C204.653 21.964 205.675 23.154 205.675 25.422V30H203.995L203.841 29.16H203.799C203.113 29.748 202.329 30.196 201.433 30.196ZM202.105 28.586C202.693 28.586 203.127 28.306 203.617 27.816V26.234C201.713 26.486 201.069 27.004 201.069 27.704C201.069 28.32 201.503 28.586 202.105 28.586ZM210.544 18.45L212 19.178C211.608 19.892 211.132 20.578 210.6 21.236C211.272 22.692 211.398 24.218 211.398 25.814C211.398 27.746 211.244 29.622 210.6 30.476C210.39 30.756 210.082 30.952 209.718 31.036C209.172 31.162 208.584 31.176 207.926 31.148C207.912 30.616 207.758 30.028 207.478 29.552C208.164 29.608 208.668 29.594 208.962 29.566C209.158 29.538 209.284 29.468 209.396 29.314C209.676 28.964 209.788 27.76 209.816 26.276C209.256 26.948 208.668 27.564 208.108 28.012C207.842 27.634 207.394 27.074 207.002 26.794C207.968 26.178 209.06 25.016 209.718 23.91C209.648 23.434 209.564 22.986 209.424 22.552C209.018 22.958 208.584 23.336 208.15 23.672C207.898 23.336 207.366 22.846 207.002 22.58C207.604 22.146 208.192 21.6 208.738 21.012C208.36 20.41 207.842 19.836 207.184 19.276L208.332 18.394C208.892 18.842 209.34 19.304 209.718 19.794C210.026 19.332 210.32 18.884 210.544 18.45ZM213.736 24.89H214.954V22.16H213.736V24.89ZM217.796 22.16H216.634V24.89H217.796V22.16ZM220.302 30.658L218.636 31.204C218.566 30.896 218.454 30.532 218.342 30.154C215.948 30.434 213.47 30.714 211.678 30.91L211.398 29.146C212.364 29.062 213.61 28.964 214.954 28.838V26.318H212.098V20.732H214.954V18.184H216.634V20.732H219.546V26.318H216.634V28.67L217.768 28.558C217.572 28.012 217.348 27.494 217.166 27.004L218.706 26.57C219.294 27.872 220.008 29.58 220.302 30.658ZM224.39 28.964H231.04V27.508H224.39V28.964ZM231.04 24.526H224.39V25.968H231.04V24.526ZM231.04 21.544H224.39V22.986H231.04V21.544ZM228.016 19.948H232.818V31.19H231.04V30.504H224.39V31.204H222.696V19.948H226.28C226.434 19.346 226.588 18.674 226.658 18.114L228.674 18.338C228.464 18.898 228.24 19.444 228.016 19.948ZM238.488 27.48C239.062 27.48 239.622 26.612 240.182 24.736C240.504 23.714 240.756 22.524 240.924 21.376C238.628 21.852 237.41 23.868 237.41 25.394C237.41 26.794 237.97 27.48 238.488 27.48ZM242.296 30.574L241.26 28.936C241.792 28.866 242.184 28.796 242.548 28.712C244.326 28.292 245.698 27.018 245.698 25.002C245.698 23.084 244.662 21.656 242.8 21.334C242.604 22.51 242.366 23.798 241.974 25.1C241.148 27.9 239.944 29.608 238.432 29.608C236.906 29.608 235.604 27.914 235.604 25.576C235.604 22.384 238.39 19.64 241.988 19.64C245.418 19.64 247.588 22.034 247.588 25.058C247.588 27.97 245.796 30.042 242.296 30.574ZM170.511 41.378H174.039C174.333 41.378 175.005 41.322 175.313 41.294V43.1C174.935 43.072 174.459 43.044 174.081 43.044H170.455C170.245 45.396 169.237 47.384 166.871 48.798L165.093 47.594C167.221 46.614 168.341 45.116 168.607 43.044H164.757C164.323 43.044 163.805 43.072 163.441 43.1V41.294C163.819 41.336 164.295 41.378 164.729 41.378H168.677V39.39C167.333 39.502 165.863 39.544 164.925 39.572L164.491 37.948C165.555 37.976 167.725 37.948 169.265 37.724C170.665 37.528 172.093 37.206 172.793 36.884L173.941 38.424C173.465 38.536 173.101 38.634 172.863 38.69C172.177 38.872 171.351 39.026 170.511 39.152V41.378ZM186.149 46.474H187.045C187.409 46.474 188.053 46.46 188.417 46.418V48.224C188.137 48.21 187.451 48.182 187.087 48.182H179.709C179.205 48.182 178.855 48.196 178.323 48.224V46.404C178.701 46.446 179.219 46.474 179.709 46.474H184.245C184.441 45.284 184.749 43.296 184.791 42.512H181.011C180.563 42.512 180.017 42.554 179.611 42.582V40.734C179.975 40.776 180.619 40.818 180.997 40.818H184.581C184.875 40.818 185.449 40.762 185.631 40.664L186.975 41.322C186.905 41.504 186.863 41.77 186.835 41.91C186.723 42.736 186.359 45.144 186.149 46.474ZM191.637 43.716V41.518C192.141 41.56 193.163 41.602 193.891 41.602H201.409C202.053 41.602 202.683 41.546 203.047 41.518V43.716C202.711 43.702 201.997 43.646 201.409 43.646H193.891C193.093 43.646 192.155 43.674 191.637 43.716ZM207.025 37.36C208.005 38.018 209.825 39.474 210.637 40.314L209.209 41.784C208.481 41 206.731 39.474 205.709 38.76L207.025 37.36ZM205.275 46.684C207.459 46.376 209.279 45.662 210.637 44.85C213.017 43.436 214.851 41.294 215.733 39.404L216.825 41.378C215.761 43.268 213.899 45.2 211.645 46.558C210.231 47.412 208.425 48.196 206.451 48.532L205.275 46.684ZM225.995 40.104H229.145C229.789 40.104 230.377 40.048 230.671 40.02V41.924C230.377 41.91 229.691 41.868 229.131 41.868H225.981C225.897 44.682 225.015 46.978 221.991 48.784L220.255 47.496C222.999 46.25 223.937 44.234 224.049 41.868H220.479C219.863 41.868 219.303 41.91 218.869 41.938V40.006C219.289 40.048 219.863 40.104 220.423 40.104H224.063V38.564C224.063 38.088 224.007 37.36 223.881 36.926H226.107C226.023 37.36 225.995 38.144 225.995 38.578V40.104ZM238.721 39.67C238.987 40.272 239.673 42.092 239.869 42.736L238.189 43.324C238.021 42.638 237.405 40.944 237.055 40.216L238.721 39.67ZM241.913 40.062L243.887 40.692C243.719 41.14 243.635 41.434 243.551 41.714C243.187 43.128 242.599 44.584 241.647 45.816C240.345 47.496 238.595 48.672 236.957 49.288L235.487 47.79C237.027 47.384 238.973 46.32 240.135 44.864C241.087 43.674 241.759 41.812 241.913 40.062ZM235.473 40.412C235.823 41.126 236.495 42.82 236.775 43.604L235.067 44.248C234.829 43.492 234.129 41.63 233.793 41.014L235.473 40.412ZM257.705 38.536C258.139 38.536 258.503 38.172 258.503 37.738C258.503 37.29 258.139 36.926 257.705 36.926C257.257 36.926 256.893 37.29 256.893 37.738C256.893 38.172 257.257 38.536 257.705 38.536ZM248.773 38.06H255.255C255.451 38.06 255.745 38.046 256.053 38.004C256.039 37.92 256.025 37.836 256.025 37.738C256.025 36.814 256.781 36.058 257.705 36.058C258.615 36.058 259.371 36.814 259.371 37.738C259.371 38.648 258.615 39.404 257.705 39.404C257.649 39.404 257.579 39.404 257.523 39.39L257.411 39.81C257.089 41.182 256.487 43.352 255.311 44.906C254.051 46.586 252.189 47.972 249.683 48.77L248.157 47.104C250.943 46.446 252.511 45.242 253.645 43.814C254.569 42.652 255.101 41.07 255.297 39.866H248.773C248.129 39.866 247.471 39.894 247.107 39.922V37.948C247.513 38.004 248.311 38.06 248.773 38.06Z" fill="#1F1F21"/>
<line y1="0.5" x2="292" y2="0.5" stroke="#BFC8D9" stroke-dasharray="2 4"/>
<line y1="64.5" x2="292" y2="64.5" stroke="#BFC8D9" stroke-dasharray="2 4"/>
</svg>
