<svg width="63" height="64" viewBox="0 0 63 64" fill="none" xmlns="http://www.w3.org/2000/svg">
<g clip-path="url(#clip0_8_1396)">
<path d="M38.7641 62.5668C55.7095 58.5445 66.2043 41.4683 62.2048 24.426C58.2053 7.38371 41.2261 -3.17103 24.2806 0.851307C7.3352 4.87365 -3.15957 21.9499 0.839919 38.9922C4.83941 56.0344 21.8186 66.5892 38.7641 62.5668Z" fill="#BFC8D9"/>
<mask id="mask0_8_1396" style="mask-type:luminance" maskUnits="userSpaceOnUse" x="-1" y="-1" width="65" height="65">
<path d="M38.7641 62.5668C55.7095 58.5445 66.2043 41.4683 62.2048 24.426C58.2053 7.38371 41.2261 -3.17103 24.2806 0.851307C7.3352 4.87365 -3.15957 21.9499 0.839919 38.9922C4.83941 56.0344 21.8186 66.5892 38.7641 62.5668Z" fill="white"/>
</mask>
<g mask="url(#mask0_8_1396)">
<path d="M45.8819 55.5008C46.181 59.4048 48.0773 62.4384 50.12 62.2784C52.1628 62.1184 53.5755 58.8288 53.2764 54.9312C52.9773 51.0272 51.081 47.9936 49.0382 48.1536C46.9955 48.3136 45.5828 51.6032 45.8819 55.5008Z" fill="#D6E86B"/>
<path d="M22.5527 42.1504L42.7446 42.1504C49.0707 42.1504 54.1991 36.9927 54.1991 30.6304V22.7648C54.1991 16.4025 49.0707 11.2448 42.7446 11.2448L22.5527 11.2448C16.2266 11.2448 11.0982 16.4025 11.0982 22.7648V30.6304C11.0982 36.9927 16.2266 42.1504 22.5527 42.1504Z" fill="#D6E86B"/>
<path d="M26.2946 35.9168H43.4446C48.3298 35.9168 52.29 31.9339 52.29 27.0208V21.984C52.29 17.0709 48.3298 13.088 43.4446 13.088L26.2946 13.088C21.4094 13.088 17.4491 17.0709 17.4491 21.984V27.0208C17.4491 31.9339 21.4094 35.9168 26.2946 35.9168Z" fill="#1F1F21"/>
<path d="M44.5455 24.8704C44.5455 26.7776 45.2201 28.32 46.0537 28.32C46.8874 28.32 47.5619 26.7712 47.5619 24.8704C47.5619 22.9696 46.8874 21.4208 46.0537 21.4208C45.2201 21.4208 44.5455 22.9696 44.5455 24.8704Z" fill="white"/>
<path d="M29.2792 24.8704C29.2792 26.7776 29.9537 28.32 30.7874 28.32C31.621 28.32 32.2955 26.7712 32.2955 24.8704C32.2955 22.9696 31.621 21.4208 30.7874 21.4208C29.9537 21.4208 29.2792 22.9696 29.2792 24.8704Z" fill="white"/>
<path d="M11.76 33.5936C13.809 33.5936 15.47 30.4216 15.47 26.5088C15.47 22.596 13.809 19.424 11.76 19.424C9.71107 19.424 8.05005 22.596 8.05005 26.5088C8.05005 30.4216 9.71107 33.5936 11.76 33.5936Z" fill="#D6E86B"/>
<path d="M9.15735 26.5088C9.15735 28.4736 9.99098 30.0608 11.0155 30.0608C12.0401 30.0608 12.8737 28.4736 12.8737 26.5088C12.8737 24.544 12.0401 22.9568 11.0155 22.9568C9.99098 22.9568 9.15735 24.544 9.15735 26.5088Z" fill="white"/>
<path d="M11.7601 33.5936C13.8092 33.5936 15.4701 30.4192 15.4701 26.5088C15.4701 24.6848 15.1073 23.0208 14.5155 21.7664" stroke="#1F1F21" stroke-linecap="round" stroke-linejoin="round"/>
<path d="M43.5146 79.264L50.4509 60.8192C53.4928 52.736 47.5555 44.096 38.9646 44.096H25.0919C16.5009 44.096 10.5637 52.736 13.6055 60.8192L20.5419 79.264C24.5446 89.9072 39.5182 89.9072 43.5209 79.264H43.5146Z" fill="#D6E86B"/>
<path d="M13.5991 60.8192C10.5573 52.736 16.4946 44.096 25.0855 44.096H33.7782C36.4001 50.2528 37.5964 58.656 36.4064 66.88L33.4601 87.1616" stroke="#1F1F21" stroke-linecap="round" stroke-linejoin="round"/>
<path d="M25.0919 44.096H38.9646C42.261 44.096 45.1692 45.3696 47.3264 47.3984C47.2373 48.9728 47.1419 50.5472 47.0464 52.1344C46.741 58.016 42.8973 60.6592 38.3982 61.6192C33.8864 62.4064 28.7192 61.4976 25.5246 56.3136C23.3228 52.768 24.3664 48.1344 18.9319 45.76C20.7201 44.7104 22.8137 44.096 25.0982 44.096H25.0919Z" stroke="#1F1F21" stroke-linecap="round" stroke-linejoin="round"/>
<path d="M11.3337 55.5648C11.3846 59.4304 13.6628 62.5344 16.4182 62.496C19.1737 62.4576 21.3691 59.296 21.3182 55.4304C21.2673 51.5648 18.9891 48.4608 16.2337 48.4992C13.4782 48.5376 11.2828 51.6992 11.3337 55.5648Z" fill="#D6E86B"/>
<path d="M16.4182 62.496C19.1737 62.4576 21.3691 59.296 21.3182 55.4304C21.2928 53.632 20.79 51.9936 19.9755 50.7648" stroke="#1F1F21" stroke-linecap="round" stroke-linejoin="round"/>
<path d="M50.451 60.8192C52.3537 55.7696 50.7437 50.496 47.1737 47.2576" stroke="#1F1F21" stroke-linecap="round" stroke-linejoin="round"/>
<path d="M36.4764 67.1488C40.5743 67.1488 43.8964 63.8078 43.8964 59.6864C43.8964 55.565 40.5743 52.224 36.4764 52.224C32.3784 52.224 29.0564 55.565 29.0564 59.6864C29.0564 63.8078 32.3784 67.1488 36.4764 67.1488Z" fill="#D6E86B" stroke="#1F1F21" stroke-linecap="round" stroke-linejoin="round"/>
<path d="M36.4764 64.0385C38.8663 64.0385 40.8037 62.09 40.8037 59.6865C40.8037 57.2829 38.8663 55.3345 36.4764 55.3345C34.0866 55.3345 32.1492 57.2829 32.1492 59.6865C32.1492 62.09 34.0866 64.0385 36.4764 64.0385Z" fill="white"/>
</g>
</g>
<defs>
<clipPath id="clip0_8_1396">
<rect width="63" height="64" fill="white"/>
</clipPath>
</defs>
</svg>
