<svg width="100" height="86" viewBox="0 0 100 86" fill="none" xmlns="http://www.w3.org/2000/svg">
<g clip-path="url(#clip0_8_1423)">
<path d="M60.4456 2.18024L61.5191 4.14469L63.4855 5.21458L61.5191 6.28896L60.4456 8.24892L59.3677 6.28896L57.4012 5.21458L59.3677 4.14469L60.4456 2.18024Z" stroke="#1F1F21" stroke-linecap="round" stroke-linejoin="round"/>
<path d="M56.7788 19.1051L57.2253 19.9277L58.0507 20.3773L57.2253 20.8268L56.7788 21.645L56.3278 20.8268L55.5024 20.3773L56.3278 19.9277L56.7788 19.1051Z" stroke="#1F1F21" stroke-miterlimit="10"/>
<path d="M48.6379 23.4926L7.80263 43.3574L0 16.1472L42.6709 0L48.6379 23.4926Z" fill="#D6E86B"/>
<path d="M17.7115 18.0757L37.9353 10.056" stroke="#1F1F21"/>
<path d="M18.9653 22.607L39.0357 14.2816" stroke="#1F1F21"/>
<path d="M20.2057 27.1203L40.1227 18.4847" stroke="#1F1F21"/>
<path d="M15.6143 24.1443C16.566 27.5698 15.7722 31.1076 13.8554 32.0696C11.943 33.0451 9.59774 31.0087 8.60549 27.5023C7.60874 23.9825 8.37096 20.3907 10.3239 19.5007C12.2813 18.6196 14.6582 20.7099 15.6143 24.1443Z" fill="#1F1F21"/>
<path d="M73.647 56.5556L31.3008 49.6778L31.7022 24.2657L75.9472 34.9781L73.647 56.5556Z" stroke="#1F1F21"/>
<path d="M47.8217 36.475L68.537 40.7591" stroke="#1F1F21"/>
<path d="M47.6277 40.6647L68.1851 44.6295" stroke="#1F1F21"/>
<path d="M47.4382 44.8768L57.4238 46.6614" stroke="#1F1F21"/>
<path d="M44.0782 39.887C43.9564 43.0832 42.2019 45.3353 40.1453 44.9038C38.0841 44.4587 36.4695 41.4244 36.5507 38.1428C36.6364 34.8747 38.4134 32.6675 40.5196 33.1979C42.6169 33.7194 44.209 36.7043 44.0827 39.887H44.0782Z" stroke="#1F1F21"/>
<path d="M18.2752 47.3178L18.9608 46.9177C19.1232 46.8233 19.2224 46.5985 19.1818 46.4187L19.1277 46.0366C19.1141 45.8523 18.9608 45.6635 18.7804 45.6185L18.0091 45.4207C17.8287 45.3758 17.7205 45.1915 17.7701 45.0117L18.0768 43.8249C18.1219 43.6496 18.3068 43.5417 18.4872 43.5866L19.2585 43.7844C19.4389 43.8294 19.6644 43.744 19.7636 43.5866L19.9981 43.2765C20.1199 43.1371 20.1425 42.8944 20.0478 42.737L19.6463 42.0537C19.5516 41.8964 19.6058 41.6896 19.7636 41.5952L20.8235 40.9749C20.9814 40.8805 21.1888 40.9389 21.2835 41.0962L21.685 41.7795C21.7797 41.9369 22.0007 42.0358 22.1856 41.9953L22.569 41.9414C22.7539 41.9279 22.9433 41.775 22.9884 41.5952L23.1868 40.8265C23.2319 40.6512 23.4169 40.5433 23.5928 40.5883L24.7835 40.8984C24.9594 40.9434 25.0676 41.1277 25.0225 41.3075L24.824 42.0762C24.7789 42.256 24.8646 42.4808 25.0225 42.5842L25.3337 42.8179C25.4735 42.9393 25.7171 42.9618 25.8749 42.8674L26.5605 42.4673C26.7183 42.3729 26.9258 42.4269 27.0205 42.5887L27.6429 43.6451C27.7376 43.8024 27.6835 44.0092 27.5257 44.1036L26.8401 44.5037C26.6822 44.5981 26.583 44.8184 26.6191 44.9982L26.6732 45.3803C26.6868 45.5646 26.8446 45.7534 27.0205 45.7983L27.7918 45.9961C27.9677 46.0411 28.0759 46.2254 28.0308 46.4052L27.7196 47.592C27.6745 47.7718 27.4896 47.8752 27.3137 47.8302L26.5424 47.6324C26.3665 47.5875 26.1365 47.6729 26.0373 47.8257L25.8028 48.1359C25.681 48.2753 25.6584 48.518 25.7531 48.6754L26.1546 49.3586C26.2493 49.516 26.1951 49.7228 26.0373 49.8172L24.9774 50.4375C24.8195 50.5319 24.6121 50.478 24.5174 50.3206L24.1159 49.6374C24.0212 49.48 23.8002 49.3811 23.6198 49.4171L23.2365 49.471C23.0515 49.4845 22.8666 49.6374 22.817 49.8172L22.6186 50.5859C22.5735 50.7657 22.3885 50.8736 22.2081 50.8241L21.0174 50.5139C20.837 50.469 20.7288 50.2847 20.7784 50.1049L20.9769 49.3362C21.022 49.1564 20.9318 48.9316 20.7784 48.8327L20.4672 48.5989C20.3274 48.4776 20.0838 48.4551 19.926 48.5495L19.2404 48.9496C19.0826 49.044 18.8751 48.99 18.7804 48.8327L18.158 47.7763C18.0633 47.619 18.1174 47.4122 18.2752 47.3178ZM23.7236 47.0975C24.4948 46.6435 24.7519 45.6545 24.3009 44.8858C23.8453 44.1171 22.8531 43.8609 22.0819 44.3104C21.3106 44.7599 21.0535 45.7534 21.5045 46.5221C21.9556 47.2908 22.9523 47.547 23.7236 47.0975Z" fill="#1F1F21"/>
<path d="M40.1452 44.8993C41.5614 45.2005 42.8378 44.216 43.5324 42.5302C43.0498 42.1706 42.4409 41.9683 41.7869 41.9998C41.2998 42.0268 39.604 42.1167 39.1169 42.1436C38.5486 42.1751 38.0299 42.3819 37.615 42.7055C38.2599 43.8653 39.1485 44.6835 40.1452 44.8993Z" fill="#1F1F21"/>
<path d="M40.3843 40.7456C41.3675 40.6916 42.1207 39.8555 42.0711 38.8755C42.017 37.8955 41.1781 37.1448 40.1949 37.1943C39.2116 37.2482 38.4584 38.0843 38.5081 39.0643C38.5622 40.0443 39.4011 40.795 40.3843 40.7456Z" fill="#1F1F21"/>
<path d="M66.6684 66.2126L59.9939 69.0858C59.1455 69.4511 58.7548 70.4326 59.1212 71.2782L62.004 77.9307C62.3704 78.7763 63.3552 79.1657 64.2036 78.8005L70.8781 75.9272C71.7265 75.562 72.1172 74.5804 71.7507 73.7348L68.868 67.0824C68.5015 66.2368 67.5168 65.8474 66.6684 66.2126Z" stroke="#1F1F21" stroke-miterlimit="10" stroke-dasharray="1.74 1.74"/>
<path d="M20.2688 81.0281C26.317 87.0564 36.1176 87.0564 42.1658 81.0281C48.2139 74.9999 48.2139 65.2316 42.1658 59.2034C36.1176 53.1751 26.317 53.1751 20.2688 59.2034C14.2206 65.2316 14.2206 74.9999 20.2688 81.0281ZM37.7593 63.5953C41.372 67.196 41.372 73.0355 37.7593 76.6362C34.1467 80.237 28.2879 80.237 24.6753 76.6362C21.0626 73.0355 21.0626 67.196 24.6753 63.5953C28.2879 59.9945 34.1467 59.9945 37.7593 63.5953Z" stroke="#1F1F21"/>
<path d="M20.2688 81.0281C20.3364 81.0956 20.4086 81.1585 20.4763 81.2259L24.8827 76.834C24.8151 76.7711 24.7429 76.7036 24.6753 76.6362C21.0626 73.0355 21.0626 67.196 24.6753 63.5953C25.884 62.3905 27.3453 61.5904 28.8923 61.1903L27.2776 55.189C24.7113 55.8588 22.2803 57.1939 20.2688 59.1989C14.2206 65.2271 14.2206 74.9954 20.2688 81.0236V81.0281Z" stroke="#1F1F21"/>
<path d="M34.0745 84.7683L32.9649 79.1716C30.1506 79.7065 27.1333 78.9288 24.9007 76.843L20.4943 81.2349C24.2558 84.8402 29.3929 86.1888 34.1782 85.2672L34.079 84.7683H34.0745Z" stroke="#1F1F21"/>
<path d="M74.6933 22.3957H71.031V26.9539H74.6933V22.3957Z" stroke="#1F1F21"/>
<path d="M80.737 16.2731H77.0702V26.954H80.737V16.2731Z" stroke="#1F1F21"/>
<path d="M86.7762 19.1636H83.1094V26.954H86.7762V19.1636Z" stroke="#1F1F21"/>
<path d="M92.8107 13.8007H89.1484V26.954H92.8107V13.8007Z" stroke="#1F1F21"/>
<path d="M69.8539 26.954H94.7817" stroke="#1F1F21"/>
<path d="M90.5647 70.2979C95.7757 70.2979 100 66.0875 100 60.8937C100 55.6999 95.7757 51.4894 90.5647 51.4894C85.3537 51.4894 81.1294 55.6999 81.1294 60.8937C81.1294 66.0875 85.3537 70.2979 90.5647 70.2979Z" fill="#D6E86B"/>
<path d="M87.1189 56.8029C88.7515 54.6002 91.8636 54.1327 94.0736 55.76C96.2836 57.3873 96.7526 60.4891 95.1199 62.6918C93.9608 64.2561 92.053 64.9394 90.2534 64.6247L89.613 65.4878L86.059 62.8716L86.6994 62.0085C85.865 60.3857 85.9597 58.3673 87.1189 56.8029Z" stroke="#1F1F21"/>
<path d="M89.0763 67.1421L84.6293 63.8695" stroke="#1F1F21"/>
<path d="M88.1653 63.7347L90.7902 60.1924" stroke="#1F1F21"/>
<path d="M91.6833 60.8442L89.9017 59.5361" stroke="#1F1F21"/>
<path d="M93.3429 61.3836C94.2495 60.1609 93.9879 58.4347 92.7611 57.5311" stroke="#1F1F21"/>
</g>
<defs>
<clipPath id="clip0_8_1423">
<rect width="100" height="86" fill="white"/>
</clipPath>
</defs>
</svg>
