

<svg width="508" height="448" viewBox="0 0 508 448" fill="none" xmlns="http://www.w3.org/2000/svg">
<g clip-path="url(#clip0_9_947)">
<path d="M132.03 300.226L132.03 229.137C132.03 215.519 120.956 204.44 107.345 204.44L36.2918 204.44C22.6811 204.44 11.6071 215.519 11.6071 229.137L11.6071 300.226C11.6071 313.843 22.6811 324.923 36.2918 324.923L107.345 324.923C120.956 324.923 132.03 313.843 132.03 300.226ZM12.3027 229.137C12.3027 215.901 23.063 205.122 36.3054 205.122L107.359 205.122C120.588 205.122 131.362 215.888 131.362 229.137L131.362 300.226C131.362 313.461 120.601 324.241 107.359 324.241L36.3054 324.241C23.0766 324.241 12.3027 313.461 12.3027 300.226L12.3027 229.137Z" fill="#BFC8D9" fill-opacity="0.5"/>
<path d="M166.643 399.218L166.643 396.012L165.961 396.012L165.961 399.218L166.643 399.218ZM166.629 392.805L166.629 389.599L165.947 389.599L165.947 392.805L166.629 392.805ZM166.629 386.406L166.629 383.199L165.947 383.199L165.947 386.406L166.629 386.406ZM166.629 380.006L166.629 376.8L165.947 376.8L165.947 380.006L166.629 380.006ZM166.629 373.607L166.629 370.401L165.947 370.401L165.947 373.607L166.629 373.607ZM166.629 367.208L166.629 364.001L165.947 364.001L165.947 367.208L166.629 367.208ZM166.629 360.808L166.629 357.602L165.947 357.602L165.947 360.808L166.629 360.808ZM166.629 354.395L166.629 351.189L165.947 351.189L165.947 354.395L166.629 354.395ZM166.629 347.996L166.629 344.789L165.947 344.789L165.947 347.996L166.629 347.996ZM166.629 341.596L166.629 338.39L165.947 338.39L165.947 341.596L166.629 341.596ZM166.643 335.197L166.643 331.991L165.961 331.991L165.961 335.197L166.643 335.197ZM166.629 328.798L166.629 325.591L165.947 325.591L165.947 328.798L166.629 328.798ZM166.629 322.385L166.629 319.178L165.947 319.178L165.947 322.385L166.629 322.385ZM166.629 315.985L166.629 312.779L165.947 312.779L165.947 315.985L166.629 315.985ZM166.629 309.586L166.629 306.379L165.947 306.379L165.947 309.586L166.629 309.586ZM166.629 303.186L166.629 299.98L165.947 299.98L165.947 303.186L166.629 303.186ZM166.629 296.787L166.629 293.581L165.947 293.581L165.947 296.787L166.629 296.787ZM166.643 290.374L166.643 287.168L165.961 287.168L165.961 290.374L166.643 290.374ZM166.629 283.975L166.629 280.768L165.947 280.768L165.947 283.975L166.629 283.975ZM166.629 277.575L166.629 274.369L165.947 274.369L165.947 277.575L166.629 277.575ZM166.629 271.176L166.629 267.969L165.947 267.969L165.947 271.176L166.629 271.176ZM166.629 264.776L166.629 261.57L165.947 261.57L165.947 264.776L166.629 264.776ZM166.629 258.377L166.629 255.171L165.947 255.171L165.947 258.377L166.629 258.377ZM166.629 251.964L166.629 248.758L165.947 248.758L165.947 251.964L166.629 251.964ZM166.629 245.565L166.629 242.358L165.947 242.358L165.947 245.565L166.629 245.565ZM166.629 239.165L166.629 235.959L165.947 235.959L165.947 239.165L166.629 239.165ZM166.602 232.752C166.561 231.688 166.493 230.596 166.398 229.546L165.716 229.614C165.811 230.665 165.879 231.729 165.92 232.793L166.602 232.766L166.602 232.752ZM166.548 402.425L165.866 402.384C165.811 403.434 165.716 404.499 165.607 405.549L166.288 405.631C166.411 404.567 166.493 403.489 166.561 402.425L166.548 402.425ZM166.002 226.339C165.838 225.289 165.647 224.224 165.429 223.174L164.761 223.31C164.979 224.347 165.17 225.398 165.32 226.435L166.002 226.339ZM165.825 408.824L165.143 408.715C164.966 409.752 164.761 410.803 164.515 411.84L165.184 411.99C165.416 410.953 165.634 409.888 165.811 408.838L165.825 408.824ZM164.679 220.049C164.406 219.026 164.093 217.975 163.752 216.965L163.097 217.184C163.424 218.193 163.738 219.217 164.011 220.226L164.679 220.049ZM164.393 415.101L163.738 414.91C163.438 415.919 163.111 416.943 162.77 417.939L163.411 418.171C163.765 417.161 164.106 416.138 164.393 415.101ZM162.661 213.936C162.265 212.94 161.842 211.958 161.392 210.989L160.765 211.275C161.215 212.231 161.638 213.213 162.02 214.195L162.661 213.936ZM162.238 421.173L161.611 420.913C161.201 421.882 160.765 422.865 160.288 423.82L160.901 424.12C161.365 423.151 161.815 422.169 162.238 421.186L162.238 421.173ZM159.947 208.11C159.442 207.168 158.91 206.227 158.351 205.326L157.765 205.681C158.31 206.582 158.842 207.509 159.347 208.437L159.947 208.11ZM159.415 426.958L158.815 426.617C158.297 427.531 157.751 428.459 157.178 429.346L157.751 429.714C158.324 428.814 158.883 427.886 159.401 426.944L159.415 426.958ZM156.592 202.625C155.978 201.751 155.337 200.878 154.683 200.032L154.137 200.455C154.778 201.287 155.419 202.147 156.019 203.02L156.578 202.625L156.592 202.625ZM155.951 432.389L155.392 431.993C154.778 432.853 154.123 433.698 153.455 434.517L153.987 434.954C154.655 434.121 155.324 433.262 155.951 432.402L155.951 432.389ZM152.637 197.549C151.941 196.744 151.205 195.952 150.455 195.188L149.964 195.666C150.7 196.416 151.437 197.208 152.119 197.999L152.637 197.549ZM151.887 437.383L151.382 436.919C150.673 437.696 149.937 438.474 149.173 439.211L149.65 439.702C150.414 438.952 151.164 438.174 151.887 437.383ZM148.136 192.951C147.345 192.227 146.527 191.518 145.695 190.849L145.259 191.381C146.077 192.05 146.882 192.746 147.673 193.455L148.136 192.951ZM147.304 441.885L146.854 441.367C146.063 442.063 145.231 442.745 144.4 443.4L144.822 443.946C145.668 443.291 146.5 442.595 147.304 441.899L147.304 441.885ZM143.145 188.898C142.286 188.27 141.386 187.656 140.485 187.083L140.117 187.656C141.004 188.229 141.89 188.83 142.749 189.444L143.145 188.884L143.145 188.898ZM142.231 445.856L141.836 445.297C140.963 445.897 140.076 446.484 139.176 447.029L139.531 447.616C140.445 447.057 141.345 446.47 142.218 445.856L142.231 445.856ZM137.717 185.419C136.79 184.9 135.821 184.395 134.867 183.918L134.567 184.532C135.521 184.996 136.462 185.5 137.39 186.019L137.731 185.419L137.717 185.419ZM136.749 449.213L136.421 448.612C135.494 449.117 134.539 449.595 133.585 450.031L133.871 450.659C134.839 450.209 135.808 449.731 136.749 449.226L136.749 449.213ZM131.934 182.594C130.939 182.185 129.93 181.789 128.934 181.434L128.702 182.076C129.698 182.43 130.693 182.812 131.675 183.222L131.948 182.594L131.934 182.594ZM130.925 451.914L130.666 451.273C129.684 451.669 128.675 452.023 127.679 452.365L127.898 453.019C128.907 452.678 129.93 452.31 130.925 451.914ZM125.866 180.438C124.843 180.138 123.793 179.865 122.756 179.633L122.606 180.302C123.629 180.534 124.666 180.807 125.688 181.107L125.879 180.452L125.866 180.438ZM124.829 453.961L124.652 453.292C123.629 453.565 122.593 453.811 121.556 454.029L121.692 454.698C122.743 454.479 123.793 454.22 124.816 453.947L124.829 453.961ZM119.606 178.992C118.556 178.815 117.478 178.664 116.415 178.542L116.333 179.224C117.383 179.347 118.447 179.497 119.483 179.674L119.592 178.992L119.606 178.992ZM118.528 455.271L118.419 454.589C117.383 454.752 116.319 454.875 115.269 454.971L115.337 455.653C116.401 455.557 117.478 455.421 118.528 455.257L118.528 455.271ZM113.21 178.269C112.146 178.214 111.068 178.173 109.991 178.173L109.868 178.173L109.868 178.856L109.991 178.856C111.055 178.856 112.119 178.883 113.169 178.951L113.21 178.269ZM112.132 455.871L112.105 455.189C111.409 455.216 110.7 455.23 110.005 455.23L108.927 455.23L108.927 455.912L110.005 455.912C110.714 455.912 111.423 455.912 112.132 455.871ZM106.663 178.869L106.663 178.187L103.459 178.187L103.459 178.869L106.663 178.869ZM105.709 455.912L105.709 455.23L102.504 455.23L102.504 455.912L105.709 455.912ZM100.267 178.869L100.267 178.187L97.0623 178.187L97.0623 178.869L100.267 178.869ZM99.3126 455.912L99.3126 455.23L96.1077 455.23L96.1077 455.912L99.3126 455.912ZM93.8711 178.869L93.8711 178.187L90.6662 178.187L90.6662 178.869L93.8711 178.869ZM92.9165 455.912L92.9165 455.23L89.7115 455.23L89.7115 455.912L92.9165 455.912ZM87.4749 178.869L87.4749 178.187L84.27 178.187L84.27 178.869L87.4749 178.869ZM86.5203 455.912L86.5203 455.23L83.3154 455.23L83.3154 455.912L86.5203 455.912ZM81.0651 178.869L81.0651 178.187L77.8602 178.187L77.8602 178.869L81.0651 178.869ZM80.1241 455.912L80.1241 455.23L76.9192 455.23L76.9192 455.912L80.1241 455.912ZM74.6689 178.869L74.6689 178.187L71.464 178.187L71.464 178.869L74.6689 178.869ZM73.7279 455.912L73.7279 455.23L70.523 455.23L70.523 455.912L73.7279 455.912ZM68.2727 178.869L68.2727 178.187L65.0678 178.187L65.0678 178.869L68.2727 178.869ZM67.3181 455.912L67.3181 455.23L64.1131 455.23L64.1131 455.912L67.3181 455.912ZM61.8765 178.869L61.8765 178.187L58.6716 178.187L58.6716 178.869L61.8765 178.869ZM60.9219 455.912L60.9219 455.23L57.717 455.23L57.717 455.912L60.9219 455.912ZM55.4804 178.869L55.4804 178.187L52.2754 178.187L52.2754 178.869L55.4804 178.869ZM54.5257 455.912L54.5257 455.23L51.3208 455.23L51.3208 455.912L54.5257 455.912ZM49.0705 178.869L49.0705 178.187L45.8656 178.187L45.8656 178.869L49.0705 178.869ZM48.1295 455.912L48.1295 455.23L44.9246 455.23L44.9246 455.912L48.1295 455.912ZM42.6743 178.869L42.6743 178.187L39.4695 178.187L39.4695 178.869L42.6743 178.869ZM41.7333 455.912L41.7333 455.23L38.5284 455.23L38.5284 455.912L41.7333 455.912ZM36.2781 178.869L36.2781 178.187L33.0733 178.187L33.0733 178.869L36.2781 178.869ZM35.3235 455.912L35.3235 455.23L32.1186 455.23L32.1186 455.912L35.3235 455.912ZM29.882 178.869L29.882 178.187L26.6771 178.187L26.6771 178.869L29.882 178.869ZM28.9274 455.912L28.9274 455.23L25.7224 455.23L25.7224 455.912L28.9274 455.912ZM23.4858 178.869L23.4858 178.187L20.2809 178.187L20.2809 178.869L23.4858 178.869ZM22.5312 455.912L22.5312 455.23L19.3263 455.23L19.3263 455.912L22.5312 455.912ZM17.0896 178.869L17.0896 178.187L13.8847 178.187L13.8847 178.869L17.0896 178.869ZM16.135 455.912L16.135 455.23L12.9301 455.23L12.9301 455.912L16.135 455.912ZM10.6798 178.869L10.6798 178.187L7.47489 178.187L7.47489 178.869L10.6798 178.869ZM9.73879 455.912L9.73879 455.23L6.53388 455.23L6.53388 455.912L9.73879 455.912ZM4.28362 178.869L4.28362 178.187L1.0787 178.187L1.0787 178.869L4.28362 178.869ZM3.329 455.912L3.329 455.23L0.124089 455.23L0.124089 455.912L3.329 455.912ZM-2.11257 178.869L-2.11257 178.187L-5.31748 178.187L-5.31748 178.869L-2.11257 178.869ZM-3.06718 455.912L-3.06718 455.23L-6.27211 455.23L-6.27211 455.912L-3.06718 455.912ZM-8.50875 178.869L-8.50875 178.187L-11.7136 178.187L-11.7136 178.869L-8.50875 178.869ZM-9.46337 455.912L-9.46337 455.23L-12.6683 455.23L-12.6683 455.912L-9.46337 455.912ZM-14.9049 178.869L-14.9049 178.187L-18.1098 178.187L-18.1098 178.869L-14.9049 178.869ZM-15.8596 455.912L-15.8596 455.23L-19.0645 455.23L-19.0645 455.912L-15.8596 455.912ZM-21.3147 178.869L-21.3147 178.187L-24.5196 178.187L-24.5196 178.869L-21.3147 178.869ZM-22.2557 455.912L-22.2557 455.23L-25.4607 455.23L-25.4607 455.912L-22.2557 455.912ZM-27.7109 178.869L-27.7109 178.187L-30.9158 178.187L-30.9158 178.869L-27.7109 178.869ZM-28.6519 455.912L-28.6519 455.23L-31.8568 455.23L-31.8568 455.912L-28.6519 455.912ZM-34.1071 178.869L-34.1071 178.187L-37.312 178.187L-37.312 178.869L-34.1071 178.869ZM-35.0618 455.912L-35.0618 455.23L-38.2666 455.23L-38.2666 455.912L-35.0618 455.912ZM-40.5033 178.869L-40.5033 178.187L-43.7082 178.187L-43.7082 178.869L-40.5033 178.869ZM-41.4579 455.912L-41.4579 455.23L-44.6628 455.23L-44.6628 455.912L-41.4579 455.912ZM-46.8995 178.869L-46.8995 178.187L-50.1044 178.187L-50.1044 178.869L-46.8995 178.869ZM-47.8541 455.912L-47.8541 455.23L-51.059 455.23L-51.059 455.912L-47.8541 455.912ZM-53.3093 178.869L-53.3093 178.187L-54.3185 178.187C-55.0549 178.187 -55.7914 178.201 -56.5142 178.228L-56.4869 178.91C-55.7641 178.883 -55.0413 178.869 -54.3185 178.869L-53.3093 178.869ZM-54.2503 455.912L-54.2503 455.23L-54.3185 455.23C-55.355 455.23 -56.4051 455.203 -57.4279 455.148L-57.4688 455.83C-56.4324 455.885 -55.3686 455.912 -54.3185 455.912L-54.2503 455.912ZM-59.6645 179.115L-59.7328 178.433C-60.7965 178.528 -61.8739 178.664 -62.924 178.828L-62.8149 179.51C-61.7784 179.347 -60.7147 179.224 -59.6645 179.115ZM-60.5919 454.875C-61.6421 454.752 -62.7058 454.602 -63.7423 454.439L-63.8514 455.121C-62.8012 455.298 -61.7239 455.448 -60.6601 455.571L-60.5783 454.889L-60.5919 454.875ZM-65.938 180.07L-66.0744 179.401C-67.1245 179.62 -68.1746 179.879 -69.1975 180.152L-69.0202 180.82C-67.9973 180.547 -66.9608 180.288 -65.9243 180.07L-65.938 180.07ZM-66.8653 453.825C-67.9018 453.593 -68.9247 453.32 -69.9475 453.019L-70.1385 453.674C-69.1156 453.975 -68.0655 454.247 -67.029 454.479L-66.879 453.811L-66.8653 453.825ZM-72.0751 181.748L-72.2933 181.093C-73.3025 181.434 -74.3253 181.803 -75.3209 182.198L-75.0617 182.84C-74.0798 182.444 -73.0843 182.076 -72.0751 181.748ZM-72.9615 452.051C-73.9571 451.696 -74.9527 451.314 -75.9346 450.905L-76.1937 451.532C-75.2117 451.942 -74.2025 452.337 -73.1797 452.692L-72.9479 452.051L-72.9615 452.051ZM-77.9666 184.095L-78.253 183.467C-79.2213 183.918 -80.1896 184.409 -81.1306 184.914L-80.8033 185.514C-79.8759 185.009 -78.9213 184.532 -77.9666 184.095ZM-78.8394 449.581C-79.7941 449.117 -80.7351 448.626 -81.6625 448.107L-82.0034 448.708C-81.0761 449.226 -80.1078 449.731 -79.1531 450.209L-78.8531 449.595L-78.8394 449.581ZM-83.5582 187.111L-83.9127 186.524C-84.8265 187.083 -85.7266 187.67 -86.5994 188.284L-86.2039 188.843C-85.3448 188.243 -84.4446 187.656 -83.5445 187.111L-83.5582 187.111ZM-84.3901 446.47C-85.2765 445.897 -86.163 445.297 -87.0222 444.683L-87.4177 445.242C-86.5449 445.87 -85.6584 446.47 -84.7583 447.057L-84.3901 446.484L-84.3901 446.47ZM-88.7678 190.74L-89.1907 190.194C-90.0362 190.849 -90.8681 191.545 -91.6727 192.255L-91.2227 192.773C-90.4317 192.077 -89.6134 191.395 -88.7815 190.74L-88.7678 190.74ZM-89.5452 442.745C-90.3635 442.076 -91.1818 441.381 -91.9591 440.671L-92.4228 441.176C-91.6318 441.899 -90.8135 442.595 -89.9816 443.277L-89.5452 442.745ZM-93.5411 194.929L-94.0185 194.438C-94.7822 195.188 -95.5323 195.966 -96.2551 196.757L-95.7505 197.221C-95.0413 196.444 -94.3048 195.666 -93.5411 194.929ZM-94.2503 438.474C-94.9867 437.724 -95.7232 436.932 -96.4187 436.141L-96.937 436.591C-96.2278 437.396 -95.4913 438.188 -94.7549 438.952L-94.2639 438.474L-94.2503 438.474ZM-97.8234 199.636L-98.3553 199.2C-99.0236 200.032 -99.6918 200.892 -100.306 201.765L-99.7464 202.161C-99.1327 201.301 -98.478 200.455 -97.8098 199.636L-97.8234 199.636ZM-98.4371 433.699C-99.0918 432.866 -99.7191 432.007 -100.319 431.133L-100.878 431.529C-100.265 432.402 -99.6236 433.276 -98.969 434.121L-98.4235 433.699L-98.4371 433.699ZM-101.533 204.794L-102.106 204.426C-102.679 205.326 -103.238 206.254 -103.756 207.196L-103.156 207.537C-102.638 206.609 -102.092 205.695 -101.519 204.808L-101.533 204.794ZM-102.051 428.473C-102.61 427.572 -103.142 426.644 -103.633 425.716L-104.233 426.044C-103.729 426.985 -103.197 427.927 -102.638 428.827L-102.051 428.473ZM-104.642 210.348L-105.256 210.047C-105.72 211.016 -106.17 211.999 -106.579 212.981L-105.952 213.24C-105.542 212.272 -105.106 211.289 -104.642 210.334L-104.642 210.348ZM-105.065 422.878C-105.515 421.923 -105.938 420.941 -106.32 419.958L-106.961 420.217C-106.565 421.214 -106.143 422.196 -105.692 423.165L-105.065 422.878ZM-107.097 216.228L-107.738 215.997C-108.093 217.006 -108.42 218.03 -108.72 219.067L-108.066 219.258C-107.765 218.248 -107.438 217.225 -107.097 216.228ZM-107.411 416.984C-107.752 415.988 -108.052 414.964 -108.325 413.941L-108.993 414.118C-108.72 415.155 -108.406 416.192 -108.066 417.202L-107.411 416.984ZM-108.87 222.328L-109.538 222.178C-109.77 223.215 -109.988 224.279 -110.166 225.33L-109.484 225.439C-109.307 224.402 -109.102 223.351 -108.87 222.314L-108.87 222.328ZM-109.075 410.844C-109.293 409.807 -109.484 408.756 -109.634 407.719L-110.316 407.828C-110.152 408.879 -109.961 409.957 -109.743 410.994L-109.075 410.857L-109.075 410.844ZM-109.934 228.604L-110.616 228.522C-110.739 229.587 -110.82 230.665 -110.875 231.729L-110.193 231.77C-110.138 230.719 -110.043 229.655 -109.934 228.604ZM-110.029 404.553C-110.125 403.503 -110.193 402.438 -110.234 401.374L-110.916 401.401C-110.875 402.466 -110.807 403.557 -110.711 404.608L-110.029 404.54L-110.029 404.553ZM-110.275 398.195L-110.275 394.988L-110.957 394.988L-110.957 398.195L-110.275 398.195ZM-110.275 391.795L-110.275 388.589L-110.957 388.589L-110.957 391.795L-110.275 391.795ZM-110.275 385.396L-110.275 382.19L-110.957 382.19L-110.957 385.396L-110.275 385.396ZM-110.275 378.997L-110.275 375.79L-110.957 375.79L-110.957 378.997L-110.275 378.997ZM-110.275 372.584L-110.275 369.377L-110.957 369.377L-110.957 372.584L-110.275 372.584ZM-110.275 366.184L-110.275 362.978L-110.957 362.978L-110.957 366.184L-110.275 366.184ZM-110.275 359.785L-110.275 356.578L-110.957 356.578L-110.957 359.785L-110.275 359.785ZM-110.275 353.386L-110.275 350.179L-110.957 350.179L-110.957 353.386L-110.275 353.386ZM-110.275 346.986L-110.275 343.78L-110.957 343.78L-110.957 346.986L-110.275 346.986ZM-110.275 340.587L-110.275 337.38L-110.957 337.38L-110.957 340.587L-110.275 340.587ZM-110.275 334.174L-110.275 330.967L-110.957 330.967L-110.957 334.174L-110.275 334.174ZM-110.275 327.774L-110.275 324.568L-110.957 324.568L-110.957 327.774L-110.275 327.774ZM-110.275 321.375L-110.275 318.168L-110.957 318.168L-110.957 321.375L-110.275 321.375ZM-110.275 314.976L-110.275 311.769L-110.957 311.769L-110.957 314.976L-110.275 314.976ZM-110.275 308.576L-110.275 305.37L-110.957 305.37L-110.957 308.576L-110.275 308.576ZM-110.275 302.163L-110.275 298.957L-110.957 298.957L-110.957 302.163L-110.275 302.163ZM-110.275 295.764L-110.275 292.557L-110.957 292.557L-110.957 295.764L-110.275 295.764ZM-110.275 289.364L-110.275 286.158L-110.957 286.158L-110.957 289.364L-110.275 289.364ZM-110.275 282.965L-110.275 279.758L-110.957 279.758L-110.957 282.965L-110.275 282.965ZM-110.275 276.566L-110.275 273.359L-110.957 273.359L-110.957 276.566L-110.275 276.566ZM-110.275 270.153L-110.275 266.946L-110.957 266.946L-110.957 270.153L-110.275 270.153ZM-110.275 263.753L-110.275 260.547L-110.957 260.547L-110.957 263.753L-110.275 263.753ZM-110.275 257.354L-110.275 254.147L-110.957 254.147L-110.957 257.354L-110.275 257.354ZM-110.275 250.954L-110.275 247.748L-110.957 247.748L-110.957 250.954L-110.275 250.954ZM-110.275 244.555L-110.275 241.348L-110.957 241.348L-110.957 244.555L-110.275 244.555ZM-110.275 238.156L-110.275 234.949L-110.957 234.949L-110.957 238.156L-110.275 238.156Z" fill="#BFC8D9" fill-opacity="0.5"/>
<path d="M54.5257 325.236C54.5257 324.431 54.4984 323.613 54.4575 322.808L53.7756 322.849C53.8165 323.64 53.8438 324.445 53.8302 325.236L53.8302 326.028L54.5121 326.028L54.5121 325.236L54.5257 325.236ZM54.5257 460.701L54.5257 457.495L53.8438 457.495L53.8438 460.701L54.5257 460.701ZM54.5257 454.288L54.5257 451.082L53.8438 451.082L53.8438 454.288L54.5257 454.288ZM54.5257 447.875L54.5257 444.669L53.8438 444.669L53.8438 447.875L54.5257 447.875ZM54.5257 441.462L54.5257 438.256L53.8438 438.256L53.8438 441.462L54.5257 441.462ZM54.5257 435.049L54.5257 431.843L53.8438 431.843L53.8438 435.049L54.5257 435.049ZM54.5257 428.636L54.5257 425.43L53.8438 425.43L53.8438 428.636L54.5257 428.636ZM54.5257 422.223L54.5257 419.017L53.8438 419.017L53.8438 422.223L54.5257 422.223ZM54.5257 415.81L54.5257 412.604L53.8438 412.604L53.8438 415.81L54.5257 415.81ZM54.5257 409.397L54.5257 406.191L53.8438 406.191L53.8438 409.397L54.5257 409.397ZM54.5257 402.984L54.5257 399.778L53.8438 399.778L53.8438 402.984L54.5257 402.984ZM54.5257 396.571L54.5257 393.365L53.8438 393.365L53.8438 396.571L54.5257 396.571ZM54.5257 390.158L54.5257 386.952L53.8438 386.952L53.8438 390.158L54.5257 390.158ZM54.5257 383.745L54.5257 380.539L53.8438 380.539L53.8438 383.745L54.5257 383.745ZM54.5257 377.346L54.5257 374.139L53.8438 374.139L53.8438 377.346L54.5257 377.346ZM54.5257 370.933L54.5257 367.726L53.8438 367.726L53.8438 370.933L54.5257 370.933ZM54.5257 364.52L54.5257 361.313L53.8438 361.313L53.8438 364.52L54.5257 364.52ZM54.5257 358.107L54.5257 354.9L53.8438 354.9L53.8438 358.107L54.5257 358.107ZM54.5257 351.694L54.5257 348.487L53.8438 348.487L53.8438 351.694L54.5257 351.694ZM54.5257 345.281L54.5257 342.074L53.8438 342.074L53.8438 345.281L54.5257 345.281ZM54.5257 338.867L54.5257 335.661L53.8438 335.661L53.8438 338.867L54.5257 338.867ZM54.5257 332.454L54.5257 329.248L53.8438 329.248L53.8438 332.454L54.5257 332.454ZM54.4166 463.935L53.7347 463.894C53.6665 464.945 53.5574 466.009 53.4074 467.06L54.0893 467.155C54.2393 466.091 54.3484 465.013 54.4166 463.949L54.4166 463.935ZM54.1847 319.601C54.062 318.537 53.8847 317.459 53.6938 316.408L53.0255 316.531C53.2301 317.568 53.3937 318.619 53.5165 319.669L54.1984 319.587L54.1847 319.601ZM53.5437 470.321L52.8755 470.185C52.6573 471.222 52.4118 472.259 52.1254 473.268L52.78 473.459C53.0664 472.422 53.3255 471.372 53.5437 470.321ZM52.971 313.256C52.6982 312.219 52.3846 311.182 52.0436 310.159L51.389 310.377C51.7299 311.373 52.0436 312.397 52.3027 313.42L52.971 313.243L52.971 313.256ZM51.7845 476.529L51.1435 476.297C50.7889 477.293 50.3934 478.29 49.9706 479.258L50.598 479.531C51.0344 478.549 51.4299 477.539 51.7981 476.529L51.7845 476.529ZM50.898 307.157C50.4888 306.175 50.0252 305.192 49.5478 304.223L48.9342 304.537C49.4115 305.479 49.8615 306.448 50.2706 307.43L50.898 307.171L50.898 307.157ZM49.1933 482.451L48.5796 482.137C48.0886 483.079 47.5567 484.007 46.9976 484.907L47.584 485.262C48.1431 484.348 48.6887 483.406 49.1796 482.451L49.1933 482.451ZM47.9931 301.399C47.4476 300.485 46.8612 299.571 46.2475 298.684L45.6883 299.079C46.2884 299.953 46.8612 300.853 47.4067 301.754L47.9931 301.399ZM45.7974 487.95L45.2383 487.554C44.6246 488.414 43.97 489.26 43.3017 490.079L43.8336 490.515C44.5155 489.683 45.1837 488.823 45.7974 487.95ZM44.3381 296.091C43.6699 295.259 42.9607 294.427 42.2379 293.635L41.7333 294.099C42.4425 294.877 43.138 295.695 43.8063 296.514L44.3381 296.091ZM41.6924 492.917L41.2015 492.439C40.4786 493.203 39.7149 493.954 38.9376 494.677L39.4012 495.182C40.1922 494.459 40.9696 493.694 41.706 492.917L41.6924 492.917ZM39.974 291.343C39.1967 290.606 38.392 289.883 37.5601 289.201L37.1237 289.733C37.942 290.401 38.733 291.111 39.4967 291.848L39.974 291.356L39.974 291.343ZM36.9464 497.283L36.5237 496.751C35.7054 497.406 34.8462 498.047 33.9734 498.648L34.3688 499.207C35.2553 498.593 36.1145 497.952 36.96 497.283L36.9464 497.283ZM34.9962 287.222C34.1234 286.594 33.2233 285.994 32.3095 285.435L31.9549 286.021C32.855 286.581 33.7415 287.168 34.6007 287.782L34.9962 287.222ZM31.6413 500.953L31.2867 500.367C30.3866 500.913 29.4456 501.417 28.5046 501.895L28.8182 502.509C29.7729 502.031 30.7275 501.499 31.6413 500.953ZM29.5137 283.825C28.5591 283.32 27.5908 282.856 26.6089 282.419L26.3361 283.047C27.3044 283.47 28.2727 283.934 29.2001 284.425L29.5137 283.825ZM25.8861 503.86L25.6269 503.232C24.6586 503.641 23.6631 504.024 22.6539 504.365L22.8721 505.02C23.8813 504.678 24.9041 504.283 25.8861 503.873L25.8861 503.86ZM23.5949 281.232C22.5857 280.864 21.5492 280.536 20.5264 280.25L20.3355 280.905C21.3583 281.191 22.3675 281.519 23.3631 281.873L23.5949 281.232ZM19.7899 505.947L19.6127 505.279C18.5898 505.552 17.5533 505.784 16.5168 505.988L16.6396 506.657C17.6897 506.452 18.7534 506.207 19.7899 505.934L19.7899 505.947ZM17.3897 279.472C16.3395 279.254 15.2758 279.063 14.212 278.926L14.1165 279.608C15.1666 279.758 16.2168 279.936 17.2533 280.154L17.3897 279.486L17.3897 279.472ZM13.4619 507.162L13.3801 506.48C12.33 506.602 11.2662 506.698 10.2161 506.752L10.257 507.435C11.3344 507.38 12.4118 507.285 13.4756 507.162L13.4619 507.162ZM11.0071 278.585C9.94333 278.517 8.85231 278.476 7.78856 278.476L7.66582 278.476L7.66582 279.158L7.78856 279.158C8.85231 279.158 9.91605 279.199 10.9662 279.267L11.0071 278.585ZM7.02485 507.503L7.02485 506.821L3.81993 506.821L3.81993 507.503L7.02485 507.503ZM4.4609 279.172L4.4609 278.489L1.25598 278.489L1.25598 279.172L4.4609 279.172ZM0.61501 507.503L0.61501 506.821L-2.58991 506.821L-2.58991 507.503L0.61501 507.503ZM-1.94893 279.172L-1.94893 278.489L-5.15381 278.489L-5.15381 279.172L-1.94893 279.172ZM-5.79478 507.503L-5.79478 506.821L-8.9997 506.821L-8.9997 507.503L-5.79478 507.503ZM-8.35873 279.172L-8.35873 278.489L-11.5636 278.489L-11.5636 279.172L-8.35873 279.172ZM-12.2046 507.503L-12.2046 506.821L-15.4095 506.821L-15.4095 507.503L-12.2046 507.503ZM-14.7686 279.172L-14.7686 278.489L-17.9735 278.489L-17.9735 279.172L-14.7686 279.172ZM-18.6145 507.503L-18.6145 506.821L-21.8193 506.821L-21.8193 507.503L-18.6145 507.503ZM-21.1784 279.172L-21.1784 278.489L-24.3833 278.489L-24.3833 279.172L-21.1784 279.172ZM-25.0243 507.503L-25.0243 506.821L-28.2292 506.821L-28.2292 507.503L-25.0243 507.503ZM-27.5882 279.172L-27.5882 278.489L-30.7931 278.489L-30.7931 279.172L-27.5882 279.172ZM-31.4341 507.503L-31.4341 506.821L-34.639 506.821L-34.639 507.503L-31.4341 507.503ZM-33.998 279.172L-33.998 278.489L-37.2029 278.489L-37.2029 279.172L-33.998 279.172ZM-37.8439 507.503L-37.8439 506.821L-41.0488 506.821L-41.0488 507.503L-37.8439 507.503ZM-40.4078 279.172L-40.4078 278.489L-43.6127 278.489L-43.6127 279.172L-40.4078 279.172ZM-44.2537 507.503L-44.2537 506.821L-47.4586 506.821L-47.4586 507.503L-44.2537 507.503ZM-46.8177 279.172L-46.8177 278.489L-50.0226 278.489L-50.0226 279.172L-46.8177 279.172ZM-50.6636 507.503L-50.6636 506.821L-53.8684 506.821L-53.8684 507.503L-50.6636 507.503ZM-53.2275 279.172L-53.2275 278.489L-56.4324 278.489L-56.4324 279.172L-53.2275 279.172ZM-57.0733 507.503L-57.0733 506.821L-60.2783 506.821L-60.2783 507.503L-57.0733 507.503ZM-59.6373 279.172L-59.6373 278.489L-62.8422 278.489L-62.8422 279.172L-59.6373 279.172ZM-63.4832 507.503L-63.4832 506.821L-66.6881 506.821L-66.6881 507.503L-63.4832 507.503ZM-66.0471 279.172L-66.0471 278.489L-69.252 278.489L-69.252 279.172L-66.0471 279.172ZM-69.893 507.503L-69.893 506.821L-73.0979 506.821L-73.0979 507.503L-69.893 507.503ZM-72.4569 279.172L-72.4569 278.489L-75.6618 278.489L-75.6618 279.172L-72.4569 279.172ZM-76.3028 507.503L-76.3028 506.821L-79.5077 506.821L-79.5077 507.503L-76.3028 507.503ZM-78.8668 279.172L-78.8668 278.489L-82.0717 278.489L-82.0717 279.172L-78.8668 279.172ZM-82.7126 507.503L-82.7126 506.821L-85.9175 506.821L-85.9175 507.503L-82.7126 507.503ZM-85.2765 279.172L-85.2765 278.489L-88.4815 278.489L-88.4815 279.172L-85.2765 279.172ZM-89.1224 507.503L-89.1224 506.821L-92.3274 506.821L-92.3274 507.503L-89.1224 507.503ZM-91.6864 279.172L-91.6864 278.489L-94.8913 278.489L-94.8913 279.172L-91.6864 279.172ZM-95.5323 507.503L-95.5323 506.821L-98.7372 506.821L-98.7372 507.503L-95.5323 507.503ZM-98.0962 279.172L-98.0962 278.489L-101.301 278.489L-101.301 279.172L-98.0962 279.172ZM-101.942 507.503L-101.942 506.821L-105.147 506.821L-105.147 507.503L-101.942 507.503ZM-104.506 279.172L-104.506 278.489L-107.711 278.489L-107.711 279.172L-104.506 279.172ZM-108.352 507.503L-108.352 506.821L-111.557 506.821L-111.557 507.503L-108.352 507.503ZM-110.916 279.172L-110.916 278.489L-114.121 278.489L-114.121 279.172L-110.916 279.172ZM-114.762 507.503L-114.762 506.821L-117.967 506.821L-117.967 507.503L-114.762 507.503ZM-117.326 279.172L-117.326 278.489L-120.531 278.489L-120.531 279.172L-117.326 279.172ZM-121.172 507.503L-121.172 506.821L-124.376 506.821L-124.376 507.503L-121.172 507.503ZM-123.735 279.172L-123.735 278.489L-126.94 278.489L-126.94 279.172L-123.735 279.172ZM-127.581 507.503L-127.581 506.821L-127.636 506.821C-128.672 506.821 -129.723 506.78 -130.759 506.712L-130.8 507.394C-129.75 507.462 -128.686 507.503 -127.636 507.503L-127.568 507.503L-127.581 507.503ZM-130.132 279.226L-130.173 278.544C-131.25 278.599 -132.327 278.694 -133.391 278.831L-133.309 279.513C-132.259 279.39 -131.195 279.295 -130.145 279.24L-130.132 279.226ZM-133.923 506.398C-134.973 506.261 -136.023 506.07 -137.06 505.866L-137.196 506.534C-136.146 506.753 -135.082 506.93 -134.018 507.08L-133.923 506.398ZM-136.432 280.004L-136.569 279.335C-137.619 279.54 -138.683 279.786 -139.719 280.059L-139.542 280.727C-138.519 280.454 -137.483 280.222 -136.446 280.018L-136.432 280.004ZM-140.142 505.101C-141.165 504.815 -142.174 504.487 -143.169 504.133L-143.401 504.774C-142.392 505.129 -141.356 505.47 -140.333 505.756L-140.142 505.101ZM-142.569 281.641L-142.788 280.986C-143.797 281.328 -144.82 281.723 -145.802 282.133L-145.529 282.76C-144.561 282.351 -143.565 281.969 -142.569 281.628L-142.569 281.641ZM-146.129 502.959C-147.097 502.536 -148.065 502.072 -148.993 501.581L-149.307 502.182C-148.366 502.673 -147.384 503.15 -146.402 503.587L-146.129 502.959ZM-148.42 284.111L-148.734 283.497C-149.688 283.988 -150.643 284.507 -151.557 285.053L-151.202 285.639C-150.302 285.094 -149.361 284.589 -148.42 284.111ZM-151.761 499.998C-152.661 499.439 -153.548 498.852 -154.407 498.238L-154.803 498.798C-153.93 499.425 -153.03 500.026 -152.116 500.585L-151.761 499.998ZM-153.875 287.372L-154.271 286.813C-155.157 287.427 -156.016 288.068 -156.862 288.737L-156.439 289.269C-155.621 288.614 -154.762 287.973 -153.889 287.372L-153.875 287.372ZM-156.93 496.301C-157.748 495.632 -158.539 494.923 -159.317 494.199L-159.794 494.691C-159.017 495.427 -158.199 496.151 -157.38 496.833L-156.944 496.301L-156.93 496.301ZM-158.839 291.343L-159.303 290.838C-160.094 291.561 -160.858 292.325 -161.594 293.103L-161.09 293.581C-160.367 292.816 -159.603 292.066 -158.826 291.343L-158.839 291.343ZM-161.553 491.921C-162.263 491.143 -162.972 490.324 -163.626 489.506L-164.158 489.929C-163.49 490.761 -162.781 491.593 -162.058 492.385L-161.553 491.921ZM-163.204 295.955L-163.735 295.518C-164.417 296.35 -165.072 297.21 -165.699 298.083L-165.14 298.479C-164.526 297.619 -163.872 296.773 -163.204 295.955ZM-165.522 486.954C-166.122 486.081 -166.695 485.194 -167.24 484.28L-167.827 484.634C-167.281 485.549 -166.695 486.463 -166.081 487.35L-165.522 486.954ZM-166.899 301.14L-167.486 300.785C-168.045 301.699 -168.591 302.641 -169.082 303.596L-168.468 303.91C-167.977 302.968 -167.445 302.04 -166.899 301.14ZM-168.768 481.496C-169.245 480.555 -169.695 479.586 -170.104 478.617L-170.732 478.876C-170.323 479.859 -169.859 480.841 -169.382 481.81L-168.768 481.496ZM-169.845 306.775L-170.473 306.502C-170.909 307.485 -171.304 308.494 -171.659 309.504L-171.018 309.736C-170.664 308.74 -170.268 307.744 -169.845 306.775ZM-171.236 475.642C-171.577 474.646 -171.891 473.623 -172.164 472.6L-172.832 472.777C-172.559 473.814 -172.246 474.851 -171.891 475.861L-171.236 475.642ZM-171.986 312.765L-172.641 312.574C-172.927 313.611 -173.187 314.662 -173.405 315.712L-172.736 315.849C-172.518 314.812 -172.273 313.775 -171.986 312.765ZM-172.873 469.502C-173.077 468.465 -173.241 467.415 -173.364 466.364L-174.046 466.446C-173.909 467.51 -173.746 468.588 -173.541 469.639L-172.873 469.516L-172.873 469.502ZM-173.282 318.987L-173.964 318.892C-174.114 319.956 -174.223 321.034 -174.291 322.098L-173.609 322.139C-173.541 321.088 -173.432 320.024 -173.296 318.973L-173.282 318.987ZM-173.637 463.198C-173.678 462.393 -173.705 461.561 -173.705 460.742L-173.705 460.019L-174.387 460.019L-174.387 460.742C-174.387 461.575 -174.359 462.407 -174.318 463.239L-173.637 463.198ZM-173.705 456.799L-173.705 453.593L-174.387 453.593L-174.387 456.799L-173.705 456.799ZM-173.705 450.386L-173.705 447.18L-174.387 447.18L-174.387 450.386L-173.705 450.386ZM-173.705 443.973L-173.705 440.766L-174.387 440.766L-174.387 443.973L-173.705 443.973ZM-173.705 437.56L-173.705 434.353L-174.387 434.353L-174.387 437.56L-173.705 437.56ZM-173.705 431.147L-173.705 427.94L-174.387 427.94L-174.387 431.147L-173.705 431.147ZM-173.705 424.734L-173.705 421.527L-174.387 421.527L-174.387 424.734L-173.705 424.734ZM-173.705 418.321L-173.705 415.114L-174.387 415.114L-174.387 418.321L-173.705 418.321ZM-173.705 411.908L-173.705 408.701L-174.387 408.701L-174.387 411.908L-173.705 411.908ZM-173.705 405.495L-173.705 402.288L-174.387 402.288L-174.387 405.495L-173.705 405.495ZM-173.705 399.082L-173.705 395.875L-174.387 395.875L-174.387 399.082L-173.705 399.082ZM-173.705 392.669L-173.705 389.462L-174.387 389.462L-174.387 392.669L-173.705 392.669ZM-173.705 386.256L-173.705 383.049L-174.387 383.049L-174.387 386.256L-173.705 386.256ZM-173.705 379.843L-173.705 376.636L-174.387 376.636L-174.387 379.843L-173.705 379.843ZM-173.705 373.43L-173.705 370.223L-174.387 370.223L-174.387 373.43L-173.705 373.43ZM-173.705 367.017L-173.705 363.81L-174.387 363.81L-174.387 367.017L-173.705 367.017ZM-173.705 360.604L-173.705 357.397L-174.387 357.397L-174.387 360.604L-173.705 360.604ZM-173.705 354.191L-173.705 350.984L-174.387 350.984L-174.387 354.191L-173.705 354.191ZM-173.705 347.778L-173.705 344.571L-174.387 344.571L-174.387 347.778L-173.705 347.778ZM-173.705 341.364L-173.705 338.158L-174.387 338.158L-174.387 341.364L-173.705 341.364ZM-173.705 334.951L-173.705 331.745L-174.387 331.745L-174.387 334.951L-173.705 334.951ZM-173.705 328.538L-173.705 325.332L-174.387 325.332L-174.387 328.538L-173.705 328.538Z" fill="#BFC8D9" fill-opacity="0.5"/>
<path d="M388.355 405.864L387.673 405.836L387.673 405.864C387.673 406.914 387.632 407.979 387.536 409.016L388.218 409.07C388.314 408.006 388.355 406.928 388.355 405.864ZM388.355 402.643L388.355 399.437L387.673 399.437L387.673 402.643L388.355 402.643ZM388.355 396.23L388.355 393.024L387.673 393.024L387.673 396.23L388.355 396.23ZM388.355 389.817L388.355 386.611L387.673 386.611L387.673 389.817L388.355 389.817ZM388.355 383.404L388.355 380.198L387.673 380.198L387.673 383.404L388.355 383.404ZM388.355 376.991L388.355 373.785L387.673 373.785L387.673 376.991L388.355 376.991ZM388.355 370.578L388.355 367.372L387.673 367.372L387.673 370.578L388.355 370.578ZM388.355 364.165L388.355 360.959L387.673 360.959L387.673 364.165L388.355 364.165ZM388.355 357.752L388.355 354.546L387.673 354.546L387.673 357.752L388.355 357.752ZM388.355 351.339L388.355 348.133L387.673 348.133L387.673 351.339L388.355 351.339ZM388.355 344.926L388.355 341.72L387.673 341.72L387.673 344.926L388.355 344.926ZM388.355 338.513L388.355 335.307L387.673 335.307L387.673 338.513L388.355 338.513ZM388.355 332.1L388.355 328.894L387.673 328.894L387.673 332.1L388.355 332.1ZM388.355 325.687L388.355 322.481L387.673 322.481L387.673 325.687L388.355 325.687ZM388.355 319.274L388.355 316.068L387.673 316.068L387.673 319.274L388.355 319.274ZM388.355 312.861L388.355 309.654L387.673 309.654L387.673 312.861L388.355 312.861ZM388.355 306.448L388.355 303.241L387.673 303.241L387.673 306.448L388.355 306.448ZM388.355 300.035L388.355 297.47C388.355 297.251 388.355 297.033 388.355 296.815L387.673 296.815C387.673 297.033 387.673 297.251 387.673 297.47L387.673 300.035L388.355 300.035ZM388.15 293.595C388.041 292.53 387.877 291.452 387.686 290.402L387.018 290.525C387.223 291.562 387.373 292.612 387.482 293.663L388.164 293.595L388.15 293.595ZM387.809 412.29L387.127 412.167C386.95 413.204 386.718 414.255 386.459 415.265L387.127 415.442C387.4 414.405 387.632 413.341 387.809 412.277L387.809 412.29ZM386.936 287.25C386.65 286.213 386.309 285.189 385.927 284.18L385.286 284.425C385.654 285.408 385.995 286.431 386.282 287.441L386.936 287.25ZM386.159 418.54L385.518 418.308C385.163 419.304 384.754 420.286 384.318 421.241L384.945 421.528C385.395 420.559 385.804 419.549 386.172 418.526L386.159 418.54ZM384.645 281.205C384.181 280.236 383.663 279.281 383.118 278.353L382.531 278.708C383.063 279.609 383.581 280.55 384.031 281.505L384.645 281.205ZM383.459 424.407L382.858 424.066C382.34 424.98 381.767 425.88 381.167 426.754L381.727 427.149C382.34 426.263 382.913 425.348 383.445 424.407L383.459 424.407ZM381.358 275.652C380.731 274.778 380.063 273.919 379.367 273.114L378.849 273.564C379.531 274.369 380.199 275.202 380.813 276.061L381.372 275.665L381.358 275.652ZM379.79 429.728L379.258 429.292C378.59 430.11 377.867 430.902 377.131 431.652L377.622 432.13C378.372 431.366 379.108 430.561 379.79 429.728ZM377.158 270.753C376.394 270.003 375.589 269.266 374.758 268.584L374.321 269.116C375.139 269.785 375.93 270.508 376.68 271.245L377.158 270.753ZM375.262 434.34L374.812 433.822C374.007 434.504 373.176 435.173 372.316 435.787L372.712 436.346C373.585 435.718 374.444 435.05 375.249 434.354L375.262 434.34ZM372.18 266.633C371.294 266.019 370.38 265.445 369.439 264.913L369.098 265.514C370.012 266.032 370.912 266.605 371.784 267.206L372.18 266.646L372.18 266.633ZM370.012 438.106L369.657 437.519C368.757 438.065 367.816 438.57 366.861 439.02L367.161 439.634C368.13 439.17 369.084 438.652 370.012 438.106ZM366.561 263.426C365.579 262.976 364.584 262.566 363.574 262.198L363.343 262.839C364.338 263.194 365.32 263.603 366.275 264.04L366.561 263.412L366.561 263.426ZM364.202 440.917L363.956 440.276C362.974 440.644 361.965 440.985 360.942 441.272L361.133 441.927C362.17 441.627 363.193 441.285 364.202 440.903L364.202 440.917ZM360.479 261.229C359.442 260.956 358.378 260.724 357.315 260.533L357.192 261.216C358.228 261.393 359.279 261.625 360.288 261.898L360.465 261.229L360.479 261.229ZM357.983 442.677L357.86 442.009C356.824 442.213 355.774 442.363 354.723 442.472L354.792 443.155C355.855 443.046 356.933 442.882 357.983 442.677ZM354.123 260.138C353.06 260.042 351.969 260.001 350.891 260.001L350.809 260.001L350.809 260.683L350.891 260.683C351.941 260.683 353.019 260.724 354.055 260.82L354.11 260.138L354.123 260.138ZM351.559 443.346L351.559 442.663C351.328 442.663 351.109 442.663 350.891 442.663L348.355 442.663L348.355 443.346L350.891 443.346C351.109 443.346 351.341 443.346 351.559 443.346ZM347.604 260.683L347.604 260.001L344.4 260.001L344.4 260.683L347.604 260.683ZM345.15 443.346L345.15 442.663L341.945 442.663L341.945 443.346L345.15 443.346ZM341.195 260.683L341.195 260.001L337.99 260.001L337.99 260.683L341.195 260.683ZM338.74 443.346L338.74 442.663L335.535 442.663L335.535 443.346L338.74 443.346ZM334.785 260.683L334.785 260.001L331.58 260.001L331.58 260.683L334.785 260.683ZM332.33 443.346L332.33 442.663L329.125 442.663L329.125 443.346L332.33 443.346ZM328.375 260.683L328.375 260.001L325.17 260.001L325.17 260.683L328.375 260.683ZM325.92 443.346L325.92 442.663L322.715 442.663L322.715 443.346L325.92 443.346ZM321.965 260.683L321.965 260.001L318.76 260.001L318.76 260.683L321.965 260.683ZM319.51 443.346L319.51 442.663L316.305 442.663L316.305 443.346L319.51 443.346ZM315.555 260.683L315.555 260.001L312.35 260.001L312.35 260.683L315.555 260.683ZM313.101 443.346L313.101 442.663L309.896 442.663L309.896 443.346L313.101 443.346ZM309.146 260.683L309.146 260.001L305.941 260.001L305.941 260.683L309.146 260.683ZM306.691 443.346L306.691 442.663L303.486 442.663L303.486 443.346L306.691 443.346ZM302.736 260.683L302.736 260.001L299.531 260.001L299.531 260.683L302.736 260.683ZM300.281 443.346L300.281 442.664L297.076 442.664L297.076 443.346L300.281 443.346ZM296.326 260.683L296.326 260.001L293.121 260.001L293.121 260.683L296.326 260.683ZM293.871 443.346L293.871 442.664L290.666 442.664L290.666 443.346L293.871 443.346ZM289.916 260.683L289.916 260.001L286.711 260.001L286.711 260.683L289.916 260.683ZM287.461 443.346L287.461 442.664L284.256 442.664L284.256 443.346L287.461 443.346ZM283.506 260.683L283.506 260.001L280.301 260.001L280.301 260.683L283.506 260.683ZM281.051 443.346L281.051 442.664L277.847 442.664L277.847 443.346L281.051 443.346ZM277.096 260.683L277.096 260.001L273.892 260.001L273.892 260.683L277.096 260.683ZM274.642 443.346L274.642 442.664L271.437 442.664L271.437 443.346L274.642 443.346ZM270.687 260.683L270.687 260.001L267.482 260.001L267.482 260.683L270.687 260.683ZM268.232 443.346L268.232 442.664L265.027 442.664L265.027 443.346L268.232 443.346ZM264.277 260.683L264.277 260.001L261.072 260.001L261.072 260.683L264.277 260.683ZM261.822 443.346L261.822 442.664L258.617 442.664L258.617 443.346L261.822 443.346ZM257.867 260.683L257.867 260.001L254.662 260.001L254.662 260.683L257.867 260.683ZM255.412 443.346L255.412 442.664L252.207 442.664L252.207 443.346L255.412 443.346ZM251.457 260.683L251.457 260.001L248.252 260.001L248.252 260.683L251.457 260.683ZM249.002 443.346L249.002 442.664L245.797 442.664L245.797 443.346L249.002 443.346ZM245.047 260.683L245.047 260.001L242.552 260.001C242.306 260.001 242.074 260.001 241.829 260.001L241.829 260.683C242.074 260.683 242.306 260.683 242.552 260.683L245.047 260.683ZM242.593 443.346L242.593 442.664L242.552 442.664C241.515 442.664 240.451 442.623 239.429 442.527L239.374 443.209C240.424 443.305 241.501 443.346 242.565 443.346L242.606 443.346L242.593 443.346ZM238.678 260.888L238.61 260.206C237.546 260.315 236.469 260.479 235.419 260.683L235.555 261.352C236.592 261.147 237.642 260.997 238.692 260.888L238.678 260.888ZM236.278 442.131C235.242 441.954 234.192 441.722 233.182 441.463L233.005 442.131C234.042 442.404 235.105 442.636 236.169 442.814L236.292 442.131L236.278 442.131ZM232.46 262.089L232.269 261.434C231.232 261.734 230.209 262.075 229.2 262.457L229.446 263.099C230.427 262.717 231.45 262.389 232.46 262.103L232.46 262.089ZM230.141 440.521C229.146 440.167 228.164 439.757 227.195 439.321L226.909 439.948C227.891 440.398 228.886 440.808 229.909 441.176L230.141 440.535L230.141 440.521ZM226.527 264.354L226.227 263.74C225.259 264.204 224.304 264.722 223.377 265.268L223.731 265.855C224.631 265.309 225.572 264.804 226.527 264.354ZM224.386 437.874C223.472 437.356 222.572 436.783 221.699 436.182L221.304 436.742C222.19 437.356 223.104 437.929 224.045 438.461L224.386 437.861L224.386 437.874ZM221.086 267.601L220.69 267.042C219.817 267.67 218.972 268.338 218.153 269.048L218.603 269.566C219.408 268.884 220.24 268.215 221.099 267.601L221.086 267.601ZM219.163 434.272C218.344 433.603 217.553 432.88 216.803 432.143L216.326 432.635C217.09 433.385 217.908 434.108 218.726 434.804L219.163 434.272ZM216.285 271.736L215.794 271.258C215.044 272.022 214.321 272.841 213.639 273.66L214.171 274.096C214.839 273.278 215.562 272.486 216.299 271.736L216.285 271.736ZM214.635 429.824C213.953 429.019 213.285 428.186 212.671 427.327L212.112 427.723C212.739 428.596 213.407 429.455 214.117 430.26L214.635 429.81L214.635 429.824ZM212.248 276.634L211.689 276.239C211.075 277.125 210.502 278.053 209.971 278.981L210.571 279.322C211.089 278.408 211.662 277.507 212.262 276.634L212.248 276.634ZM210.939 424.68C210.393 423.779 209.889 422.838 209.439 421.883L208.825 422.183C209.289 423.152 209.807 424.107 210.352 425.034L210.939 424.68ZM209.111 282.147L208.484 281.86C208.034 282.843 207.625 283.839 207.27 284.862L207.911 285.094C208.266 284.098 208.675 283.115 209.111 282.147ZM208.17 418.963C207.789 417.98 207.461 416.957 207.175 415.947L206.52 416.138C206.82 417.175 207.161 418.198 207.543 419.208L208.184 418.963L208.17 418.963ZM206.97 288.123L206.302 287.946C206.029 288.983 205.797 290.047 205.62 291.111L206.302 291.22C206.479 290.183 206.711 289.133 206.97 288.123ZM206.438 412.863C206.234 411.826 206.084 410.776 205.975 409.725L205.293 409.793C205.402 410.858 205.566 411.936 205.77 412.986L206.438 412.863ZM205.907 294.372L205.225 294.318C205.143 295.368 205.088 296.433 205.088 297.483L205.088 297.552L205.77 297.552L205.77 297.483C205.77 296.446 205.811 295.396 205.893 294.372L205.907 294.372ZM205.784 406.56C205.784 406.328 205.784 406.109 205.784 405.877L205.784 403.367L205.102 403.367L205.102 405.877C205.102 406.109 205.102 406.341 205.102 406.573L205.784 406.573L205.784 406.56ZM205.77 400.146L205.77 396.94L205.088 396.94L205.088 400.146L205.77 400.146ZM205.77 393.733L205.77 390.527L205.088 390.527L205.088 393.733L205.77 393.733ZM205.77 387.32L205.77 384.114L205.088 384.114L205.088 387.32L205.77 387.32ZM205.77 380.907L205.77 377.701L205.088 377.701L205.088 380.907L205.77 380.907ZM205.77 374.494L205.77 371.288L205.088 371.288L205.088 374.494L205.77 374.494ZM205.77 368.081L205.77 364.875L205.088 364.875L205.088 368.081L205.77 368.081ZM205.77 361.668L205.77 358.462L205.088 358.462L205.088 361.668L205.77 361.668ZM205.77 355.255L205.77 352.049L205.088 352.049L205.088 355.255L205.77 355.255ZM205.77 348.842L205.77 345.636L205.088 345.636L205.088 348.842L205.77 348.842ZM205.77 342.429L205.77 339.223L205.088 339.223L205.088 342.429L205.77 342.429ZM205.77 336.016L205.77 332.81L205.088 332.81L205.088 336.016L205.77 336.016ZM205.77 329.603L205.77 326.397L205.088 326.397L205.088 329.603L205.77 329.603ZM205.77 323.19L205.77 319.984L205.088 319.984L205.088 323.19L205.77 323.19ZM205.77 316.777L205.77 313.571L205.088 313.571L205.088 316.777L205.77 316.777ZM205.77 310.364L205.77 307.158L205.088 307.158L205.088 310.364L205.77 310.364ZM205.77 303.951L205.77 300.744L205.088 300.744L205.088 303.951L205.77 303.951Z" fill="#BFC8D9" fill-opacity="0.5"/>
<path d="M289.752 514.066L289.071 514.066C289.071 515.131 289.03 516.195 288.948 517.245L289.63 517.3C289.712 516.236 289.752 515.144 289.752 514.066ZM289.752 510.846L289.752 507.626L289.071 507.626L289.071 510.846L289.752 510.846ZM289.752 504.419L289.752 501.199L289.071 501.199L289.071 504.419L289.752 504.419ZM289.752 497.993L289.752 494.773L289.071 494.773L289.071 497.993L289.752 497.993ZM289.752 491.566L289.752 488.346L289.071 488.346L289.071 491.566L289.752 491.566ZM289.752 485.139L289.752 481.919L289.071 481.919L289.071 485.139L289.752 485.139ZM289.752 478.713L289.752 475.493L289.071 475.493L289.071 478.713L289.752 478.713ZM289.752 472.286L289.752 469.066L289.071 469.066L289.071 472.286L289.752 472.286ZM289.752 465.859L289.752 462.639L289.071 462.639L289.071 465.859L289.752 465.859ZM289.752 459.433L289.752 456.212L289.071 456.212L289.071 459.433L289.752 459.433ZM289.752 453.006L289.752 449.786L289.071 449.786L289.071 453.006L289.752 453.006ZM289.752 446.579L289.752 443.359L289.071 443.359L289.071 446.579L289.752 446.579ZM289.752 440.153L289.752 436.932L289.071 436.932L289.071 440.153L289.752 440.153ZM289.752 433.712L289.752 430.492L289.071 430.492L289.071 433.712L289.752 433.712ZM289.752 427.286L289.752 424.065L289.071 424.065L289.071 427.286L289.752 427.286ZM289.752 420.859L289.752 417.639L289.071 417.639L289.071 420.859L289.752 420.859ZM289.752 414.432L289.752 411.212L289.071 411.212L289.071 414.432L289.752 414.432ZM289.752 408.006L289.752 404.785L289.071 404.785L289.071 408.006L289.752 408.006ZM289.752 401.579L289.752 398.359L289.071 398.359L289.071 401.579L289.752 401.579ZM289.712 395.139C289.657 394.061 289.561 392.969 289.425 391.918L288.743 392C288.88 393.051 288.975 394.115 289.016 395.166L289.698 395.139L289.712 395.139ZM289.248 520.52L288.566 520.411C288.402 521.448 288.184 522.499 287.939 523.536L288.607 523.699C288.866 522.649 289.084 521.584 289.248 520.52ZM288.893 388.712C288.675 387.661 288.402 386.597 288.102 385.574L287.448 385.765C287.748 386.774 288.007 387.811 288.225 388.848L288.893 388.712ZM287.707 526.81L287.052 526.592C286.725 527.602 286.343 528.598 285.92 529.58L286.548 529.853C286.97 528.857 287.352 527.847 287.693 526.824L287.707 526.81ZM287.052 382.504C286.67 381.507 286.234 380.498 285.77 379.529L285.156 379.829C285.62 380.784 286.043 381.767 286.425 382.749L287.066 382.504L287.052 382.504ZM285.184 532.773L284.57 532.459C284.079 533.401 283.547 534.329 282.988 535.216L283.574 535.584C284.147 534.67 284.693 533.728 285.197 532.773L285.184 532.773ZM284.243 376.677C283.697 375.749 283.111 374.835 282.497 373.948L281.938 374.344C282.538 375.217 283.124 376.118 283.656 377.018L284.243 376.677ZM281.72 538.245L281.174 537.835C280.533 538.681 279.865 539.514 279.169 540.305L279.688 540.755C280.397 539.95 281.079 539.104 281.733 538.245L281.72 538.245ZM280.533 371.383C279.851 370.551 279.128 369.746 278.378 368.968L277.887 369.446C278.624 370.21 279.333 371.001 280.015 371.82L280.547 371.383L280.533 371.383ZM277.451 543.102L276.974 542.611C276.21 543.348 275.419 544.057 274.601 544.726L275.037 545.258C275.869 544.576 276.674 543.853 277.451 543.102ZM276.033 366.73C275.228 366.021 274.383 365.338 273.523 364.684L273.114 365.229C273.96 365.857 274.792 366.539 275.583 367.235L276.033 366.717L276.033 366.73ZM272.46 547.223L272.064 546.664C271.191 547.264 270.291 547.851 269.377 548.383L269.718 548.969C270.646 548.424 271.559 547.837 272.446 547.223L272.46 547.223ZM270.837 362.855C269.923 362.282 268.982 361.736 268.027 361.245L267.714 361.859C268.655 362.35 269.582 362.882 270.468 363.442L270.837 362.855ZM266.868 550.498L266.568 549.884C265.613 550.348 264.631 550.771 263.649 551.153L263.895 551.794C264.891 551.412 265.9 550.975 266.868 550.511L266.868 550.498ZM265.109 359.853C264.113 359.43 263.09 359.048 262.081 358.707L261.863 359.362C262.872 359.69 263.868 360.072 264.85 360.481L265.122 359.853L265.109 359.853ZM260.84 552.817L260.649 552.162C259.64 552.463 258.603 552.722 257.567 552.94L257.703 553.609C258.753 553.39 259.817 553.117 260.84 552.817ZM258.958 357.82C257.908 357.561 256.844 357.356 255.78 357.179L255.671 357.861C256.721 358.025 257.772 358.243 258.794 358.489L258.958 357.82ZM254.512 554.154L254.43 553.472C253.38 553.609 252.316 553.704 251.253 553.745L251.28 554.427C252.357 554.373 253.448 554.277 254.512 554.141L254.512 554.154ZM252.575 356.797C251.512 356.715 250.421 356.674 249.343 356.674L249.248 356.674L249.248 357.356L249.343 357.356C250.407 357.356 251.471 357.397 252.521 357.479L252.575 356.797ZM248.061 554.482L248.061 553.8L244.843 553.8L244.843 554.482L248.061 554.482ZM246.029 357.343L246.029 356.66L242.811 356.66L242.811 357.343L246.029 357.343ZM241.624 554.482L241.624 553.8L238.406 553.8L238.406 554.482L241.624 554.482ZM239.606 357.343L239.606 356.66L236.387 356.66L236.387 357.343L239.606 357.343ZM235.201 554.482L235.201 553.8L231.982 553.8L231.982 554.482L235.201 554.482ZM233.182 357.343L233.182 356.66L229.964 356.66L229.964 357.343L233.182 357.343ZM228.777 554.482L228.777 553.8L225.559 553.8L225.559 554.482L228.777 554.482ZM226.759 357.343L226.759 356.66L223.54 356.66L223.54 357.343L226.759 357.343ZM222.354 554.482L222.354 553.8L219.149 553.8L219.149 554.482L222.354 554.482ZM220.335 357.343L220.335 356.66L217.117 356.66L217.117 357.343L220.335 357.343ZM215.93 554.482L215.93 553.8L212.712 553.8L212.712 554.482L215.93 554.482ZM213.912 357.343L213.912 356.66L210.693 356.66L210.693 357.343L213.912 357.343ZM209.507 554.482L209.507 553.8L206.288 553.8L206.288 554.482L209.507 554.482ZM207.489 357.343L207.489 356.66L204.27 356.66L204.27 357.343L207.489 357.343ZM203.083 554.482L203.083 553.8L199.865 553.8L199.865 554.482L203.083 554.482ZM201.065 357.343L201.065 356.66L197.847 356.66L197.847 357.343L201.065 357.343ZM196.66 554.482L196.66 553.8L193.441 553.8L193.441 554.482L196.66 554.482ZM194.642 357.343L194.642 356.66L191.423 356.66L191.423 357.343L194.642 357.343ZM190.237 554.482L190.237 553.8L187.018 553.8L187.018 554.482L190.237 554.482ZM188.218 357.343L188.218 356.66L185 356.66L185 357.343L188.218 357.343ZM183.813 554.482L183.813 553.8L180.595 553.8L180.595 554.482L183.813 554.482ZM181.795 357.343L181.795 356.66L178.576 356.66L178.576 357.343L181.795 357.343ZM177.39 554.482L177.39 553.8L174.171 553.8L174.171 554.482L177.39 554.482ZM175.371 357.343L175.371 356.66L172.153 356.66L172.153 357.343L175.371 357.343ZM170.966 554.482L170.966 553.8L167.748 553.8L167.748 554.482L170.966 554.482ZM168.934 357.343L168.934 356.66L165.729 356.66L165.729 357.343L168.934 357.343ZM164.543 554.482L164.543 553.8L161.324 553.8L161.324 554.482L164.543 554.482ZM162.511 357.343L162.511 356.66L159.292 356.66L159.292 357.343L162.511 357.343ZM158.106 554.482L158.106 553.8L154.887 553.8L154.887 554.482L158.106 554.482ZM156.087 357.343L156.087 356.66L152.869 356.66L152.869 357.343L156.087 357.343ZM151.682 554.482L151.682 553.8L148.464 553.8L148.464 554.482L151.682 554.482ZM149.664 357.343L149.664 356.66L146.445 356.66L146.445 357.343L149.664 357.343ZM145.259 554.482L145.259 553.8L142.04 553.8L142.04 554.482L145.259 554.482ZM143.24 357.343L143.24 356.66L140.022 356.66L140.022 357.343L143.24 357.343ZM138.835 554.482L138.835 553.8L135.617 553.8L135.617 554.482L138.835 554.482ZM136.817 357.343L136.817 356.66L133.598 356.66L133.598 357.343L136.817 357.343ZM132.412 554.482L132.412 553.8L132.371 553.8C131.321 553.8 130.271 553.759 129.234 553.677L129.18 554.359C130.23 554.441 131.307 554.482 132.371 554.482L132.412 554.482ZM130.407 357.397L130.38 356.715C129.302 356.77 128.225 356.865 127.161 357.002L127.243 357.684C128.293 357.547 129.357 357.452 130.407 357.397ZM126.07 553.309C125.034 553.145 123.984 552.926 122.947 552.681L122.783 553.349C123.834 553.609 124.897 553.813 125.961 553.991L126.07 553.309ZM124.106 358.216L123.97 357.547C122.92 357.766 121.856 358.039 120.833 358.339L121.024 358.994C122.033 358.693 123.07 358.434 124.106 358.216ZM119.892 551.794C118.883 551.466 117.887 551.084 116.906 550.675L116.633 551.303C117.628 551.726 118.651 552.108 119.66 552.449L119.879 551.794L119.892 551.794ZM118.01 360.031L117.765 359.389C116.755 359.785 115.76 360.208 114.792 360.686L115.092 361.3C116.046 360.836 117.028 360.413 118.01 360.031ZM114.028 549.324C113.087 548.833 112.16 548.301 111.259 547.741L110.891 548.328C111.805 548.901 112.746 549.447 113.701 549.938L114.014 549.324L114.028 549.324ZM112.282 362.787L111.941 362.2C111.014 362.746 110.1 363.333 109.214 363.947L109.609 364.506C110.468 363.906 111.382 363.319 112.282 362.787ZM108.641 545.94C107.795 545.313 106.963 544.63 106.172 543.935L105.722 544.453C106.527 545.163 107.373 545.845 108.245 546.486L108.655 545.94L108.641 545.94ZM107.073 366.444L106.636 365.912C105.804 366.594 105 367.317 104.222 368.067L104.7 368.559C105.463 367.822 106.254 367.112 107.073 366.43L107.073 366.444ZM103.854 541.738C103.118 540.974 102.408 540.182 101.727 539.364L101.195 539.8C101.876 540.633 102.613 541.438 103.363 542.215L103.854 541.738ZM102.504 370.878L101.986 370.428C101.276 371.233 100.595 372.079 99.9399 372.939L100.485 373.348C101.113 372.502 101.795 371.67 102.49 370.878L102.504 370.878ZM99.8036 536.839C99.2035 535.98 98.617 535.079 98.0852 534.165L97.4988 534.506C98.0443 535.434 98.6307 536.348 99.2444 537.235L99.8036 536.839ZM98.6989 375.968L98.1125 375.599C97.5397 376.514 96.9941 377.455 96.5032 378.41L97.1169 378.724C97.6078 377.782 98.1397 376.855 98.6989 375.954L98.6989 375.968ZM96.585 531.354C96.1213 530.399 95.6985 529.417 95.3167 528.434L94.6757 528.68C95.0575 529.676 95.494 530.686 95.9713 531.654L96.585 531.354ZM95.7531 381.617L95.1258 381.344C94.703 382.34 94.3211 383.363 93.9802 384.373L94.6348 384.591C94.9621 383.581 95.3439 382.585 95.7531 381.603L95.7531 381.617ZM94.2802 525.419C93.9802 524.409 93.721 523.372 93.4892 522.335L92.821 522.471C93.0392 523.522 93.3119 524.586 93.6256 525.61L94.2802 525.419ZM93.762 387.661L93.0937 387.498C92.8346 388.548 92.63 389.612 92.4527 390.677L93.1346 390.786C93.2982 389.735 93.5165 388.698 93.762 387.661ZM92.9573 519.197C92.821 518.146 92.7255 517.082 92.6709 516.031L91.989 516.058C92.0436 517.136 92.1391 518.214 92.2754 519.279L92.9573 519.197ZM92.7527 393.952L92.0708 393.897C91.989 394.948 91.9481 396.026 91.9481 397.09L91.9481 397.131L92.63 397.131L92.63 397.09C92.63 396.039 92.6709 394.989 92.7527 393.952ZM92.63 512.825L92.63 509.604L91.9481 509.604L91.9481 512.825L92.63 512.825ZM92.63 506.398L92.63 503.178L91.9481 503.178L91.9481 506.398L92.63 506.398ZM92.63 499.971L92.63 496.751L91.9481 496.751L91.9481 499.971L92.63 499.971ZM92.63 493.545L92.63 490.324L91.9481 490.324L91.9481 493.545L92.63 493.545ZM92.63 487.118L92.63 483.898L91.9481 483.898L91.9481 487.118L92.63 487.118ZM92.63 480.691L92.63 477.471L91.9481 477.471L91.9481 480.691L92.63 480.691ZM92.63 474.264L92.63 471.044L91.9481 471.044L91.9481 474.264L92.63 474.264ZM92.63 467.838L92.63 464.618L91.9481 464.618L91.9481 467.838L92.63 467.838ZM92.63 461.411L92.63 458.191L91.9481 458.191L91.9481 461.411L92.63 461.411ZM92.63 454.984L92.63 451.764L91.9481 451.764L91.9481 454.984L92.63 454.984ZM92.63 448.544L92.63 445.324L91.9481 445.324L91.9481 448.544L92.63 448.544ZM92.63 442.117L92.63 438.897L91.9481 438.897L91.9481 442.117L92.63 442.117ZM92.63 435.691L92.63 432.471L91.9481 432.471L91.9481 435.691L92.63 435.691ZM92.63 429.264L92.63 426.044L91.9481 426.044L91.9481 429.264L92.63 429.264ZM92.63 422.837L92.63 419.617L91.9481 419.617L91.9481 422.837L92.63 422.837ZM92.63 416.411L92.63 413.191L91.9481 413.191L91.9481 416.411L92.63 416.411ZM92.63 409.984L92.63 406.764L91.9481 406.764L91.9481 409.97L92.63 409.97L92.63 409.984ZM92.63 403.557L92.63 400.337L91.9481 400.337L91.9481 403.557L92.63 403.557Z" fill="#BFC8D9" fill-opacity="0.5"/>
<path d="M468.45 83.2334L468.45 80.0406L467.768 80.0406L467.768 83.2334L468.45 83.2334ZM468.45 76.834L468.45 73.6412L467.768 73.6412L467.768 76.834L468.45 76.834ZM468.45 70.4483L468.45 67.2554L467.768 67.2554L467.768 70.4483L468.45 70.4483ZM468.45 64.0626L468.45 60.8697L467.768 60.8697L467.768 64.0626L468.45 64.0626ZM468.45 57.6768L468.45 54.4839L467.768 54.4839L467.768 57.6768L468.45 57.6768ZM468.45 51.2911L468.45 48.0982L467.768 48.0982L467.768 51.2911L468.45 51.2911ZM468.45 44.8917L468.45 41.6988L467.768 41.6988L467.768 44.8917L468.45 44.8917ZM468.45 38.5059L468.45 35.3131L467.768 35.3131L467.768 38.5059L468.45 38.5059ZM468.45 32.1202L468.45 28.9273L467.768 28.9273L467.768 32.1202L468.45 32.1202ZM468.45 25.7344L468.45 22.5416L467.768 22.5416L467.768 25.7344L468.45 25.7344ZM468.45 19.3487L468.45 16.1558L467.768 16.1558L467.768 19.3487L468.45 19.3487ZM468.45 12.963L468.45 9.77009L467.768 9.77009L467.768 12.963L468.45 12.963ZM468.45 6.56356L468.45 3.3707L467.768 3.3707L467.768 6.56356L468.45 6.56356ZM468.45 0.177834L468.45 -3.01504L467.768 -3.01504L467.768 0.177834L468.45 0.177834ZM468.436 -6.22156C468.409 -7.2995 468.327 -8.37746 468.205 -9.44174L467.523 -9.35984C467.659 -8.32284 467.727 -7.25855 467.754 -6.2079L468.436 -6.2079L468.436 -6.22156ZM468.409 86.4399L467.727 86.399C467.673 87.4497 467.564 88.5003 467.414 89.5373L468.095 89.6465C468.259 88.5822 468.368 87.5042 468.423 86.4399L468.409 86.4399ZM467.632 -12.6073C467.386 -13.6579 467.086 -14.695 466.732 -15.7047L466.077 -15.4864C466.418 -14.4903 466.718 -13.4806 466.95 -12.4572L467.618 -12.6073L467.632 -12.6073ZM467.427 92.812L466.759 92.6347C466.5 93.6444 466.172 94.6677 465.804 95.6365L466.445 95.8821C466.827 94.8724 467.154 93.849 467.427 92.812ZM465.531 -18.7065C465.081 -19.6753 464.563 -20.6304 464.018 -21.5582L463.431 -21.2035C463.977 -20.303 464.468 -19.3615 464.904 -18.42L465.531 -18.7065ZM465.15 98.843L464.536 98.5292C464.072 99.4707 463.54 100.385 462.981 101.272L463.554 101.64C464.127 100.74 464.672 99.7845 465.15 98.8294L465.15 98.843ZM462.217 -24.2327C461.576 -25.0923 460.881 -25.9246 460.158 -26.716L459.654 -26.252C460.363 -25.4879 461.045 -24.6693 461.672 -23.8233L462.217 -24.2327ZM461.686 104.274L461.154 103.851C460.499 104.669 459.804 105.474 459.067 106.225L459.558 106.702C460.308 105.938 461.017 105.12 461.686 104.274ZM457.84 -28.9674C457.035 -29.6769 456.19 -30.3455 455.317 -30.9732L454.921 -30.4137C455.78 -29.7997 456.612 -29.1448 457.39 -28.4489L457.84 -28.9674ZM457.185 108.886L456.749 108.353C455.944 109.022 455.098 109.663 454.226 110.25L454.608 110.823C455.494 110.223 456.367 109.568 457.185 108.886ZM452.603 -32.706C451.675 -33.2382 450.707 -33.7294 449.725 -34.1524L449.452 -33.5247C450.407 -33.1017 451.362 -32.6242 452.275 -32.1057L452.616 -32.706L452.603 -32.706ZM451.839 112.488L451.512 111.887C450.584 112.379 449.63 112.829 448.648 113.225L448.907 113.866C449.902 113.47 450.884 113.006 451.825 112.501L451.839 112.488ZM446.698 -35.2985C445.675 -35.626 444.625 -35.8989 443.574 -36.1172L443.438 -35.4486C444.461 -35.2303 445.497 -34.9711 446.493 -34.6436L446.698 -35.2985ZM445.866 114.903L445.675 114.248C444.665 114.534 443.629 114.78 442.606 114.971L442.729 115.64C443.779 115.449 444.843 115.203 445.866 114.903ZM440.397 -36.6084C439.333 -36.7176 438.256 -36.7722 437.178 -36.7722L437.11 -36.7722L437.11 -36.0899L437.178 -36.0899C438.228 -36.0899 439.292 -36.0353 440.329 -35.9262L440.397 -36.6084ZM439.524 116.049L439.469 115.367C438.706 115.421 437.928 115.449 437.165 115.449L436.305 115.449L436.305 116.131L437.165 116.131C437.956 116.131 438.747 116.104 439.524 116.049ZM433.905 -36.0899L433.905 -36.7722L430.714 -36.7722L430.714 -36.0899L433.905 -36.0899ZM433.114 116.131L433.114 115.449L429.923 115.449L429.923 116.131L433.114 116.131ZM427.523 -36.0899L427.523 -36.7722L424.331 -36.7722L424.331 -36.0899L427.523 -36.0899ZM426.732 116.131L426.732 115.449L423.54 115.449L423.54 116.131L426.732 116.131ZM421.14 -36.0899L421.14 -36.7722L417.949 -36.7722L417.949 -36.0899L421.14 -36.0899ZM420.349 116.131L420.349 115.449L417.158 115.449L417.158 116.131L420.349 116.131ZM414.758 -36.0899L414.758 -36.7722L411.566 -36.7722L411.566 -36.0899L414.758 -36.0899ZM413.967 116.131L413.967 115.449L410.775 115.449L410.775 116.131L413.967 116.131ZM408.375 -36.0899L408.375 -36.7722L405.184 -36.7722L405.184 -36.0899L408.375 -36.0899ZM407.584 116.131L407.584 115.449L404.393 115.449L404.393 116.131L407.584 116.131ZM401.992 -36.0899L401.992 -36.7722L398.801 -36.7722L398.801 -36.0899L401.992 -36.0899ZM401.201 116.131L401.201 115.449L398.01 115.449L398.01 116.131L401.201 116.131ZM395.596 -36.0899L395.596 -36.7722L392.405 -36.7722L392.405 -36.0899L395.596 -36.0899ZM394.805 116.131L394.805 115.449L391.614 115.449L391.614 116.131L394.805 116.131ZM389.214 -36.0899L389.214 -36.7722L386.022 -36.7722L386.022 -36.0899L389.214 -36.0899ZM388.423 116.131L388.423 115.449L385.231 115.449L385.231 116.131L388.423 116.131ZM382.831 -36.0899L382.831 -36.7722L379.64 -36.7722L379.64 -36.0899L382.831 -36.0899ZM382.04 116.131L382.04 115.449L378.849 115.449L378.849 116.131L382.04 116.131ZM376.449 -36.0899L376.449 -36.7722L373.257 -36.7722L373.257 -36.0899L376.449 -36.0899ZM375.658 116.131L375.658 115.449L372.466 115.449L372.466 116.131L375.658 116.131ZM370.066 -36.0899L370.066 -36.7722L366.875 -36.7722L366.875 -36.0899L370.066 -36.0899ZM369.275 116.131L369.275 115.449L366.084 115.449L366.084 116.131L369.275 116.131ZM363.67 -36.0899L363.67 -36.7722L360.479 -36.7722L360.479 -36.0899L363.67 -36.0899ZM362.879 116.131L362.879 115.449L359.688 115.449L359.688 116.131L362.879 116.131ZM357.287 -36.0899L357.287 -36.7722L354.096 -36.7722L354.096 -36.0899L357.287 -36.0899ZM356.496 116.131L356.496 115.449L353.305 115.449L353.305 116.131L356.496 116.131ZM350.905 -36.0899L350.905 -36.7722L347.714 -36.7722L347.714 -36.0899L350.905 -36.0899ZM350.114 116.131L350.114 115.449L346.923 115.449L346.923 116.131L350.114 116.131ZM344.55 -36.0081L344.495 -36.6903C343.431 -36.6084 342.354 -36.472 341.29 -36.2809L341.413 -35.6124C342.436 -35.8034 343.499 -35.9262 344.536 -36.0081L344.55 -36.0081ZM343.772 115.285C342.722 115.176 341.686 115.012 340.649 114.807L340.513 115.476C341.563 115.694 342.64 115.858 343.704 115.967L343.772 115.285ZM338.344 -34.8892L338.153 -35.5441C337.131 -35.2439 336.094 -34.8892 335.112 -34.4798L335.371 -33.8385C336.34 -34.2342 337.349 -34.589 338.344 -34.8755L338.344 -34.8892ZM337.608 114.016C336.612 113.702 335.617 113.32 334.648 112.897L334.376 113.525C335.358 113.948 336.38 114.343 337.39 114.657L337.594 114.002L337.608 114.016ZM332.507 -32.5014L332.18 -33.1017C331.239 -32.5969 330.312 -32.0374 329.411 -31.4371L329.793 -30.864C330.666 -31.4507 331.566 -31.9965 332.494 -32.4877L332.507 -32.5014ZM331.825 111.492C330.912 110.973 330.025 110.4 329.166 109.8L328.77 110.359C329.643 110.987 330.557 111.56 331.498 112.092L331.839 111.492L331.825 111.492ZM327.284 -28.981L326.848 -29.5131C326.029 -28.8309 325.225 -28.0941 324.488 -27.3163L324.979 -26.8388C325.716 -27.5893 326.493 -28.3124 327.298 -28.981L327.284 -28.981ZM326.698 107.835C325.907 107.139 325.156 106.402 324.434 105.624L323.929 106.088C324.652 106.88 325.429 107.63 326.234 108.34L326.684 107.821L326.698 107.835ZM322.893 -24.4646L322.361 -24.8876C321.692 -24.0416 321.065 -23.1547 320.492 -22.2541L321.065 -21.8857C321.624 -22.7727 322.238 -23.6323 322.893 -24.4646ZM322.415 103.196C321.788 102.363 321.188 101.476 320.656 100.576L320.069 100.931C320.615 101.845 321.229 102.745 321.87 103.605L322.415 103.196ZM319.51 -19.1431L318.897 -19.4433C318.419 -18.4882 317.983 -17.4921 317.601 -16.4824L318.242 -16.2368C318.61 -17.2192 319.033 -18.188 319.51 -19.1295L319.51 -19.1431ZM319.169 97.7924C318.719 96.8373 318.324 95.8548 317.983 94.8724L317.342 95.0907C317.696 96.1004 318.106 97.1101 318.556 98.0789L319.183 97.7924L319.169 97.7924ZM317.287 -13.2486L316.619 -13.426C316.346 -12.389 316.128 -11.3247 315.964 -10.2604L316.646 -10.1512C316.81 -11.1882 317.015 -12.2252 317.287 -13.2486ZM317.096 91.8433C316.851 90.8199 316.674 89.7829 316.537 88.7323L315.855 88.8141C315.992 89.8784 316.183 90.9427 316.428 91.9934L317.096 91.8433ZM316.333 -7.01297L315.651 -7.04025C315.624 -6.52174 315.61 -6.00323 315.61 -5.48473L315.61 -3.83373L316.292 -3.83373L316.292 -5.48473C316.292 -5.98958 316.292 -6.50812 316.333 -7.01297ZM316.305 85.594C316.305 85.3484 316.305 85.1027 316.305 84.8435L316.305 82.4011L315.624 82.4011L315.624 84.8435C315.624 85.1027 315.624 85.3483 315.624 85.6076L316.305 85.6076L316.305 85.594ZM316.292 79.2082L316.292 76.0153L315.61 76.0153L315.61 79.2082L316.292 79.2082ZM316.292 72.8225L316.292 69.6296L315.61 69.6296L315.61 72.8225L316.292 72.8225ZM316.292 66.4367L316.292 63.2439L315.61 63.2439L315.61 66.4367L316.292 66.4367ZM316.292 60.051L316.292 56.8581L315.61 56.8581L315.61 60.051L316.292 60.051ZM316.292 53.6516L316.292 50.4587L315.61 50.4587L315.61 53.6516L316.292 53.6516ZM316.292 47.2659L316.292 44.073L315.61 44.073L315.61 47.2659L316.292 47.2659ZM316.292 40.8801L316.292 37.6872L315.61 37.6872L315.61 40.8801L316.292 40.8801ZM316.292 34.4944L316.292 31.3015L315.61 31.3015L315.61 34.4944L316.292 34.4944ZM316.292 28.1086L316.292 24.9158L315.61 24.9158L315.61 28.1086L316.292 28.1086ZM316.292 21.7093L316.292 18.5164L315.61 18.5164L315.61 21.7093L316.292 21.7093ZM316.292 15.3235L316.292 12.1307L315.61 12.1307L315.61 15.3235L316.292 15.3235ZM316.292 8.93774L316.292 5.74488L315.61 5.74488L315.61 8.93774L316.292 8.93774ZM316.292 2.55201L316.292 -0.640855L315.61 -0.640855L315.61 2.55201L316.292 2.55201Z" fill="#BFC8D9" fill-opacity="0.5"/>
<path d="M-154.216 259.524L20.2536 259.524C33.4824 259.524 44.2563 248.758 44.2563 235.509L44.2563 164.42C44.2563 150.802 55.3303 139.723 68.941 139.723L87.7613 139.723L139.981 139.723L158.801 139.723C172.03 139.723 182.804 128.943 182.804 115.708L182.804 44.6188C182.804 31.3834 172.044 20.604 158.801 20.604L117.315 20.604L117.315 19.9218L158.801 19.9218C172.412 19.9218 183.486 31.0013 183.486 44.6188L183.486 115.708C183.486 129.325 172.412 140.405 158.801 140.405L139.981 140.405L87.7613 140.405L68.941 140.405C55.7122 140.405 44.9382 151.171 44.9382 164.42L44.9382 235.509C44.9382 249.126 33.8642 260.206 20.2536 260.206L-154.216 260.206L-154.216 259.524Z" fill="#BFC8D9" fill-opacity="0.5"/>
<path d="M-208.645 325.728L-208.645 202.284C-208.645 188.666 -197.571 177.587 -183.961 177.587L-165.14 177.587L-112.921 177.587L-94.1003 177.587C-80.8715 177.587 -70.0976 166.821 -70.0976 153.572L-70.0976 82.4829C-70.0976 68.8654 -59.0236 57.7859 -45.413 57.7859L88.4295 57.7859L88.4295 58.4681L-45.413 58.4681C-58.6418 58.4681 -69.4157 69.2338 -69.4157 82.4829L-69.4157 153.572C-69.4157 167.189 -80.4897 178.269 -94.1003 178.269L-112.921 178.269L-165.14 178.269L-183.961 178.269C-197.189 178.269 -207.963 189.035 -207.963 202.284L-207.963 325.728C-207.963 338.963 -197.203 349.743 -183.961 349.743L-142.474 349.743L-142.474 350.425L-183.961 350.425C-197.571 350.425 -208.645 339.345 -208.645 325.728Z" fill="#BFC8D9" fill-opacity="0.5"/>
<path d="M46.2202 599.073L46.2202 527.984C46.2202 514.366 57.2942 503.287 70.9048 503.287L141.958 503.287C155.187 503.287 165.961 492.521 165.961 479.272L165.961 408.183C165.961 394.948 155.201 384.168 141.958 384.168L100.472 384.168C86.8612 384.168 75.7872 373.089 75.7872 359.471L75.7872 288.382C75.7872 274.765 86.8612 263.685 100.472 263.685L160.438 263.685L160.438 263.658L190.005 263.658C203.233 263.658 214.007 252.892 214.007 239.643L214.007 -40.3472L214.689 -40.3472L214.689 239.643C214.689 253.261 203.615 264.34 190.005 264.34L171.525 264.34L171.525 264.367L100.472 264.367C87.243 264.367 76.4691 275.133 76.4691 288.382L76.4691 359.471C76.4691 372.707 87.2294 383.486 100.472 383.486L141.958 383.486C155.569 383.486 166.643 394.566 166.643 408.183L166.643 479.272C166.643 492.89 155.569 503.969 141.958 503.969L70.9048 503.969C57.6761 503.969 46.9021 514.735 46.9021 527.984L46.9021 599.073C46.9021 612.308 57.6624 623.088 70.9048 623.088L112.391 623.088L112.391 623.77L70.9048 623.77C57.2942 623.77 46.2202 612.691 46.2202 599.073Z" fill="#BFC8D9" fill-opacity="0.5"/>
<path d="M276.837 52.6556L276.837 11.1483L277.519 11.1483L277.519 52.6556C277.519 65.891 288.28 76.6703 301.522 76.6703L478.583 76.6703C491.812 76.6703 502.586 65.9046 502.586 52.6556L502.586 19.0076L503.268 19.0076L503.268 52.6556C503.268 66.273 492.194 77.3526 478.583 77.3526L301.522 77.3526C287.911 77.3526 276.837 66.273 276.837 52.6556Z" fill="#BFC8D9" fill-opacity="0.5"/>
<path d="M269.841 216.365L269.841 156.369L269.814 156.369L269.814 126.787C269.814 113.552 259.04 102.773 245.811 102.773L59.0943 102.773L59.0943 102.09L245.811 102.09C259.422 102.09 270.496 113.17 270.496 126.787L270.496 145.276L270.523 145.276L270.523 216.365C270.523 229.6 281.283 240.38 294.526 240.38L365.579 240.38C378.808 240.38 389.582 229.614 389.582 216.365L389.582 174.858C389.582 161.24 400.656 150.161 414.267 150.161L503.431 150.161L503.431 150.843L414.253 150.843C401.024 150.843 390.25 161.609 390.25 174.858L390.25 216.365C390.25 229.983 379.176 241.062 365.566 241.062L294.512 241.062C280.901 241.062 269.827 229.983 269.827 216.365L269.841 216.365Z" fill="#BFC8D9" fill-opacity="0.5"/>
<path d="M265.436 327.652L442.402 327.652C442.402 327.952 442.402 328.266 442.402 328.566L265.45 328.566C252.275 328.566 241.556 339.291 241.556 352.458L241.556 487.527L240.642 487.527L240.642 352.458C240.642 338.772 251.771 327.652 265.45 327.652L265.436 327.652Z" fill="#BFC8D9" fill-opacity="0.5"/>
<path d="M456.653 178.078L456.653 177.396L455.058 177.396L455.058 178.078L456.653 178.078ZM448.716 178.078L448.716 177.396L451.88 177.396L451.88 178.078L448.716 178.078ZM442.374 178.078L442.374 177.396L445.538 177.396L445.538 178.078L442.374 178.078ZM436.033 178.078L436.033 177.396L439.197 177.396L439.197 178.078L436.033 178.078ZM429.691 178.078L429.691 177.396L432.869 177.396L432.869 178.078L429.691 178.078ZM423.349 178.078L423.349 177.396L426.513 177.396L426.513 178.078L423.349 178.078ZM417.008 178.078L417.008 177.396L420.172 177.396L420.172 178.078L417.008 178.078ZM410.666 178.078L410.666 177.396L413.83 177.396L413.83 178.078L410.666 178.078ZM404.325 178.078L404.325 177.396L407.489 177.396L407.489 178.078L404.325 178.078ZM397.983 178.078L397.983 177.396L401.161 177.396L401.161 178.078L397.983 178.078ZM391.655 178.078L391.655 177.396L394.819 177.396L394.819 178.078L391.655 178.078ZM385.313 178.078L385.313 177.396L388.477 177.396L388.477 178.078L385.313 178.078ZM378.972 178.078L378.972 177.396L382.149 177.396L382.149 178.078L378.985 178.078L378.972 178.078ZM372.63 178.078L372.63 177.396L375.794 177.396L375.794 178.078L372.63 178.078ZM366.288 178.078L366.288 177.396L369.452 177.396L369.452 178.078L366.288 178.078ZM359.947 178.078L359.947 177.396L363.111 177.396L363.111 178.078L359.947 178.078ZM353.605 178.078L353.605 177.396L356.769 177.396L356.769 178.078L353.605 178.078ZM347.263 178.078L347.263 177.396L350.427 177.396L350.427 178.078L347.263 178.078ZM340.922 178.078L340.922 177.396L344.086 177.396L344.086 178.078L340.922 178.078ZM334.58 178.078L334.58 177.396L337.744 177.396L337.744 178.078L334.58 178.078ZM328.239 178.078L328.239 177.396L331.403 177.396L331.403 178.078L328.239 178.078ZM321.897 178.078L321.897 177.396L325.061 177.396L325.061 178.078L321.897 178.078ZM315.555 178.078L315.555 177.396L318.719 177.396L318.719 178.078L315.555 178.078ZM309.214 178.078L309.214 177.396L312.378 177.396L312.378 178.078L309.214 178.078ZM302.872 178.078L302.872 177.396L306.036 177.396L306.036 178.078L302.872 178.078ZM296.53 178.078L296.53 177.396L299.694 177.396L299.694 178.078L296.53 178.078ZM290.189 178.078L290.189 177.396L293.353 177.396L293.353 178.078L290.189 178.078ZM283.847 178.078L283.847 177.396L287.011 177.396L287.011 178.078L283.847 178.078ZM277.506 178.078L277.506 177.396L280.67 177.396L280.67 178.078L277.506 178.078ZM271.164 178.078L271.164 177.396L274.328 177.396L274.328 178.078L271.164 178.078ZM267.973 177.996C266.909 177.914 265.832 177.75 264.795 177.518L264.945 176.85C265.954 177.068 266.991 177.218 268.027 177.314L267.973 177.996ZM261.713 176.632C260.704 176.263 259.722 175.827 258.767 175.335L259.081 174.721C260.008 175.199 260.963 175.636 261.931 175.99L261.699 176.632L261.713 176.632ZM256.026 173.657C255.153 173.043 254.321 172.361 253.53 171.638L253.994 171.133C254.758 171.842 255.576 172.497 256.421 173.098L256.026 173.657ZM251.321 169.291C250.639 168.472 250.012 167.585 249.439 166.685L250.025 166.316C250.571 167.189 251.184 168.049 251.853 168.854L251.321 169.291ZM247.925 163.86C247.489 162.891 247.107 161.868 246.793 160.845L247.448 160.654C247.748 161.65 248.116 162.632 248.539 163.574L247.911 163.86L247.925 163.86ZM246.084 157.706C245.92 156.656 245.825 155.578 245.797 154.5L246.479 154.5C246.507 155.523 246.602 156.574 246.766 157.597L246.084 157.706ZM245.784 151.334L245.784 148.169L246.466 148.169L246.466 151.334L245.784 151.334ZM245.784 144.989L245.784 141.824L246.466 141.824L246.466 144.989L245.784 144.989ZM245.784 138.645L245.784 135.479L246.466 135.479L246.466 138.645L245.784 138.645ZM245.784 132.3L245.784 129.134L246.466 129.134L246.466 132.3L245.784 132.3ZM245.784 125.941L245.784 124.686L245.757 124.686L245.757 122.748L246.438 122.748L246.438 124.004L246.466 124.004L246.466 125.941L245.784 125.941ZM245.757 119.542L245.757 116.349L246.438 116.349L246.438 119.542L245.757 119.542ZM245.757 113.143L245.757 109.95L246.438 109.95L246.438 113.143L245.757 113.143ZM245.757 106.757L245.757 103.564L246.438 103.564L246.438 106.757L245.757 106.757ZM245.757 100.357L245.757 97.1645L246.438 97.1645L246.438 100.357L245.757 100.357ZM245.757 93.9717L245.757 90.7788L246.438 90.7788L246.438 93.9717L245.757 93.9717ZM245.757 87.5723L245.757 84.3794L246.438 84.3794L246.438 87.5723L245.757 87.5723ZM245.757 81.1865L245.757 77.9937L246.438 77.9937L246.438 81.1865L245.757 81.1865ZM245.757 74.7871L245.757 71.5943L246.438 71.5943L246.438 74.7871L245.757 74.7871ZM245.757 68.3878L245.757 65.1949L246.438 65.1949L246.438 68.3878L245.757 68.3878ZM245.647 62.043C245.552 61.006 245.388 59.9553 245.156 58.932L245.825 58.7818C246.057 59.8325 246.234 60.9105 246.329 61.9747L245.647 62.043ZM244.27 55.9028C243.915 54.9204 243.479 53.9516 243.002 53.0238L243.615 52.7099C244.12 53.6651 244.556 54.6611 244.925 55.6708L244.284 55.9028L244.27 55.9028ZM241.351 50.3221C240.751 49.4625 240.097 48.6302 239.388 47.8524L239.892 47.3885C240.615 48.1936 241.297 49.0395 241.911 49.9264L241.351 50.3221ZM237.137 45.6693C236.346 44.987 235.487 44.3594 234.614 43.7863L234.996 43.2132C235.896 43.7999 236.769 44.4549 237.587 45.1508L237.137 45.6693ZM231.873 42.2308C230.932 41.7805 229.95 41.3711 228.955 41.0437L229.173 40.3887C230.196 40.7299 231.205 41.1392 232.173 41.6031L231.873 42.2171L231.873 42.2308ZM225.913 40.2523C224.89 40.0476 223.84 39.9112 222.79 39.8566L222.831 39.1743C223.909 39.2426 224.986 39.379 226.036 39.5837L225.9 40.2523L225.913 40.2523ZM216.421 39.7884L216.421 39.1061L219.613 39.1061L219.613 39.7884L216.421 39.7884ZM210.039 39.7884L210.039 39.1061L213.23 39.1061L213.23 39.7884L210.039 39.7884ZM203.643 39.7884L203.643 39.1061L206.834 39.1061L206.834 39.7884L203.643 39.7884ZM197.26 39.7884L197.26 39.1061L200.451 39.1061L200.451 39.7884L197.26 39.7884ZM190.864 39.7884L190.864 39.1061L194.055 39.1061L194.055 39.7884L190.864 39.7884ZM184.481 39.7884L184.481 39.1061L187.673 39.1061L187.673 39.7884L184.481 39.7884ZM178.085 39.7884L178.085 39.1061L181.276 39.1061L181.276 39.7884L178.085 39.7884ZM171.689 39.7884L171.689 39.1061L174.88 39.1061L174.88 39.7884L171.689 39.7884ZM165.306 39.7884L165.306 39.1061L168.498 39.1061L168.498 39.7884L165.306 39.7884ZM158.91 39.7884L158.91 39.1061L162.102 39.1061L162.102 39.7884L158.91 39.7884ZM152.528 39.7884L152.528 39.1061L155.719 39.1061L155.719 39.7884L152.528 39.7884ZM146.213 40.1158L146.104 39.4336C147.168 39.2562 148.245 39.1607 149.323 39.1198L149.35 39.802C148.3 39.843 147.25 39.9385 146.213 40.1022L146.213 40.1158ZM140.185 41.9169L139.899 41.2893C140.881 40.8527 141.904 40.4706 142.94 40.1568L143.131 40.8117C142.122 41.1119 141.14 41.4803 140.185 41.9033L140.185 41.9169ZM134.826 45.2053L134.389 44.6732C135.235 44.0046 136.121 43.3769 137.035 42.8038L137.39 43.3906C136.503 43.9364 135.63 44.5504 134.812 45.2053L134.826 45.2053ZM130.462 49.7354L129.916 49.326C130.557 48.4664 131.266 47.6341 132.003 46.8564L132.494 47.3339C131.771 48.0844 131.089 48.9031 130.462 49.7354ZM127.393 55.2069L126.752 54.9477C127.148 53.9516 127.625 52.9692 128.157 52.0277L128.757 52.3688C128.239 53.283 127.789 54.2382 127.393 55.2069ZM125.825 61.2925L125.143 61.2106C125.279 60.1463 125.484 59.0684 125.743 58.0314L126.411 58.2088C126.152 59.2185 125.947 60.2555 125.825 61.3061L125.825 61.2925ZM125.634 106.006L124.952 106.006L124.952 102.813L125.634 102.813L125.634 106.006ZM124.952 99.607L124.952 96.4141L125.634 96.4141L125.634 99.607L124.952 99.607ZM124.952 93.2076L124.952 90.0147L125.634 90.0147L125.634 93.2076L124.952 93.2076ZM124.952 86.8218L124.952 83.629L125.634 83.629L125.634 86.8218L124.952 86.8218ZM124.952 80.4224L124.952 77.2296L125.634 77.2296L125.634 80.4224L124.952 80.4224ZM124.952 74.0367L124.952 70.8438L125.634 70.8438L125.634 74.0367L124.952 74.0367ZM124.952 67.6373L124.952 64.4444L125.634 64.4444L125.634 67.6373L124.952 67.6373ZM124.734 112.406L124.079 112.215C124.365 111.205 124.584 110.168 124.72 109.131L125.402 109.226C125.252 110.291 125.034 111.355 124.734 112.392L124.734 112.406ZM122.156 118.341L121.57 117.986C122.115 117.086 122.606 116.144 123.015 115.189L123.643 115.462C123.22 116.445 122.715 117.413 122.156 118.341ZM118.106 123.376L117.628 122.885C118.392 122.162 119.101 121.384 119.756 120.565L120.288 121.002C119.606 121.834 118.869 122.639 118.092 123.39L118.106 123.376ZM112.869 127.156L112.541 126.555C113.455 126.064 114.355 125.505 115.201 124.891L115.596 125.45C114.723 126.078 113.796 126.665 112.855 127.169L112.869 127.156ZM106.813 129.421L106.663 128.752C107.686 128.52 108.695 128.22 109.677 127.852L109.923 128.493C108.914 128.875 107.864 129.189 106.813 129.421ZM101.481 130.021L100.39 130.021L100.39 129.339L101.481 129.339C102.177 129.339 102.872 129.312 103.554 129.243L103.609 129.926C102.899 129.994 102.19 130.021 101.467 130.021L101.481 130.021ZM94.0074 130.021L94.0074 129.339L97.1987 129.339L97.1987 130.021L94.0074 130.021ZM87.6112 130.021L87.6112 129.339L90.8025 129.339L90.8025 130.021L87.6112 130.021ZM81.2287 130.021L81.2287 129.339L84.42 129.339L84.42 130.021L81.2287 130.021ZM74.8325 130.021L74.8325 129.339L78.0238 129.339L78.0238 130.021L74.8325 130.021ZM68.45 130.021L68.45 129.339L71.6413 129.339L71.6413 130.021L68.45 130.021ZM62.0538 130.021L62.0538 129.339L65.2451 129.339L65.2451 130.021L62.0538 130.021ZM55.6712 130.021L55.6712 129.339L58.8625 129.339L58.8625 130.021L55.6712 130.021ZM49.2751 130.021L49.2751 129.339L52.4664 129.339L52.4664 130.021L49.2751 130.021ZM42.8789 130.021L42.8789 129.339L46.0702 129.339L46.0702 130.021L42.8789 130.021ZM36.4963 130.021L36.4963 129.339L39.6876 129.339L39.6876 130.021L36.4963 130.021ZM30.4411 130.021C30.332 130.021 30.2229 130.021 30.1001 130.021L30.1001 129.339C30.2229 129.339 30.332 129.339 30.4411 129.339L33.3051 129.339L33.3051 130.021L30.4411 130.021ZM26.868 129.748C25.8042 129.584 24.7405 129.352 23.704 129.052L23.8949 128.397C24.9041 128.684 25.927 128.916 26.9634 129.066L26.868 129.748ZM20.6627 127.947C19.6808 127.51 18.7125 127.006 17.7988 126.433L18.1534 125.846C19.0398 126.392 19.9808 126.896 20.9355 127.319L20.6627 127.947ZM15.1666 124.563C14.3347 123.881 13.5437 123.131 12.8073 122.353L13.3119 121.889C14.021 122.653 14.7984 123.376 15.6031 124.045L15.1666 124.577L15.1666 124.563ZM10.748 119.842C10.1206 118.969 9.54781 118.041 9.05684 117.086L9.65691 116.772C10.1479 117.7 10.6934 118.6 11.3071 119.446L10.748 119.842ZM7.74761 114.125C7.37941 113.115 7.07936 112.065 6.84752 111.014L7.51576 110.864C7.73396 111.887 8.03401 112.897 8.3886 113.893L7.74761 114.125ZM6.37016 107.807C6.31563 107.166 6.28835 106.511 6.28835 105.856L6.28835 104.587L6.97026 104.587L6.97026 105.856C6.97026 106.484 6.99751 107.125 7.05208 107.753L6.37016 107.807ZM6.28835 101.381L6.28835 98.1879L6.97026 98.1879L6.97026 101.381L6.28835 101.381ZM6.28835 94.995L6.28835 91.8022L6.97026 91.8022L6.97026 94.995L6.28835 94.995ZM6.28835 88.5956L6.28835 85.4028L6.97026 85.4028L6.97026 88.5956L6.28835 88.5956ZM6.28835 82.2099L6.28835 79.017L6.97026 79.017L6.97026 82.2099L6.28835 82.2099ZM6.28835 75.8105L6.28835 72.6176L6.97026 72.6176L6.97026 75.8105L6.28835 75.8105ZM6.28834 69.4111L6.28834 66.2183L6.97026 66.2183L6.97026 69.4111L6.28834 69.4111ZM6.28834 63.0254L6.28834 59.8325L6.97026 59.8325L6.97026 63.0254L6.28834 63.0254ZM6.28834 56.626L6.28834 53.4331L6.97026 53.4331L6.97026 56.626L6.28834 56.626ZM6.28834 50.2403L6.28834 47.0474L6.97026 47.0474L6.97026 50.2403L6.28834 50.2403ZM6.28834 43.8409L6.28834 40.648L6.97026 40.648L6.97026 43.8409L6.28834 43.8409ZM6.28834 37.4551L6.28834 34.7807C6.28834 34.617 6.28834 34.4396 6.28834 34.2759L6.97026 34.2759C6.97026 34.4396 6.97026 34.6034 6.97026 34.7807L6.97026 37.4551L6.28834 37.4551ZM6.01561 31.124C5.86561 30.0869 5.63374 29.0499 5.34733 28.0402L6.00197 27.8492C6.30198 28.8862 6.53386 29.9505 6.68385 31.0148L6.00197 31.1103L6.01561 31.124ZM4.29722 25.0793C3.88807 24.1242 3.39711 23.1691 2.86522 22.2685L3.45167 21.9137C3.99721 22.8416 4.50178 23.8104 4.92454 24.7928L4.29722 25.0657L4.29722 25.0793ZM1.07866 19.6624C0.437665 18.8437 -0.271472 18.0523 -1.02156 17.3155L-0.544268 16.8242C0.219464 17.5884 0.942304 18.3934 1.61055 19.2394L1.06505 19.6624L1.07866 19.6624ZM-3.38094 15.2551C-4.21285 14.6138 -5.09932 14.0271 -5.99944 13.5086L-5.65847 12.9082C-4.7311 13.4404 -3.81737 14.0544 -2.97182 14.7093L-3.39458 15.2551L-3.38094 15.2551ZM-8.82244 12.1032C-9.79073 11.6938 -10.7863 11.3527 -11.7956 11.0798L-11.6182 10.4249C-10.5817 10.7114 -9.54525 11.0662 -8.56331 11.4755L-8.82244 12.1032ZM-14.8913 10.4522C-15.9278 10.3157 -16.9779 10.2338 -18.028 10.2202L-18.028 9.53795C-16.937 9.53795 -15.8596 9.63349 -14.7959 9.76993L-14.8913 10.4522ZM-24.4106 10.2202L-24.4106 9.53795L-21.2193 9.53795L-21.2193 10.2202L-24.4106 10.2202ZM-30.8068 10.2202L-30.8068 9.53795L-27.6155 9.53795L-27.6155 10.2202L-30.8068 10.2202ZM-37.1893 10.2202L-37.1893 9.53795L-33.9981 9.53795L-33.9981 10.2202L-37.1893 10.2202ZM-43.5855 10.2202L-43.5855 9.53796L-40.3942 9.53796L-40.3942 10.2202L-43.5855 10.2202ZM-49.968 10.2202L-49.968 9.53796L-46.7768 9.53796L-46.7768 10.2202L-49.968 10.2202ZM-56.3642 10.2202L-56.3642 9.53796L-53.173 9.53796L-53.173 10.2202L-56.3642 10.2202ZM-62.7468 10.2202L-62.7468 9.53796L-59.5555 9.53796L-59.5555 10.2202L-62.7468 10.2202ZM-69.143 10.2202L-69.143 9.53796L-65.9517 9.53796L-65.9517 10.2202L-69.143 10.2202ZM-75.5391 10.2202L-75.5391 9.53796L-72.3479 9.53796L-72.3479 10.2202L-75.5391 10.2202ZM-81.9216 10.2202L-81.9216 9.53796L-78.7304 9.53796L-78.7304 10.2202L-81.9216 10.2202ZM-88.3178 10.2202L-88.3178 9.53796L-85.1266 9.53796L-85.1266 10.2202L-88.3178 10.2202ZM-94.5913 10.7933L-94.7413 10.1247C-93.6912 9.89275 -92.6138 9.729 -91.5364 9.63348L-91.4818 10.3157C-92.532 10.4112 -93.5684 10.575 -94.5913 10.7933ZM-100.496 12.9219L-100.81 12.3078C-99.8555 11.8166 -98.8463 11.38 -97.8371 11.0116L-97.6052 11.6529C-98.5872 12.0077 -99.5555 12.4306 -100.496 12.9082L-100.496 12.9219ZM-105.679 16.4968L-106.143 15.9919C-105.338 15.2688 -104.492 14.6002 -103.606 13.9862L-103.21 14.5456C-104.07 15.146 -104.902 15.8009 -105.679 16.4968ZM-109.784 21.2588L-110.357 20.8767C-109.77 19.9762 -109.102 19.1166 -108.407 18.2979L-107.888 18.7482C-108.57 19.5396 -109.211 20.3855 -109.784 21.2588ZM-112.552 26.8941L-113.207 26.6758C-112.866 25.6524 -112.443 24.6563 -111.966 23.6876L-111.352 23.9877C-111.816 24.9292 -112.211 25.9117 -112.552 26.8941ZM-113.78 33.0615L-114.462 33.0206C-114.394 31.9427 -114.243 30.8647 -114.039 29.8141L-113.371 29.9505C-113.575 30.9739 -113.712 32.0245 -113.793 33.0751L-113.78 33.0615ZM-114.53 71.4032L-114.53 68.2104L-113.848 68.2104L-113.848 71.4032L-114.53 71.4032ZM-114.53 65.0039L-114.53 61.811L-113.848 61.811L-113.848 65.0039L-114.53 65.0039ZM-114.53 58.6181L-114.53 55.4253L-113.848 55.4253L-113.848 58.6181L-114.53 58.6181ZM-114.53 52.2187L-114.53 49.0259L-113.848 49.0259L-113.848 52.2187L-114.53 52.2187ZM-114.53 45.8193L-114.53 42.6265L-113.848 42.6265L-113.848 45.8193L-114.53 45.8193ZM-114.53 39.4336L-114.53 36.2407L-113.848 36.2407L-113.848 39.4336L-114.53 39.4336ZM-114.53 76.2744L-114.53 74.678L-113.848 74.678L-113.848 76.2744L-114.53 76.2744Z" fill="#BFC8D9" fill-opacity="0.5"/>
<path d="M76.3873 202.079L76.3873 207.496C76.3873 208.521 75.5569 209.352 74.5326 209.352L69.1183 209.352C68.094 209.352 67.2635 208.521 67.2635 207.496L67.2635 202.079C67.2635 201.054 68.094 200.223 69.1183 200.223L74.5326 200.223C75.5569 200.223 76.3873 201.054 76.3873 202.079Z" fill="#BFC8D9" fill-opacity="0.5"/>
<path d="M170.857 441.026L170.857 446.443C170.857 447.468 170.027 448.299 169.002 448.299L163.588 448.299C162.564 448.299 161.733 447.468 161.733 446.443L161.733 441.026C161.733 440.001 162.564 439.171 163.588 439.171L169.002 439.171C170.027 439.171 170.857 440.001 170.857 441.026Z" fill="#BFC8D9" fill-opacity="0.5"/>
<path d="M218.89 191.45L218.89 196.867C218.89 197.892 218.059 198.723 217.035 198.723L211.621 198.723C210.597 198.723 209.766 197.892 209.766 196.867L209.766 191.45C209.766 190.425 210.597 189.594 211.621 189.594L217.035 189.594C218.059 189.594 218.89 190.425 218.89 191.45Z" fill="#BFC8D9" fill-opacity="0.5"/>
<path d="M93.0119 55.4254L93.0119 60.8423C93.0119 61.8672 92.1815 62.698 91.1572 62.698L85.7429 62.698C84.7186 62.698 83.8881 61.8672 83.8881 60.8423L83.8881 55.4254C83.8881 54.4005 84.7186 53.5697 85.7429 53.5697L91.1572 53.5697C92.1815 53.5697 93.0119 54.4005 93.0119 55.4254Z" fill="#BFC8D9" fill-opacity="0.5"/>
<path d="M159.906 99.7027L159.906 105.12C159.906 106.145 159.075 106.975 158.051 106.975L152.637 106.975C151.613 106.975 150.782 106.145 150.782 105.12L150.782 99.7027C150.782 98.6779 151.613 97.847 152.637 97.847L158.051 97.847C159.075 97.847 159.906 98.6779 159.906 99.7027Z" fill="#BFC8D9" fill-opacity="0.5"/>
<path d="M217.362 68.5926L217.362 72.1949C217.362 72.8806 216.807 73.4366 216.121 73.4366L212.521 73.4366C211.836 73.4366 211.28 72.8806 211.28 72.1949L211.28 68.5926C211.28 67.9069 211.836 67.351 212.521 67.351L216.121 67.351C216.807 67.351 217.362 67.9069 217.362 68.5926Z" fill="#BFC8D9" fill-opacity="0.5"/>
<path d="M120.479 22.0503L120.479 18.4345C120.479 17.7523 119.919 17.1928 119.238 17.1928L115.624 17.1928C114.942 17.1928 114.382 17.7523 114.382 18.4345L114.382 22.0503C114.382 22.7326 114.942 23.292 115.624 23.292L119.238 23.292C119.919 23.292 120.479 22.7326 120.479 22.0503Z" fill="#BFC8D9" fill-opacity="0.5"/>
<path d="M62.1357 100.644L62.1357 104.246C62.1357 104.932 61.58 105.488 60.8946 105.488L57.2942 105.488C56.6088 105.488 56.0531 104.932 56.0531 104.246L56.0531 100.644C56.0531 99.9584 56.6088 99.4025 57.2942 99.4025L60.8946 99.4025C61.58 99.4025 62.1357 99.9584 62.1357 100.644Z" fill="#BFC8D9" fill-opacity="0.5"/>
<path d="M94.0075 322.753L94.0075 326.356C94.0075 327.041 93.4518 327.597 92.7664 327.597L89.166 327.597C88.4806 327.597 87.925 327.041 87.925 326.356L87.925 322.753C87.925 322.068 88.4806 321.512 89.166 321.512L92.7664 321.512C93.4518 321.512 94.0075 322.068 94.0075 322.753Z" fill="#BFC8D9" fill-opacity="0.5"/>
<path d="M152.869 262.253L152.869 265.855C152.869 266.541 152.313 267.096 151.628 267.096L148.027 267.096C147.342 267.096 146.786 266.541 146.786 265.855L146.786 262.253C146.786 261.567 147.342 261.011 148.027 261.011L151.628 261.011C152.313 261.011 152.869 261.567 152.869 262.253Z" fill="#BFC8D9" fill-opacity="0.5"/>
<path d="M273.223 195.966L273.223 192.351C273.223 191.668 272.664 191.109 271.982 191.109L268.368 191.109C267.686 191.109 267.127 191.668 267.127 192.351L267.127 195.966C267.127 196.649 267.686 197.208 268.368 197.208L271.982 197.208C272.664 197.208 273.223 196.649 273.223 195.966Z" fill="#BFC8D9" fill-opacity="0.5"/>
<path d="M508 147.8L508 153.217C508 154.242 507.17 155.073 506.145 155.073L500.731 155.073C499.707 155.073 498.876 154.242 498.876 153.217L498.876 147.8C498.876 146.776 499.707 145.945 500.731 145.945L506.145 145.945C507.17 145.945 508 146.776 508 147.8Z" fill="#BFC8D9" fill-opacity="0.5"/>
<path d="M507.482 16.5789L507.482 21.9959C507.482 23.0208 506.651 23.8516 505.627 23.8516L500.213 23.8516C499.188 23.8516 498.358 23.0208 498.358 21.9959L498.358 16.5789C498.358 15.5541 499.188 14.7233 500.213 14.7233L505.627 14.7233C506.651 14.7233 507.482 15.5541 507.482 16.5789Z" fill="#BFC8D9" fill-opacity="0.5"/>
<path d="M396.592 74.296L396.592 79.713C396.592 80.7378 395.761 81.5686 394.737 81.5686L389.323 81.5686C388.298 81.5686 387.468 80.7378 387.468 79.713L387.468 74.296C387.468 73.2711 388.298 72.4403 389.323 72.4403L394.737 72.4403C395.761 72.4403 396.592 73.2711 396.592 74.296Z" fill="#BFC8D9" fill-opacity="0.5"/>
<path d="M335.058 238.019L335.058 243.436C335.058 244.461 334.227 245.292 333.203 245.292L327.789 245.292C326.764 245.292 325.934 244.461 325.934 243.436L325.934 238.019C325.934 236.995 326.764 236.164 327.789 236.164L333.203 236.164C334.227 236.164 335.058 236.995 335.058 238.019Z" fill="#BFC8D9" fill-opacity="0.5"/>
<path d="M280.22 12.9493L280.22 9.33342C280.22 8.65118 279.66 8.09174 278.978 8.09174L275.364 8.09174C274.683 8.09174 274.123 8.65118 274.123 9.33342L274.123 12.9493C274.123 13.6315 274.683 14.1909 275.364 14.1909L278.978 14.1909C279.66 14.1909 280.22 13.6315 280.22 12.9493Z" fill="#BFC8D9" fill-opacity="0.5"/>
<path d="M356.551 325.414L356.551 330.831C356.551 331.856 355.721 332.687 354.696 332.687L349.282 332.687C348.258 332.687 347.427 331.856 347.427 330.831L347.427 325.414C347.427 324.389 348.258 323.558 349.282 323.558L354.696 323.558C355.721 323.558 356.551 324.389 356.551 325.414Z" fill="#BFC8D9" fill-opacity="0.5"/>
<path d="M445.429 329.862L445.429 326.246C445.429 325.564 444.87 325.005 444.188 325.005L440.574 325.005C439.892 325.005 439.333 325.564 439.333 326.246L439.333 329.862C439.333 330.544 439.892 331.104 440.574 331.104L444.188 331.104C444.87 331.104 445.429 330.544 445.429 329.862Z" fill="#BFC8D9" fill-opacity="0.5"/>
</g>
<defs>
<clipPath id="clip0_9_947">
<rect width="448" height="508" fill="white" transform="matrix(-4.37114e-08 -1 -1 4.37114e-08 508 448)"/>
</clipPath>
</defs>
</svg>
