<svg width="289" height="168" viewBox="0 0 289 168" fill="none" xmlns="http://www.w3.org/2000/svg">
<path d="M56.2325 149.486C52.6492 149.486 49.7277 144.821 49.7277 141.233V20.5045C49.7277 16.916 52.6492 14 56.2325 14H232.648C236.237 14 239.158 16.916 239.158 20.5045V141.233C239.158 144.821 236.242 149.486 232.648 149.486H56.2325Z" fill="#BFC8D9"/>
<path d="M238.539 141.233C238.539 144.488 235.903 148.873 232.643 148.873H56.2326C52.9721 148.873 50.3358 144.488 50.3358 141.233V20.5045C50.3358 17.2495 52.9721 14.6079 56.2326 14.6079H232.648C235.908 14.6079 238.545 17.2495 238.545 20.5045V141.233H238.539Z" fill="black"/>
<path d="M229.312 23.0708H59.563V131.414H229.312V23.0708Z" fill="white"/>
<path d="M269.998 141.324H18.8716V148.722H269.998V141.324Z" fill="white"/>
<path d="M269.127 142.196V147.845H19.7486V142.196H269.127ZM270.875 140.453H18V149.599H270.875V140.453Z" fill="black"/>
<path d="M18.3713 149.594C21.3627 152.757 26.8614 154 30.6546 154H258.221C262.014 154 267.513 152.757 270.504 149.594H18.3713Z" fill="black"/>
<path d="M78.2596 122.312V115.796H81.0305V122.312" stroke="#BFC8D9" stroke-width="2" stroke-linecap="round" stroke-linejoin="round"/>
<path d="M84.9312 122.311V106.666H87.7021V122.311" stroke="#BFC8D9" stroke-width="2" stroke-linecap="round" stroke-linejoin="round"/>
<path d="M91.5975 122.311V101.232H94.3683V122.311" stroke="#BFC8D9" stroke-width="2" stroke-linecap="round" stroke-linejoin="round"/>
<path d="M98.2637 122.311V112.815H101.035V122.311" stroke="#BFC8D9" stroke-width="2" stroke-linecap="round" stroke-linejoin="round"/>
<path d="M104.93 122.311V103.406H107.701V122.311" stroke="#BFC8D9" stroke-width="2" stroke-linecap="round" stroke-linejoin="round"/>
<path d="M111.596 122.311V110.798H114.372V122.311" stroke="#BFC8D9" stroke-width="2" stroke-linecap="round" stroke-linejoin="round"/>
<path d="M118.268 122.312V115.796H121.039V122.312" stroke="#BFC8D9" stroke-width="2" stroke-linecap="round" stroke-linejoin="round"/>
<path d="M169.176 106.354H163.102V113.934H169.176V106.354Z" fill="#1F1F21"/>
<path d="M179.2 96.1587H173.12V113.934H179.2V96.1587Z" fill="#FBEA00"/>
<path d="M189.213 100.969H183.133V113.935H189.213V100.969Z" fill="#BFC8D9"/>
<path d="M199.225 92.043H193.151V113.934H199.225V92.043Z" fill="#FBEA00"/>
<path d="M161.149 113.935H202.502" stroke="#1F1F21" stroke-width="2"/>
<path d="M223.814 103.966L211.476 100.538L199.145 97.1113L203.621 109.103L208.103 121.096L212.015 112.59L218.788 118.804L222.452 114.812L215.679 108.598L223.814 103.966Z" fill="#1F1F21"/>
<path d="M199.554 86.8569L198.704 88.896" stroke="#1F1F21" stroke-width="2"/>
<path d="M199.554 86.8569L198.704 88.896" stroke="#1F1F21" stroke-width="2"/>
<path d="M191.569 87.8843L192.909 89.6436" stroke="#1F1F21" stroke-width="2"/>
<path d="M188.47 95.3139L190.66 95.0342" stroke="#1F1F21" stroke-width="2"/>
<path d="M193.356 101.717L194.206 99.6777" stroke="#1F1F21" stroke-width="2"/>
<path d="M201.34 100.684L199.995 98.9297" stroke="#1F1F21" stroke-width="2"/>
<path d="M204.439 93.2534L202.249 93.5386" stroke="#1F1F21" stroke-width="2"/>
<path d="M153.7 83.5654C166.532 78.2508 172.625 63.5409 167.31 50.7101C161.995 37.8793 147.285 31.7863 134.453 37.101C121.622 42.4157 115.528 57.1255 120.843 69.9563C126.158 82.7871 140.869 88.8801 153.7 83.5654Z" fill="black"/>
<mask id="mask0_11_1343" style="mask-type:luminance" maskUnits="userSpaceOnUse" x="118" y="35" width="52" height="51">
<path d="M153.7 83.5654C166.532 78.2508 172.625 63.5409 167.31 50.7101C161.995 37.8793 147.285 31.7863 134.453 37.101C121.622 42.4157 115.528 57.1255 120.843 69.9563C126.158 82.7871 140.869 88.8801 153.7 83.5654Z" fill="white"/>
</mask>
<g mask="url(#mask0_11_1343)">
<path d="M151.238 44.0957H135.13C130.084 44.0957 125.994 48.1857 125.994 53.231V59.4719C125.994 64.5172 130.084 68.6072 135.13 68.6072H151.238C156.284 68.6072 160.374 64.5172 160.374 59.4719V53.231C160.374 48.1857 156.284 44.0957 151.238 44.0957Z" fill="#FBEA00"/>
<path d="M148.236 45.5591H134.57C130.672 45.5591 127.511 48.7193 127.511 52.6177V56.6043C127.511 60.5027 130.672 63.663 134.57 63.663H148.236C152.135 63.663 155.295 60.5027 155.295 56.6043V52.6177C155.295 48.7193 152.135 45.5591 148.236 45.5591Z" fill="#1F1F21"/>
<path d="M159.842 61.8229C161.476 61.8229 162.801 59.3082 162.801 56.2061C162.801 53.1041 161.476 50.5894 159.842 50.5894C158.207 50.5894 156.882 53.1041 156.882 56.2061C156.882 59.3082 158.207 61.8229 159.842 61.8229Z" fill="#FBEA00"/>
<path d="M160.439 59.0255C161.259 59.0255 161.924 57.7633 161.924 56.2064C161.924 54.6494 161.259 53.3872 160.439 53.3872C159.619 53.3872 158.954 54.6494 158.954 56.2064C158.954 57.7633 159.619 59.0255 160.439 59.0255Z" fill="white"/>
<path d="M159.842 61.8232C158.206 61.8232 156.882 59.3054 156.882 56.2065C156.882 54.7592 157.167 53.4411 157.641 52.4458" stroke="#1F1F21" stroke-width="1.56" stroke-linecap="round" stroke-linejoin="round"/>
<path d="M134.516 98.0421L128.985 83.4191C126.559 77.0114 131.299 70.1572 138.148 70.1572H149.215C156.07 70.1572 160.805 77.0114 158.378 83.4191L152.847 98.0421C149.656 106.483 137.712 106.483 134.522 98.0421H134.516Z" fill="#FBEA00"/>
<path d="M158.373 83.4191C160.799 77.0114 156.059 70.1572 149.21 70.1572H142.28C140.192 75.0423 139.235 81.7082 140.187 88.2235L142.538 104.304" stroke="#1F1F21" stroke-width="1.56" stroke-linecap="round" stroke-linejoin="round"/>
<path d="M149.21 70.1519H138.143C135.512 70.1519 133.198 71.1633 131.476 72.7719C131.552 74.0201 131.622 75.2683 131.697 76.5272C131.939 81.1917 135.006 83.29 138.595 84.0485C142.194 84.6726 146.315 83.9571 148.86 79.8413C150.62 77.0276 149.786 73.3584 154.122 71.47C152.696 70.6414 151.028 70.1519 149.205 70.1519H149.21Z" stroke="#1F1F21" stroke-width="1.56" stroke-linecap="round" stroke-linejoin="round"/>
<path d="M144.315 86.7052C146.626 84.3941 146.626 80.647 144.315 78.3358C142.003 76.0247 138.256 76.0247 135.945 78.3358C133.634 80.647 133.634 84.3941 135.945 86.7052C138.256 89.0164 142.003 89.0164 144.315 86.7052Z" fill="#FBEA00" stroke="#1F1F21" stroke-width="1.56" stroke-linecap="round" stroke-linejoin="round"/>
<path d="M143.582 82.5204C143.582 84.4249 142.038 85.969 140.133 85.969C138.229 85.969 136.685 84.4249 136.685 82.5204C136.685 80.6159 138.229 79.0718 140.133 79.0718C142.038 79.0718 143.582 80.6159 143.582 82.5204Z" fill="white"/>
</g>
<path d="M168.724 48.3512L178.791 38.2852H180.997" stroke="#BFC8D9" stroke-width="2"/>
<path d="M194.663 38.2046H183.698" stroke="#BFC8D9" stroke-width="2"/>
<path d="M194.663 40.2925H183.698" stroke="#BFC8D9" stroke-width="2"/>
<path d="M190.407 42.374H183.698" stroke="#BFC8D9" stroke-width="2"/>
<path d="M118.752 79.2598L108.691 89.3258H106.479" stroke="#BFC8D9" stroke-width="2"/>
<path d="M92.8134 89.4067H103.779" stroke="#BFC8D9" stroke-width="2"/>
<path d="M92.8134 87.3193H103.779" stroke="#BFC8D9" stroke-width="2"/>
<path d="M97.0692 85.2373H103.778" stroke="#BFC8D9" stroke-width="2"/>
<path d="M157.775 82.6226L167.842 92.6886H170.048" stroke="#BFC8D9" stroke-width="2"/>
<path d="M183.714 92.769H172.749" stroke="#BFC8D9" stroke-width="2"/>
<path d="M183.714 90.6816H172.749" stroke="#BFC8D9" stroke-width="2"/>
<path d="M179.458 88.5996H172.749" stroke="#BFC8D9" stroke-width="2"/>
<path d="M180.62 76.6456C180.62 73.7027 178.237 71.3193 175.294 71.3193C172.351 71.3193 169.967 73.7027 169.967 76.6456C169.967 78.7384 171.172 80.5408 172.926 81.4123V82.5637H177.661V81.4123C179.415 80.5408 180.62 78.7384 180.62 76.6456Z" fill="#BFC8D9"/>
<path d="M177.866 83.8062H172.717V84.8822H177.866V83.8062Z" fill="#BFC8D9"/>
<path d="M172.867 77.0327H171.791C171.791 75.1066 173.362 73.5356 175.288 73.5356V74.6117C173.954 74.6117 172.867 75.6984 172.867 77.0327Z" fill="white"/>
<path d="M90.7742 75.9403C95.7564 80.9223 103.832 80.9223 108.809 75.9403C113.791 70.9584 113.791 62.8829 108.809 57.9064C103.827 52.9244 95.751 52.9244 90.7742 57.9064C85.7921 62.8883 85.7921 70.9638 90.7742 75.9403ZM105.183 61.5325C108.158 64.5077 108.158 69.3336 105.183 72.3088C102.207 75.284 97.3813 75.284 94.4059 72.3088C91.4306 69.3336 91.4306 64.5077 94.4059 61.5325C97.3813 58.5574 102.207 58.5574 105.183 61.5325Z" stroke="#BFC8D9" stroke-width="2"/>
<path d="M90.7742 75.9403C90.828 75.9941 90.8872 76.0479 90.9464 76.1018L94.5781 72.4702C94.5189 72.4164 94.4651 72.3626 94.4059 72.3088C91.4306 69.3336 91.4306 64.5077 94.4059 61.5326C95.4013 60.5372 96.6065 59.8755 97.8763 59.5473L96.5473 54.5923C94.4329 55.1464 92.4314 56.2493 90.7742 57.9064C85.7921 62.8883 85.7921 70.9638 90.7742 75.9403Z" stroke="#BFC8D9" stroke-width="2"/>
<path d="M102.143 79.029L101.228 74.4021C98.9093 74.8433 96.4236 74.2031 94.5836 72.4761L90.9518 76.1076C94.0509 79.0882 98.2798 80.2018 102.224 79.4379L102.143 79.0236V79.029Z" stroke="#BFC8D9" stroke-width="2"/>
<path d="M138.691 48.8579H141.511L145.336 59.7633H142.409L141.774 57.8103H138.369L137.75 59.7633H134.882L138.691 48.8579ZM141.075 55.583L140.069 52.4087L139.063 55.583H141.075Z" fill="white"/>
<path d="M146.068 48.5513H148.871V50.671H146.068V48.5513ZM146.111 51.3812H148.823V59.7633H146.111V51.3812Z" fill="white"/>
</svg>

