<svg width="199" height="160" viewBox="0 0 199 160" fill="none" xmlns="http://www.w3.org/2000/svg">
<g clip-path="url(#clip0_11_1424)">
<path d="M134.192 130.416C160.917 103.71 160.917 60.4118 134.192 33.706C107.467 7.00028 64.1376 7.00028 37.4127 33.706C10.6878 60.4118 10.6878 103.71 37.4127 130.416C64.1376 157.122 107.467 157.122 134.192 130.416Z" fill="#BFC8D9"/>
<path d="M19.7508 31.057L18.3039 33.9099C17.5058 35.4855 17.5382 37.1518 18.3882 37.6316L61.1988 61.1028L65.5396 52.5443L22.729 29.073C21.8855 28.5932 20.5553 29.4815 19.7508 31.057Z" fill="#1F1F21"/>
<path d="M19.7054 38.3836L24.0461 29.825L22.729 29.0794C21.8855 28.5996 20.5553 29.4878 19.7508 31.0634L18.3039 33.9163C17.5058 35.4918 17.5382 37.1581 18.3882 37.6379L19.7054 38.3836Z" fill="#BFC8D9"/>
<path d="M61.2443 61.1415L72.1189 61.9001L65.5915 52.5635L61.2443 61.1415Z" fill="white"/>
<path d="M67.006 61.5438L72.1189 61.9004L69.0434 57.5044L67.006 61.5438Z" fill="#1F1F21"/>
<path d="M120.458 75.2053L128.399 71.7948C130.067 71.0751 132.007 71.8467 132.727 73.5195L154.055 123.101C154.775 124.774 153.996 126.706 152.329 127.426L78.6138 159.086C76.9463 159.806 75.0062 159.034 74.286 157.361L52.9585 107.78C52.2383 106.107 53.0104 104.168 54.6845 103.455L62.7431 99.9928" fill="white"/>
<path d="M120.458 75.2053L128.399 71.7948C130.067 71.0751 132.007 71.8467 132.727 73.5195L154.055 123.101C154.775 124.774 153.996 126.706 152.329 127.426L78.6138 159.086C76.9463 159.806 75.0062 159.034 74.286 157.361L52.9585 107.78C52.2383 106.107 53.0104 104.168 54.6845 103.455L62.7431 99.9928" stroke="#1F1F21" stroke-width="2" stroke-miterlimit="10"/>
<path d="M119.932 74.7254L127.504 71.477L127.861 71.3214C129.528 70.6017 130.949 69.4606 131.027 68.7733L133.817 48.0317C133.824 47.941 133.811 47.8696 133.765 47.8048C133.48 47.2213 131.903 46.8193 130.223 47.539L119.374 52.2008L46.814 83.3683L35.9653 88.0301C34.0772 88.8406 33.065 90.4032 33.623 90.8181L40.8122 95.9922L50.8303 103.215C51.3818 103.637 53.1856 103.397 54.8596 102.677L55.2165 102.521L62.3473 99.461" fill="white"/>
<path d="M119.932 74.7254L127.504 71.477L127.861 71.3214C129.528 70.6017 130.949 69.4606 131.027 68.7733L133.817 48.0317C133.824 47.941 133.811 47.8696 133.765 47.8048C133.48 47.2213 131.903 46.8193 130.223 47.539L119.374 52.2008L46.814 83.3683L35.9653 88.0301C34.0772 88.8406 33.065 90.4032 33.623 90.8181L40.8122 95.9922L50.8303 103.215C51.3818 103.637 53.1856 103.397 54.8596 102.677L55.2165 102.521L62.3473 99.461" stroke="#1F1F21" stroke-width="2" stroke-miterlimit="10"/>
<path d="M94.4936 126.486L117.736 116.503C118.463 116.191 119.313 116.525 119.628 117.257L125.977 132.018C126.29 132.745 125.954 133.588 125.226 133.9L101.984 143.884C101.257 144.196 100.413 143.86 100.1 143.133L93.751 128.372C93.4384 127.645 93.7749 126.802 94.5022 126.49L94.4936 126.486Z" stroke="#1F1F21" stroke-width="2" stroke-miterlimit="10"/>
<path d="M40.7733 89.7417L53.9318 99.2534L125.869 68.3582L128.017 52.272L40.7733 89.7417Z" fill="#1F1F21"/>
<path d="M119.757 74.427C119.705 74.3103 119.582 74.2519 119.491 74.2908L62.6263 98.7152C62.5289 98.7541 62.49 98.8838 62.5419 99.0005L64.0278 102.45C64.0797 102.567 64.203 102.625 64.2938 102.586L121.158 78.1616C121.256 78.1227 121.295 77.9866 121.243 77.8763L119.757 74.427Z" stroke="#1F1F21" stroke-width="2" stroke-miterlimit="10"/>
<path d="M62.0683 108.285L65.8964 106.645" stroke="#1F1F21" stroke-width="2" stroke-miterlimit="10"/>
<path d="M67.6029 105.906L71.4376 104.266" stroke="#1F1F21" stroke-width="2" stroke-miterlimit="10"/>
<path d="M73.144 103.527L76.9722 101.886" stroke="#1F1F21" stroke-width="2" stroke-miterlimit="10"/>
<path d="M78.6851 101.147L82.5133 99.5063" stroke="#1F1F21" stroke-width="2" stroke-miterlimit="10"/>
<path d="M84.2262 98.7738L88.0544 97.127" stroke="#1F1F21" stroke-width="2" stroke-miterlimit="10"/>
<path d="M89.7609 96.3944L93.589 94.7476" stroke="#1F1F21" stroke-width="2" stroke-miterlimit="10"/>
<path d="M95.302 94.015L99.1301 92.3682" stroke="#1F1F21" stroke-width="2" stroke-miterlimit="10"/>
<path d="M100.843 91.6352L104.671 89.9883" stroke="#1F1F21" stroke-width="2" stroke-miterlimit="10"/>
<path d="M106.384 89.2558L110.212 87.6089" stroke="#1F1F21" stroke-width="2" stroke-miterlimit="10"/>
<path d="M111.919 86.8764L115.747 85.2295" stroke="#1F1F21" stroke-width="2" stroke-miterlimit="10"/>
<path d="M117.46 84.4965L121.288 82.8496" stroke="#1F1F21" stroke-width="2" stroke-miterlimit="10"/>
<path d="M123.001 82.1171L126.829 80.4702" stroke="#1F1F21" stroke-width="2" stroke-miterlimit="10"/>
<path d="M63.9629 112.7L67.7975 111.06" stroke="#1F1F21" stroke-width="2" stroke-miterlimit="10"/>
<path d="M69.504 110.321L73.3322 108.681" stroke="#1F1F21" stroke-width="2" stroke-miterlimit="10"/>
<path d="M75.0451 107.942L78.8733 106.301" stroke="#1F1F21" stroke-width="2" stroke-miterlimit="10"/>
<path d="M80.5862 105.562L84.4144 103.921" stroke="#1F1F21" stroke-width="2" stroke-miterlimit="10"/>
<path d="M86.1208 103.189L89.949 101.542" stroke="#1F1F21" stroke-width="2" stroke-miterlimit="10"/>
<path d="M91.662 100.809L95.4902 99.1626" stroke="#1F1F21" stroke-width="2" stroke-miterlimit="10"/>
<path d="M97.2031 98.4301L101.031 96.7832" stroke="#1F1F21" stroke-width="2" stroke-miterlimit="10"/>
<path d="M102.744 96.0502L106.572 94.4033" stroke="#1F1F21" stroke-width="2" stroke-miterlimit="10"/>
<path d="M108.279 93.6708L112.107 92.0239" stroke="#1F1F21" stroke-width="2" stroke-miterlimit="10"/>
<path d="M113.82 91.2914L117.648 89.6445" stroke="#1F1F21" stroke-width="2" stroke-miterlimit="10"/>
<path d="M119.361 88.9115L123.189 87.2646" stroke="#1F1F21" stroke-width="2" stroke-miterlimit="10"/>
<path d="M124.896 86.5321L128.73 84.8853" stroke="#1F1F21" stroke-width="2" stroke-miterlimit="10"/>
<path d="M65.864 117.116L69.6922 115.476" stroke="#1F1F21" stroke-width="2" stroke-miterlimit="10"/>
<path d="M71.4051 114.737L75.2333 113.096" stroke="#1F1F21" stroke-width="2" stroke-miterlimit="10"/>
<path d="M76.9462 112.357L80.7744 110.717" stroke="#1F1F21" stroke-width="2" stroke-miterlimit="10"/>
<path d="M82.4809 109.977L86.3155 108.337" stroke="#1F1F21" stroke-width="2" stroke-miterlimit="10"/>
<path d="M88.022 107.598L91.8501 105.958" stroke="#1F1F21" stroke-width="2" stroke-miterlimit="10"/>
<path d="M93.5631 105.225L97.3913 103.578" stroke="#1F1F21" stroke-width="2" stroke-miterlimit="10"/>
<path d="M99.1042 102.846L102.932 101.199" stroke="#1F1F21" stroke-width="2" stroke-miterlimit="10"/>
<path d="M104.639 100.466L108.467 98.8188" stroke="#1F1F21" stroke-width="2" stroke-miterlimit="10"/>
<path d="M110.18 98.0863L114.008 96.4395" stroke="#1F1F21" stroke-width="2" stroke-miterlimit="10"/>
<path d="M115.721 95.7069L119.549 94.0601" stroke="#1F1F21" stroke-width="2" stroke-miterlimit="10"/>
<path d="M121.256 93.3271L125.084 91.6802" stroke="#1F1F21" stroke-width="2" stroke-miterlimit="10"/>
<path d="M126.797 90.9477L130.625 89.3008" stroke="#1F1F21" stroke-width="2" stroke-miterlimit="10"/>
<path d="M67.7651 121.532L71.5933 119.885" stroke="#1F1F21" stroke-width="2" stroke-miterlimit="10"/>
<path d="M73.3062 119.152L77.1344 117.505" stroke="#1F1F21" stroke-width="2" stroke-miterlimit="10"/>
<path d="M78.8409 116.772L82.669 115.125" stroke="#1F1F21" stroke-width="2" stroke-miterlimit="10"/>
<path d="M84.382 114.393L88.2101 112.752" stroke="#1F1F21" stroke-width="2" stroke-miterlimit="10"/>
<path d="M89.9231 112.013L93.7512 110.373" stroke="#1F1F21" stroke-width="2" stroke-miterlimit="10"/>
<path d="M95.4577 109.634L99.2924 107.994" stroke="#1F1F21" stroke-width="2" stroke-miterlimit="10"/>
<path d="M100.999 107.255L104.827 105.614" stroke="#1F1F21" stroke-width="2" stroke-miterlimit="10"/>
<path d="M106.54 104.875L110.368 103.234" stroke="#1F1F21" stroke-width="2" stroke-miterlimit="10"/>
<path d="M112.081 102.495L115.909 100.855" stroke="#1F1F21" stroke-width="2" stroke-miterlimit="10"/>
<path d="M117.616 100.122L121.444 98.4756" stroke="#1F1F21" stroke-width="2" stroke-miterlimit="10"/>
<path d="M123.157 97.7426L126.985 96.0957" stroke="#1F1F21" stroke-width="2" stroke-miterlimit="10"/>
<path d="M128.698 95.3632L132.526 93.7163" stroke="#1F1F21" stroke-width="2" stroke-miterlimit="10"/>
<path d="M69.6597 125.947L73.4944 124.3" stroke="#1F1F21" stroke-width="2" stroke-miterlimit="10"/>
<path d="M75.2008 123.568L79.029 121.921" stroke="#1F1F21" stroke-width="2" stroke-miterlimit="10"/>
<path d="M80.742 121.188L84.5701 119.541" stroke="#1F1F21" stroke-width="2" stroke-miterlimit="10"/>
<path d="M86.2831 118.809L90.1113 117.162" stroke="#1F1F21" stroke-width="2" stroke-miterlimit="10"/>
<path d="M91.8177 116.429L95.6523 114.789" stroke="#1F1F21" stroke-width="2" stroke-miterlimit="10"/>
<path d="M97.3588 114.05L101.187 112.409" stroke="#1F1F21" stroke-width="2" stroke-miterlimit="10"/>
<path d="M102.9 111.67L106.728 110.03" stroke="#1F1F21" stroke-width="2" stroke-miterlimit="10"/>
<path d="M108.441 109.29L112.269 107.65" stroke="#1F1F21" stroke-width="2" stroke-miterlimit="10"/>
<path d="M113.976 106.911L117.804 105.271" stroke="#1F1F21" stroke-width="2" stroke-miterlimit="10"/>
<path d="M119.517 104.532L123.345 102.891" stroke="#1F1F21" stroke-width="2" stroke-miterlimit="10"/>
<path d="M125.058 102.158L128.886 100.511" stroke="#1F1F21" stroke-width="2" stroke-miterlimit="10"/>
<path d="M130.593 99.7787L134.427 98.1318" stroke="#1F1F21" stroke-width="2" stroke-miterlimit="10"/>
<path d="M71.5609 130.363L75.389 128.716" stroke="#1F1F21" stroke-width="2" stroke-miterlimit="10"/>
<path d="M77.102 127.983L80.9301 126.336" stroke="#1F1F21" stroke-width="2" stroke-miterlimit="10"/>
<path d="M82.6431 125.603L86.4712 123.957" stroke="#1F1F21" stroke-width="2" stroke-miterlimit="10"/>
<path d="M88.1777 123.224L92.0059 121.577" stroke="#1F1F21" stroke-width="2" stroke-miterlimit="10"/>
<path d="M93.7188 120.845L114.216 112.04" stroke="#1F1F21" stroke-width="2" stroke-miterlimit="10"/>
<path d="M115.877 111.327L119.705 109.68" stroke="#1F1F21" stroke-width="2" stroke-miterlimit="10"/>
<path d="M121.418 108.947L125.246 107.3" stroke="#1F1F21" stroke-width="2" stroke-miterlimit="10"/>
<path d="M126.953 106.567L130.781 104.927" stroke="#1F1F21" stroke-width="2" stroke-miterlimit="10"/>
<path d="M132.494 104.188L136.322 102.547" stroke="#1F1F21" stroke-width="2" stroke-miterlimit="10"/>
<path d="M10.5697 129.163H35.0051C40.4813 129.163 44.9259 124.728 44.9259 119.25C44.9259 114.128 41.0393 109.913 36.0497 109.394V104.123L30.4891 109.342H10.5632C5.08694 109.342 0.642365 113.777 0.642365 119.256C0.642365 124.728 5.08045 129.17 10.5632 129.17L10.5697 129.163Z" stroke="#1F1F21" stroke-width="2"/>
<path d="M9.33685 121.091H36.2379" stroke="#1F1F21" stroke-width="2"/>
<path d="M9.33685 116.916H36.2379" stroke="#1F1F21" stroke-width="2"/>
<path d="M84.064 26.2658L80.5408 27.8803L81.7152 31.1286C80.6641 31.8743 79.7817 32.7949 79.0809 33.8259L75.655 32.8728L74.3055 36.5037L77.4329 37.969C77.2252 39.2009 77.2382 40.4782 77.4848 41.7361L74.3833 43.4867L75.9989 47.0074L79.2496 45.8338C79.9958 46.8842 80.9172 47.766 81.9488 48.4597L80.9885 51.8832L84.622 53.2318L86.0884 50.1066C87.3212 50.3141 88.593 50.3011 89.8582 50.0547L91.6101 53.154L95.1333 51.5395L93.9589 48.2912C95.01 47.5455 95.8924 46.6248 96.5867 45.5939L100.019 46.547L101.369 42.9161L98.2413 41.4508C98.4489 40.2189 98.4359 38.948 98.1893 37.6837L101.291 35.9396L99.6752 32.4189L96.4245 33.5925C95.6783 32.5421 94.757 31.6603 93.7253 30.9665L94.6791 27.5366L91.0456 26.188L89.5792 29.3132C88.3464 29.1057 87.0682 29.1187 85.8094 29.365L84.0576 26.2658H84.064ZM93.031 37.3206C94.3482 40.1864 93.0894 43.5775 90.2151 44.8937C87.3472 46.2099 83.9473 44.952 82.6301 42.0862C81.313 39.2204 82.5717 35.8229 85.4396 34.5067C88.3075 33.1905 91.7074 34.4483 93.0246 37.3141L93.031 37.3206Z" fill="#1F1F21"/>
<path d="M106.014 51.4032C106.014 51.4032 106.073 51.1828 106.196 50.7808" stroke="#1F1F21" stroke-width="2" stroke-miterlimit="10"/>
<path d="M106.592 49.5619C108.571 43.9016 116.078 26.7326 136.017 20.0737" stroke="#1F1F21" stroke-width="2" stroke-miterlimit="10" stroke-dasharray="1.98 1.98"/>
<path d="M136.633 19.8727C136.841 19.8079 137.048 19.7431 137.256 19.6782" stroke="#1F1F21" stroke-width="2" stroke-miterlimit="10"/>
<path d="M168.673 64.1635C185.422 64.1635 199 50.5954 199 33.8584C199 17.1213 185.422 3.55322 168.673 3.55322C151.924 3.55322 138.346 17.1213 138.346 33.8584C138.346 50.5954 151.924 64.1635 168.673 64.1635Z" fill="#1F1F21"/>
<mask id="mask0_11_1424" style="mask-type:luminance" maskUnits="userSpaceOnUse" x="138" y="3" width="61" height="62">
<path d="M168.673 64.1635C185.422 64.1635 199 50.5954 199 33.8584C199 17.1213 185.422 3.55322 168.673 3.55322C151.924 3.55322 138.346 17.1213 138.346 33.8584C138.346 50.5954 151.924 64.1635 168.673 64.1635Z" fill="white"/>
</mask>
<g mask="url(#mask0_11_1424)">
<path d="M177.309 14.2969H157.883C151.798 14.2969 146.866 19.226 146.866 25.3063V32.8275C146.866 38.9078 151.798 43.8369 157.883 43.8369H177.309C183.394 43.8369 188.327 38.9078 188.327 32.8275V25.3063C188.327 19.226 183.394 14.2969 177.309 14.2969Z" fill="#FBEA00"/>
<path d="M173.695 16.0605H157.215C152.513 16.0605 148.702 19.8691 148.702 24.5673V29.3717C148.702 34.0699 152.513 37.8784 157.215 37.8784H173.695C178.397 37.8784 182.208 34.0699 182.208 29.3717V24.5673C182.208 19.8691 178.397 16.0605 173.695 16.0605Z" fill="#1F1F21"/>
<path d="M187.691 35.6543C189.662 35.6543 191.259 32.6237 191.259 28.8853C191.259 25.1468 189.662 22.1162 187.691 22.1162C185.72 22.1162 184.122 25.1468 184.122 28.8853C184.122 32.6237 185.72 35.6543 187.691 35.6543Z" fill="#FBEA00"/>
<path d="M190.195 28.8853C190.195 30.7591 189.397 32.2828 188.404 32.2828C187.412 32.2828 186.614 30.7656 186.614 28.8853C186.614 27.005 187.412 25.4878 188.404 25.4878C189.397 25.4878 190.195 27.005 190.195 28.8853Z" fill="white"/>
<path d="M187.691 35.6606C185.718 35.6606 184.122 32.6262 184.122 28.8915C184.122 27.1474 184.466 25.5589 185.037 24.3594" stroke="#1F1F21" stroke-width="1.56" stroke-linecap="round" stroke-linejoin="round"/>
<path d="M157.143 79.3095L150.473 61.6866C147.547 53.9644 153.263 45.7041 161.523 45.7041H174.87C183.136 45.7041 188.846 53.9644 185.919 61.6866L179.249 79.3095C175.402 89.4825 160.997 89.4825 157.15 79.3095H157.143Z" fill="#FBEA00"/>
<path d="M185.919 61.6802C188.846 53.9581 183.129 45.6978 174.87 45.6978H166.512C163.995 51.585 162.84 59.6184 163.988 67.4702L166.824 86.8502" stroke="#1F1F21" stroke-width="1.56" stroke-linecap="round" stroke-linejoin="round"/>
<path d="M174.87 45.6978H161.523C158.35 45.6978 155.56 46.9167 153.484 48.8553C153.575 50.3596 153.659 51.8638 153.75 53.381C154.042 59.0025 157.74 61.5311 162.068 62.4453C166.409 63.1974 171.379 62.3351 174.448 57.375C176.57 53.984 175.564 49.5621 180.793 47.2863C179.074 46.2878 177.063 45.6978 174.863 45.6978H174.87Z" stroke="#1F1F21" stroke-width="1.56" stroke-linecap="round" stroke-linejoin="round"/>
<path d="M166.645 67.186C170.287 65.6786 172.016 61.5065 170.508 57.8674C169 54.2282 164.824 52.5001 161.183 54.0075C157.541 55.5148 155.812 59.6869 157.32 63.3261C158.829 66.9652 163.004 68.6933 166.645 67.186Z" fill="#FBEA00" stroke="#1F1F21" stroke-width="1.56" stroke-linecap="round" stroke-linejoin="round"/>
<path d="M163.917 64.7536C166.214 64.7536 168.076 62.8928 168.076 60.5975C168.076 58.3022 166.214 56.4414 163.917 56.4414C161.62 56.4414 159.758 58.3022 159.758 60.5975C159.758 62.8928 161.62 64.7536 163.917 64.7536Z" fill="white"/>
<path d="M160.076 20.5859H163.476L168.089 33.7285H164.559L163.794 31.3749H159.687L158.94 33.7285H155.482L160.076 20.5859ZM162.957 28.6842L161.743 24.8587L160.53 28.6842H162.957Z" fill="white"/>
<path d="M168.972 20.21H172.352V22.7646H168.972V20.21ZM169.023 23.6269H172.294V33.7286H169.023V23.6269Z" fill="white"/>
</g>
<path d="M57.0657 1.29675C58.3504 1.29675 59.4989 2.11371 59.9271 3.32617L66.143 21.0787C66.409 21.8438 66.3636 22.6608 66.0132 23.3934C65.6629 24.1196 65.0465 24.6707 64.2873 24.9366L46.522 31.148C46.1976 31.2647 45.8602 31.3166 45.5228 31.3166C44.2381 31.3166 43.0896 30.4997 42.6614 29.2872L36.4455 11.5346C36.1795 10.7695 36.2249 9.95259 36.5753 9.21992C36.9256 8.49374 37.542 7.94262 38.3077 7.67678L56.073 1.46533C56.3974 1.34862 56.7348 1.29675 57.0722 1.29675M57.0657 0C56.592 0 56.1119 0.0778053 55.6382 0.246383L37.8729 6.45784C35.615 7.24886 34.4276 9.71269 35.2192 11.969L41.4351 29.7216C42.058 31.5046 43.732 32.6199 45.5228 32.6199C45.9964 32.6199 46.4766 32.542 46.9502 32.3735L64.7155 26.162C66.9735 25.371 68.1609 22.9072 67.3693 20.6508L61.1534 2.89825C60.5305 1.11521 58.8565 0 57.0657 0Z" fill="#1F1F21"/>
<path d="M49.2342 11.6319C49.9544 13.6938 48.8708 15.9566 46.801 16.6763C44.7377 17.396 42.4732 16.3132 41.753 14.2449C41.0328 12.1831 42.1164 9.92023 44.1862 9.20053C46.2495 8.48084 48.5139 9.56363 49.2342 11.6319Z" fill="#BFC8D9"/>
<path d="M41.4351 29.7216L40.0271 25.6952L41.208 23.2508C42.0774 21.4418 44.2511 20.6832 46.0613 21.552C47.7743 22.3755 49.8311 21.6558 50.6551 19.944L55.2814 10.3351C56.3779 8.05281 59.1225 7.09322 61.4065 8.19546L63.327 9.11615L67.3693 20.6508C68.1609 22.9071 66.967 25.371 64.7156 26.162L46.9502 32.3734C44.6923 33.1645 42.2267 31.9714 41.4351 29.7216Z" fill="#1F1F21"/>
<path d="M36.2638 62.3545H50.0971" stroke="#1F1F21" stroke-width="2"/>
<path d="M36.2638 64.9995H50.0971" stroke="#1F1F21" stroke-width="2"/>
<path d="M33.8955 61.8486L31.5143 64.8312L29.9506 63.8197" stroke="#1F1F21" stroke-width="2"/>
<path d="M36.2638 73.6426H50.0971" stroke="#1F1F21" stroke-width="2"/>
<path d="M36.2638 76.2944H50.0971" stroke="#1F1F21" stroke-width="2"/>
<path d="M33.8955 73.1367L31.5143 76.1193L29.9506 75.1078" stroke="#1F1F21" stroke-width="2"/>
</g>
<defs>
<clipPath id="clip0_11_1424">
<rect width="199" height="160" fill="white"/>
</clipPath>
</defs>
</svg>
