<svg width="253" height="140" viewBox="0 0 253 140" fill="none" xmlns="http://www.w3.org/2000/svg">
<path d="M38.2325 135.486C34.6492 135.486 31.7277 130.821 31.7277 127.233V6.50449C31.7277 2.91599 34.6492 0 38.2325 0H214.648C218.237 0 221.158 2.91599 221.158 6.50449V127.233C221.158 130.821 218.242 135.486 214.648 135.486H38.2325Z" fill="#BFC8D9"/>
<path d="M220.539 127.233C220.539 130.488 217.903 134.873 214.643 134.873H38.2326C34.9721 134.873 32.3358 130.488 32.3358 127.233V6.50445C32.3358 3.24952 34.9721 0.60791 38.2326 0.60791H214.648C217.908 0.60791 220.545 3.24952 220.545 6.50445V127.233H220.539Z" fill="black"/>
<path d="M211.312 9.0708H41.563V117.414H211.312V9.0708Z" fill="white"/>
<path d="M251.998 127.324H0.871643V134.722H251.998V127.324Z" fill="white"/>
<path d="M251.127 128.196V133.845H1.74861V128.196H251.127ZM252.875 126.453H0V135.599H252.875V126.453Z" fill="black"/>
<path d="M0.371277 135.594C3.36274 138.757 8.86143 140 12.6546 140H240.221C244.014 140 249.513 138.757 252.504 135.594H0.371277Z" fill="black"/>
<path d="M60.2596 108.312V101.796H63.0305V108.312" stroke="#BFC8D9" stroke-width="2" stroke-linecap="round" stroke-linejoin="round"/>
<path d="M66.9312 108.311V92.666H69.7021V108.311" stroke="#BFC8D9" stroke-width="2" stroke-linecap="round" stroke-linejoin="round"/>
<path d="M73.5975 108.311V87.2324H76.3683V108.311" stroke="#BFC8D9" stroke-width="2" stroke-linecap="round" stroke-linejoin="round"/>
<path d="M80.2637 108.311V98.8154H83.0346V108.311" stroke="#BFC8D9" stroke-width="2" stroke-linecap="round" stroke-linejoin="round"/>
<path d="M86.9299 108.311V89.4058H89.7007V108.311" stroke="#BFC8D9" stroke-width="2" stroke-linecap="round" stroke-linejoin="round"/>
<path d="M93.5961 108.311V96.7979H96.3724V108.311" stroke="#BFC8D9" stroke-width="2" stroke-linecap="round" stroke-linejoin="round"/>
<path d="M100.268 108.312V101.796H103.039V108.312" stroke="#BFC8D9" stroke-width="2" stroke-linecap="round" stroke-linejoin="round"/>
<path d="M151.176 92.354H145.102V99.9345H151.176V92.354Z" fill="#1F1F21"/>
<path d="M161.2 82.1587H155.12V99.9344H161.2V82.1587Z" fill="#FBEA00"/>
<path d="M171.213 86.9688H165.133V99.9347H171.213V86.9688Z" fill="#BFC8D9"/>
<path d="M181.225 78.043H175.151V99.9344H181.225V78.043Z" fill="#FBEA00"/>
<path d="M143.149 99.9351H184.502" stroke="#1F1F21" stroke-width="2"/>
<path d="M205.814 89.9655L193.476 86.5384L181.145 83.1113L185.621 95.1035L190.103 107.096L194.015 98.5898L200.788 104.804L204.452 100.812L197.679 94.5978L205.814 89.9655Z" fill="#1F1F21"/>
<path d="M181.554 72.8569L180.704 74.896" stroke="#1F1F21" stroke-width="2"/>
<path d="M181.554 72.8569L180.704 74.896" stroke="#1F1F21" stroke-width="2"/>
<path d="M173.569 73.8843L174.909 75.6436" stroke="#1F1F21" stroke-width="2"/>
<path d="M170.47 81.3139L172.66 81.0342" stroke="#1F1F21" stroke-width="2"/>
<path d="M175.356 87.7168L176.206 85.6777" stroke="#1F1F21" stroke-width="2"/>
<path d="M183.34 86.6836L181.995 84.9297" stroke="#1F1F21" stroke-width="2"/>
<path d="M186.439 79.2534L184.249 79.5386" stroke="#1F1F21" stroke-width="2"/>
<path d="M135.7 69.5654C148.532 64.2508 154.625 49.5409 149.31 36.7101C143.995 23.8793 129.285 17.7863 116.453 23.101C103.622 28.4157 97.5284 43.1255 102.843 55.9563C108.158 68.7871 122.869 74.8801 135.7 69.5654Z" fill="black"/>
<mask id="mask0_11_1556" style="mask-type:luminance" maskUnits="userSpaceOnUse" x="100" y="21" width="52" height="51">
<path d="M135.7 69.5654C148.532 64.2508 154.625 49.5409 149.31 36.7101C143.995 23.8793 129.285 17.7863 116.453 23.101C103.622 28.4157 97.5284 43.1255 102.843 55.9563C108.158 68.7871 122.869 74.8801 135.7 69.5654Z" fill="white"/>
</mask>
<g mask="url(#mask0_11_1556)">
<path d="M133.238 30.0957H117.13C112.084 30.0957 107.994 34.1857 107.994 39.231V45.4719C107.994 50.5172 112.084 54.6072 117.13 54.6072H133.238C138.284 54.6072 142.374 50.5172 142.374 45.4719V39.231C142.374 34.1857 138.284 30.0957 133.238 30.0957Z" fill="#FBEA00"/>
<path d="M130.236 31.5591H116.57C112.672 31.5591 109.511 34.7193 109.511 38.6177V42.6043C109.511 46.5027 112.672 49.663 116.57 49.663H130.236C134.135 49.663 137.295 46.5027 137.295 42.6043V38.6177C137.295 34.7193 134.135 31.5591 130.236 31.5591Z" fill="#1F1F21"/>
<path d="M141.842 47.8229C143.476 47.8229 144.801 45.3082 144.801 42.2061C144.801 39.1041 143.476 36.5894 141.842 36.5894C140.207 36.5894 138.882 39.1041 138.882 42.2061C138.882 45.3082 140.207 47.8229 141.842 47.8229Z" fill="#FBEA00"/>
<path d="M142.439 45.0255C143.259 45.0255 143.924 43.7633 143.924 42.2064C143.924 40.6494 143.259 39.3872 142.439 39.3872C141.619 39.3872 140.954 40.6494 140.954 42.2064C140.954 43.7633 141.619 45.0255 142.439 45.0255Z" fill="white"/>
<path d="M141.842 47.8232C140.206 47.8232 138.882 45.3054 138.882 42.2065C138.882 40.7592 139.167 39.4411 139.641 38.4458" stroke="#1F1F21" stroke-width="1.56" stroke-linecap="round" stroke-linejoin="round"/>
<path d="M116.516 84.0421L110.985 69.4191C108.559 63.0114 113.299 56.1572 120.148 56.1572H131.215C138.07 56.1572 142.805 63.0114 140.378 69.4191L134.847 84.0421C131.656 92.4834 119.712 92.4834 116.522 84.0421H116.516Z" fill="#FBEA00"/>
<path d="M140.373 69.4191C142.799 63.0114 138.059 56.1572 131.21 56.1572H124.28C122.192 61.0423 121.235 67.7082 122.187 74.2235L124.538 90.3044" stroke="#1F1F21" stroke-width="1.56" stroke-linecap="round" stroke-linejoin="round"/>
<path d="M131.21 56.1519H120.143C117.512 56.1519 115.198 57.1633 113.476 58.7719C113.552 60.0201 113.622 61.2683 113.697 62.5272C113.939 67.1917 117.006 69.29 120.595 70.0485C124.194 70.6726 128.315 69.9571 130.86 65.8413C132.62 63.0276 131.786 59.3584 136.122 57.47C134.696 56.6414 133.028 56.1519 131.205 56.1519H131.21Z" stroke="#1F1F21" stroke-width="1.56" stroke-linecap="round" stroke-linejoin="round"/>
<path d="M126.315 72.7052C128.626 70.3941 128.626 66.647 126.315 64.3358C124.003 62.0247 120.256 62.0247 117.945 64.3358C115.634 66.647 115.634 70.3941 117.945 72.7052C120.256 75.0164 124.003 75.0164 126.315 72.7052Z" fill="#FBEA00" stroke="#1F1F21" stroke-width="1.56" stroke-linecap="round" stroke-linejoin="round"/>
<path d="M125.582 68.5204C125.582 70.4249 124.038 71.969 122.133 71.969C120.229 71.969 118.685 70.4249 118.685 68.5204C118.685 66.6159 120.229 65.0718 122.133 65.0718C124.038 65.0718 125.582 66.6159 125.582 68.5204Z" fill="white"/>
</g>
<path d="M150.724 34.3512L160.791 24.2852H162.997" stroke="#BFC8D9" stroke-width="2"/>
<path d="M176.663 24.2046H165.698" stroke="#BFC8D9" stroke-width="2"/>
<path d="M176.663 26.2925H165.698" stroke="#BFC8D9" stroke-width="2"/>
<path d="M172.407 28.374H165.698" stroke="#BFC8D9" stroke-width="2"/>
<path d="M100.752 65.2598L90.6907 75.3258H88.4794" stroke="#BFC8D9" stroke-width="2"/>
<path d="M74.8134 75.4067H85.7785" stroke="#BFC8D9" stroke-width="2"/>
<path d="M74.8134 73.3193H85.7785" stroke="#BFC8D9" stroke-width="2"/>
<path d="M79.0692 71.2373H85.7785" stroke="#BFC8D9" stroke-width="2"/>
<path d="M139.775 68.6226L149.842 78.6886H152.048" stroke="#BFC8D9" stroke-width="2"/>
<path d="M165.714 78.769H154.749" stroke="#BFC8D9" stroke-width="2"/>
<path d="M165.714 76.6816H154.749" stroke="#BFC8D9" stroke-width="2"/>
<path d="M161.458 74.5996H154.749" stroke="#BFC8D9" stroke-width="2"/>
<path d="M162.62 62.6456C162.62 59.7027 160.237 57.3193 157.294 57.3193C154.351 57.3193 151.967 59.7027 151.967 62.6456C151.967 64.7384 153.172 66.5408 154.926 67.4123V68.5637H159.661V67.4123C161.415 66.5408 162.62 64.7384 162.62 62.6456Z" fill="#BFC8D9"/>
<path d="M159.866 69.8062H154.717V70.8822H159.866V69.8062Z" fill="#BFC8D9"/>
<path d="M154.867 63.0327H153.791C153.791 61.1066 155.362 59.5356 157.288 59.5356V60.6117C155.954 60.6117 154.867 61.6984 154.867 63.0327Z" fill="white"/>
<path d="M72.7742 61.9403C77.7564 66.9223 85.8323 66.9223 90.8091 61.9403C95.7913 56.9584 95.7913 48.8829 90.8091 43.9064C85.8269 38.9244 77.751 38.9244 72.7742 43.9064C67.7921 48.8883 67.7921 56.9638 72.7742 61.9403ZM87.1827 47.5325C90.1581 50.5077 90.1581 55.3336 87.1827 58.3088C84.2074 61.284 79.3813 61.284 76.4059 58.3088C73.4306 55.3336 73.4306 50.5077 76.4059 47.5325C79.3813 44.5574 84.2074 44.5574 87.1827 47.5325Z" stroke="#BFC8D9" stroke-width="2"/>
<path d="M72.7742 61.9403C72.828 61.9941 72.8872 62.0479 72.9464 62.1018L76.5781 58.4702C76.5189 58.4164 76.4651 58.3626 76.4059 58.3088C73.4306 55.3336 73.4306 50.5077 76.4059 47.5326C77.4013 46.5372 78.6065 45.8755 79.8763 45.5473L78.5473 40.5923C76.4329 41.1464 74.4314 42.2493 72.7742 43.9064C67.7921 48.8883 67.7921 56.9638 72.7742 61.9403Z" stroke="#BFC8D9" stroke-width="2"/>
<path d="M84.1429 65.029L83.2283 60.4021C80.9093 60.8433 78.4236 60.2031 76.5836 58.4761L72.9518 62.1076C76.0509 65.0882 80.2798 66.2018 84.2236 65.4379L84.1429 65.0236V65.029Z" stroke="#BFC8D9" stroke-width="2"/>
<path d="M120.691 34.8579H123.511L127.336 45.7633H124.409L123.774 43.8103H120.369L119.75 45.7633H116.882L120.691 34.8579ZM123.075 41.583L122.069 38.4087L121.063 41.583H123.075Z" fill="white"/>
<path d="M128.068 34.5513H130.871V36.671H128.068V34.5513ZM128.111 37.3812H130.823V45.7633H128.111V37.3812Z" fill="white"/>
</svg>
