<svg width="265" height="96" viewBox="0 0 265 96" fill="none" xmlns="http://www.w3.org/2000/svg">
<path d="M68.6234 24L3.56358e-05 24L61.8702 81.4481L68.6234 24Z" fill="#1F1F21"/>
<rect x="24.9998" width="240" height="96" rx="20" fill="#1F1F21"/>
<path d="M55.5842 33.848H60.9122L60.0722 31.16C59.4242 29.168 58.8722 27.248 58.2962 25.208H58.2002C57.6482 27.272 57.0722 29.168 56.4482 31.16L55.5842 33.848ZM63.1442 41L61.4642 35.624H55.0322L53.3282 41H51.0722L57.0482 23.408H59.5202L65.4962 41H63.1442ZM67.9784 41V23.408H70.2104V41H67.9784ZM76.9056 22.832L79.0656 23C78.9216 23.408 78.7056 24.176 78.6096 24.608C78.1536 26.792 77.4576 31.04 77.4576 33.704C77.4576 34.856 77.5056 35.816 77.6496 36.968C78.0576 35.888 78.5856 34.496 78.9696 33.56L80.0016 34.328C79.4016 36.008 78.5376 38.528 78.3216 39.656C78.2496 39.992 78.2016 40.448 78.2016 40.712L78.2736 41.552L76.5456 41.672C76.0656 39.992 75.6816 37.256 75.6816 34.04C75.6816 30.536 76.4496 26.456 76.7376 24.512C76.8096 23.96 76.9056 23.336 76.9056 22.832ZM82.7616 34.352L84.4896 34.52C84.2736 35.384 84.1776 36.056 84.1776 36.704C84.1776 37.784 84.8976 38.84 88.1616 38.84C90.2976 38.84 92.1216 38.648 94.0416 38.216L94.0656 40.232C92.6016 40.52 90.6096 40.712 88.1376 40.712C84.1536 40.712 82.3776 39.392 82.3776 37.16C82.3776 36.296 82.5456 35.36 82.7616 34.352ZM83.5776 26.792L83.5536 24.824C86.1456 25.256 90.9456 25.16 93.3216 24.824V26.792C90.7776 27.056 86.1696 27.056 83.5776 26.792ZM103.066 20.936L104.722 21.464C104.122 23.072 103.402 24.728 102.586 26.288V42.8H100.834V29.216C100.138 30.32 99.3696 31.28 98.6016 32.12C98.4336 31.712 97.9056 30.776 97.6176 30.392C99.8016 28.064 101.842 24.512 103.066 20.936ZM111.298 29.912H107.17V34.976H111.298V29.912ZM112.954 36.56H107.17V38.216H105.466V28.328H112.954V36.56ZM119.626 23.24V24.968H117.874V40.376C117.874 41.648 117.538 42.176 116.698 42.464C115.81 42.752 114.226 42.8 111.898 42.8C111.826 42.296 111.514 41.48 111.25 40.976C113.17 41.048 114.922 41.024 115.45 41C115.954 40.976 116.122 40.856 116.122 40.376V24.968H104.77V23.24H119.626ZM143.17 24.92H125.266V30.152C125.266 33.848 124.978 39.248 122.914 42.872C122.602 42.56 121.858 42.056 121.45 41.864C123.418 38.456 123.586 33.608 123.586 30.152V23.288H132.394V20.936H134.218V23.288H143.17V24.92ZM137.41 29.072H131.602V31.592H137.41V29.072ZM139.138 33.032H129.898V29.072H126.082V27.608H129.898V25.52H131.602V27.608H137.41V25.52H139.138V27.608H143.002V29.072H139.138V33.032ZM138.754 36.008H130.81C131.722 37.232 133.066 38.24 134.698 39.056C136.354 38.264 137.77 37.28 138.754 36.008ZM140.242 34.472L141.37 35.072C140.29 37.136 138.61 38.672 136.546 39.848C138.634 40.592 141.034 41.096 143.602 41.36C143.218 41.72 142.762 42.416 142.57 42.872C139.642 42.488 136.954 41.816 134.674 40.76C132.13 41.816 129.202 42.464 126.226 42.824C126.106 42.392 125.746 41.72 125.482 41.336C128.074 41.072 130.618 40.592 132.874 39.8C131.338 38.888 130.066 37.736 129.106 36.368L130.066 36.008H126.37V34.544H139.93L140.242 34.472ZM163.21 22.232V23.72H150.058V22.232H163.21ZM162.058 36.848H151.162V40.28H162.058V36.848ZM149.41 42.8V35.336H163.882V42.728H162.058V41.792H151.162V42.8H149.41ZM149.674 33.488V32.024H163.546V33.488H149.674ZM163.546 28.784V30.272H149.674V28.784H163.546ZM146.002 25.472H167.362V27.032H146.002V25.472ZM172.546 31.376C173.242 31.256 174.034 31.04 174.754 30.8C176.458 30.272 180.346 28.856 183.154 28.856C186.514 28.856 188.962 30.872 188.962 34.112C188.962 38.696 184.546 41.048 178.138 41.432L177.37 39.584C182.506 39.416 187.018 37.976 187.018 34.088C187.018 32.072 185.434 30.608 183.01 30.608C180.058 30.608 174.874 32.768 173.338 33.368L172.546 31.376ZM193.55 25.064C194.462 25.04 195.206 24.992 195.662 24.944C197.222 24.8 201.71 24.344 206.078 23.984C208.67 23.768 210.902 23.648 212.486 23.576V25.496C211.142 25.496 209.054 25.52 207.83 25.88C204.446 26.96 202.406 30.56 202.406 33.368C202.406 38.024 206.726 39.488 210.59 39.632L209.894 41.624C205.502 41.456 200.486 39.104 200.486 33.8C200.486 30.08 202.718 27.08 204.902 25.784C202.814 26.024 196.334 26.648 193.766 27.176L193.55 25.064ZM230.467 31.232L232.603 30.8C234.235 32.6 235.051 34.256 235.051 36.296C235.051 39.824 231.859 41.984 227.179 41.984C223.939 41.984 221.323 40.568 221.323 36.68C221.323 36.032 221.395 35.072 221.515 33.944C219.739 33.8 218.011 33.536 216.571 33.08L216.667 31.256C218.227 31.808 220.003 32.096 221.683 32.216C221.851 30.824 222.043 29.336 222.211 27.944C220.507 27.8 218.635 27.512 217.147 27.128L217.243 25.352C218.731 25.832 220.651 26.12 222.427 26.216C222.547 25.256 222.643 24.392 222.691 23.744C222.739 23.192 222.763 22.664 222.715 22.088L224.875 22.208C224.707 22.856 224.635 23.336 224.563 23.864C224.491 24.464 224.371 25.304 224.251 26.288C226.051 26.288 227.659 26.192 229.051 26L229.003 27.8C227.491 27.944 226.075 28.04 224.179 28.04H224.011C223.819 29.432 223.651 30.92 223.483 32.288H223.939C225.547 32.288 227.227 32.216 228.883 32L228.835 33.824C227.251 33.992 225.787 34.04 224.179 34.04C223.891 34.04 223.603 34.04 223.315 34.04C223.219 34.976 223.171 35.816 223.171 36.392C223.171 38.648 224.467 40.088 227.179 40.088C230.779 40.088 233.083 38.552 233.083 36.08C233.083 34.472 232.219 32.696 230.467 31.232Z" fill="white"/>
<path d="M73.6562 61.896L71.9762 64.416C70.6082 63.312 67.8962 61.752 66.2642 61.032L67.8002 58.68C69.5042 59.424 72.4562 61.032 73.6562 61.896ZM64.7042 58.248L64.7762 61.008C63.6962 61.296 62.2322 61.608 60.6482 61.824C59.5202 65.16 57.4802 69.288 55.5602 72L52.6562 70.536C54.5762 68.208 56.4482 64.704 57.5042 62.136C57.0962 62.16 56.6882 62.16 56.2802 62.16C55.2962 62.16 54.3362 62.136 53.3042 62.088L53.0882 59.304C54.1202 59.424 55.3922 59.472 56.2562 59.472C56.9522 59.472 57.6722 59.448 58.3922 59.4C58.7282 58.08 58.9922 56.64 59.0402 55.416L62.3282 55.752C62.1362 56.52 61.8482 57.72 61.5122 58.992C62.6642 58.8 63.7682 58.536 64.7042 58.248ZM65.2802 71.472V71.016C64.6562 70.872 64.0322 70.776 63.3602 70.776C61.9922 70.776 61.1042 71.352 61.1042 72.192C61.1042 73.08 61.8482 73.68 63.1442 73.68C64.7522 73.68 65.2802 72.744 65.2802 71.472ZM64.8962 63.144H67.8962C67.8242 64.152 67.8722 65.136 67.8962 66.192C67.9202 66.864 67.9682 68.016 68.0402 69.192C70.0802 69.96 71.7602 71.16 72.9602 72.24L71.3762 74.784C70.5362 74.016 69.4562 73.056 68.1602 72.264V72.48C68.1602 74.688 66.9602 76.416 63.5762 76.416C60.6242 76.416 58.2962 75.096 58.2962 72.48C58.2962 70.152 60.2402 68.352 63.5522 68.352C64.1042 68.352 64.6562 68.4 65.1602 68.448C65.0882 66.672 64.9682 64.584 64.8962 63.144ZM81.6962 72.864C82.1282 72.864 82.4642 72.648 82.4642 71.832C82.4642 71.232 82.4402 70.152 82.3922 68.904C80.9282 69.648 79.9682 70.632 79.9682 71.472C79.9682 72.192 81.0722 72.864 81.6962 72.864ZM85.0802 64.32V65.16C86.6882 64.752 88.3202 64.536 89.6402 64.536C93.2882 64.536 96.1682 66.48 96.1682 69.744C96.1682 72.552 94.7042 74.664 90.9362 75.6C89.8322 75.84 88.7522 75.936 87.8162 75.984L86.7122 72.936C87.7922 72.936 88.8002 72.912 89.6402 72.768C91.5602 72.432 93.0962 71.448 93.0962 69.72C93.0962 68.112 91.6562 67.176 89.5922 67.176C88.1282 67.176 86.5922 67.416 85.1282 67.824C85.1762 69.72 85.2482 71.544 85.2482 72.36C85.2482 75.312 84.1682 76.08 82.6322 76.08C80.3042 76.08 77.0162 74.088 77.0162 71.568C77.0162 69.48 79.4402 67.344 82.3442 66.072C82.3202 65.52 82.3202 64.968 82.3202 64.416V62.424C81.8642 62.448 81.4322 62.472 81.0482 62.472C79.9682 62.472 78.7682 62.448 77.7362 62.352L77.6882 59.472C79.0802 59.64 80.1122 59.664 80.9762 59.664C81.4082 59.664 81.8642 59.64 82.3442 59.616C82.3682 58.776 82.3682 58.08 82.3682 57.672C82.3682 57.168 82.2722 56.016 82.2002 55.584H85.4642C85.4162 56.016 85.3202 57.048 85.2722 57.648C85.2482 58.176 85.2242 58.752 85.2002 59.352C86.7602 59.136 88.3202 58.824 89.5682 58.464L89.6402 61.44C88.2962 61.752 86.6642 61.992 85.1042 62.184C85.0802 62.904 85.0802 63.624 85.0802 64.32ZM90.9362 60.48L92.2562 58.152C94.0802 59.04 96.8402 60.6 98.0882 61.488L96.6482 63.936C95.5202 62.952 92.4242 61.2 90.9362 60.48ZM106.296 58.632L107.064 55.752C109.32 56.448 114.48 57.36 116.568 57.6L115.848 60.528C113.448 60.216 108.144 59.112 106.296 58.632ZM107.208 60.528C106.896 61.848 106.488 64.704 106.32 66.072C108.48 64.512 110.832 63.816 113.304 63.816C117.48 63.816 119.904 66.384 119.904 69.264C119.904 73.608 116.472 76.944 106.584 76.08L105.672 72.96C112.8 73.968 116.568 72.216 116.568 69.192C116.568 67.656 115.104 66.528 113.016 66.528C110.328 66.528 107.952 67.512 106.464 69.312C106.032 69.84 105.768 70.224 105.576 70.704L102.816 70.008C103.272 67.68 103.848 63.048 103.992 60.096L107.208 60.528ZM145.656 61.896L143.976 64.416C142.608 63.312 139.896 61.752 138.264 61.032L139.8 58.68C141.504 59.424 144.456 61.032 145.656 61.896ZM136.704 58.248L136.776 61.008C135.696 61.296 134.232 61.608 132.648 61.824C131.52 65.16 129.48 69.288 127.56 72L124.656 70.536C126.576 68.208 128.448 64.704 129.504 62.136C129.096 62.16 128.688 62.16 128.28 62.16C127.296 62.16 126.336 62.136 125.304 62.088L125.088 59.304C126.12 59.424 127.392 59.472 128.256 59.472C128.952 59.472 129.672 59.448 130.392 59.4C130.728 58.08 130.992 56.64 131.04 55.416L134.328 55.752C134.136 56.52 133.848 57.72 133.512 58.992C134.664 58.8 135.768 58.536 136.704 58.248ZM137.28 71.472V71.016C136.656 70.872 136.032 70.776 135.36 70.776C133.992 70.776 133.104 71.352 133.104 72.192C133.104 73.08 133.848 73.68 135.144 73.68C136.752 73.68 137.28 72.744 137.28 71.472ZM136.896 63.144H139.896C139.824 64.152 139.872 65.136 139.896 66.192C139.92 66.864 139.968 68.016 140.04 69.192C142.08 69.96 143.76 71.16 144.96 72.24L143.376 74.784C142.536 74.016 141.456 73.056 140.16 72.264V72.48C140.16 74.688 138.96 76.416 135.576 76.416C132.624 76.416 130.296 75.096 130.296 72.48C130.296 70.152 132.24 68.352 135.552 68.352C136.104 68.352 136.656 68.4 137.16 68.448C137.088 66.672 136.968 64.584 136.896 63.144ZM153.288 57.912C153.12 58.752 153 60.144 153 60.792C152.976 62.328 153 64.128 153.144 65.832C153.48 69.264 154.2 71.592 155.688 71.592C156.816 71.592 157.752 68.808 158.208 66.936L160.608 69.816C159.024 73.944 157.536 75.408 155.616 75.408C153.024 75.408 150.744 73.056 150.072 66.672C149.856 64.488 149.808 61.728 149.808 60.264C149.808 59.592 149.784 58.584 149.64 57.864L153.288 57.912ZM165.168 58.416C167.424 61.176 169.248 66.912 169.512 70.56L166.368 71.76C166.008 67.944 164.736 62.352 162.144 59.424L165.168 58.416Z" fill="#FB4700"/>
</svg>
