<svg width="252" height="140" viewBox="0 0 252 140" fill="none" xmlns="http://www.w3.org/2000/svg">
<path d="M201.1 0H50.9004C22.7889 0 0 22.7382 0 50.7872V59.2128C0 87.2618 22.7889 110 50.9004 110H201.1C229.211 110 252 87.2618 252 59.2128V50.7872C252 22.7382 229.211 0 201.1 0Z" fill="#BFC8D9"/>
<path d="M197.755 71.3766V140L140.307 78.1298L197.755 71.3766Z" fill="#BFC8D9"/>
<path d="M42.584 40.848H47.912L47.072 38.16C46.424 36.168 45.872 34.248 45.296 32.208H45.2C44.648 34.272 44.072 36.168 43.448 38.16L42.584 40.848ZM50.144 48L48.464 42.624H42.032L40.328 48H38.072L44.048 30.408H46.52L52.496 48H50.144ZM55.9381 48V30.408H58.1701V48H55.9381ZM84.9054 30.96L83.6094 31.536C83.0814 30.504 82.2894 29.136 81.6174 28.224L82.8894 27.696C83.5134 28.56 84.4494 30.072 84.9054 30.96ZM82.2174 31.944L80.8974 32.52C80.4174 31.56 79.6014 30.096 78.9534 29.184L80.2254 28.656C80.8254 29.496 81.7134 30.984 82.2174 31.944ZM69.4974 29.208L71.7534 29.424C71.6574 29.88 71.5374 30.36 71.4654 30.84C71.3214 31.536 71.1054 32.928 70.8414 34.2C71.9454 34.104 72.9294 34.032 73.5054 34.032C75.6414 34.032 77.3694 34.872 77.3694 38.088C77.3694 40.92 76.9854 44.664 76.0014 46.656C75.2334 48.24 74.0574 48.624 72.5214 48.624C71.6094 48.624 70.4814 48.456 69.7134 48.288L69.4014 46.248C70.4094 46.584 71.6574 46.776 72.3294 46.776C73.1934 46.776 73.8894 46.584 74.3934 45.552C75.1614 43.968 75.5214 40.872 75.5214 38.304C75.5214 36.144 74.5374 35.76 73.0014 35.76C72.4254 35.76 71.4894 35.832 70.4574 35.928C69.5934 39.336 67.9614 44.688 65.4654 48.672L63.5214 47.88C65.9454 44.64 67.6974 39.288 68.5134 36.12C67.2654 36.24 66.1374 36.36 65.5134 36.432C64.9374 36.504 63.9774 36.6 63.3774 36.72L63.1854 34.632C63.9294 34.656 64.5294 34.656 65.2974 34.632C66.0894 34.608 67.4574 34.488 68.8974 34.368C69.2334 32.664 69.5214 30.816 69.4974 29.208ZM78.1614 32.952L79.9134 32.136C81.4014 34.056 83.4654 38.376 84.2574 40.584L82.4094 41.496C81.6894 39.048 79.8174 34.896 78.1614 32.952ZM109.193 39.672V41.424H99.3534V49.824H97.5294V41.424H87.8334V39.672H97.5294V31.296H89.0814V29.544H107.849V31.296H99.3534V39.672H109.193ZM90.7614 32.952L92.3214 32.472C93.3054 34.2 94.2894 36.456 94.6014 37.872L92.9214 38.448C92.5854 37.032 91.6734 34.704 90.7614 32.952ZM103.481 38.52L101.969 38.016C102.857 36.528 103.961 34.08 104.561 32.352L106.433 32.88C105.569 34.8 104.417 37.08 103.481 38.52ZM133.601 31.968H117.953C116.873 34.128 115.529 36 114.065 37.368C113.705 37.056 112.913 36.504 112.433 36.216C114.761 34.296 116.609 31.224 117.593 27.864L119.441 28.296C119.201 29.04 118.937 29.76 118.649 30.456H133.601V31.968ZM131.321 35.352H117.545V33.864H131.321V35.352ZM124.001 39.216L125.681 39.792C124.817 41.304 123.785 42.696 122.633 43.968C124.361 45.216 125.897 46.512 126.929 47.616L125.513 48.96C124.553 47.856 123.065 46.56 121.337 45.264C119.273 47.208 116.897 48.816 114.401 50.016C114.137 49.656 113.465 48.96 113.081 48.648C115.601 47.568 117.953 46.08 119.945 44.256C118.457 43.2 116.873 42.192 115.385 41.352L116.657 40.176C118.121 40.992 119.705 41.952 121.241 42.984C122.321 41.832 123.257 40.56 124.001 39.216ZM114.809 37.272H130.313C130.337 43.464 130.673 48.096 132.473 48.096C132.953 48.096 133.073 46.728 133.121 44.712C133.457 45.072 133.985 45.504 134.369 45.744C134.201 48.744 133.817 49.824 132.353 49.848C129.185 49.824 128.681 45.36 128.537 38.808H114.809V37.272ZM153.977 35.544C154.529 36.336 155.441 37.824 155.945 38.88L154.721 39.456C154.169 38.304 153.473 37.056 152.753 36.072L153.977 35.544ZM156.593 34.536C157.169 35.328 158.105 36.792 158.681 37.848L157.433 38.424C156.857 37.272 156.161 36.096 155.393 35.088L156.593 34.536ZM138.401 32.208C139.313 32.184 140.057 32.136 140.513 32.088C142.073 31.944 146.561 31.512 150.929 31.128C153.521 30.912 155.753 30.792 157.337 30.72V32.64C155.969 32.64 153.905 32.664 152.681 33.024C149.297 34.104 147.257 37.728 147.257 40.536C147.257 45.168 151.577 46.632 155.441 46.776L154.745 48.792C150.353 48.6 145.337 46.248 145.337 40.944C145.337 37.248 147.569 34.224 149.753 32.928C147.665 33.168 141.185 33.792 138.617 34.32L138.401 32.208ZM200.537 44.76H198.689C198.761 43.848 198.785 42.312 198.785 41.064C196.577 42.264 195.041 43.488 195.041 45.048C195.041 46.92 196.889 47.184 199.337 47.184C201.185 47.184 203.729 46.968 205.817 46.608L205.769 48.552C203.969 48.768 201.329 48.936 199.265 48.936C195.857 48.936 193.121 48.216 193.121 45.312C193.121 42.504 195.953 40.728 198.713 39.288C198.473 38.304 197.609 37.824 196.577 37.824C195.017 37.824 193.577 38.592 192.473 39.576C191.801 40.224 191.129 41.112 190.313 42.072L188.681 40.848C191.705 37.92 193.265 35.472 194.153 33.6H193.169C192.161 33.6 190.553 33.552 189.257 33.456V31.656C190.529 31.8 192.185 31.896 193.265 31.896C193.769 31.896 194.273 31.896 194.825 31.872C195.161 30.816 195.377 29.736 195.425 28.92L197.393 29.088C197.225 29.76 197.009 30.744 196.673 31.824C199.097 31.704 201.689 31.488 203.945 31.104L203.921 32.88C201.569 33.24 198.641 33.456 196.049 33.552C195.521 34.776 194.777 36.096 193.913 37.2C194.777 36.648 196.145 36.312 197.201 36.312C198.737 36.312 199.985 37.056 200.345 38.472C201.977 37.704 203.417 37.128 204.665 36.552C205.385 36.24 205.961 35.952 206.633 35.616L207.401 37.416C206.801 37.584 205.937 37.92 205.313 38.16C203.969 38.688 202.265 39.384 200.465 40.224C200.489 41.592 200.513 43.608 200.537 44.76ZM39.848 69.472C40.712 69.304 41.576 69.04 42.464 68.776C44.48 68.152 49.136 66.424 52.616 66.424C56.552 66.424 59.696 68.704 59.696 72.688C59.696 78.4 54.032 81.16 46.688 81.568L45.848 79.576C52.064 79.408 57.584 77.536 57.584 72.664C57.584 70.168 55.784 68.224 52.568 68.224C48.656 68.224 42.608 70.84 40.736 71.584L39.848 69.472ZM68.384 65.296C68.288 65.872 68.216 66.976 68.192 67.6C68.168 69.088 68.192 71.272 68.36 73.216C68.744 77.2 69.896 79.816 71.576 79.816C72.8 79.816 73.904 77.368 74.528 74.968L76.04 76.696C74.624 80.728 73.16 82.096 71.528 82.096C69.296 82.096 67.136 79.864 66.488 73.696C66.248 71.632 66.224 68.752 66.224 67.36C66.224 66.808 66.2 65.824 66.08 65.248L68.384 65.296ZM80.768 65.944C82.904 68.704 84.608 73.576 84.944 77.584L83 78.352C82.592 74.08 81.152 69.376 78.896 66.592L80.768 65.944ZM89.3294 66.064C90.2414 66.04 90.9854 65.992 91.4414 65.944C93.0014 65.8 97.4894 65.344 101.857 64.984C104.449 64.768 106.681 64.648 108.265 64.576V66.496C106.921 66.496 104.833 66.52 103.609 66.88C100.225 67.96 98.1854 71.56 98.1854 74.368C98.1854 79.024 102.505 80.488 106.369 80.632L105.673 82.624C101.281 82.456 96.2654 80.104 96.2654 74.8C96.2654 71.08 98.4974 68.08 100.681 66.784C98.5934 67.024 92.1134 67.648 89.5454 68.176L89.3294 66.064ZM126.499 62.776L128.299 64.36C127.771 64.744 127.051 65.368 126.667 65.704C125.011 67.12 121.603 69.856 119.851 71.296C118.411 72.544 118.411 72.904 119.947 74.176C122.107 75.904 126.499 79.552 128.827 81.856L127.099 83.416C126.619 82.84 125.971 82.24 125.467 81.688C124.171 80.296 120.211 76.912 117.979 75.088C115.747 73.216 115.987 72.136 118.147 70.336C119.923 68.824 123.523 65.992 125.131 64.36C125.611 63.88 126.235 63.208 126.499 62.776ZM147.894 81.208C148.566 81.208 149.214 81.16 149.79 81.064C149.574 79.192 148.446 77.896 146.646 77.896C145.566 77.896 144.75 78.544 144.75 79.36C144.75 80.536 146.118 81.208 147.894 81.208ZM152.79 63.952L153.894 65.344C153.462 65.632 152.934 65.992 152.574 66.256C151.398 67.144 148.206 69.952 146.382 71.488C147.462 71.128 148.542 70.984 149.598 70.984C153.558 70.984 156.414 73.384 156.414 76.6C156.414 80.44 153.222 82.936 148.206 82.936C144.966 82.936 142.974 81.496 142.974 79.528C142.974 77.896 144.438 76.408 146.646 76.408C149.622 76.408 151.23 78.4 151.542 80.608C153.414 79.888 154.494 78.52 154.494 76.576C154.494 74.248 152.142 72.544 149.142 72.544C145.23 72.544 143.07 74.2 140.046 77.272L138.654 75.856C140.622 74.224 143.67 71.68 145.062 70.528C146.382 69.424 149.334 66.928 150.51 65.872C149.262 65.92 144.582 66.136 143.358 66.208C142.806 66.232 142.254 66.256 141.75 66.352L141.702 64.36C142.23 64.432 142.902 64.432 143.382 64.432C144.606 64.432 150.246 64.264 151.494 64.144C152.19 64.072 152.526 64.024 152.79 63.952Z" fill="#1F1F21"/>
<path d="M166.625 32.64H165.041V40.944H166.625V32.64ZM168.809 43.488H165.041V45.384H162.905V30.096H168.809V43.488ZM175.073 45.912L173.009 46.56C172.937 45.432 172.553 43.848 172.001 42.48C171.617 45.12 170.921 47.808 169.553 49.872C169.121 49.416 167.993 48.576 167.417 48.288C169.577 44.928 169.793 40.128 169.793 36.816V32.232H175.289V27.672H177.929V29.04H183.545V31.104H177.929V32.232H181.985V32.208H182.369L182.777 32.112L184.625 32.592C184.241 34.104 183.689 35.856 183.233 36.96L181.049 36.336C181.217 35.808 181.409 35.16 181.577 34.464H177.521V35.616L180.737 35.328L180.905 37.032L177.521 37.368V37.68C177.521 38.28 177.665 38.352 178.529 38.352H181.193C181.817 38.352 181.937 38.16 182.033 37.2C182.489 37.512 183.449 37.8 184.073 37.92C183.833 39.72 183.185 40.224 181.481 40.224H178.217C175.721 40.224 175.121 39.648 175.121 37.68V37.584L172.817 37.8L172.649 36.024L175.121 35.808V34.464H172.385V36.816C172.385 38.28 172.313 40.008 172.097 41.832L173.753 41.352C174.425 42.768 174.953 44.664 175.073 45.912ZM180.689 45.84V46.992H184.577V49.248H171.089V46.992H175.193V40.704H177.377V46.992H178.481V40.704H180.689V45.336C181.217 44.16 181.817 42.528 182.081 41.352L184.361 42.12C183.665 43.656 182.921 45.336 182.321 46.464L180.689 45.84Z" fill="#FB4700"/>
</svg>
