<svg width="310" height="103" viewBox="0 0 310 103" fill="none" xmlns="http://www.w3.org/2000/svg">
<path d="M37.2998 1H272.7C292.753 1.00021 309 17.2531 309 37.3135C309 57.3738 292.753 73.6267 272.7 73.627H78.6855L78.3926 73.9199L51.7373 100.585V73.627H37.2998C17.2475 73.6267 1.00002 57.3738 1 37.3135C1 17.5664 16.7441 1.50861 36.3633 1.01172L37.2998 1Z" fill="white" stroke="black" stroke-width="2"/>
<path d="M35.584 39.848H40.912L40.072 37.16C39.424 35.168 38.872 33.248 38.296 31.208H38.2C37.648 33.272 37.072 35.168 36.448 37.16L35.584 39.848ZM43.144 47L41.464 41.624H35.032L33.328 47H31.072L37.048 29.408H39.52L45.496 47H43.144ZM48.9381 47V29.408H51.1701V47H48.9381ZM77.9054 29.96L76.6094 30.536C76.0814 29.504 75.2894 28.136 74.6174 27.224L75.8894 26.696C76.5134 27.56 77.4494 29.072 77.9054 29.96ZM75.2174 30.944L73.8974 31.52C73.4174 30.56 72.6014 29.096 71.9534 28.184L73.2254 27.656C73.8254 28.496 74.7134 29.984 75.2174 30.944ZM62.4974 28.208L64.7534 28.424C64.6574 28.88 64.5374 29.36 64.4654 29.84C64.3214 30.536 64.1054 31.928 63.8414 33.2C64.9454 33.104 65.9294 33.032 66.5054 33.032C68.6414 33.032 70.3694 33.872 70.3694 37.088C70.3694 39.92 69.9854 43.664 69.0014 45.656C68.2334 47.24 67.0574 47.624 65.5214 47.624C64.6094 47.624 63.4814 47.456 62.7134 47.288L62.4014 45.248C63.4094 45.584 64.6574 45.776 65.3294 45.776C66.1934 45.776 66.8894 45.584 67.3934 44.552C68.1614 42.968 68.5214 39.872 68.5214 37.304C68.5214 35.144 67.5374 34.76 66.0014 34.76C65.4254 34.76 64.4894 34.832 63.4574 34.928C62.5934 38.336 60.9614 43.688 58.4654 47.672L56.5214 46.88C58.9454 43.64 60.6974 38.288 61.5134 35.12C60.2654 35.24 59.1374 35.36 58.5134 35.432C57.9374 35.504 56.9774 35.6 56.3774 35.72L56.1854 33.632C56.9294 33.656 57.5294 33.656 58.2974 33.632C59.0894 33.608 60.4574 33.488 61.8974 33.368C62.2334 31.664 62.5214 29.816 62.4974 28.208ZM71.1614 31.952L72.9134 31.136C74.4014 33.056 76.4654 37.376 77.2574 39.584L75.4094 40.496C74.6894 38.048 72.8174 33.896 71.1614 31.952ZM88.6574 37.184L88.8734 38.84L85.7054 39.824V46.736C85.7054 47.744 85.4654 48.224 84.8414 48.512C84.2414 48.8 83.2814 48.848 81.6734 48.824C81.6014 48.368 81.3614 47.648 81.1214 47.192C82.2014 47.216 83.2094 47.216 83.4974 47.192C83.8334 47.192 83.9534 47.096 83.9534 46.736V40.352C82.8254 40.688 81.7694 41 80.8334 41.288L80.3294 39.56C81.3374 39.296 82.5854 38.96 83.9534 38.576V33.416H80.6174V31.76H83.9534V26.936H85.7054V31.76H88.5134V33.416H85.7054V38.048C86.6654 37.784 87.6734 37.496 88.6574 37.184ZM99.5534 39.896H91.7774V42.272H99.5534V39.896ZM91.7774 46.256H99.5534V43.736H91.7774V46.256ZM90.0734 48.824V38.36H101.305V48.728H99.5534V47.72H91.7774V48.824H90.0734ZM93.6494 34.736H99.0254C100.345 34.736 100.561 34.328 100.705 31.736C101.113 32.048 101.857 32.312 102.337 32.432C102.073 35.552 101.521 36.368 99.1454 36.368H93.5534C90.8174 36.368 90.0734 35.84 90.0734 33.776V27.008H91.8254V30.584C94.6574 29.984 97.7054 29.144 99.5054 28.352L100.873 29.672C98.4494 30.632 94.9454 31.448 91.8254 32.048V33.776C91.8254 34.592 92.1134 34.736 93.6494 34.736ZM124.849 28.712V30.464H108.097V28.712H124.849ZM110.137 38.576L111.961 39.056C110.785 41.984 108.913 44.84 106.993 46.664C106.657 46.376 105.841 45.824 105.385 45.584C107.329 43.904 109.081 41.288 110.137 38.576ZM120.817 39.272L122.449 38.6C124.201 40.832 126.073 43.88 126.769 45.896L125.017 46.664C124.345 44.696 122.569 41.6 120.817 39.272ZM105.961 34.496H126.961V36.248H117.433V46.52C117.433 47.648 117.145 48.2 116.305 48.488C115.465 48.776 114.049 48.8 111.961 48.8C111.865 48.272 111.577 47.48 111.313 46.952C112.945 47 114.505 47 114.937 46.976C115.393 46.976 115.537 46.856 115.537 46.472V36.248H105.961V34.496ZM147.361 30.968L148.393 32.72C147.865 33.056 147.265 33.368 146.569 33.728C144.985 34.544 141.673 36.104 139.345 37.64C137.137 39.08 135.817 40.64 135.817 42.44C135.817 44.408 137.689 45.632 141.433 45.632C144.025 45.632 147.193 45.296 149.041 44.816V46.976C147.241 47.288 144.505 47.552 141.529 47.552C137.065 47.552 133.825 46.208 133.825 42.656C133.825 40.208 135.385 38.264 137.929 36.488C136.825 34.544 135.577 31.76 134.473 29.168L136.369 28.4C137.329 30.992 138.529 33.56 139.561 35.432C141.793 34.088 144.361 32.84 145.657 32.096C146.353 31.712 146.857 31.4 147.361 30.968Z" fill="#1F1F21"/>
<path d="M177.361 29.408L175.345 30.248C174.865 29.288 174.289 28.28 173.665 27.416L175.657 26.6C176.257 27.488 176.905 28.52 177.361 29.408ZM163.345 39.44C163.345 40.544 164.233 41.24 165.193 41.24C166.177 41.24 167.041 40.472 166.729 38.384C166.393 37.832 165.817 37.568 165.169 37.568C164.281 37.568 163.345 38.192 163.345 39.44ZM174.121 30.104L172.465 30.824C173.953 30.824 175.321 30.8 176.017 30.824L175.993 33.656C174.553 33.584 172.321 33.512 169.105 33.512C169.129 34.712 169.129 36.008 169.129 37.04C169.729 37.928 170.017 39.08 170.017 40.328C170.017 43.448 168.193 47.36 162.409 48.992L159.865 46.448C162.265 45.944 164.377 45.152 165.673 43.736C165.337 43.808 164.977 43.856 164.593 43.856C162.769 43.856 160.489 42.392 160.489 39.512C160.489 36.8 162.649 35.048 165.241 35.048C165.577 35.048 165.889 35.072 166.201 35.12L166.177 33.536C162.577 33.584 158.881 33.728 155.953 33.896L155.881 31.016C158.617 31.016 162.913 30.896 166.129 30.848C166.129 30.56 166.105 30.32 166.105 30.128C166.033 29.36 165.961 28.472 165.865 28.064H169.321C169.249 28.448 169.177 29.72 169.153 30.104C169.153 30.296 169.129 30.536 169.129 30.824H172.033C171.553 29.888 171.049 28.952 170.473 28.112L172.441 27.296C173.041 28.136 173.689 29.24 174.121 30.104ZM202.201 42.296L202.609 45.632C201.529 46.664 200.065 47.432 198.145 47.432C196.369 47.432 195.169 46.112 195.169 43.832C195.169 41.24 196.009 37.76 196.009 35.6C196.009 34.424 195.409 33.848 194.425 33.848C192.649 33.848 190.057 36.032 188.137 38.168C188.113 38.84 188.089 39.488 188.089 40.088C188.089 42.032 188.089 44.024 188.233 46.256C188.257 46.688 188.353 47.552 188.401 48.08H185.137C185.185 47.576 185.209 46.712 185.209 46.328C185.257 44.48 185.257 43.112 185.305 41.096C184.273 42.608 183.121 44.36 182.305 45.488L180.433 42.848C181.777 41.216 184.177 38.048 185.521 36.056L185.617 34.4C184.465 34.544 182.641 34.784 181.297 34.952L181.009 31.904C181.681 31.928 182.233 31.928 183.073 31.88C183.769 31.832 184.801 31.712 185.809 31.568C185.857 30.68 185.905 30.008 185.905 29.744C185.905 29.072 185.929 28.352 185.809 27.632L189.289 27.728C189.145 28.4 188.953 29.624 188.761 31.112L189.649 32.24C189.337 32.648 188.833 33.416 188.425 34.04C188.425 34.208 188.401 34.376 188.377 34.544C190.249 32.912 192.985 31.016 195.289 31.016C197.833 31.016 199.033 32.528 199.033 34.52C199.033 36.992 198.241 40.472 198.241 42.944C198.241 43.568 198.553 43.976 199.153 43.976C200.017 43.976 201.145 43.376 202.201 42.296ZM217.081 37.904V35.096C218.401 34.976 220.105 34.856 221.641 34.856C222.985 34.856 224.425 34.928 225.817 35.072L225.745 37.928C224.569 37.784 223.105 37.64 221.665 37.64C220.009 37.64 218.569 37.712 217.081 37.904ZM218.953 30.272V33.272C217.537 33.584 215.929 33.848 214.345 34.04C214.129 35.072 213.889 36.128 213.625 37.088C212.761 40.424 211.153 45.296 209.857 48.08L206.521 46.976C207.937 44.6 209.737 39.608 210.625 36.272C210.793 35.648 210.961 34.976 211.129 34.304C210.577 34.328 210.049 34.352 209.569 34.352C208.417 34.352 207.529 34.304 206.689 34.256L206.617 31.28C207.841 31.424 208.633 31.472 209.617 31.472C210.313 31.472 211.009 31.448 211.729 31.4C211.825 30.872 211.897 30.416 211.945 30.032C212.065 29.144 212.089 28.184 212.041 27.632L215.665 27.92C215.497 28.568 215.281 29.624 215.161 30.152L214.969 31.064C216.313 30.848 217.657 30.584 218.953 30.272ZM215.617 40.808L218.473 41.072C218.281 41.744 218.137 42.536 218.137 43.064C218.137 44.096 218.737 44.864 221.281 44.864C222.865 44.864 224.521 44.696 226.225 44.384L226.105 47.432C224.761 47.6 223.153 47.768 221.257 47.768C217.249 47.768 215.209 46.376 215.209 43.976C215.209 42.896 215.425 41.744 215.617 40.808ZM243.193 39.872V35.72H238.969V39.872H243.193ZM236.281 33.224H246.073V42.344H236.281V33.224ZM233.977 45.128H248.401V30.392H233.977V45.128ZM231.001 27.464H251.521V49.064H248.401V47.792H233.977V49.064H231.001V27.464ZM270.529 43.712H261.817V45.968H270.529V43.712ZM259.081 49.088V41.264H273.385V49.016H270.529V48.44H261.817V49.088H259.081ZM263.137 37.352H269.185C267.985 36.464 266.929 35.528 266.113 34.616C265.345 35.528 264.313 36.464 263.137 37.352ZM270.025 30.968H268.945C268.537 31.568 268.129 32.12 267.697 32.576C270.289 35.456 274.057 37.688 277.657 38.768C277.009 39.44 276.433 40.4 275.977 41.144C274.393 40.52 272.665 39.632 271.057 38.624V39.68H261.433V38.528C259.849 39.56 258.121 40.472 256.369 41.192C256.057 40.592 255.385 39.584 254.833 38.984C258.865 37.496 262.705 34.712 264.649 32.216H266.041C265.585 31.904 265.129 31.616 264.793 31.448C264.985 31.304 265.153 31.136 265.345 30.968H262.417C262.825 31.664 263.209 32.384 263.401 32.96L260.881 33.8C260.665 33.056 260.137 31.928 259.561 30.968H259.321C258.625 32.096 257.881 33.104 257.161 33.896C256.609 33.464 255.457 32.696 254.785 32.336C256.321 30.92 257.713 28.616 258.481 26.408L261.217 27.104C261.025 27.584 260.833 28.088 260.593 28.568H265.801V30.488C266.809 29.336 267.649 27.872 268.153 26.408L270.961 27.056C270.769 27.56 270.553 28.064 270.337 28.568H277.033V30.968H273.145C273.625 31.64 274.057 32.312 274.297 32.864L271.657 33.8C271.369 33.032 270.673 31.928 270.025 30.968Z" fill="#FB4700"/>
</svg>
