<svg width="134" height="64" viewBox="0 0 134 64" fill="none" xmlns="http://www.w3.org/2000/svg">
<g clip-path="url(#clip0_2_36)">
<path d="M0 40.0231V0.000148564H6.93797V5.4944C10.3638 2.24153 14.8186 0.184057 19.785 0.0116428C32.2871 -0.413645 38.3687 9.00589 38.3687 20.0519V40.0231H31.4307V20.0519C31.4307 12.9427 28.3497 6.26452 19.785 6.52314C11.3065 6.78176 6.93797 13.6323 6.93797 17.3105L6.85175 40.0231H0Z" fill="#1F1F21"/>
<path d="M116.957 0H114.491L107.984 6.50575H117.302C122.785 6.50575 127.068 8.32759 127.068 14.5805H116.106C105.231 14.5805 98.8905 19.8046 99.1492 28.1092C99.4079 36.5862 106.771 40.6092 116.192 39.9253C122.699 39.5 125.102 36.7586 127.154 34.5287V40.0172H134.006V16.2069C134 5.16092 129.12 0 116.957 0ZM127.148 25.6264C127.148 25.6264 123.125 32.2184 116.612 33.1609C110.875 34.1035 106.248 32.1322 106.421 27.1667C106.507 23.3966 109.933 21 116.1 21H127.148V25.6264Z" fill="#1F1F21"/>
<path d="M105.093 0C101.73 0 101.109 0.00574713 100.466 0.0517241C95.5854 0.310345 92.8435 2.7069 90.1879 5.44828V0H83.2499V12.5517C82.5659 13.3218 76.5706 20.6034 72.6274 24.7988C66.3735 31.3908 63.3787 33.3621 58.579 33.4483C50.1006 33.7069 46.9333 27.023 46.9333 20.0057V0H40.0816V20C40.0816 30.9598 46.0769 40.4655 58.6652 39.954C63.5454 39.7816 68.0002 37.7299 71.5123 34.4713V40.023H78.4502V28.1379C81.8761 24.1149 85.8998 19.6609 88.8141 16.1494C94.1253 9.89655 98.218 6.64368 101.132 6.52299C101.242 6.52299 101.351 6.51149 101.471 6.50575H104.34L110.852 0H105.093Z" fill="#1F1F21"/>
<path d="M78.4502 0H71.5123V22.6552L78.4502 15.1207V0Z" fill="#1F1F21"/>
<path d="M83.2499 40.023H90.1879V17.7759L83.2499 25.9943V40.023Z" fill="#1F1F21"/>
<path d="M19.9747 56.4019C19.9747 55.4077 20.1586 54.4479 20.5265 53.5226C20.8944 52.5916 21.4175 51.7755 22.1015 51.0629C22.797 50.333 23.5903 49.7698 24.4985 49.3732C25.4009 48.9766 26.3493 48.7812 27.3438 48.7812C28.5739 48.7812 29.7005 49.0629 30.7237 49.6203C31.7526 50.1778 32.6378 50.9939 33.3793 52.0629L31.8733 53.1491C31.3847 52.356 30.7294 51.718 29.9132 51.2468C29.0969 50.7755 28.2405 50.5341 27.3438 50.5341C26.631 50.5341 25.9412 50.6835 25.2802 50.9824C24.6134 51.2812 24.0271 51.7065 23.5213 52.2583C23.0039 52.81 22.6073 53.4479 22.3314 54.1606C22.0555 54.8732 21.9176 55.6203 21.9176 56.3962C21.9176 57.172 22.0555 57.9192 22.3314 58.6261C22.6073 59.3387 23.0039 59.9709 23.5213 60.5226C24.0271 61.0686 24.6134 61.4939 25.2745 61.787C25.9355 62.0801 26.6253 62.2295 27.3438 62.2295C28.4647 62.2295 29.5051 61.8732 30.4765 61.1548C31.4422 60.4364 32.0917 59.5456 32.4251 58.4766H26.3551V56.7238H34.6784V57.0743C34.6784 57.9019 34.5002 58.7238 34.138 59.5456C33.7759 60.3675 33.2758 61.1088 32.6263 61.7698C31.9193 62.4824 31.1145 63.0284 30.2063 63.4134C29.2981 63.7985 28.3497 63.9881 27.3495 63.9881C26.3494 63.9881 25.3894 63.7927 24.4812 63.4019C23.573 63.0111 22.774 62.4479 22.0842 61.718C21.4117 61.0111 20.8886 60.195 20.5265 59.2755C20.1644 58.356 19.9804 57.3904 19.9804 56.3962L19.9747 56.4019Z" fill="#1F1F21"/>
<path d="M55.6417 58.1207V56.3678H58.0674C59.0159 56.3678 59.8264 56.0862 60.5046 55.5172C61.1829 54.954 61.5221 54.2701 61.5221 53.4655C61.5221 52.5919 61.2117 51.8908 60.5851 51.3448C59.9586 50.8046 59.1538 50.5345 58.1652 50.5345C57.1765 50.5345 56.3717 50.8046 55.7452 51.3448C55.1187 51.885 54.8025 52.5919 54.8025 53.4655V63.8103H52.8482V53.4655C52.8482 52.0805 53.3425 50.954 54.3369 50.0805C55.3313 49.2069 56.6074 48.7759 58.1652 48.7759C59.7229 48.7759 60.999 49.2126 61.9934 50.0805C62.9878 50.9483 63.4822 52.0747 63.4822 53.4655C63.4822 54.8563 62.9361 55.9713 61.8382 56.8736C62.9303 57.408 63.4822 58.408 63.4822 59.8793V63.8103H61.5278V60.023C61.5278 59.408 61.3726 58.9368 61.0622 58.6092C60.7518 58.2816 60.2977 58.1207 59.6999 58.1207H55.6532H55.6417Z" fill="#1F1F21"/>
<path d="M82.29 63.8103V48.9828H84.2443V63.8103H82.29Z" fill="#1F1F21"/>
<path d="M105.869 62.0517H106.449C107.11 62.0517 107.771 61.9195 108.432 61.6609C109.093 61.4023 109.691 61.0402 110.214 60.5747C111.456 59.4828 112.077 58.092 112.077 56.408C112.077 54.7241 111.467 53.3161 110.255 52.2299C109.731 51.7586 109.139 51.3908 108.473 51.1322C107.806 50.8736 107.133 50.7414 106.449 50.7414H105.03V63.8103H103.075V48.9828H106.455C107.518 48.9828 108.513 49.1552 109.444 49.5057C110.375 49.8563 111.18 50.3563 111.87 51.0115C112.577 51.6839 113.117 52.4828 113.485 53.408C113.859 54.3276 114.043 55.3276 114.043 56.4023C114.043 57.477 113.859 58.477 113.485 59.3908C113.111 60.3103 112.571 61.1092 111.87 61.7816C111.18 62.4368 110.375 62.9368 109.444 63.2816C108.513 63.6264 107.518 63.7988 106.455 63.7988H105.874V62.046L105.869 62.0517Z" fill="#1F1F21"/>
</g>
<defs>
<clipPath id="clip0_2_36">
<rect width="134" height="64" fill="white"/>
</clipPath>
</defs>
</svg>
