<svg width="296" height="60" viewBox="0 0 296 60" fill="none" xmlns="http://www.w3.org/2000/svg">
<path d="M43.2217 57.2551L8.72826 18.3553V57.0867H0V0H3.44095L38.0183 38.984V0.0841988H46.7466V57.2551H43.2217Z" fill="#1F1F21"/>
<path d="M54.2999 16.6714H62.6924V39.3208C62.6924 45.8883 66.3851 49.9298 72.176 49.9298C77.9669 49.9298 81.6596 45.8883 81.6596 39.3208V16.6714H90.0521V39.3208C90.0521 50.7718 82.8345 58.0129 72.176 58.0129C61.5174 58.0129 54.2999 50.7718 54.2999 39.3208V16.6714Z" fill="#1F1F21"/>
<path d="M110.95 16.6714H116.741V24.6702H111.873C108.096 24.6702 105.495 26.7752 105.495 31.6587V57.0867H97.102V31.0693C97.102 22.3127 102.054 16.6714 110.95 16.6714Z" fill="#1F1F21"/>
<path d="M117.915 36.2054C117.915 24.0808 126.895 15.7451 138.561 15.7451C150.227 15.7451 159.123 23.8282 159.123 36.9632V57.0867H150.73V37.2158C150.73 28.5433 145.443 23.8282 138.477 23.8282C131.511 23.8282 126.392 28.7959 126.392 36.1212C126.392 43.4465 131.176 49.0878 140.324 49.0878H145.527L143.009 57.0867H139.736C126.476 57.0867 117.915 47.909 117.915 36.2054Z" fill="#1F1F21"/>
<path d="M164.159 28.5434C164.159 12.1246 176.915 0.084198 194.54 0.084198H207.464V8.33567H194.875C182.287 8.33567 173.139 16.4188 173.139 28.5434C173.139 40.668 182.287 48.8353 194.875 48.8353H199.491V26.7752H208.22V57.0867H194.54C176.831 57.0867 164.159 45.2147 164.159 28.5434Z" fill="#1F1F21"/>
<path d="M229.956 16.6714H235.747V24.6702H230.879C227.103 24.6702 224.501 26.7752 224.501 31.6587V57.0867H216.109V31.0693C216.109 22.3127 221.06 16.6714 229.956 16.6714Z" fill="#1F1F21"/>
<path d="M239.524 6.31489C239.524 3.36794 241.79 1.26297 244.727 1.26297C247.664 1.26297 249.93 3.36794 249.93 6.31489C249.93 9.26185 247.664 11.3668 244.727 11.3668C241.79 11.3668 239.524 9.26185 239.524 6.31489ZM240.531 16.6713H248.923V57.0867H240.531V16.6713Z" fill="#1F1F21"/>
<path d="M296 0.084198V36.7948C296 49.9298 287.272 58.0129 275.438 58.0129C263.605 58.0129 254.792 49.6772 254.792 37.5526C254.792 25.428 263.353 16.6713 276.613 16.6713H279.886L282.404 24.6702H277.201C268.053 24.6702 263.269 30.6483 263.269 37.6368C263.269 44.6253 268.64 49.9298 275.354 49.9298C282.068 49.9298 287.607 45.2147 287.607 36.5422V0.084198H296Z" fill="#1F1F21"/>
<path d="M71.6563 9.69384V11.1878H60.4153V9.69384H71.6563ZM70.6151 2.45996V3.95391H61.4453V2.45996H70.6151Z" fill="#1F1F21"/>
<path d="M83.043 10.5363V11.8505H73.4925V10.5363H79.0795C79.4154 8.66043 79.5721 7.57085 79.6953 5.65005H74.7577V4.30212H81.218C81.1284 6.39141 80.9269 8.4807 80.5462 10.5363H83.043Z" fill="#1F1F21"/>
<path d="M94.4408 6.03198V7.60457H84.644V6.03198H94.4408Z" fill="#1F1F21"/>
<path d="M106.947 4.71771C106.69 6.95303 105.995 9.33437 104.07 10.716C102.513 11.8505 100.207 12.2886 98.3036 12.4683L97.8557 11.0305C99.468 10.9182 101.439 10.6261 102.838 9.76121C104.07 8.99738 104.887 7.53713 105.178 6.1218H96.2883V4.71771H106.936H106.947ZM106.13 1.53885V2.93171H97.2623V1.53885H106.13Z" fill="#1F1F21"/>
<path d="M111.403 5.72864C112.019 5.72864 112.5 6.21165 112.5 6.82945C112.5 7.44725 112.019 7.93025 111.403 7.93025C110.787 7.93025 110.306 7.44725 110.306 6.82945C110.306 6.21165 110.787 5.72864 111.403 5.72864Z" fill="#1F1F21"/>
<path d="M122.779 9.44673C121.155 11.2777 118.95 12.2324 116.587 12.7155L115.971 11.3114C117.931 10.9519 119.968 10.1544 121.402 8.7166C122.801 7.30128 123.54 5.38048 123.898 3.45968H119.532C118.636 4.87501 117.595 5.96458 116.206 6.8969L115.255 5.76239C116.677 4.81884 117.796 3.60571 118.546 2.05559H123.943L125.343 3.93146C124.884 5.96458 124.201 7.85168 122.79 9.44673H122.779ZM124.839 0.516706C125.522 1.37039 125.869 2.01066 126.373 2.96544L125.488 3.56078C125.04 2.56106 124.682 1.93203 124.021 1.06711L124.839 0.516706ZM126.63 0C127.302 0.864921 127.638 1.50519 128.108 2.48243L127.224 3.06654C126.765 2.03312 126.473 1.46026 125.802 0.550404L126.63 0.0112327V0Z" fill="#1F1F21"/>
<path d="M131.053 8.69413H129.496V1.47148H131.053V8.69413ZM137.703 6.94182C137.703 8.82892 136.976 10.5925 135.218 11.4574C133.807 12.1426 132.161 12.3785 130.616 12.4908L130.101 11.0418C131.545 10.9631 133.113 10.8508 134.423 10.1881C135.643 9.58151 136.113 8.34591 136.113 7.05415V1.25806H137.703V6.94182Z" fill="#1F1F21"/>
<path d="M142.227 7.7281L140.905 8.04262C140.704 6.87441 140.346 5.8073 139.831 4.72896L141.062 4.39198C141.6 5.42539 141.935 6.57113 142.215 7.7281H142.227ZM141.745 12.648L140.805 11.5023C145.373 10.5138 146.851 8.51439 147.601 4.01007L149.068 4.33582C148.116 8.91877 146.492 11.4911 141.745 12.648ZM145.149 7.1103L143.861 7.40235C143.66 6.26785 143.402 5.2232 142.966 4.14486L144.175 3.87527C144.6 4.81882 144.97 6.09936 145.16 7.1103H145.149Z" fill="#1F1F21"/>
<path d="M160.701 7.25641L159.906 8.829C157.946 7.60463 156.424 6.78464 154.251 5.98711V12.5695H152.639V1.07841H154.251V4.437C156.491 5.15589 158.64 6.12191 160.701 7.26765V7.25641ZM157.745 1.49402C158.36 2.29154 158.775 3.12277 159.189 4.05508L158.159 4.65042C157.756 3.62824 157.409 2.95428 156.782 2.05566L157.745 1.50525V1.49402ZM159.67 0.584167C160.286 1.38169 160.701 2.21291 161.126 3.134L160.107 3.72933C159.659 2.63976 159.379 2.10059 158.708 1.13457L159.67 0.5954V0.584167Z" fill="#1F1F21"/>
</svg>
