
<svg width="1000" height="615" viewBox="0 0 1000 615" fill="none" xmlns="http://www.w3.org/2000/svg">
<g clip-path="url(#clip0_12_670)">
<path d="M530.037 183.643L530.037 272.468C530.037 289.483 516.195 303.327 499.182 303.327L410.365 303.327C393.351 303.327 379.509 289.483 379.509 272.468L379.509 183.643C379.509 166.628 393.351 152.784 410.365 152.784L499.182 152.784C516.195 152.784 530.037 166.628 530.037 183.643ZM380.378 272.468C380.378 289.006 393.829 302.475 410.382 302.475L499.199 302.475C515.735 302.475 529.202 289.023 529.202 272.468L529.202 183.643C529.202 167.105 515.752 153.637 499.199 153.637L410.382 153.637C393.846 153.637 380.378 167.105 380.378 183.643L380.378 272.468Z" fill="white"/>
<path d="M573.304 59.9519L573.304 63.9585L572.451 63.9585L572.451 59.9519L573.304 59.9519ZM573.287 67.965L573.287 71.9715L572.434 71.9715L572.434 67.965L573.287 67.965ZM573.287 75.961L573.287 79.9675L572.434 79.9675L572.434 75.961L573.287 75.961ZM573.287 83.957L573.287 87.9635L572.434 87.9635L572.434 83.957L573.287 83.957ZM573.287 91.9529L573.287 95.9595L572.434 95.9595L572.434 91.9529L573.287 91.9529ZM573.287 99.9489L573.287 103.955L572.434 103.955L572.434 99.9489L573.287 99.9489ZM573.287 107.945L573.287 111.951L572.434 111.951L572.434 107.945L573.287 107.945ZM573.287 115.958L573.287 119.964L572.434 119.964L572.434 115.958L573.287 115.958ZM573.287 123.954L573.287 127.96L572.434 127.96L572.434 123.954L573.287 123.954ZM573.287 131.95L573.287 135.956L572.434 135.956L572.434 131.95L573.287 131.95ZM573.304 139.946L573.304 143.952L572.451 143.952L572.451 139.946L573.304 139.946ZM573.287 147.942L573.287 151.948L572.434 151.948L572.434 147.942L573.287 147.942ZM573.287 155.955L573.287 159.961L572.434 159.961L572.434 155.955L573.287 155.955ZM573.287 163.951L573.287 167.957L572.434 167.957L572.434 163.951L573.287 163.951ZM573.287 171.947L573.287 175.953L572.434 175.953L572.434 171.947L573.287 171.947ZM573.287 179.943L573.287 183.949L572.434 183.949L572.434 179.943L573.287 179.943ZM573.287 187.939L573.287 191.945L572.434 191.945L572.434 187.939L573.287 187.939ZM573.304 195.952L573.304 199.958L572.451 199.958L572.451 195.952L573.304 195.952ZM573.287 203.948L573.287 207.954L572.434 207.954L572.434 203.948L573.287 203.948ZM573.287 211.944L573.287 215.95L572.434 215.95L572.434 211.944L573.287 211.944ZM573.287 219.94L573.287 223.946L572.434 223.946L572.434 219.94L573.287 219.94ZM573.287 227.936L573.287 231.942L572.434 231.942L572.434 227.936L573.287 227.936ZM573.287 235.932L573.287 239.938L572.434 239.938L572.434 235.932L573.287 235.932ZM573.287 243.945L573.287 247.951L572.434 247.951L572.434 243.945L573.287 243.945ZM573.287 251.941L573.287 255.947L572.434 255.947L572.434 251.941L573.287 251.941ZM573.287 259.937L573.287 263.943L572.434 263.943L572.434 259.937L573.287 259.937ZM573.253 267.95C573.201 269.28 573.116 270.644 572.997 271.956L572.145 271.871C572.264 270.558 572.349 269.229 572.4 267.899L573.253 267.933L573.253 267.95ZM573.184 55.9454L572.332 55.9966C572.264 54.6838 572.145 53.354 572.008 52.0412L572.861 51.9389C573.014 53.2687 573.116 54.6156 573.201 55.9454L573.184 55.9454ZM572.503 275.963C572.298 277.276 572.059 278.606 571.787 279.918L570.951 279.748C571.224 278.452 571.463 277.139 571.65 275.844L572.503 275.963ZM572.281 47.9494L571.429 48.0858C571.207 46.7901 570.951 45.4773 570.644 44.1816L571.48 43.9941C571.77 45.2898 572.042 46.6196 572.264 47.9324L572.281 47.9494ZM570.849 283.823C570.508 285.101 570.116 286.414 569.69 287.676L568.871 287.403C569.281 286.141 569.673 284.863 570.014 283.601L570.849 283.823ZM570.491 40.1069L569.673 40.3456C569.298 39.0839 568.889 37.8053 568.462 36.5607L569.264 36.2709C569.707 37.5325 570.133 38.8112 570.491 40.1069ZM568.326 291.461C567.832 292.705 567.303 293.933 566.741 295.143L565.956 294.785C566.519 293.592 567.047 292.364 567.525 291.137L568.326 291.461ZM567.797 32.5201L567.013 32.844C566.502 31.6335 565.956 30.406 565.36 29.2126L566.127 28.8375C566.706 30.048 567.269 31.2755 567.797 32.503L567.797 32.5201ZM564.933 298.741C564.303 299.917 563.638 301.093 562.939 302.218L562.206 301.775C562.888 300.65 563.553 299.491 564.183 298.331L564.933 298.741ZM564.269 25.2913L563.519 25.7175C562.871 24.5752 562.189 23.4159 561.473 22.3077L562.189 21.8474C562.905 22.9726 563.604 24.132 564.252 25.3083L564.269 25.2913ZM560.74 305.594C559.973 306.685 559.171 307.776 558.353 308.833L557.671 308.305C558.473 307.265 559.274 306.191 560.024 305.1L560.723 305.594L560.74 305.594ZM559.939 18.5058L559.24 19.0002C558.473 17.9261 557.654 16.8691 556.819 15.8461L557.484 15.3006C558.319 16.3405 559.154 17.4147 559.939 18.4887L559.939 18.5058ZM555.796 311.936C554.927 312.942 554.006 313.931 553.068 314.886L552.455 314.289C553.375 313.352 554.296 312.363 555.148 311.374L555.796 311.936ZM554.859 12.2658L554.228 12.8455C553.341 11.8737 552.421 10.9019 551.466 9.98127L552.063 9.36751C553.017 10.3052 553.955 11.277 554.859 12.2658ZM550.17 317.682C549.182 318.586 548.159 319.472 547.119 320.307L546.573 319.643C547.596 318.807 548.602 317.938 549.591 317.051L550.17 317.682ZM549.131 6.63966L548.568 7.28753C547.579 6.41802 546.539 5.56557 545.5 4.74721L546.028 4.06526C547.085 4.88362 548.125 5.75312 549.131 6.62261L549.131 6.63966ZM543.931 322.745C542.857 323.53 541.732 324.297 540.607 325.013L540.147 324.297C541.255 323.581 542.363 322.831 543.437 322.064L543.931 322.763L543.931 322.745ZM542.789 1.67841L542.295 2.3774C541.204 1.62724 540.095 0.894154 538.97 0.212194L539.414 -0.520928C540.556 0.178082 541.681 0.911204 542.772 1.67841L542.789 1.67841ZM537.146 327.093C535.987 327.741 534.777 328.372 533.583 328.968L533.208 328.201C534.402 327.622 535.578 326.991 536.737 326.343L537.163 327.093L537.146 327.093ZM535.936 -2.51566L535.527 -1.7655C534.368 -2.39631 533.174 -2.99304 531.981 -3.53861L532.339 -4.32285C533.549 -3.76023 534.76 -3.16351 535.936 -2.5327L535.936 -2.51566ZM529.918 330.622C528.674 331.134 527.412 331.628 526.168 332.071L525.878 331.27C527.122 330.827 528.367 330.349 529.594 329.838L529.935 330.622L529.918 330.622ZM528.657 -5.89136L528.333 -5.09005C527.105 -5.58447 525.844 -6.02775 524.599 -6.45398L524.872 -7.27232C526.134 -6.8461 527.412 -6.38578 528.657 -5.89136ZM522.332 333.316C521.053 333.691 519.741 334.032 518.445 334.322L518.258 333.486C519.536 333.197 520.832 332.856 522.11 332.48L522.349 333.299L522.332 333.316ZM521.036 -8.44871L520.815 -7.61333C519.536 -7.95431 518.241 -8.26118 516.945 -8.53396L517.116 -9.36936C518.428 -9.09658 519.741 -8.77265 521.019 -8.43167L521.036 -8.44871ZM514.507 335.123C513.195 335.345 511.848 335.532 510.518 335.686L510.416 334.833C511.729 334.68 513.058 334.492 514.354 334.271L514.49 335.123L514.507 335.123ZM513.161 -10.0854L513.024 -9.23298C511.729 -9.43757 510.399 -9.59101 509.086 -9.71035L509.171 -10.5628C510.501 -10.4435 511.848 -10.273 513.161 -10.0684L513.161 -10.0854ZM506.512 336.027C505.182 336.095 503.836 336.146 502.489 336.146L502.335 336.146L502.335 335.294L502.489 335.294C503.819 335.294 505.148 335.259 506.461 335.174L506.512 336.027ZM505.165 -10.8356L505.131 -9.98313C504.262 -10.0172 503.375 -10.0343 502.506 -10.0343L501.159 -10.0343L501.159 -10.8867L502.506 -10.8867C503.392 -10.8867 504.279 -10.8867 505.165 -10.8356ZM498.329 335.277L498.329 336.129L494.323 336.129L494.323 335.277L498.329 335.277ZM497.136 -10.8867L497.136 -10.0343L493.13 -10.0343L493.13 -10.8867L497.136 -10.8867ZM490.334 335.277L490.334 336.129L486.328 336.129L486.328 335.277L490.334 335.277ZM489.141 -10.8867L489.141 -10.0343L485.135 -10.0343L485.135 -10.8867L489.141 -10.8867ZM482.339 335.277L482.339 336.129L478.333 336.129L478.333 335.277L482.339 335.277ZM481.146 -10.8867L481.146 -10.0343L477.139 -10.0343L477.139 -10.8867L481.146 -10.8867ZM474.344 335.277L474.344 336.129L470.337 336.129L470.337 335.277L474.344 335.277ZM473.15 -10.8867L473.15 -10.0343L469.144 -10.0343L469.144 -10.8867L473.15 -10.8867ZM466.331 335.277L466.331 336.129L462.325 336.129L462.325 335.277L466.331 335.277ZM465.155 -10.8867L465.155 -10.0343L461.149 -10.0343L461.149 -10.8867L465.155 -10.8867ZM458.336 335.277L458.336 336.129L454.33 336.129L454.33 335.277L458.336 335.277ZM457.16 -10.8867L457.16 -10.0343L453.154 -10.0343L453.154 -10.8867L457.16 -10.8867ZM450.341 335.277L450.341 336.129L446.335 336.129L446.335 335.277L450.341 335.277ZM449.148 -10.8867L449.148 -10.0343L445.141 -10.0343L445.141 -10.8867L449.148 -10.8867ZM442.346 335.277L442.346 336.129L438.34 336.129L438.34 335.277L442.346 335.277ZM441.152 -10.8867L441.152 -10.0343L437.146 -10.0343L437.146 -10.8867L441.152 -10.8867ZM434.35 335.277L434.35 336.129L430.344 336.129L430.344 335.277L434.35 335.277ZM433.157 -10.8867L433.157 -10.0343L429.151 -10.0343L429.151 -10.8867L433.157 -10.8867ZM426.338 335.277L426.338 336.129L422.332 336.129L422.332 335.277L426.338 335.277ZM425.162 -10.8867L425.162 -10.0343L421.156 -10.0343L421.156 -10.8867L425.162 -10.8867ZM418.343 335.277L418.343 336.129L414.337 336.129L414.337 335.277L418.343 335.277ZM417.167 -10.8867L417.167 -10.0343L413.161 -10.0343L413.161 -10.8867L417.167 -10.8867ZM410.348 335.277L410.348 336.129L406.342 336.129L406.342 335.277L410.348 335.277ZM409.154 -10.8867L409.154 -10.0343L405.148 -10.0343L405.148 -10.8867L409.154 -10.8867ZM402.353 335.277L402.353 336.129L398.346 336.129L398.346 335.277L402.353 335.277ZM401.159 -10.8867L401.159 -10.0343L397.153 -10.0343L397.153 -10.8867L401.159 -10.8867ZM394.357 335.277L394.357 336.129L390.351 336.129L390.351 335.277L394.357 335.277ZM393.164 -10.8867L393.164 -10.0343L389.158 -10.0343L389.158 -10.8867L393.164 -10.8867ZM386.362 335.277L386.362 336.129L382.356 336.129L382.356 335.277L386.362 335.277ZM385.169 -10.8867L385.169 -10.0343L381.163 -10.0343L381.163 -10.8867L385.169 -10.8867ZM378.35 335.277L378.35 336.129L374.344 336.129L374.344 335.277L378.35 335.277ZM377.174 -10.8867L377.174 -10.0343L373.167 -10.0343L373.167 -10.8867L377.174 -10.8867ZM370.355 335.277L370.355 336.129L366.348 336.129L366.348 335.277L370.355 335.277ZM369.161 -10.8867L369.161 -10.0343L365.155 -10.0343L365.155 -10.8867L369.161 -10.8867ZM362.359 335.277L362.359 336.129L358.353 336.129L358.353 335.277L362.359 335.277ZM361.166 -10.8867L361.166 -10.0343L357.16 -10.0343L357.16 -10.8867L361.166 -10.8867ZM354.364 335.277L354.364 336.129L350.358 336.129L350.358 335.277L354.364 335.277ZM353.171 -10.8867L353.171 -10.0343L349.165 -10.0343L349.165 -10.8867L353.171 -10.8867ZM346.369 335.277L346.369 336.129L342.363 336.129L342.363 335.277L346.369 335.277ZM345.176 -10.8867L345.176 -10.0343L341.169 -10.0343L341.169 -10.8867L345.176 -10.8867ZM338.357 335.277L338.357 336.129L334.35 336.129L334.35 335.277L338.357 335.277ZM337.18 -10.8867L337.18 -10.0343L333.174 -10.0343L333.174 -10.8867L337.18 -10.8867ZM330.361 335.277L330.361 336.129L326.355 336.129L326.355 335.277L330.361 335.277ZM329.185 -10.8867L329.185 -10.0343L325.179 -10.0343L325.179 -10.8867L329.185 -10.8867ZM322.366 335.277L322.366 336.129L318.36 336.129L318.36 335.277L322.366 335.277ZM321.173 -10.8867L321.173 -10.0343L317.167 -10.0343L317.167 -10.8867L321.173 -10.8867ZM314.371 335.277L314.371 336.129L310.365 336.129L310.365 335.277L314.371 335.277ZM313.178 -10.8867L313.178 -10.0343L309.172 -10.0343L309.172 -10.8867L313.178 -10.8867ZM306.376 335.277L306.376 336.129L302.37 336.129L302.37 335.277L306.376 335.277ZM305.182 -10.8867L305.182 -10.0343L301.176 -10.0343L301.176 -10.8867L305.182 -10.8867ZM298.363 335.277L298.363 336.129L297.102 336.129C296.181 336.129 295.261 336.112 294.357 336.078L294.391 335.225C295.295 335.259 296.198 335.277 297.102 335.277L298.363 335.277ZM297.187 -10.8867L297.187 -10.0343L297.102 -10.0343C295.806 -10.0343 294.494 -10.0002 293.215 -9.93199L293.164 -10.7844C294.46 -10.8526 295.789 -10.8867 297.102 -10.8867L297.187 -10.8867ZM290.419 334.97L290.334 335.822C289.004 335.703 287.658 335.532 286.345 335.328L286.481 334.475C287.777 334.68 289.107 334.833 290.419 334.97ZM289.26 -9.59102C287.947 -9.43757 286.618 -9.25004 285.322 -9.04545L285.186 -9.8979C286.498 -10.1195 287.845 -10.3071 289.175 -10.4605L289.277 -9.60805L289.26 -9.59102ZM282.578 333.776L282.407 334.612C281.094 334.339 279.782 334.015 278.503 333.674L278.725 332.839C280.003 333.179 281.299 333.503 282.595 333.776L282.578 333.776ZM281.418 -8.27823C280.123 -7.9884 278.844 -7.64741 277.566 -7.27234L277.327 -8.09069C278.605 -8.46577 279.918 -8.80676 281.214 -9.09659L281.401 -8.26118L281.418 -8.27823ZM274.906 331.679L274.633 332.498C273.372 332.071 272.093 331.611 270.849 331.117L271.173 330.315C272.4 330.81 273.645 331.27 274.906 331.679ZM273.798 -6.06187C272.554 -5.6186 271.309 -5.14123 270.082 -4.62976L269.758 -5.414C270.985 -5.92547 272.247 -6.4199 273.525 -6.86318L273.815 -6.06187L273.798 -6.06187ZM267.542 328.747L267.184 329.531C265.973 328.968 264.763 328.355 263.587 327.724L263.996 326.974C265.155 327.604 266.348 328.201 267.542 328.747ZM266.451 -2.976C265.257 -2.39634 264.081 -1.78257 262.922 -1.13471L262.496 -1.88487C263.655 -2.53273 264.865 -3.16353 266.059 -3.76024L266.434 -2.99304L266.451 -2.976ZM260.552 324.979L260.109 325.712C258.967 325.013 257.842 324.28 256.751 323.513L257.245 322.814C258.319 323.564 259.444 324.297 260.569 324.979L260.552 324.979ZM259.512 0.911172C258.404 1.62723 257.296 2.37741 256.222 3.14461L255.728 2.4456C256.819 1.66134 257.927 0.911184 259.052 0.178075L259.512 0.894131L259.512 0.911172ZM254.04 320.444L253.512 321.126C252.455 320.307 251.415 319.438 250.409 318.551L250.972 317.904C251.96 318.773 252.983 319.626 254.023 320.444L254.04 320.444ZM253.069 5.56557C252.046 6.40097 251.023 7.27045 250.051 8.157L249.471 7.5262C250.46 6.6226 251.483 5.75311 252.523 4.90066L253.069 5.56557ZM248.074 315.21L247.477 315.824C246.522 314.886 245.585 313.914 244.681 312.925L245.312 312.346C246.198 313.317 247.119 314.289 248.074 315.21ZM247.187 10.9019C246.267 11.8396 245.346 12.8284 244.477 13.8173L243.829 13.2547C244.715 12.2488 245.636 11.2599 246.556 10.3052L247.17 10.9019L247.187 10.9019ZM242.721 309.328L242.056 309.873C241.221 308.834 240.385 307.759 239.618 306.668L240.317 306.174C241.084 307.248 241.902 308.305 242.738 309.328L242.721 309.328ZM241.954 16.8691C241.135 17.909 240.351 18.9831 239.601 20.0743L238.902 19.5799C239.669 18.4887 240.47 17.3976 241.289 16.3405L241.971 16.8691L241.954 16.8691ZM238.084 302.883L237.368 303.344C236.652 302.218 235.953 301.059 235.305 299.883L236.055 299.457C236.703 300.616 237.385 301.758 238.101 302.866L238.084 302.883ZM237.436 23.3988C236.737 24.5241 236.072 25.6834 235.459 26.8427L234.708 26.4336C235.339 25.2572 236.004 24.0808 236.703 22.9556L237.436 23.3988ZM234.197 295.944L233.43 296.32C232.85 295.109 232.288 293.882 231.776 292.654L232.561 292.33C233.072 293.541 233.617 294.768 234.197 295.962L234.197 295.944ZM233.669 30.3889C233.106 31.5824 232.578 32.8099 232.1 34.0374L231.299 33.7135C231.793 32.4689 232.322 31.2414 232.884 30.0309L233.669 30.3889ZM231.129 288.596L230.327 288.886C229.884 287.625 229.475 286.346 229.1 285.05L229.918 284.811C230.293 286.073 230.702 287.352 231.129 288.596ZM230.736 37.7541C230.31 38.9987 229.935 40.2774 229.594 41.556L228.759 41.3344C229.1 40.0387 229.492 38.743 229.918 37.4813L230.736 37.7541ZM228.912 280.975L228.077 281.163C227.787 279.867 227.514 278.537 227.293 277.225L228.145 277.088C228.367 278.384 228.623 279.697 228.912 280.992L228.912 280.975ZM228.657 45.4262C228.384 46.7219 228.145 48.0347 227.958 49.3304L227.105 49.194C227.31 47.8812 227.549 46.5343 227.821 45.2386L228.657 45.4091L228.657 45.4262ZM227.583 273.133L226.73 273.235C226.577 271.905 226.475 270.558 226.406 269.229L227.259 269.178C227.327 270.49 227.446 271.82 227.583 273.133ZM227.463 53.2858C227.344 54.5985 227.259 55.9284 227.208 57.2582L226.355 57.2241C226.406 55.8943 226.492 54.5303 226.611 53.2176L227.463 53.3028L227.463 53.2858ZM227.156 61.2306L227.156 65.2371L226.304 65.2371L226.304 61.2306L227.156 61.2306ZM227.156 69.2266L227.156 73.2331L226.304 73.2331L226.304 69.2266L227.156 69.2266ZM227.156 77.2226L227.156 81.2291L226.304 81.2291L226.304 77.2226L227.156 77.2226ZM227.156 85.2186L227.156 89.2251L226.304 89.2251L226.304 85.2186L227.156 85.2186ZM227.156 93.2316L227.156 97.2381L226.304 97.2381L226.304 93.2316L227.156 93.2316ZM227.156 101.228L227.156 105.234L226.304 105.234L226.304 101.228L227.156 101.228ZM227.156 109.224L227.156 113.23L226.304 113.23L226.304 109.224L227.156 109.224ZM227.156 117.22L227.156 121.226L226.304 121.226L226.304 117.22L227.156 117.22ZM227.156 125.216L227.156 129.222L226.304 129.222L226.304 125.216L227.156 125.216ZM227.156 133.212L227.156 137.218L226.304 137.218L226.304 133.212L227.156 133.212ZM227.156 141.225L227.156 145.231L226.304 145.231L226.304 141.225L227.156 141.225ZM227.156 149.221L227.156 153.227L226.304 153.227L226.304 149.221L227.156 149.221ZM227.156 157.217L227.156 161.223L226.304 161.223L226.304 157.217L227.156 157.217ZM227.156 165.213L227.156 169.219L226.304 169.219L226.304 165.213L227.156 165.213ZM227.156 173.209L227.156 177.215L226.304 177.215L226.304 173.209L227.156 173.209ZM227.156 181.222L227.156 185.228L226.304 185.228L226.304 181.222L227.156 181.222ZM227.156 189.218L227.156 193.224L226.304 193.224L226.304 189.218L227.156 189.218ZM227.156 197.214L227.156 201.22L226.304 201.22L226.304 197.214L227.156 197.214ZM227.156 205.21L227.156 209.216L226.304 209.216L226.304 205.21L227.156 205.21ZM227.156 213.206L227.156 217.212L226.304 217.212L226.304 213.206L227.156 213.206ZM227.156 221.219L227.156 225.225L226.304 225.225L226.304 221.219L227.156 221.219ZM227.156 229.215L227.156 233.221L226.304 233.221L226.304 229.215L227.156 229.215ZM227.156 237.211L227.156 241.217L226.304 241.217L226.304 237.211L227.156 237.211ZM227.156 245.207L227.156 249.213L226.304 249.213L226.304 245.207L227.156 245.207ZM227.156 253.203L227.156 257.209L226.304 257.209L226.304 253.203L227.156 253.203ZM227.156 261.199L227.156 265.205L226.304 265.205L226.304 261.199L227.156 261.199Z" fill="white"/>
<path d="M433.157 152.392C433.157 153.398 433.123 154.421 433.072 155.427L432.22 155.376C432.271 154.387 432.305 153.381 432.288 152.392L432.288 151.403L433.14 151.403L433.14 152.392L433.157 152.392ZM433.157 -16.8705L433.157 -12.864L432.305 -12.864L432.305 -16.8705L433.157 -16.8705ZM433.157 -8.85746L433.157 -4.85093L432.305 -4.85093L432.305 -8.85746L433.157 -8.85746ZM433.157 -0.844429L433.157 3.1621L432.305 3.1621L432.305 -0.844429L433.157 -0.844429ZM433.157 7.16863L433.157 11.1751L432.305 11.1751L432.305 7.16863L433.157 7.16863ZM433.157 15.1817L433.157 19.1882L432.305 19.1882L432.305 15.1817L433.157 15.1817ZM433.157 23.1947L433.157 27.2012L432.305 27.2012L432.305 23.1947L433.157 23.1947ZM433.157 31.2077L433.157 35.2143L432.305 35.2143L432.305 31.2077L433.157 31.2077ZM433.157 39.2208L433.157 43.2273L432.305 43.2273L432.305 39.2208L433.157 39.2208ZM433.157 47.2338L433.157 51.2403L432.305 51.2403L432.305 47.2338L433.157 47.2338ZM433.157 55.2469L433.157 59.2534L432.305 59.2534L432.305 55.2469L433.157 55.2469ZM433.157 63.2599L433.157 67.2664L432.305 67.2664L432.305 63.2599L433.157 63.2599ZM433.157 71.2729L433.157 75.2794L432.305 75.2794L432.305 71.2729L433.157 71.2729ZM433.157 79.2859L433.157 83.2925L432.305 83.2925L432.305 79.2859L433.157 79.2859ZM433.157 87.282L433.157 91.2885L432.305 91.2885L432.305 87.282L433.157 87.282ZM433.157 95.295L433.157 99.3015L432.305 99.3015L432.305 95.295L433.157 95.295ZM433.157 103.308L433.157 107.315L432.305 107.315L432.305 103.308L433.157 103.308ZM433.157 111.321L433.157 115.328L432.305 115.328L432.305 111.321L433.157 111.321ZM433.157 119.334L433.157 123.341L432.305 123.341L432.305 119.334L433.157 119.334ZM433.157 127.347L433.157 131.354L432.305 131.354L432.305 127.347L433.157 127.347ZM433.157 135.36L433.157 139.367L432.305 139.367L432.305 135.36L433.157 135.36ZM433.157 143.373L433.157 147.38L432.305 147.38L432.305 143.373L433.157 143.373ZM433.021 -20.9111L432.168 -20.86C432.083 -22.1727 431.947 -23.5026 431.759 -24.8153L432.612 -24.9347C432.799 -23.6049 432.936 -22.258 433.021 -20.9282L433.021 -20.9111ZM432.731 159.433C432.577 160.763 432.356 162.11 432.117 163.423L431.282 163.269C431.538 161.974 431.742 160.661 431.896 159.348L432.748 159.45L432.731 159.433ZM431.93 -28.8901L431.094 -28.7196C430.822 -30.0153 430.515 -31.311 430.157 -32.5726L430.975 -32.8113C431.333 -31.5156 431.657 -30.2028 431.93 -28.8901ZM431.214 167.361C430.873 168.657 430.481 169.953 430.055 171.231L429.236 170.959C429.662 169.714 430.054 168.435 430.378 167.157L431.214 167.378L431.214 167.361ZM429.731 -36.6474L428.929 -36.3575C428.486 -37.6021 427.992 -38.8467 427.463 -40.0572L428.247 -40.3981C428.793 -39.1706 429.287 -37.909 429.748 -36.6474L429.731 -36.6474ZM428.622 174.982C428.111 176.21 427.531 177.437 426.935 178.648L426.168 178.256C426.764 177.079 427.327 175.869 427.838 174.641L428.622 174.965L428.622 174.982ZM426.492 -44.0466L425.724 -43.6545C425.111 -44.8309 424.446 -45.9902 423.747 -47.1155L424.48 -47.5587C425.179 -46.4164 425.861 -45.2401 426.475 -44.0466L426.492 -44.0466ZM424.991 182.177C424.31 183.319 423.576 184.461 422.809 185.57L422.11 185.075C422.861 183.984 423.576 182.859 424.258 181.734L424.991 182.177ZM422.247 -50.9174L421.548 -50.423C420.781 -51.4971 419.962 -52.5541 419.127 -53.577L419.792 -54.1226C420.644 -53.0826 421.48 -52.0085 422.247 -50.9174ZM420.423 188.809C419.587 189.849 418.701 190.889 417.797 191.878L417.167 191.298C418.053 190.326 418.923 189.303 419.758 188.28L420.423 188.809ZM417.116 -57.1232L416.502 -56.5265C415.598 -57.4813 414.644 -58.419 413.672 -59.3226L414.252 -59.9534C415.24 -59.0498 416.212 -58.095 417.133 -57.1232L417.116 -57.1232ZM414.968 194.742C413.996 195.663 412.99 196.566 411.95 197.419L411.405 196.754C412.427 195.918 413.416 195.032 414.371 194.111L414.968 194.725L414.968 194.742ZM411.183 -62.5789L410.655 -61.914C409.632 -62.7324 408.558 -63.5337 407.467 -64.2838L407.961 -64.9828C409.069 -64.2156 410.143 -63.4143 411.2 -62.5789L411.183 -62.5789ZM408.745 199.891C407.654 200.675 406.529 201.425 405.387 202.124L404.944 201.391C406.069 200.692 407.177 199.959 408.251 199.192L408.745 199.891ZM404.552 -67.1651L404.108 -66.432C402.983 -67.114 401.807 -67.7448 400.631 -68.3415L401.023 -69.1087C402.216 -68.512 403.409 -67.8471 404.552 -67.1651ZM401.892 204.136C400.699 204.767 399.488 205.346 398.261 205.892L397.92 205.108C399.131 204.579 400.341 204 401.5 203.386L401.892 204.136ZM397.358 -70.7965L397.034 -70.0123C395.823 -70.5238 394.579 -71.0011 393.317 -71.4274L393.59 -72.2457C394.852 -71.8195 396.13 -71.3251 397.358 -70.8136L397.358 -70.7965ZM394.494 207.375C393.232 207.836 391.937 208.245 390.658 208.603L390.419 207.784C391.698 207.426 392.959 207.017 394.204 206.574L394.494 207.375ZM389.737 -73.405L389.516 -72.5696C388.237 -72.9106 386.942 -73.2005 385.646 -73.4562L385.799 -74.2916C387.112 -74.0359 388.442 -73.729 389.737 -73.388L389.737 -73.405ZM386.737 209.575C385.424 209.847 384.095 210.086 382.765 210.257L382.646 209.404C383.958 209.217 385.271 208.995 386.567 208.722L386.737 209.558L386.737 209.575ZM381.827 -74.9224L381.725 -74.07C380.413 -74.2234 379.083 -74.3427 377.77 -74.4109L377.821 -75.2634C379.168 -75.1952 380.515 -75.0759 381.844 -74.9224L381.827 -74.9224ZM378.759 210.683C377.429 210.768 376.065 210.819 374.736 210.819L374.582 210.819L374.582 209.967L374.736 209.967C376.065 209.967 377.395 209.916 378.708 209.83L378.759 210.683ZM373.781 -75.3486L373.781 -74.4962L369.775 -74.4962L369.775 -75.3486L373.781 -75.3486ZM370.576 209.95L370.576 210.802L366.57 210.802L366.57 209.95L370.576 209.95ZM365.769 -75.3486L365.769 -74.4962L361.763 -74.4962L361.763 -75.3486L365.769 -75.3486ZM362.564 209.95L362.564 210.802L358.558 210.802L358.558 209.95L362.564 209.95ZM357.757 -75.3486L357.757 -74.4962L353.75 -74.4962L353.75 -75.3486L357.757 -75.3486ZM354.552 209.95L354.552 210.802L350.545 210.802L350.545 209.95L354.552 209.95ZM349.744 -75.3486L349.744 -74.4962L345.738 -74.4962L345.738 -75.3486L349.744 -75.3486ZM346.539 209.95L346.539 210.802L342.533 210.802L342.533 209.95L346.539 209.95ZM341.732 -75.3486L341.732 -74.4962L337.726 -74.4962L337.726 -75.3486L341.732 -75.3486ZM338.527 209.95L338.527 210.802L334.521 210.802L334.521 209.95L338.527 209.95ZM333.72 -75.3486L333.72 -74.4962L329.714 -74.4962L329.714 -75.3486L333.72 -75.3486ZM330.515 209.95L330.515 210.802L326.509 210.802L326.509 209.95L330.515 209.95ZM325.707 -75.3486L325.707 -74.4962L321.701 -74.4962L321.701 -75.3486L325.707 -75.3486ZM322.502 209.95L322.502 210.802L318.496 210.802L318.496 209.95L322.502 209.95ZM317.695 -75.3486L317.695 -74.4962L313.689 -74.4962L313.689 -75.3486L317.695 -75.3486ZM314.49 209.95L314.49 210.802L310.484 210.802L310.484 209.95L314.49 209.95ZM309.683 -75.3486L309.683 -74.4962L305.677 -74.4962L305.677 -75.3486L309.683 -75.3486ZM306.478 209.95L306.478 210.802L302.472 210.802L302.472 209.95L306.478 209.95ZM301.671 -75.3486L301.671 -74.4962L297.664 -74.4962L297.664 -75.3486L301.671 -75.3486ZM298.466 209.95L298.466 210.802L294.46 210.802L294.46 209.95L298.466 209.95ZM293.658 -75.3486L293.658 -74.4962L289.652 -74.4962L289.652 -75.3486L293.658 -75.3486ZM290.453 209.95L290.453 210.802L286.447 210.802L286.447 209.95L290.453 209.95ZM285.646 -75.3486L285.646 -74.4962L281.64 -74.4962L281.64 -75.3486L285.646 -75.3486ZM282.441 209.95L282.441 210.802L278.435 210.802L278.435 209.95L282.441 209.95ZM277.634 -75.3486L277.634 -74.4962L273.628 -74.4962L273.628 -75.3486L277.634 -75.3486ZM274.429 209.95L274.429 210.802L270.423 210.802L270.423 209.95L274.429 209.95ZM269.621 -75.3486L269.621 -74.4962L265.615 -74.4962L265.615 -75.3486L269.621 -75.3486ZM266.417 209.95L266.417 210.802L262.41 210.802L262.41 209.95L266.417 209.95ZM261.609 -75.3486L261.609 -74.4962L257.603 -74.4962L257.603 -75.3486L261.609 -75.3486ZM258.404 209.95L258.404 210.802L254.398 210.802L254.398 209.95L258.404 209.95ZM253.597 -75.3486L253.597 -74.4962L249.591 -74.4962L249.591 -75.3486L253.597 -75.3486ZM250.392 209.95L250.392 210.802L246.386 210.802L246.386 209.95L250.392 209.95ZM245.585 -75.3486L245.585 -74.4962L241.579 -74.4962L241.579 -75.3486L245.585 -75.3486ZM242.38 209.95L242.38 210.802L238.374 210.802L238.374 209.95L242.38 209.95ZM237.572 -75.3486L237.572 -74.4962L233.566 -74.4962L233.566 -75.3486L237.572 -75.3486ZM234.367 209.95L234.367 210.802L230.361 210.802L230.361 209.95L234.367 209.95ZM229.56 -75.3486L229.56 -74.4962L225.554 -74.4962L225.554 -75.3486L229.56 -75.3486ZM226.355 209.95L226.355 210.802L222.349 210.802L222.349 209.95L226.355 209.95ZM221.548 -75.3486L221.548 -74.4962L217.542 -74.4962L217.542 -75.3486L221.548 -75.3486ZM218.343 209.95L218.343 210.802L214.337 210.802L214.337 209.95L218.343 209.95ZM213.536 -75.3486L213.536 -74.4962L209.529 -74.4962L209.529 -75.3486L213.536 -75.3486ZM210.331 209.95L210.331 210.802L206.324 210.802L206.324 209.95L210.331 209.95ZM205.523 -75.3486L205.523 -74.4962L205.455 -74.4962C204.16 -74.4962 202.847 -74.445 201.551 -74.3598L201.5 -75.2122C202.813 -75.2975 204.142 -75.3486 205.455 -75.3486L205.54 -75.3486L205.523 -75.3486ZM202.335 209.881L202.284 210.734C200.938 210.666 199.591 210.546 198.261 210.376L198.363 209.523C199.676 209.677 201.006 209.796 202.318 209.864L202.335 209.881ZM197.596 -73.9677C196.284 -73.7972 194.971 -73.5585 193.675 -73.3028L193.505 -74.1382C194.818 -74.4109 196.147 -74.6326 197.477 -74.8201L197.596 -73.9677ZM194.46 208.91L194.289 209.745C192.976 209.489 191.647 209.182 190.351 208.841L190.573 208.006C191.851 208.347 193.147 208.637 194.442 208.893L194.46 208.91ZM189.823 -72.348C188.544 -71.99 187.283 -71.5808 186.038 -71.1375L185.748 -71.9388C187.01 -72.3821 188.305 -72.8083 189.584 -73.1664L189.823 -72.348ZM186.788 206.864L186.515 207.682C185.254 207.256 183.975 206.761 182.748 206.25L183.089 205.466C184.299 205.977 185.544 206.455 186.788 206.881L186.788 206.864ZM182.339 -69.6713C181.128 -69.1428 179.918 -68.5631 178.759 -67.9494L178.367 -68.6995C179.543 -69.3133 180.77 -69.91 181.998 -70.4556L182.339 -69.6713ZM179.475 203.778L179.083 204.545C177.889 203.931 176.696 203.283 175.554 202.601L175.997 201.868C177.122 202.55 178.299 203.181 179.475 203.778ZM175.298 -65.9717C174.173 -65.2727 173.065 -64.5396 171.991 -63.7724L171.497 -64.4714C172.588 -65.2556 173.713 -66.0058 174.855 -66.7048L175.298 -65.9717ZM172.656 199.703L172.162 200.402C171.053 199.635 169.979 198.834 168.923 197.998L169.451 197.333C170.474 198.152 171.548 198.953 172.639 199.703L172.656 199.703ZM168.837 -61.3514C167.814 -60.516 166.826 -59.6295 165.854 -58.7259L165.257 -59.3396C166.229 -60.2603 167.252 -61.1639 168.275 -62.0163L168.82 -61.3514L168.837 -61.3514ZM166.451 194.742L165.871 195.373C164.882 194.469 163.928 193.514 163.007 192.543L163.638 191.946C164.541 192.901 165.496 193.838 166.468 194.742L166.451 194.742ZM163.058 -55.8787C162.172 -54.9069 161.285 -53.8839 160.467 -52.861L159.802 -53.3895C160.638 -54.4295 161.524 -55.4695 162.427 -56.4583L163.058 -55.8787ZM160.996 188.979L160.331 189.525C159.478 188.485 158.66 187.411 157.876 186.32L158.575 185.825C159.342 186.899 160.16 187.956 160.996 188.979ZM158.097 -49.6728C157.347 -48.5817 156.631 -47.4735 155.949 -46.3312L155.216 -46.7745C155.898 -47.9168 156.631 -49.0591 157.399 -50.1672L158.097 -49.6728ZM156.376 182.501L155.643 182.944C154.944 181.802 154.262 180.625 153.648 179.432L154.415 179.04C155.029 180.216 155.694 181.375 156.376 182.501ZM154.04 -42.8532C153.444 -41.6768 152.881 -40.4663 152.37 -39.2559L151.585 -39.5798C152.097 -40.8073 152.676 -42.0349 153.273 -43.2453L154.04 -42.8532ZM152.693 175.459L151.909 175.8C151.364 174.573 150.869 173.311 150.426 172.05L151.227 171.76C151.671 173.004 152.165 174.249 152.693 175.459ZM150.955 -35.5392C150.528 -34.2946 150.136 -33.0159 149.795 -31.7373L148.96 -31.9589C149.301 -33.2546 149.693 -34.5503 150.136 -35.812L150.955 -35.5392ZM150.017 167.975L149.199 168.214C148.841 166.918 148.517 165.605 148.244 164.292L149.079 164.122C149.352 165.418 149.659 166.713 150.017 167.975ZM148.909 -27.8671C148.653 -26.5714 148.449 -25.2586 148.295 -23.9459L147.443 -24.0481C147.613 -25.378 147.818 -26.7248 148.074 -28.0376L148.909 -27.8842L148.909 -27.8671ZM148.397 160.201L147.545 160.32C147.358 158.99 147.221 157.643 147.136 156.313L147.988 156.262C148.074 157.575 148.21 158.905 148.38 160.218L148.397 160.201ZM147.954 -19.9905C147.903 -18.9846 147.869 -17.9446 147.869 -16.9217L147.869 -16.0181L147.017 -16.0181L147.017 -16.9217C147.017 -17.9616 147.051 -19.0016 147.102 -20.0416L147.954 -19.9905ZM147.869 -11.9945L147.869 -7.98797L147.017 -7.98797L147.017 -11.9945L147.869 -11.9945ZM147.869 -3.98146L147.869 0.025073L147.017 0.0250729L147.017 -3.98146L147.869 -3.98146ZM147.869 4.03158L147.869 8.03811L147.017 8.03811L147.017 4.03158L147.869 4.03158ZM147.869 12.0446L147.869 16.0511L147.017 16.0511L147.017 12.0446L147.869 12.0446ZM147.869 20.0577L147.869 24.0642L147.017 24.0642L147.017 20.0577L147.869 20.0577ZM147.869 28.0707L147.869 32.0772L147.017 32.0772L147.017 28.0707L147.869 28.0707ZM147.869 36.0837L147.869 40.0903L147.017 40.0903L147.017 36.0837L147.869 36.0837ZM147.869 44.0968L147.869 48.1033L147.017 48.1033L147.017 44.0968L147.869 44.0968ZM147.869 52.1098L147.869 56.1163L147.017 56.1163L147.017 52.1098L147.869 52.1098ZM147.869 60.1229L147.869 64.1294L147.017 64.1294L147.017 60.1229L147.869 60.1229ZM147.869 68.1359L147.869 72.1424L147.017 72.1424L147.017 68.1359L147.869 68.1359ZM147.869 76.1489L147.869 80.1555L147.017 80.1555L147.017 76.1489L147.869 76.1489ZM147.869 84.162L147.869 88.1685L147.017 88.1685L147.017 84.162L147.869 84.162ZM147.869 92.175L147.869 96.1815L147.017 96.1815L147.017 92.175L147.869 92.175ZM147.869 100.188L147.869 104.195L147.017 104.195L147.017 100.188L147.869 100.188ZM147.869 108.201L147.869 112.208L147.017 112.208L147.017 108.201L147.869 108.201ZM147.869 116.214L147.869 120.221L147.017 120.221L147.017 116.214L147.869 116.214ZM147.869 124.227L147.869 128.234L147.017 128.234L147.017 124.227L147.869 124.227ZM147.869 132.24L147.869 136.247L147.017 136.247L147.017 132.24L147.869 132.24ZM147.869 140.253L147.869 144.26L147.017 144.26L147.017 140.253L147.869 140.253ZM147.869 148.266L147.869 152.273L147.017 152.273L147.017 148.266L147.869 148.266Z" fill="white"/>
<path d="M850.443 51.6491L849.591 51.6832L849.591 51.6491C849.591 50.3363 849.54 49.0065 849.42 47.7108L850.273 47.6426C850.392 48.9724 850.443 50.3193 850.443 51.6491ZM850.443 55.6727L850.443 59.6792L849.591 59.6792L849.591 55.6727L850.443 55.6727ZM850.443 63.6857L850.443 67.6922L849.591 67.6922L849.591 63.6857L850.443 63.6857ZM850.443 71.6987L850.443 75.7053L849.591 75.7053L849.591 71.6987L850.443 71.6987ZM850.443 79.7118L850.443 83.7183L849.591 83.7183L849.591 79.7118L850.443 79.7118ZM850.443 87.7248L850.443 91.7313L849.591 91.7313L849.591 87.7248L850.443 87.7248ZM850.443 95.7378L850.443 99.7443L849.591 99.7443L849.591 95.7378L850.443 95.7378ZM850.443 103.751L850.443 107.757L849.591 107.757L849.591 103.751L850.443 103.751ZM850.443 111.764L850.443 115.77L849.591 115.77L849.591 111.764L850.443 111.764ZM850.443 119.777L850.443 123.783L849.591 123.783L849.591 119.777L850.443 119.777ZM850.443 127.79L850.443 131.797L849.591 131.797L849.591 127.79L850.443 127.79ZM850.443 135.803L850.443 139.81L849.591 139.81L849.591 135.803L850.443 135.803ZM850.443 143.816L850.443 147.823L849.591 147.823L849.591 143.816L850.443 143.816ZM850.443 151.829L850.443 155.836L849.591 155.836L849.591 151.829L850.443 151.829ZM850.443 159.842L850.443 163.849L849.591 163.849L849.591 159.842L850.443 159.842ZM850.443 167.855L850.443 171.862L849.591 171.862L849.591 167.855L850.443 167.855ZM850.443 175.868L850.443 179.875L849.591 179.875L849.591 175.868L850.443 175.868ZM850.443 183.881L850.443 187.086C850.443 187.359 850.443 187.632 850.443 187.905L849.591 187.905C849.591 187.632 849.591 187.359 849.591 187.086L849.591 183.881L850.443 183.881ZM850.188 191.928C850.051 193.258 849.847 194.605 849.608 195.918L848.773 195.764C849.028 194.469 849.216 193.156 849.352 191.843L850.205 191.928L850.188 191.928ZM849.761 43.619L848.909 43.7724C848.687 42.4767 848.398 41.1639 848.074 39.9023L848.909 39.6807C849.25 40.9764 849.54 42.3062 849.761 43.6361L849.761 43.619ZM848.67 199.856C848.312 201.152 847.886 202.431 847.409 203.692L846.608 203.385C847.068 202.158 847.494 200.879 847.852 199.618L848.67 199.856ZM847.699 35.8105L846.897 36.1004C846.454 34.8558 845.943 33.6283 845.397 32.4348L846.181 32.0768C846.744 33.2873 847.255 34.5489 847.716 35.8276L847.699 35.8105ZM845.806 207.409C845.227 208.619 844.579 209.813 843.897 210.972L843.164 210.529C843.829 209.404 844.477 208.227 845.039 207.034L845.806 207.409ZM844.323 28.4795L843.573 28.9057C842.925 27.7634 842.209 26.6382 841.459 25.547L842.158 25.0526C842.925 26.1608 843.641 27.3031 844.306 28.4795L844.323 28.4795ZM841.698 214.348C840.914 215.439 840.078 216.513 839.209 217.519L838.561 216.956C839.414 215.95 840.249 214.91 841.016 213.836L841.715 214.331L841.698 214.348ZM839.737 21.8303L839.073 22.3759C838.237 21.353 837.334 20.3641 836.413 19.4264L837.027 18.8297C837.965 19.7845 838.885 20.7904 839.737 21.8303ZM836.447 220.468C835.493 221.406 834.487 222.327 833.447 223.179L832.901 222.514C833.924 221.679 834.913 220.775 835.851 219.855L836.447 220.468ZM834.078 16.0678L833.515 16.7156C832.509 15.8632 831.469 15.0278 830.396 14.2606L830.89 13.5616C831.981 14.3458 833.055 15.1812 834.061 16.0507L834.078 16.0678ZM830.225 225.617C829.117 226.384 827.975 227.101 826.799 227.765L826.372 227.015C827.514 226.367 828.64 225.651 829.731 224.901L830.225 225.6L830.225 225.617ZM827.514 11.3622L827.071 12.0954C825.946 11.4134 824.77 10.7826 823.577 10.22L823.952 9.45276C825.162 10.0324 826.355 10.6803 827.514 11.3622ZM823.202 229.624C821.974 230.186 820.73 230.698 819.468 231.158L819.178 230.357C820.423 229.914 821.65 229.402 822.844 228.857L823.202 229.641L823.202 229.624ZM820.252 7.85015L819.945 8.65146C818.718 8.19113 817.457 7.76492 816.178 7.40689L816.417 6.58851C817.712 6.96359 818.991 7.38982 820.252 7.86719L820.252 7.85015ZM815.598 232.369C814.303 232.71 812.973 232.999 811.643 233.238L811.49 232.386C812.786 232.164 814.098 231.874 815.36 231.533L815.581 232.369L815.598 232.369ZM812.479 5.65084L812.325 6.48622C811.03 6.23049 809.717 6.04296 808.404 5.90656L808.49 5.05411C809.819 5.19051 811.166 5.3951 812.479 5.65084ZM807.654 233.733C806.325 233.852 804.961 233.903 803.614 233.903L803.512 233.903L803.512 233.051L803.614 233.051C804.927 233.051 806.273 232.999 807.569 232.88L807.637 233.733L807.654 233.733ZM804.449 4.81543L804.449 5.66788C804.16 5.66788 803.887 5.66788 803.614 5.66788L800.443 5.66788L800.443 4.81543L803.614 4.81543C803.887 4.81543 804.177 4.81543 804.449 4.81543ZM799.506 233.051L799.506 233.903L795.499 233.903L795.499 233.051L799.506 233.051ZM796.437 4.81543L796.437 5.66788L792.431 5.66788L792.431 4.81543L796.437 4.81543ZM791.493 233.051L791.493 233.903L787.487 233.903L787.487 233.051L791.493 233.051ZM788.425 4.81543L788.425 5.66788L784.419 5.66788L784.419 4.81543L788.425 4.81543ZM783.481 233.051L783.481 233.903L779.475 233.903L779.475 233.051L783.481 233.051ZM780.413 4.81543L780.413 5.66788L776.406 5.66788L776.406 4.81543L780.413 4.81543ZM775.469 233.051L775.469 233.903L771.463 233.903L771.463 233.051L775.469 233.051ZM772.4 4.81543L772.4 5.66788L768.394 5.66788L768.394 4.81543L772.4 4.81543ZM767.457 233.051L767.457 233.903L763.45 233.903L763.45 233.051L767.457 233.051ZM764.388 4.81543L764.388 5.66788L760.382 5.66788L760.382 4.81543L764.388 4.81543ZM759.444 233.051L759.444 233.903L755.438 233.903L755.438 233.051L759.444 233.051ZM756.376 4.81543L756.376 5.66788L752.37 5.66788L752.37 4.81543L756.376 4.81543ZM751.432 233.051L751.432 233.903L747.426 233.903L747.426 233.051L751.432 233.051ZM748.363 4.81543L748.363 5.66788L744.357 5.66788L744.357 4.81543L748.363 4.81543ZM743.42 233.051L743.42 233.903L739.414 233.903L739.414 233.051L743.42 233.051ZM740.351 4.81542L740.351 5.66788L736.345 5.66788L736.345 4.81542L740.351 4.81542ZM735.407 233.051L735.407 233.903L731.401 233.903L731.401 233.051L735.407 233.051ZM732.339 4.81542L732.339 5.66788L728.333 5.66788L728.333 4.81542L732.339 4.81542ZM727.395 233.051L727.395 233.903L723.389 233.903L723.389 233.051L727.395 233.051ZM724.327 4.81542L724.327 5.66788L720.32 5.66787L720.32 4.81542L724.327 4.81542ZM719.383 233.051L719.383 233.903L715.377 233.903L715.377 233.051L719.383 233.051ZM716.314 4.81542L716.314 5.66787L712.308 5.66787L712.308 4.81542L716.314 4.81542ZM711.371 233.051L711.371 233.903L707.364 233.903L707.364 233.051L711.371 233.051ZM708.302 4.81542L708.302 5.66787L704.296 5.66787L704.296 4.81542L708.302 4.81542ZM703.358 233.051L703.358 233.903L699.352 233.903L699.352 233.051L703.358 233.051ZM700.29 4.81542L700.29 5.66787L696.284 5.66787L696.284 4.81542L700.29 4.81542ZM695.346 233.051L695.346 233.903L691.34 233.903L691.34 233.051L695.346 233.051ZM692.278 4.81542L692.278 5.66787L688.271 5.66787L688.271 4.81542L692.278 4.81542ZM687.334 233.051L687.334 233.903L683.328 233.903L683.328 233.051L687.334 233.051ZM684.265 4.81542L684.265 5.66787L680.259 5.66787L680.259 4.81542L684.265 4.81542ZM679.322 233.051L679.322 233.903L675.315 233.903L675.315 233.051L679.322 233.051ZM676.253 4.81542L676.253 5.66787L672.247 5.66787L672.247 4.81542L676.253 4.81542ZM671.309 233.051L671.309 233.903L668.19 233.903C667.883 233.903 667.593 233.903 667.286 233.903L667.286 233.051C667.593 233.051 667.883 233.051 668.19 233.051L671.309 233.051ZM668.241 4.81542L668.241 5.66787L668.19 5.66787C666.894 5.66787 665.564 5.719 664.286 5.83835L664.218 4.9859C665.53 4.86655 666.877 4.81542 668.207 4.81542L668.258 4.81542L668.241 4.81542ZM663.348 232.795L663.263 233.647C661.933 233.511 660.586 233.306 659.274 233.051L659.444 232.215C660.74 232.471 662.052 232.658 663.365 232.795L663.348 232.795ZM660.348 6.33278C659.052 6.55442 657.74 6.84426 656.478 7.16819L656.256 6.33278C657.552 5.9918 658.882 5.70197 660.211 5.48033L660.365 6.33278L660.348 6.33278ZM655.574 231.295L655.336 232.113C654.04 231.738 652.762 231.312 651.5 230.834L651.807 230.033C653.034 230.51 654.313 230.92 655.574 231.278L655.574 231.295ZM652.676 8.34455C651.432 8.78783 650.205 9.29931 648.994 9.84488L648.636 9.06064C649.864 8.49802 651.108 7.98653 652.387 7.52621L652.676 8.32751L652.676 8.34455ZM648.159 228.464L647.784 229.232C646.573 228.652 645.38 228.004 644.221 227.322L644.664 226.589C645.789 227.271 646.966 227.902 648.159 228.464ZM645.482 11.6521C644.34 12.2999 643.215 13.016 642.124 13.7662L641.63 13.0671C642.738 12.2999 643.88 11.5839 645.056 10.919L645.482 11.6691L645.482 11.6521ZM641.357 224.407L640.863 225.106C639.772 224.322 638.715 223.486 637.692 222.6L638.254 221.952C639.26 222.804 640.3 223.64 641.374 224.407L641.357 224.407ZM638.953 16.153C637.93 16.9884 636.942 17.892 636.004 18.8126L635.407 18.1989C636.362 17.2612 637.385 16.3576 638.408 15.4881L638.953 16.153ZM635.356 219.241L634.743 219.838C633.805 218.883 632.901 217.86 632.049 216.837L632.714 216.291C633.549 217.314 634.453 218.303 635.373 219.241L635.356 219.241ZM633.294 21.711C632.441 22.7169 631.606 23.7569 630.839 24.831L630.14 24.3365C630.924 23.2454 631.759 22.1713 632.646 21.1654L633.294 21.728L633.294 21.711ZM630.31 213.12L629.611 213.615C628.844 212.507 628.128 211.347 627.463 210.188L628.213 209.762C628.861 210.904 629.577 212.029 630.327 213.12L630.31 213.12ZM628.674 28.1385C627.992 29.2637 627.361 30.4401 626.798 31.6335L626.031 31.2584C626.611 30.048 627.259 28.8545 627.941 27.6952L628.674 28.1385ZM626.389 206.233L625.605 206.591C625.043 205.363 624.531 204.118 624.088 202.84L624.889 202.55C625.332 203.795 625.844 205.022 626.389 206.233ZM625.213 35.282C624.736 36.5095 624.327 37.7882 623.969 39.0499L623.15 38.8112C623.525 37.5154 623.952 36.2368 624.429 34.9751L625.23 35.282L625.213 35.282ZM623.713 198.765L622.878 198.987C622.537 197.691 622.247 196.361 622.025 195.031L622.878 194.895C623.099 196.191 623.389 197.503 623.713 198.765ZM623.048 42.9029C622.792 44.1986 622.605 45.5114 622.468 46.8242L621.616 46.739C621.752 45.4091 621.957 44.0623 622.213 42.7495L623.048 42.9029ZM622.383 190.957L621.531 191.025C621.429 189.712 621.36 188.382 621.36 187.069L621.36 186.984L622.213 186.984L622.213 187.069C622.213 188.365 622.264 189.678 622.366 190.957L622.383 190.957ZM622.23 50.7796C622.23 51.0694 622.23 51.3422 622.23 51.632L622.23 54.769L621.377 54.769L621.377 51.632C621.377 51.3422 621.377 51.0524 621.377 50.7625L622.23 50.7625L622.23 50.7796ZM622.213 58.7926L622.213 62.7991L621.36 62.7991L621.36 58.7926L622.213 58.7926ZM622.213 66.8057L622.213 70.8122L621.36 70.8122L621.36 66.8057L622.213 66.8057ZM622.213 74.8187L622.213 78.8252L621.36 78.8252L621.36 74.8187L622.213 74.8187ZM622.213 82.8317L622.213 86.8382L621.36 86.8382L621.36 82.8317L622.213 82.8317ZM622.213 90.8447L622.213 94.8513L621.36 94.8513L621.36 90.8447L622.213 90.8447ZM622.213 98.8578L622.213 102.864L621.36 102.864L621.36 98.8578L622.213 98.8578ZM622.213 106.871L622.213 110.877L621.36 110.877L621.36 106.871L622.213 106.871ZM622.213 114.884L622.213 118.89L621.36 118.89L621.36 114.884L622.213 114.884ZM622.213 122.897L622.213 126.903L621.36 126.903L621.36 122.897L622.213 122.897ZM622.213 130.91L622.213 134.916L621.36 134.916L621.36 130.91L622.213 130.91ZM622.213 138.923L622.213 142.93L621.36 142.93L621.36 138.923L622.213 138.923ZM622.213 146.936L622.213 150.943L621.36 150.943L621.36 146.936L622.213 146.936ZM622.213 154.949L622.213 158.956L621.36 158.956L621.36 154.949L622.213 154.949ZM622.213 162.962L622.213 166.969L621.36 166.969L621.36 162.962L622.213 162.962ZM622.213 170.975L622.213 174.982L621.36 174.982L621.36 170.975L622.213 170.975ZM622.213 178.988L622.213 182.995L621.36 182.995L621.36 178.988L622.213 178.988Z" fill="white"/>
<path d="M727.191 -83.5496L726.338 -83.5496C726.338 -84.8795 726.287 -86.2093 726.185 -87.5221L727.037 -87.5903C727.139 -86.2604 727.191 -84.8965 727.191 -83.5496ZM727.191 -79.5261L727.191 -75.5025L726.338 -75.5025L726.338 -79.5261L727.191 -79.5261ZM727.191 -71.496L727.191 -67.4724L726.338 -67.4724L726.338 -71.496L727.191 -71.496ZM727.191 -63.4659L727.191 -59.4423L726.338 -59.4423L726.338 -63.4659L727.191 -63.4659ZM727.191 -55.4358L727.191 -51.4122L726.338 -51.4122L726.338 -55.4358L727.191 -55.4358ZM727.191 -47.4057L727.191 -43.3821L726.338 -43.3821L726.338 -47.4057L727.191 -47.4057ZM727.191 -39.3756L727.191 -35.3521L726.338 -35.3521L726.338 -39.3756L727.191 -39.3756ZM727.191 -31.3455L727.191 -27.322L726.338 -27.322L726.338 -31.3455L727.191 -31.3455ZM727.191 -23.3155L727.191 -19.2919L726.338 -19.2919L726.338 -23.3155L727.191 -23.3155ZM727.191 -15.2854L727.191 -11.2618L726.338 -11.2618L726.338 -15.2854L727.191 -15.2854ZM727.191 -7.25528L727.191 -3.2317L726.338 -3.2317L726.338 -7.25528L727.191 -7.25528ZM727.191 0.774826L727.191 4.79839L726.338 4.79839L726.338 0.774826L727.191 0.774826ZM727.191 8.80489L727.191 12.8285L726.338 12.8285L726.338 8.80489L727.191 8.80489ZM727.191 16.852L727.191 20.8756L726.338 20.8756L726.338 16.852L727.191 16.852ZM727.191 24.8821L727.191 28.9057L726.338 28.9057L726.338 24.8821L727.191 24.8821ZM727.191 32.9122L727.191 36.9358L726.338 36.9358L726.338 32.9122L727.191 32.9122ZM727.191 40.9423L727.191 44.9659L726.338 44.9659L726.338 40.9423L727.191 40.9423ZM727.191 48.9724L727.191 52.9959L726.338 52.9959L726.338 48.9724L727.191 48.9724ZM727.191 57.0025L727.191 61.026L726.338 61.026L726.338 57.0025L727.191 57.0025ZM727.139 65.0496C727.071 66.3965 726.952 67.7604 726.781 69.0732L725.929 68.9709C726.1 67.6581 726.219 66.3283 726.27 65.0155L727.122 65.0496L727.139 65.0496ZM726.56 -91.6138L725.707 -91.4774C725.503 -92.7732 725.23 -94.0859 724.923 -95.3817L725.759 -95.5862C726.082 -94.2735 726.355 -92.9436 726.56 -91.6138ZM726.117 73.0797C725.844 74.3925 725.503 75.7223 725.128 77.001L724.31 76.7623C724.685 75.5007 725.008 74.2049 725.281 72.9092L726.117 73.0797ZM724.633 -99.4734L723.815 -99.2006C723.406 -100.462 722.929 -101.707 722.4 -102.934L723.184 -103.275C723.713 -102.031 724.19 -100.769 724.616 -99.4905L724.633 -99.4734ZM723.815 80.837C723.338 82.0816 722.792 83.3432 722.213 84.5537L721.446 84.1786C722.025 82.9852 722.554 81.7577 723.031 80.5301L723.832 80.837L723.815 80.837ZM721.48 -106.924L720.713 -106.532C720.099 -107.708 719.434 -108.867 718.735 -109.976L719.468 -110.436C720.184 -109.294 720.866 -108.117 721.497 -106.924L721.48 -106.924ZM720.303 88.1169C719.621 89.2763 718.888 90.4186 718.121 91.5267L717.422 91.0323C718.172 89.9412 718.906 88.8159 719.57 87.6907L720.303 88.1169ZM717.15 -113.761L716.468 -113.249C715.666 -114.306 714.831 -115.346 713.962 -116.335L714.61 -116.898C715.496 -115.892 716.348 -114.835 717.167 -113.761L717.15 -113.761ZM715.667 94.732C714.814 95.772 713.911 96.7778 712.973 97.7496L712.359 97.1529C713.28 96.1982 714.166 95.2093 715.019 94.1864L715.684 94.732L715.667 94.732ZM711.814 -119.83L711.217 -119.216C710.262 -120.137 709.274 -121.023 708.251 -121.859L708.796 -122.524C709.836 -121.671 710.842 -120.768 711.814 -119.83ZM710.041 100.546C709.035 101.432 707.978 102.285 706.904 103.103L706.393 102.421C707.45 101.637 708.49 100.784 709.478 99.9149L710.041 100.563L710.041 100.546ZM705.574 -124.979L705.08 -124.28C703.989 -125.03 702.864 -125.763 701.722 -126.428L702.148 -127.161C703.307 -126.479 704.449 -125.746 705.557 -124.979L705.574 -124.979ZM703.546 105.388C702.404 106.104 701.227 106.786 700.034 107.399L699.642 106.632C700.818 106.018 701.977 105.353 703.086 104.654L703.546 105.388ZM698.585 -129.071L698.21 -128.303C697.017 -128.883 695.789 -129.411 694.562 -129.889L694.869 -130.69C696.113 -130.213 697.375 -129.667 698.585 -129.088L698.585 -129.071ZM696.386 109.138C695.141 109.667 693.863 110.144 692.601 110.57L692.329 109.752C693.59 109.343 694.835 108.866 696.062 108.354L696.403 109.138L696.386 109.138ZM691.05 -131.969L690.811 -131.15C689.55 -131.526 688.254 -131.85 686.959 -132.122L687.129 -132.958C688.442 -132.685 689.772 -132.344 691.05 -131.969ZM688.698 111.679C687.385 112.003 686.055 112.258 684.725 112.48L684.589 111.628C685.902 111.423 687.214 111.15 688.493 110.843L688.698 111.679ZM683.14 -133.64L683.038 -132.787C681.725 -132.958 680.395 -133.077 679.066 -133.128L679.1 -133.981C680.447 -133.912 681.81 -133.793 683.14 -133.623L683.14 -133.64ZM680.719 112.957C679.39 113.06 678.026 113.111 676.679 113.111L676.56 113.111L676.56 112.258L676.679 112.258C678.009 112.258 679.339 112.207 680.651 112.105L680.719 112.957ZM675.077 -134.049L675.077 -133.196L671.053 -133.196L671.053 -134.049L675.077 -134.049ZM672.537 112.275L672.537 113.128L668.513 113.128L668.513 112.275L672.537 112.275ZM667.03 -134.049L667.03 -133.196L663.007 -133.196L663.007 -134.049L667.03 -134.049ZM664.507 112.275L664.507 113.128L660.484 113.128L660.484 112.275L664.507 112.275ZM659.001 -134.049L659.001 -133.196L654.978 -133.196L654.978 -134.049L659.001 -134.049ZM656.478 112.275L656.478 113.128L652.455 113.128L652.455 112.275L656.478 112.275ZM650.972 -134.049L650.972 -133.196L646.948 -133.196L646.948 -134.049L650.972 -134.049ZM648.449 112.275L648.449 113.128L644.425 113.128L644.425 112.275L648.449 112.275ZM642.942 -134.049L642.942 -133.196L638.936 -133.196L638.936 -134.049L642.942 -134.049ZM640.419 112.275L640.419 113.128L636.396 113.128L636.396 112.275L640.419 112.275ZM634.913 -134.049L634.913 -133.196L630.89 -133.196L630.89 -134.049L634.913 -134.049ZM632.39 112.275L632.39 113.128L628.367 113.128L628.367 112.275L632.39 112.275ZM626.884 -134.049L626.884 -133.196L622.861 -133.196L622.861 -134.049L626.884 -134.049ZM624.361 112.275L624.361 113.128L620.337 113.128L620.337 112.275L624.361 112.275ZM618.854 -134.049L618.854 -133.196L614.831 -133.196L614.831 -134.049L618.854 -134.049ZM616.331 112.275L616.331 113.128L612.308 113.128L612.308 112.275L616.331 112.275ZM610.825 -134.049L610.825 -133.196L606.802 -133.196L606.802 -134.049L610.825 -134.049ZM608.302 112.275L608.302 113.128L604.279 113.128L604.279 112.275L608.302 112.275ZM602.796 -134.049L602.796 -133.196L598.773 -133.196L598.773 -134.049L602.796 -134.049ZM600.273 112.275L600.273 113.128L596.25 113.128L596.25 112.275L600.273 112.275ZM594.766 -134.049L594.766 -133.196L590.743 -133.196L590.743 -134.049L594.766 -134.049ZM592.243 112.275L592.243 113.128L588.22 113.128L588.22 112.275L592.243 112.275ZM586.737 -134.049L586.737 -133.196L582.714 -133.196L582.714 -134.049L586.737 -134.049ZM584.214 112.275L584.214 113.128L580.191 113.128L580.191 112.275L584.214 112.275ZM578.708 -134.049L578.708 -133.196L574.685 -133.196L574.685 -134.049L578.708 -134.049ZM576.168 112.275L576.168 113.128L572.162 113.128L572.162 112.275L576.168 112.275ZM570.678 -134.049L570.678 -133.196L566.655 -133.196L566.655 -134.049L570.678 -134.049ZM568.138 112.275L568.138 113.128L564.115 113.128L564.115 112.275L568.138 112.275ZM562.632 -134.049L562.632 -133.196L558.609 -133.196L558.609 -134.049L562.632 -134.049ZM560.109 112.275L560.109 113.128L556.086 113.128L556.086 112.275L560.109 112.275ZM554.603 -134.049L554.603 -133.196L550.58 -133.196L550.58 -134.049L554.603 -134.049ZM552.08 112.275L552.08 113.128L548.057 113.128L548.057 112.275L552.08 112.275ZM546.573 -134.049L546.573 -133.196L542.55 -133.196L542.55 -134.049L546.573 -134.049ZM544.05 112.275L544.05 113.128L540.027 113.128L540.027 112.275L544.05 112.275ZM538.544 -134.049L538.544 -133.196L534.521 -133.196L534.521 -134.049L538.544 -134.049ZM536.021 112.275L536.021 113.128L531.998 113.128L531.998 112.275L536.021 112.275ZM530.515 -134.049L530.515 -133.196L530.464 -133.196C529.151 -133.196 527.838 -133.145 526.543 -133.043L526.475 -133.895C527.787 -133.998 529.134 -134.049 530.464 -134.049L530.515 -134.049ZM528.009 112.207L527.975 113.06C526.628 112.991 525.281 112.872 523.952 112.702L524.054 111.849C525.366 112.02 526.696 112.139 528.009 112.207ZM522.588 -132.583C521.292 -132.378 519.979 -132.105 518.684 -131.798L518.479 -132.634C519.792 -132.958 521.122 -133.213 522.451 -133.435L522.588 -132.583ZM520.133 111.184L519.962 112.02C518.65 111.747 517.32 111.406 516.041 111.031L516.28 110.212C517.542 110.588 518.837 110.911 520.133 111.184ZM514.865 -130.69C513.604 -130.281 512.359 -129.804 511.132 -129.292L510.791 -130.076C512.035 -130.605 513.314 -131.082 514.575 -131.509L514.848 -130.69L514.865 -130.69ZM512.513 108.917L512.206 109.718C510.944 109.224 509.7 108.695 508.49 108.098L508.865 107.331C510.058 107.911 511.285 108.439 512.513 108.917ZM507.535 -127.604C506.359 -126.991 505.199 -126.326 504.074 -125.627L503.614 -126.36C504.756 -127.076 505.932 -127.758 507.126 -128.372L507.518 -127.604L507.535 -127.604ZM505.353 105.473L504.927 106.206C503.767 105.524 502.625 104.791 501.517 104.024L502.012 103.325C503.086 104.075 504.228 104.808 505.353 105.473ZM500.801 -123.376C499.744 -122.592 498.704 -121.739 497.716 -120.87L497.153 -121.518C498.159 -122.404 499.216 -123.257 500.307 -124.058L500.818 -123.376L500.801 -123.376ZM498.841 100.904L498.295 101.569C497.255 100.716 496.249 99.8126 495.278 98.8749L495.874 98.2611C496.829 99.1817 497.818 100.068 498.841 100.921L498.841 100.904ZM494.818 -118.125C493.897 -117.17 493.011 -116.181 492.158 -115.159L491.493 -115.704C492.346 -116.744 493.266 -117.75 494.204 -118.722L494.818 -118.125ZM493.13 95.3628L492.482 95.9254C491.596 94.9195 490.743 93.8624 489.925 92.7884L490.607 92.2769C491.391 93.3339 492.243 94.3739 493.113 95.3628L493.13 95.3628ZM489.754 -112.004C489.004 -110.93 488.271 -109.805 487.606 -108.663L486.873 -109.089C487.555 -110.248 488.288 -111.391 489.056 -112.499L489.754 -112.004ZM488.374 89.0035L487.641 89.4638C486.925 88.3215 486.243 87.1451 485.629 85.9517L486.396 85.5596C487.01 86.736 487.675 87.8953 488.374 89.0205L488.374 89.0035ZM485.731 -105.151C485.152 -103.957 484.623 -102.73 484.146 -101.502L483.345 -101.809C483.822 -103.054 484.367 -104.315 484.964 -105.526L485.731 -105.151ZM484.691 81.9452L483.907 82.2862C483.379 81.0416 482.901 79.7629 482.475 78.5013L483.293 78.2285C483.703 79.4901 484.18 80.7347 484.691 81.9622L484.691 81.9452ZM482.85 -97.7344C482.475 -96.4728 482.151 -95.1771 481.862 -93.8813L481.026 -94.0518C481.299 -95.3646 481.64 -96.6944 482.032 -97.9731L482.85 -97.7344ZM482.202 74.3925L481.367 74.597C481.043 73.2843 480.787 71.9544 480.566 70.6246L481.418 70.4883C481.623 71.801 481.896 73.0967 482.202 74.3925ZM481.197 -89.9601C481.026 -88.6473 480.907 -87.3175 480.839 -86.0047L479.986 -86.0388C480.054 -87.3857 480.174 -88.7325 480.344 -90.0624L481.197 -89.9601ZM480.941 66.5329L480.089 66.6011C479.986 65.2883 479.935 63.9414 479.935 62.6116L479.935 62.5604L480.788 62.5604L480.788 62.6116C480.788 63.9244 480.839 65.2371 480.941 66.5329ZM480.788 -81.9982L480.788 -77.9746L479.935 -77.9746L479.935 -81.9982L480.788 -81.9982ZM480.788 -73.9681L480.788 -69.9445L479.935 -69.9445L479.935 -73.9681L480.788 -73.9681ZM480.788 -65.938L480.788 -61.9144L479.935 -61.9144L479.935 -65.938L480.788 -65.938ZM480.788 -57.9079L480.788 -53.8843L479.935 -53.8843L479.935 -57.9079L480.788 -57.9079ZM480.788 -49.8778L480.788 -45.8543L479.935 -45.8543L479.935 -49.8778L480.788 -49.8778ZM480.788 -41.8477L480.788 -37.8242L479.935 -37.8242L479.935 -41.8477L480.788 -41.8477ZM480.788 -33.8177L480.788 -29.7941L479.935 -29.7941L479.935 -33.8177L480.788 -33.8177ZM480.788 -25.7876L480.788 -21.764L479.935 -21.764L479.935 -25.7876L480.788 -25.7876ZM480.788 -17.7575L480.788 -13.7339L479.935 -13.7339L479.935 -17.7575L480.788 -17.7575ZM480.788 -9.72739L480.788 -5.70382L479.935 -5.70382L479.935 -9.72739L480.788 -9.72739ZM480.788 -1.68025L480.788 2.34331L479.935 2.34331L479.935 -1.68025L480.788 -1.68025ZM480.788 6.34981L480.788 10.3734L479.935 10.3734L479.935 6.34981L480.788 6.34981ZM480.788 14.3799L480.788 18.4035L479.935 18.4035L479.935 14.3799L480.788 14.3799ZM480.788 22.41L480.788 26.4336L479.935 26.4336L479.935 22.41L480.788 22.41ZM480.788 30.4401L480.788 34.4637L479.935 34.4637L479.935 30.4401L480.788 30.4401ZM480.788 38.4702L480.788 42.4937L479.935 42.4937L479.935 38.4702L480.788 38.4702ZM480.788 46.5003L480.788 50.5238L479.935 50.5238L479.935 46.5173L480.788 46.5173L480.788 46.5003ZM480.788 54.5304L480.788 58.5539L479.935 58.5539L479.935 54.5304L480.788 54.5304Z" fill="white"/>
<path d="M950.563 454.773L950.563 458.763L949.71 458.763L949.71 454.773L950.563 454.773ZM950.563 462.769L950.563 466.759L949.71 466.759L949.71 462.769L950.563 462.769ZM950.563 470.748L950.563 474.738L949.71 474.738L949.71 470.748L950.563 470.748ZM950.563 478.727L950.563 482.716L949.71 482.716L949.71 478.727L950.563 478.727ZM950.563 486.706L950.563 490.695L949.71 490.695L949.71 486.706L950.563 486.706ZM950.563 494.685L950.563 498.674L949.71 498.674L949.71 494.685L950.563 494.685ZM950.563 502.681L950.563 506.67L949.71 506.67L949.71 502.681L950.563 502.681ZM950.563 510.66L950.563 514.649L949.71 514.649L949.71 510.66L950.563 510.66ZM950.563 518.639L950.563 522.628L949.71 522.628L949.71 518.639L950.563 518.639ZM950.563 526.618L950.563 530.607L949.71 530.607L949.71 526.618L950.563 526.618ZM950.563 534.597L950.563 538.586L949.71 538.586L949.71 534.597L950.563 534.597ZM950.563 542.576L950.563 546.565L949.71 546.565L949.71 542.576L950.563 542.576ZM950.563 550.572L950.563 554.561L949.71 554.561L949.71 550.572L950.563 550.572ZM950.563 558.551L950.563 562.54L949.71 562.54L949.71 558.551L950.563 558.551ZM950.546 566.546C950.511 567.893 950.409 569.24 950.256 570.57L949.403 570.468C949.574 569.172 949.659 567.842 949.693 566.529L950.546 566.529L950.546 566.546ZM950.511 450.767L949.659 450.818C949.591 449.505 949.454 448.192 949.267 446.896L950.119 446.76C950.324 448.09 950.46 449.437 950.528 450.767L950.511 450.767ZM949.54 574.525C949.233 575.838 948.858 577.134 948.415 578.396L947.596 578.123C948.022 576.878 948.398 575.617 948.687 574.338L949.523 574.525L949.54 574.525ZM949.284 442.805L948.449 443.026C948.125 441.765 947.716 440.486 947.255 439.276L948.057 438.969C948.534 440.23 948.943 441.509 949.284 442.805ZM946.914 582.146C946.352 583.357 945.704 584.55 945.022 585.71L944.289 585.266C944.971 584.141 945.585 582.965 946.13 581.788L946.914 582.146ZM946.437 435.269L945.67 435.661C945.09 434.485 944.426 433.343 943.727 432.234L944.443 431.774C945.159 432.899 945.84 434.093 946.437 435.286L946.437 435.269ZM942.772 589.051C941.971 590.125 941.101 591.165 940.198 592.154L939.567 591.574C940.453 590.62 941.306 589.597 942.09 588.54L942.772 589.051ZM942.107 428.484L941.442 429.012C940.624 427.989 939.755 426.983 938.834 426.046L939.448 425.449C940.385 426.404 941.272 427.426 942.107 428.484ZM937.3 594.967C936.294 595.854 935.237 596.689 934.146 597.473L933.652 596.774C934.726 596.007 935.765 595.189 936.737 594.319L937.3 594.967ZM936.481 422.721L935.936 423.386C934.93 422.55 933.873 421.749 932.782 421.016L933.259 420.3C934.368 421.05 935.459 421.869 936.481 422.721ZM930.753 599.639C929.594 600.304 928.384 600.917 927.156 601.446L926.816 600.662C928.009 600.133 929.202 599.536 930.344 598.888L930.771 599.639L930.753 599.639ZM929.799 418.22L929.39 418.97C928.23 418.356 927.037 417.794 925.81 417.299L926.134 416.498C927.378 416.992 928.606 417.572 929.782 418.203L929.799 418.22ZM923.372 602.878C922.093 603.287 920.781 603.628 919.468 603.901L919.298 603.066C920.576 602.793 921.872 602.469 923.116 602.06L923.372 602.878ZM922.332 415.202L922.093 416.021C920.832 415.663 919.536 415.356 918.258 415.117L918.411 414.282C919.724 414.52 921.054 414.827 922.332 415.202ZM915.496 604.515C914.166 604.651 912.82 604.719 911.473 604.719L911.388 604.719L911.388 603.867L911.473 603.867C912.786 603.867 914.115 603.799 915.411 603.662L915.496 604.515ZM914.405 413.77L914.337 414.623C913.382 414.555 912.41 414.52 911.456 414.52L910.382 414.52L910.382 413.668L911.456 413.668C912.445 413.668 913.433 413.702 914.405 413.77ZM907.382 603.867L907.382 604.719L903.392 604.719L903.392 603.867L907.382 603.867ZM906.393 413.668L906.393 414.52L902.404 414.52L902.404 413.668L906.393 413.668ZM899.403 603.867L899.403 604.719L895.414 604.719L895.414 603.867L899.403 603.867ZM898.415 413.668L898.415 414.52L894.425 414.52L894.425 413.668L898.415 413.668ZM891.425 603.867L891.425 604.719L887.436 604.719L887.436 603.867L891.425 603.867ZM890.436 413.668L890.436 414.52L886.447 414.52L886.447 413.668L890.436 413.668ZM883.447 603.867L883.447 604.719L879.458 604.719L879.458 603.867L883.447 603.867ZM882.458 413.668L882.458 414.52L878.469 414.52L878.469 413.668L882.458 413.668ZM875.469 603.867L875.469 604.719L871.48 604.719L871.48 603.867L875.469 603.867ZM874.48 413.668L874.48 414.52L870.491 414.52L870.491 413.668L874.48 413.668ZM867.491 603.867L867.491 604.719L863.502 604.719L863.502 603.867L867.491 603.867ZM866.502 413.668L866.502 414.52L862.513 414.52L862.513 413.668L866.502 413.668ZM859.495 603.867L859.495 604.719L855.506 604.719L855.506 603.867L859.495 603.867ZM858.507 413.668L858.507 414.52L854.518 414.52L854.518 413.668L858.507 413.668ZM851.517 603.867L851.517 604.719L847.528 604.719L847.528 603.867L851.517 603.867ZM850.528 413.668L850.528 414.52L846.539 414.52L846.539 413.668L850.528 413.668ZM843.539 603.867L843.539 604.719L839.55 604.719L839.55 603.867L843.539 603.867ZM842.55 413.668L842.55 414.52L838.561 414.52L838.561 413.668L842.55 413.668ZM835.561 603.867L835.561 604.719L831.572 604.719L831.572 603.867L835.561 603.867ZM834.572 413.668L834.572 414.52L830.583 414.52L830.583 413.668L834.572 413.668ZM827.583 603.867L827.583 604.719L823.594 604.719L823.594 603.867L827.583 603.867ZM826.594 413.668L826.594 414.52L822.605 414.52L822.605 413.668L826.594 413.668ZM819.587 603.867L819.587 604.719L815.598 604.719L815.598 603.867L819.587 603.867ZM818.599 413.668L818.599 414.52L814.61 414.52L814.61 413.668L818.599 413.668ZM811.609 603.867L811.609 604.719L807.62 604.719L807.62 603.867L811.609 603.867ZM810.621 413.668L810.621 414.52L806.631 414.52L806.631 413.668L810.621 413.668ZM803.631 603.867L803.631 604.719L799.642 604.719L799.642 603.867L803.631 603.867ZM802.642 413.668L802.642 414.52L798.653 414.52L798.653 413.668L802.642 413.668ZM795.687 603.765L795.619 604.617C794.289 604.515 792.942 604.344 791.613 604.105L791.766 603.27C793.045 603.509 794.374 603.662 795.67 603.765L795.687 603.765ZM794.715 414.725C793.403 414.861 792.107 415.066 790.811 415.322L790.641 414.486C791.954 414.213 793.3 414.009 794.63 413.873L794.715 414.725ZM787.93 602.366L787.692 603.185C786.413 602.81 785.118 602.366 783.89 601.855L784.214 601.054C785.424 601.548 786.686 601.991 787.93 602.349L787.93 602.366ZM787.01 416.311C785.765 416.703 784.521 417.18 783.311 417.709L782.97 416.924C784.197 416.396 785.476 415.901 786.737 415.509L786.993 416.328L787.01 416.311ZM780.634 599.383L780.225 600.133C779.049 599.502 777.89 598.803 776.764 598.053L777.242 597.337C778.333 598.07 779.458 598.752 780.617 599.366L780.634 599.383ZM779.782 419.465C778.64 420.112 777.532 420.829 776.458 421.579L775.963 420.88C777.054 420.095 778.196 419.379 779.373 418.714L779.799 419.465L779.782 419.465ZM774.105 594.984L773.559 595.649C772.537 594.797 771.531 593.876 770.61 592.904L771.224 592.308C772.145 593.245 773.116 594.149 774.122 594.984L774.105 594.984ZM773.372 424.034C772.383 424.903 771.446 425.824 770.542 426.796L769.911 426.216C770.815 425.227 771.787 424.289 772.792 423.403L773.355 424.051L773.372 424.034ZM768.616 589.341L767.951 589.87C767.116 588.812 766.331 587.704 765.615 586.579L766.331 586.119C767.03 587.227 767.797 588.301 768.616 589.341ZM768.019 429.83C767.235 430.87 766.485 431.979 765.82 433.104L765.087 432.661C765.769 431.518 766.536 430.393 767.337 429.319L768.019 429.83ZM764.388 582.692L763.621 583.067C763.024 581.874 762.479 580.629 762.001 579.367L762.803 579.06C763.263 580.288 763.791 581.498 764.388 582.675L764.388 582.692ZM763.962 436.582C763.399 437.775 762.905 439.003 762.479 440.23L761.677 439.958C762.121 438.696 762.632 437.434 763.195 436.224L763.979 436.582L763.962 436.582ZM761.609 575.327L760.774 575.548C760.433 574.253 760.16 572.923 759.956 571.593L760.808 571.457C761.013 572.752 761.268 574.048 761.609 575.327ZM761.371 444.015C761.064 445.294 760.842 446.59 760.672 447.902L759.819 447.8C759.99 446.47 760.228 445.14 760.535 443.828L761.371 444.015ZM760.416 567.535L759.564 567.569C759.529 566.922 759.512 566.274 759.512 565.626L759.512 563.563L760.365 563.563L760.365 565.626C760.365 566.257 760.365 566.905 760.416 567.535ZM760.382 451.824C760.382 452.131 760.382 452.437 760.382 452.761L760.382 455.813L759.529 455.813L759.529 452.761C759.529 452.437 759.529 452.131 759.529 451.807L760.382 451.807L760.382 451.824ZM760.365 459.803L760.365 463.792L759.512 463.792L759.512 459.803L760.365 459.803ZM760.365 467.782L760.365 471.771L759.512 471.771L759.512 467.782L760.365 467.782ZM760.365 475.76L760.365 479.75L759.512 479.75L759.512 475.76L760.365 475.76ZM760.365 483.739L760.365 487.729L759.512 487.729L759.512 483.739L760.365 483.739ZM760.365 491.735L760.365 495.725L759.512 495.725L759.512 491.735L760.365 491.735ZM760.365 499.714L760.365 503.704L759.512 503.704L759.512 499.714L760.365 499.714ZM760.365 507.693L760.365 511.683L759.512 511.683L759.512 507.693L760.365 507.693ZM760.365 515.672L760.365 519.662L759.512 519.662L759.512 515.672L760.365 515.672ZM760.365 523.651L760.365 527.641L759.512 527.641L759.512 523.651L760.365 523.651ZM760.365 531.647L760.365 535.637L759.512 535.637L759.512 531.647L760.365 531.647ZM760.365 539.626L760.365 543.616L759.512 543.616L759.512 539.626L760.365 539.626ZM760.365 547.605L760.365 551.595L759.512 551.595L759.512 547.605L760.365 547.605ZM760.365 555.584L760.365 559.573L759.512 559.573L759.512 555.584L760.365 555.584Z" fill="white"/>
<path d="M172.23 234.5L390.317 234.5C406.853 234.5 420.32 247.952 420.32 264.506L420.32 353.332C420.32 370.347 434.163 384.19 451.176 384.19L474.702 384.19L539.976 384.19L563.502 384.19C580.037 384.19 593.505 397.659 593.505 414.197L593.505 503.022C593.505 519.56 580.055 533.028 563.502 533.028L511.643 533.028L511.643 533.881L563.502 533.881C580.515 533.881 594.357 520.037 594.357 503.022L594.357 414.197C594.357 397.182 580.515 383.338 563.502 383.338L539.976 383.338L474.702 383.338L451.176 383.338C434.64 383.338 421.173 369.886 421.173 353.332L421.173 264.506C421.173 247.491 407.33 233.647 390.317 233.647L172.23 233.647L172.23 234.5Z" fill="white"/>
<path d="M104.194 151.778L104.194 306.021C104.194 323.036 118.036 336.879 135.049 336.879L158.575 336.879L223.849 336.879L247.375 336.879C263.911 336.879 277.378 350.331 277.378 366.886L277.378 455.711C277.378 472.726 291.221 486.57 308.234 486.57L475.537 486.57L475.537 485.717L308.234 485.717C291.698 485.717 278.23 472.266 278.23 455.711L278.23 366.886C278.23 349.871 264.388 336.027 247.375 336.027L223.849 336.027L158.575 336.027L135.049 336.027C118.513 336.027 105.046 322.575 105.046 306.021L105.046 151.778C105.046 135.241 118.496 121.772 135.049 121.772L186.908 121.772L186.908 120.919L135.049 120.919C118.036 120.919 104.194 134.763 104.194 151.778Z" fill="white"/>
<path d="M422.775 -189.765L422.775 -100.939C422.775 -83.9245 436.618 -70.0807 453.631 -70.0807L542.448 -70.0807C558.984 -70.0807 572.451 -56.629 572.451 -40.0744L572.451 48.7509C572.451 65.2885 559.001 78.7572 542.448 78.7572L490.59 78.7572C473.577 78.7572 459.734 92.601 459.734 109.616L459.734 198.441C459.734 215.456 473.577 229.3 490.59 229.3L565.547 229.3L565.547 229.334L602.506 229.334C619.042 229.334 632.509 242.786 632.509 259.34L632.509 609.186L633.362 609.186L633.362 259.34C633.362 242.326 619.519 228.482 602.506 228.482L579.407 228.482L579.407 228.448L490.59 228.448C474.054 228.448 460.586 214.996 460.586 198.441L460.586 109.616C460.586 93.0784 474.037 79.6096 490.59 79.6096L542.448 79.6096C559.461 79.6096 573.304 65.7659 573.304 48.7509L573.304 -40.0744C573.304 -57.0894 559.461 -70.9332 542.448 -70.9332L453.631 -70.9332C437.095 -70.9332 423.628 -84.3848 423.628 -100.939L423.628 -189.765C423.628 -206.302 437.078 -219.771 453.631 -219.771L505.489 -219.771L505.489 -220.624L453.631 -220.624C436.618 -220.624 422.775 -206.78 422.775 -189.765Z" fill="white"/>
<path d="M313.672 -215.44L276.713 -215.44L276.713 -214.588L313.672 -214.588C330.208 -214.588 343.675 -201.136 343.675 -184.582L343.675 165.264L344.528 165.264L344.528 -184.582C344.528 -201.597 330.685 -215.44 313.672 -215.44Z" fill="white"/>
<path d="M711.047 492.98L711.047 544.843L711.899 544.843L711.899 492.98C711.899 476.443 725.349 462.974 741.902 462.974L963.229 462.974C979.765 462.974 993.232 476.426 993.232 492.98L993.232 535.023L994.085 535.023L994.085 492.98C994.085 475.965 980.242 462.122 963.229 462.122L741.902 462.122C724.889 462.122 711.047 475.965 711.047 492.98Z" fill="white"/>
<path d="M47.7497 403.831L47.7497 445.874L48.602 445.874L48.602 403.831C48.6021 387.293 62.0525 373.825 78.6055 373.825L299.932 373.825C316.468 373.825 329.935 387.276 329.935 403.831L329.935 576.145L330.788 576.145L330.788 403.831C330.788 386.816 316.945 372.972 299.932 372.972L78.6055 372.972C61.5922 372.972 47.7497 386.816 47.7497 403.831Z" fill="white"/>
<path d="M702.301 288.426L702.301 363.391L702.267 363.391L702.267 400.353C702.267 416.89 688.8 430.359 672.264 430.359L438.868 430.359L438.868 431.212L672.264 431.212C689.277 431.212 703.12 417.368 703.12 400.353L703.12 377.252L703.154 377.252L703.154 288.426C703.154 271.889 716.604 258.42 733.157 258.42L821.974 258.42C838.51 258.42 851.977 271.872 851.977 288.426L851.977 340.289C851.977 357.304 865.82 371.148 882.833 371.148L994.289 371.148L994.289 370.296L882.816 370.296C866.28 370.296 852.813 356.844 852.813 340.289L852.813 288.426C852.813 271.411 838.97 257.567 821.957 257.567L733.14 257.567C716.127 257.567 702.284 271.411 702.284 288.426L702.301 288.426Z" fill="white"/>
<path d="M696.795 149.374L918.002 149.374C918.002 148.999 918.002 148.607 918.002 148.232L696.812 148.232C680.344 148.232 666.945 134.831 666.945 118.379L666.945 -50.3892L665.803 -50.3892L665.803 118.379C665.803 135.479 679.714 149.374 696.812 149.374L696.795 149.374Z" fill="white"/>
<path d="M935.817 336.266L935.817 337.118L933.822 337.118L933.822 336.266L935.817 336.266ZM925.895 336.266L925.895 337.118L929.85 337.118L929.85 336.266L925.895 336.266ZM917.968 336.266L917.968 337.118L921.923 337.118L921.923 336.266L917.968 336.266ZM910.041 336.266L910.041 337.118L913.996 337.118L913.996 336.266L910.041 336.266ZM902.114 336.266L902.114 337.118L906.086 337.118L906.086 336.266L902.114 336.266ZM894.187 336.266L894.187 337.118L898.142 337.118L898.142 336.266L894.187 336.266ZM886.26 336.266L886.26 337.118L890.215 337.118L890.215 336.266L886.26 336.266ZM878.333 336.266L878.333 337.118L882.288 337.118L882.288 336.266L878.333 336.266ZM870.406 336.266L870.406 337.118L874.361 337.118L874.361 336.266L870.406 336.266ZM862.479 336.266L862.479 337.118L866.451 337.118L866.451 336.266L862.479 336.266ZM854.569 336.266L854.569 337.118L858.524 337.118L858.524 336.266L854.569 336.266ZM846.642 336.266L846.642 337.118L850.597 337.118L850.597 336.266L846.642 336.266ZM838.715 336.266L838.715 337.118L842.687 337.118L842.687 336.266L838.732 336.266L838.715 336.266ZM830.788 336.266L830.788 337.118L834.743 337.118L834.743 336.266L830.788 336.266ZM822.861 336.266L822.861 337.118L826.816 337.118L826.816 336.266L822.861 336.266ZM814.933 336.266L814.933 337.118L818.888 337.118L818.888 336.266L814.933 336.266ZM807.006 336.266L807.006 337.118L810.961 337.118L810.961 336.266L807.006 336.266ZM799.079 336.266L799.079 337.118L803.034 337.118L803.034 336.266L799.079 336.266ZM791.152 336.266L791.152 337.118L795.107 337.118L795.107 336.266L791.152 336.266ZM783.225 336.266L783.225 337.118L787.18 337.118L787.18 336.266L783.225 336.266ZM775.298 336.266L775.298 337.118L779.253 337.118L779.253 336.266L775.298 336.266ZM767.371 336.266L767.371 337.118L771.326 337.118L771.326 336.266L767.371 336.266ZM759.444 336.266L759.444 337.118L763.399 337.118L763.399 336.266L759.444 336.266ZM751.517 336.266L751.517 337.118L755.472 337.118L755.472 336.266L751.517 336.266ZM743.59 336.266L743.59 337.118L747.545 337.118L747.545 336.266L743.59 336.266ZM735.663 336.266L735.663 337.118L739.618 337.118L739.618 336.266L735.663 336.266ZM727.736 336.266L727.736 337.118L731.691 337.118L731.691 336.266L727.736 336.266ZM719.809 336.266L719.809 337.118L723.764 337.118L723.764 336.266L719.809 336.266ZM711.882 336.266L711.882 337.118L715.837 337.118L715.837 336.266L711.882 336.266ZM703.955 336.266L703.955 337.118L707.91 337.118L707.91 336.266L703.955 336.266ZM699.966 336.368C698.636 336.47 697.289 336.675 695.994 336.965L696.181 337.8C697.443 337.527 698.738 337.34 700.034 337.22L699.966 336.368ZM692.141 338.073C690.88 338.533 689.652 339.079 688.459 339.692L688.851 340.46C690.01 339.863 691.204 339.317 692.414 338.874L692.124 338.073L692.141 338.073ZM685.032 341.79C683.941 342.557 682.901 343.409 681.913 344.313L682.492 344.944C683.447 344.057 684.47 343.239 685.527 342.489L685.032 341.79ZM679.151 347.245C678.299 348.268 677.514 349.376 676.798 350.502L677.531 350.962C678.213 349.871 678.98 348.797 679.816 347.791L679.151 347.245ZM674.906 354.031C674.361 355.241 673.883 356.52 673.491 357.799L674.31 358.037C674.685 356.793 675.145 355.565 675.673 354.389L674.889 354.031L674.906 354.031ZM672.605 361.72C672.4 363.033 672.281 364.379 672.247 365.726L673.099 365.726C673.133 364.448 673.253 363.135 673.457 361.856L672.605 361.72ZM672.23 369.682L672.23 373.637L673.082 373.637L673.082 369.682L672.23 369.682ZM672.23 377.609L672.23 381.565L673.082 381.565L673.082 377.609L672.23 377.609ZM672.23 385.537L672.23 389.493L673.082 389.493L673.082 385.537L672.23 385.537ZM672.23 393.465L672.23 397.42L673.082 397.42L673.082 393.465L672.23 393.465ZM672.23 401.41L672.23 402.978L672.196 402.978L672.196 405.399L673.048 405.399L673.048 403.831L673.082 403.831L673.082 401.41L672.23 401.41ZM672.196 409.406L672.196 413.395L673.048 413.395L673.048 409.406L672.196 409.406ZM672.196 417.402L672.196 421.391L673.048 421.391L673.048 417.402L672.196 417.402ZM672.196 425.381L672.196 429.37L673.048 429.37L673.048 425.381L672.196 425.381ZM672.196 433.377L672.196 437.366L673.048 437.366L673.048 433.377L672.196 433.377ZM672.196 441.356L672.196 445.345L673.048 445.345L673.048 441.356L672.196 441.356ZM672.196 449.352L672.196 453.341L673.048 453.341L673.048 449.352L672.196 449.352ZM672.196 457.331L672.196 461.32L673.048 461.32L673.048 457.331L672.196 457.331ZM672.196 465.327L672.196 469.316L673.048 469.316L673.048 465.327L672.196 465.327ZM672.196 473.323L672.196 477.312L673.048 477.312L673.048 473.323L672.196 473.323ZM672.059 481.25C671.94 482.546 671.735 483.859 671.446 485.138L672.281 485.325C672.571 484.012 672.792 482.666 672.912 481.336L672.059 481.25ZM670.337 488.923C669.894 490.15 669.349 491.361 668.752 492.52L669.519 492.912C670.15 491.719 670.695 490.474 671.156 489.212L670.355 488.923L670.337 488.923ZM666.689 495.896C665.939 496.97 665.121 498.01 664.235 498.981L664.865 499.561C665.769 498.555 666.621 497.498 667.388 496.39L666.689 495.896ZM661.422 501.709C660.433 502.562 659.359 503.346 658.268 504.062L658.745 504.778C659.87 504.045 660.961 503.227 661.984 502.357L661.422 501.709ZM654.841 506.006C653.665 506.568 652.438 507.08 651.193 507.489L651.466 508.307C652.745 507.881 654.006 507.37 655.216 506.79L654.841 506.023L654.841 506.006ZM647.392 508.478C646.113 508.734 644.8 508.904 643.488 508.972L643.539 509.825C644.886 509.739 646.232 509.569 647.545 509.313L647.375 508.478L647.392 508.478ZM635.527 509.057L635.527 509.91L639.516 509.91L639.516 509.057L635.527 509.057ZM627.549 509.057L627.549 509.91L631.538 509.91L631.538 509.057L627.549 509.057ZM619.553 509.057L619.553 509.91L623.542 509.91L623.542 509.057L619.553 509.057ZM611.575 509.057L611.575 509.91L615.564 509.91L615.564 509.057L611.575 509.057ZM603.58 509.057L603.58 509.91L607.569 509.91L607.569 509.057L603.58 509.057ZM595.602 509.057L595.602 509.91L599.591 509.91L599.591 509.057L595.602 509.057ZM587.606 509.057L587.606 509.91L591.596 509.91L591.596 509.057L587.606 509.057ZM579.611 509.057L579.611 509.91L583.6 509.91L583.6 509.057L579.611 509.057ZM571.633 509.057L571.633 509.91L575.622 509.91L575.622 509.057L571.633 509.057ZM563.638 509.057L563.638 509.91L567.627 509.91L567.627 509.057L563.638 509.057ZM555.66 509.057L555.66 509.91L559.649 509.91L559.649 509.057L555.66 509.057ZM547.767 508.648L547.63 509.501C548.96 509.722 550.307 509.842 551.654 509.893L551.688 509.04C550.375 508.989 549.062 508.87 547.767 508.665L547.767 508.648ZM540.232 506.398L539.874 507.182C541.101 507.728 542.38 508.205 543.675 508.597L543.914 507.779C542.652 507.404 541.425 506.943 540.232 506.415L540.232 506.398ZM533.532 502.289L532.987 502.954C534.044 503.789 535.152 504.574 536.294 505.29L536.737 504.557C535.629 503.875 534.538 503.107 533.515 502.289L533.532 502.289ZM528.077 496.629L527.395 497.14C528.196 498.214 529.083 499.254 530.003 500.226L530.617 499.629C529.714 498.692 528.861 497.669 528.077 496.629ZM524.241 489.792L523.44 490.116C523.935 491.361 524.531 492.588 525.196 493.764L525.946 493.338C525.298 492.196 524.736 491.003 524.241 489.792ZM522.281 482.188L521.428 482.29C521.599 483.62 521.855 484.967 522.179 486.263L523.014 486.041C522.69 484.78 522.434 483.484 522.281 482.171L522.281 482.188ZM522.042 426.319L521.19 426.319L521.19 430.308L522.042 430.308L522.042 426.319ZM521.19 434.315L521.19 438.304L522.042 438.304L522.042 434.315L521.19 434.315ZM521.19 442.311L521.19 446.3L522.042 446.3L522.042 442.311L521.19 442.311ZM521.19 450.289L521.19 454.279L522.042 454.279L522.042 450.289L521.19 450.289ZM521.19 458.285L521.19 462.275L522.042 462.275L522.042 458.285L521.19 458.285ZM521.19 466.264L521.19 470.254L522.042 470.254L522.042 466.264L521.19 466.264ZM521.19 474.26L521.19 478.25L522.042 478.25L522.042 474.26L521.19 474.26ZM520.917 418.323L520.099 418.561C520.457 419.823 520.73 421.119 520.9 422.414L521.752 422.295C521.565 420.965 521.292 419.635 520.917 418.34L520.917 418.323ZM517.695 410.906L516.962 411.349C517.644 412.475 518.258 413.651 518.769 414.845L519.553 414.504C519.025 413.276 518.394 412.066 517.695 410.906ZM512.632 404.615L512.035 405.229C512.99 406.133 513.877 407.104 514.695 408.127L515.36 407.582C514.507 406.542 513.587 405.536 512.615 404.598L512.632 404.615ZM506.086 399.893L505.677 400.643C506.819 401.256 507.944 401.955 509.001 402.723L509.495 402.024C508.404 401.239 507.245 400.506 506.069 399.875L506.086 399.893ZM498.517 397.062L498.329 397.898C499.608 398.188 500.869 398.563 502.097 399.023L502.404 398.222C501.142 397.744 499.829 397.352 498.517 397.062ZM491.851 396.312L490.487 396.312L490.487 397.165L491.851 397.165C492.721 397.165 493.59 397.199 494.443 397.284L494.511 396.432C493.624 396.346 492.738 396.312 491.834 396.312L491.851 396.312ZM482.509 396.312L482.509 397.165L486.498 397.165L486.498 396.312L482.509 396.312ZM474.514 396.312L474.514 397.165L478.503 397.165L478.503 396.312L474.514 396.312ZM466.536 396.312L466.536 397.165L470.525 397.165L470.525 396.312L466.536 396.312ZM458.541 396.312L458.541 397.165L462.53 397.165L462.53 396.312L458.541 396.312ZM450.563 396.312L450.563 397.165L454.552 397.165L454.552 396.312L450.563 396.312ZM442.567 396.312L442.567 397.165L446.556 397.165L446.556 396.312L442.567 396.312ZM434.589 396.312L434.589 397.165L438.578 397.165L438.578 396.312L434.589 396.312ZM426.594 396.312L426.594 397.165L430.583 397.165L430.583 396.312L426.594 396.312ZM418.599 396.312L418.599 397.165L422.588 397.165L422.588 396.312L418.599 396.312ZM410.62 396.312L410.62 397.165L414.609 397.165L414.609 396.312L410.62 396.312ZM403.051 396.312C402.915 396.312 402.779 396.312 402.625 396.312L402.625 397.165C402.779 397.165 402.915 397.165 403.051 397.165L406.631 397.165L406.631 396.312L403.051 396.312ZM398.585 396.653C397.255 396.858 395.926 397.148 394.63 397.523L394.869 398.341C396.13 397.983 397.409 397.693 398.704 397.506L398.585 396.653ZM390.828 398.904C389.601 399.449 388.391 400.08 387.248 400.796L387.692 401.529C388.8 400.847 389.976 400.216 391.169 399.688L390.828 398.904ZM383.958 403.132C382.918 403.984 381.93 404.922 381.009 405.894L381.64 406.474C382.526 405.519 383.498 404.615 384.504 403.78L383.958 403.115L383.958 403.132ZM378.435 409.031C377.651 410.122 376.935 411.281 376.321 412.475L377.071 412.867C377.685 411.708 378.367 410.582 379.134 409.525L378.435 409.031ZM374.685 416.174C374.224 417.436 373.849 418.749 373.559 420.062L374.395 420.249C374.667 418.97 375.043 417.709 375.486 416.464L374.685 416.174ZM372.963 424.068C372.895 424.869 372.86 425.688 372.86 426.506L372.86 428.092L373.713 428.092L373.713 426.506C373.713 425.722 373.747 424.921 373.815 424.136L372.963 424.068ZM372.86 432.098L372.86 436.088L373.713 436.088L373.713 432.098L372.86 432.098ZM372.86 440.077L372.86 444.067L373.713 444.067L373.713 440.077L372.86 440.077ZM372.86 448.073L372.86 452.063L373.713 452.063L373.713 448.073L372.86 448.073ZM372.86 456.052L372.86 460.041L373.713 460.041L373.713 456.052L372.86 456.052ZM372.86 464.048L372.86 468.037L373.713 468.037L373.713 464.048L372.86 464.048ZM372.86 472.044L372.86 476.033L373.713 476.033L373.713 472.044L372.86 472.044ZM372.86 480.023L372.86 484.012L373.713 484.012L373.713 480.023L372.86 480.023ZM372.86 488.019L372.86 492.008L373.713 492.008L373.713 488.019L372.86 488.019ZM372.86 495.998L372.86 499.987L373.713 499.987L373.713 495.998L372.86 495.998ZM372.86 503.994L372.86 507.983L373.713 507.983L373.713 503.994L372.86 503.994ZM372.86 511.973L372.86 515.314C372.86 515.519 372.86 515.741 372.86 515.945L373.713 515.945C373.713 515.741 373.713 515.536 373.713 515.314L373.713 511.973L372.86 511.973ZM372.52 519.884C372.332 521.179 372.042 522.475 371.684 523.737L372.502 523.975C372.878 522.68 373.167 521.35 373.355 520.02L372.502 519.901L372.52 519.884ZM370.372 527.436C369.86 528.63 369.246 529.823 368.582 530.948L369.315 531.392C369.997 530.232 370.627 529.022 371.156 527.794L370.372 527.453L370.372 527.436ZM366.348 534.205C365.547 535.228 364.661 536.217 363.723 537.137L364.32 537.751C365.274 536.796 366.178 535.79 367.013 534.733L366.331 534.205L366.348 534.205ZM360.774 539.712C359.734 540.513 358.626 541.246 357.501 541.894L357.927 542.644C359.086 541.979 360.228 541.212 361.285 540.394L360.757 539.712L360.774 539.712ZM353.972 543.65C352.762 544.161 351.517 544.588 350.256 544.929L350.477 545.747C351.773 545.389 353.068 544.946 354.296 544.434L353.972 543.65ZM346.386 545.713C345.09 545.883 343.778 545.986 342.465 546.003L342.465 546.855C343.829 546.855 345.176 546.736 346.505 546.565L346.386 545.713ZM334.487 546.003L334.487 546.855L338.476 546.855L338.476 546.003L334.487 546.003ZM326.492 546.003L326.492 546.855L330.481 546.855L330.481 546.003L326.492 546.003ZM318.513 546.003L318.513 546.855L322.502 546.855L322.502 546.003L318.513 546.003ZM310.518 546.003L310.518 546.855L314.507 546.855L314.507 546.003L310.518 546.003ZM302.54 546.003L302.54 546.855L306.529 546.855L306.529 546.003L302.54 546.003ZM294.545 546.003L294.545 546.855L298.534 546.855L298.534 546.003L294.545 546.003ZM286.567 546.003L286.567 546.855L290.556 546.855L290.556 546.003L286.567 546.003ZM278.571 546.003L278.571 546.855L282.56 546.855L282.56 546.003L278.571 546.003ZM270.576 546.003L270.576 546.855L274.565 546.855L274.565 546.003L270.576 546.003ZM262.598 546.003L262.598 546.855L266.587 546.855L266.587 546.003L262.598 546.003ZM254.603 546.003L254.603 546.855L258.592 546.855L258.592 546.003L254.603 546.003ZM246.761 545.287L246.573 546.122C247.886 546.412 249.233 546.616 250.58 546.736L250.648 545.883C249.335 545.764 248.039 545.559 246.761 545.287ZM239.379 542.627L238.987 543.394C240.181 544.008 241.442 544.553 242.704 545.014L242.993 544.212C241.766 543.769 240.556 543.241 239.379 542.644L239.379 542.627ZM232.901 538.16L232.322 538.791C233.328 539.695 234.385 540.53 235.493 541.297L235.987 540.598C234.913 539.848 233.873 539.03 232.901 538.16ZM227.77 532.21L227.054 532.687C227.787 533.813 228.622 534.887 229.492 535.91L230.14 535.347C229.287 534.358 228.486 533.301 227.77 532.21ZM224.31 525.169L223.491 525.442C223.917 526.72 224.446 527.965 225.043 529.175L225.81 528.8C225.23 527.624 224.736 526.396 224.31 525.169ZM222.775 517.463L221.923 517.514C222.008 518.861 222.196 520.207 222.451 521.52L223.287 521.35C223.031 520.071 222.86 518.758 222.758 517.446L222.775 517.463ZM221.838 469.555L221.838 473.544L222.69 473.544L222.69 469.555L221.838 469.555ZM221.838 477.551L221.838 481.54L222.69 481.54L222.69 477.551L221.838 477.551ZM221.838 485.53L221.838 489.519L222.69 489.519L222.69 485.53L221.838 485.53ZM221.838 493.526L221.838 497.515L222.69 497.515L222.69 493.526L221.838 493.526ZM221.838 501.522L221.838 505.511L222.69 505.511L222.69 501.522L221.838 501.522ZM221.838 509.501L221.838 513.49L222.69 513.49L222.69 509.501L221.838 509.501ZM221.838 463.468L221.838 465.463L222.69 465.463L222.69 463.468L221.838 463.468Z" fill="white"/>
<path d="M286.55 78.6377L286.55 120.681L285.407 120.681L285.407 78.6377C285.407 62.1684 272.008 48.7849 255.54 48.7849L34.214 48.7848C17.7462 48.7848 4.34705 62.1854 4.34704 78.6377L4.34704 130.501L3.20489 130.501L3.20489 78.6377C3.20489 61.5375 17.1155 47.6426 34.214 47.6426L255.54 47.6426C272.639 47.6426 286.55 61.5546 286.55 78.6377Z" fill="white"/>
<path d="M460.484 306.277L460.484 299.508C460.484 298.228 459.446 297.189 458.166 297.189L451.398 297.189C450.117 297.189 449.079 298.228 449.079 299.508L449.079 306.277C449.079 307.557 450.117 308.595 451.398 308.595L458.166 308.595C459.446 308.595 460.484 307.557 460.484 306.277Z" fill="white"/>
<path d="M110.331 237.467L110.331 230.698C110.331 229.418 109.293 228.379 108.012 228.379L101.244 228.379C99.9639 228.379 98.926 229.418 98.926 230.698L98.926 237.467C98.926 238.747 99.9639 239.785 101.244 239.785L108.012 239.785C109.293 239.785 110.331 238.747 110.331 237.467Z" fill="white"/>
<path d="M578.571 7.71408L578.571 0.945621C578.571 -0.334944 577.533 -1.37305 576.253 -1.37305L569.485 -1.37305C568.205 -1.37305 567.167 -0.334944 567.167 0.94562L567.167 7.71408C567.167 8.99465 568.205 10.0327 569.485 10.0327L576.253 10.0328C577.533 10.0328 578.571 8.99465 578.571 7.71408Z" fill="white"/>
<path d="M638.612 319.557L638.612 312.789C638.612 311.508 637.574 310.47 636.294 310.47L629.526 310.47C628.246 310.47 627.208 311.508 627.208 312.789L627.208 319.557C627.208 320.838 628.246 321.876 629.526 321.876L636.294 321.876C637.574 321.876 638.612 320.838 638.612 319.557Z" fill="white"/>
<path d="M638.612 612.681L638.612 605.913C638.612 604.632 637.574 603.594 636.294 603.594L629.526 603.594C628.246 603.594 627.208 604.632 627.208 605.913L627.208 612.681C627.208 613.962 628.246 615 629.526 615L636.294 615C637.574 615 638.612 613.962 638.612 612.681Z" fill="white"/>
<path d="M481.265 489.519L481.265 482.751C481.265 481.47 480.227 480.432 478.946 480.432L472.179 480.432C470.898 480.432 469.86 481.47 469.86 482.751L469.86 489.519C469.86 490.8 470.898 491.838 472.179 491.838L478.946 491.838C480.227 491.838 481.265 490.8 481.265 489.519Z" fill="white"/>
<path d="M349.795 237.467L349.795 230.698C349.795 229.418 348.757 228.379 347.477 228.379L340.709 228.379C339.429 228.379 338.391 229.418 338.391 230.698L338.391 237.467C338.391 238.747 339.429 239.785 340.709 239.785L347.477 239.785C348.757 239.785 349.795 238.747 349.795 237.467Z" fill="white"/>
<path d="M349.795 48.4611L349.795 41.6927C349.795 40.4121 348.757 39.374 347.477 39.374L340.709 39.374C339.429 39.374 338.391 40.4121 338.391 41.6927L338.391 48.4611C338.391 49.7417 339.429 50.7798 340.709 50.7798L347.477 50.7798C348.757 50.7798 349.795 49.7417 349.795 48.4611Z" fill="white"/>
<path d="M53.8868 449.249L53.8868 442.481C53.8868 441.2 52.8488 440.162 51.5684 440.162L44.8005 440.162C43.5201 440.162 42.4821 441.2 42.4821 442.481L42.4821 449.249C42.4821 450.53 43.5201 451.568 44.8005 451.568L51.5684 451.568C52.8488 451.568 53.8868 450.53 53.8868 449.249Z" fill="white"/>
<path d="M235.271 376.774L235.271 370.006C235.271 368.725 234.233 367.687 232.953 367.687L226.185 367.687C224.904 367.687 223.866 368.725 223.866 370.006L223.866 376.774C223.866 378.055 224.904 379.093 226.185 379.093L232.953 379.093C234.233 379.093 235.271 378.055 235.271 376.774Z" fill="white"/>
<path d="M564.882 434.195L564.882 427.427C564.882 426.146 563.844 425.108 562.564 425.108L555.796 425.108C554.516 425.108 553.478 426.146 553.478 427.427L553.478 434.195C553.478 435.476 554.516 436.514 555.796 436.514L562.564 436.514C563.844 436.514 564.882 435.476 564.882 434.195Z" fill="white"/>
<path d="M636.703 473.067L636.703 468.566C636.703 467.709 636.008 467.015 635.152 467.015L630.651 467.015C629.794 467.015 629.1 467.709 629.1 468.566L629.1 473.067C629.1 473.924 629.794 474.619 630.651 474.619L635.152 474.619C636.008 474.619 636.703 473.924 636.703 473.067Z" fill="white"/>
<path d="M515.598 531.221L515.598 535.739C515.598 536.592 514.899 537.291 514.047 537.291L509.529 537.291C508.677 537.291 507.978 536.592 507.978 535.739L507.978 531.221C507.978 530.369 508.677 529.67 509.529 529.67L514.047 529.67C514.899 529.67 515.598 530.369 515.598 531.221Z" fill="white"/>
<path d="M442.67 433.019L442.67 428.518C442.67 427.661 441.975 426.966 441.118 426.966L436.618 426.966C435.761 426.966 435.066 427.661 435.066 428.518L435.066 433.019C435.066 433.876 435.761 434.57 436.618 434.57L441.118 434.57C441.975 434.57 442.67 433.876 442.67 433.019Z" fill="white"/>
<path d="M482.509 155.495L482.509 150.994C482.509 150.137 481.815 149.443 480.958 149.443L476.458 149.443C475.601 149.443 474.906 150.137 474.906 150.994L474.906 155.495C474.906 156.352 475.601 157.047 476.458 157.047L480.958 157.047C481.815 157.047 482.509 156.352 482.509 155.495Z" fill="white"/>
<path d="M556.086 231.09L556.086 226.59C556.086 225.733 555.391 225.038 554.535 225.038L550.034 225.038C549.177 225.038 548.483 225.733 548.483 226.59L548.483 231.09C548.483 231.947 549.177 232.642 550.034 232.642L554.535 232.642C555.391 232.642 556.086 231.947 556.086 231.09Z" fill="white"/>
<path d="M356.325 483.893L356.325 488.411C356.325 489.264 355.626 489.963 354.773 489.963L350.256 489.963C349.403 489.963 348.704 489.264 348.704 488.411L348.704 483.893C348.704 483.041 349.403 482.342 350.256 482.342L354.773 482.342C355.626 482.342 356.325 483.041 356.325 483.893Z" fill="white"/>
<path d="M706.529 313.914L706.529 318.432C706.529 319.285 705.83 319.984 704.978 319.984L700.46 319.984C699.608 319.984 698.909 319.285 698.909 318.432L698.909 313.914C698.909 313.062 699.608 312.363 700.46 312.363L704.978 312.363C705.83 312.363 706.529 313.062 706.529 313.914Z" fill="white"/>
<path d="M176.031 236.324L176.031 231.823C176.031 230.967 175.337 230.272 174.48 230.272L169.979 230.272C169.123 230.272 168.428 230.967 168.428 231.823L168.428 236.324C168.428 237.181 169.123 237.876 169.979 237.876L174.48 237.876C175.337 237.876 176.031 237.181 176.031 236.324Z" fill="white"/>
<path d="M194.374 334.203L194.374 338.721C194.374 339.573 193.675 340.272 192.823 340.272L188.305 340.272C187.453 340.272 186.754 339.573 186.754 338.721L186.754 334.203C186.754 333.35 187.453 332.651 188.305 332.651L192.823 332.651C193.675 332.651 194.374 333.35 194.374 334.203Z" fill="white"/>
<path d="M347.903 162.997L347.903 167.515C347.903 168.367 347.204 169.066 346.352 169.066L341.834 169.066C340.982 169.066 340.283 168.367 340.283 167.515L340.283 162.997C340.283 162.144 340.982 161.445 341.834 161.445L346.352 161.445C347.204 161.445 347.903 162.144 347.903 162.997Z" fill="white"/>
<path d="M145.84 371.148L145.84 375.666C145.84 376.519 145.141 377.218 144.289 377.218L139.772 377.218C138.919 377.218 138.22 376.519 138.22 375.666L138.22 371.148C138.22 370.296 138.919 369.597 139.772 369.597L144.289 369.597C145.141 369.597 145.84 370.296 145.84 371.148Z" fill="white"/>
<path d="M190.709 123.596L190.709 119.095C190.709 118.239 190.015 117.544 189.158 117.544L184.657 117.544C183.801 117.544 183.106 118.239 183.106 119.095L183.106 123.596C183.106 124.453 183.801 125.148 184.657 125.148L189.158 125.148C190.015 125.148 190.709 124.453 190.709 123.596Z" fill="white"/>
<path d="M334.163 573.878L334.163 578.396C334.163 579.249 333.464 579.948 332.612 579.948L328.094 579.948C327.242 579.948 326.543 579.249 326.543 578.396L326.543 573.878C326.543 573.026 327.242 572.327 328.094 572.327L332.612 572.327C333.464 572.327 334.163 573.026 334.163 573.878Z" fill="white"/>
<path d="M1000 374.097L1000 367.329C1000 366.048 998.962 365.01 997.682 365.01L990.914 365.01C989.633 365.01 988.595 366.048 988.595 367.329L988.595 374.097C988.595 375.378 989.633 376.416 990.914 376.416L997.682 376.416C998.962 376.416 1000 375.378 1000 374.097Z" fill="white"/>
<path d="M999.352 538.058L999.352 531.289C999.352 530.009 998.314 528.971 997.034 528.971L990.266 528.971C988.985 528.971 987.947 530.009 987.947 531.289L987.947 538.058C987.947 539.338 988.985 540.376 990.266 540.376L997.034 540.377C998.314 540.377 999.352 539.338 999.352 538.058Z" fill="white"/>
<path d="M860.74 465.941L860.74 459.172C860.74 457.892 859.702 456.854 858.421 456.854L851.654 456.854C850.373 456.854 849.335 457.892 849.335 459.172L849.335 465.941C849.335 467.221 850.373 468.259 851.654 468.259L858.421 468.259C859.702 468.259 860.74 467.221 860.74 465.941Z" fill="white"/>
<path d="M783.822 261.369L783.822 254.601C783.822 253.32 782.784 252.282 781.504 252.282L774.736 252.282C773.455 252.282 772.417 253.32 772.417 254.601L772.417 261.369C772.417 262.65 773.455 263.688 774.736 263.688L781.504 263.688C782.784 263.688 783.822 262.65 783.822 261.369Z" fill="white"/>
<path d="M715.274 542.593L715.274 547.111C715.274 547.963 714.575 548.662 713.723 548.662L709.206 548.662C708.353 548.662 707.654 547.963 707.654 547.111L707.654 542.593C707.654 541.741 708.353 541.042 709.206 541.042L713.723 541.042C714.575 541.042 715.274 541.741 715.274 542.593Z" fill="white"/>
<path d="M291.681 123.716L291.681 116.947C291.681 115.667 290.643 114.628 289.362 114.628L282.595 114.628C281.314 114.628 280.276 115.667 280.276 116.947L280.276 123.716C280.276 124.996 281.314 126.034 282.595 126.034L289.362 126.034C290.643 126.034 291.681 124.996 291.681 123.716Z" fill="white"/>
<path d="M153.068 51.5984L153.068 44.8299C153.068 43.5493 152.03 42.5112 150.75 42.5112L143.982 42.5112C142.702 42.5112 141.664 43.5493 141.664 44.8299L141.664 51.5984C141.664 52.8789 142.702 53.917 143.982 53.917L150.75 53.917C152.03 53.917 153.068 52.8789 153.068 51.5984Z" fill="white"/>
<path d="M7.60302 132.752L7.60302 128.251C7.60302 127.394 6.90851 126.699 6.05175 126.699L1.55121 126.699C0.694445 126.699 -5.53435e-05 127.394 -5.53809e-05 128.251L-5.55777e-05 132.752C-5.56151e-05 133.608 0.694445 134.303 1.55121 134.303L6.05175 134.303C6.90851 134.303 7.60302 133.608 7.60302 132.752Z" fill="white"/>
<path d="M810.689 152.171L810.689 145.402C810.689 144.122 809.651 143.083 808.37 143.083L801.602 143.083C800.322 143.083 799.284 144.122 799.284 145.402L799.284 152.171C799.284 153.451 800.322 154.489 801.602 154.489L808.37 154.489C809.651 154.489 810.689 153.451 810.689 152.171Z" fill="white"/>
<path d="M921.787 146.613L921.787 151.13C921.787 151.983 921.088 152.682 920.235 152.682L915.718 152.682C914.865 152.682 914.166 151.983 914.166 151.13L914.166 146.613C914.166 145.76 914.865 145.061 915.718 145.061L920.235 145.061C921.088 145.061 921.787 145.76 921.787 146.613Z" fill="white"/>
</g>
<defs>
<clipPath id="clip0_12_670">
<rect width="616" height="1000" fill="white" transform="translate(1000 -1) rotate(90)"/>
</clipPath>
</defs>
</svg>
