<svg width="320" height="283" viewBox="0 0 320 283" fill="none" xmlns="http://www.w3.org/2000/svg">
<g clip-path="url(#clip0_9_581)">
<path d="M177.942 199.341L297.999 197.875C311.224 197.713 321.814 186.861 321.652 173.636L320.185 53.5798C320.024 40.3549 309.172 29.765 295.947 29.9266L175.89 31.3934C162.666 31.555 152.076 42.4069 152.237 55.6318L153.704 175.688C153.866 188.913 164.718 199.503 177.942 199.341Z" fill="#FBEA00"/>
<path d="M310.279 128.915V171.07H268.115L310.279 128.915Z" fill="#1F1F21"/>
<path d="M245.119 148.074V190.238H202.963L245.119 148.074Z" fill="#1F1F21"/>
<path d="M183.796 144.246L168.465 159.576L153.329 144.433L152.947 113.397L168.465 128.915L183.796 113.584L237.454 167.242L222.123 182.573L183.796 144.246Z" fill="#1F1F21"/>
<path d="M283.446 159.576L245.119 121.249L229.788 136.58L151.988 58.7719L151.988 57.9921C151.879 49.8198 154.023 38.7389 159.786 33.8184L229.788 105.918L245.119 90.5876L298.777 144.245L283.446 159.576Z" fill="#1F1F21"/>
<path d="M305.109 59.0525V101.216H262.953L305.109 59.0525Z" fill="#1F1F21"/>
<path d="M296.664 77.4403L281.333 92.7711L218.606 30.0442H249.267L296.664 77.4403Z" fill="#1F1F21"/>
<path d="M65.83 99.92C73.89 96.69 78.64 100 81.21 103.35C81.57 103.82 81.9 104.3 82.21 104.81C81.03 86.48 84.88 73.18 93.72 65.19C101.4 58.25 113.04 55.42 127.39 57C138.16 58.18 146.78 61.46 146.87 61.5C147.13 61.6 147.33 61.83 147.42 62.11C148.07 64.25 163.38 114.72 159.2 139.55C155.02 164.41 153.74 172.28 153.74 172.28C153.7 172.56 153.54 172.8 153.32 172.94C153.18 173.04 144.03 178.82 128.89 177.3L128.98 199.02C128.98 199.31 128.86 199.59 128.65 199.78C128.37 200.02 124.27 203.41 111.76 201.75C102.94 200.58 89.94 196.91 71.17 187.86C70.82 187.69 70.61 187.31 70.64 186.9L73.91 138.25C67.76 137.98 61.5 132.25 58.78 123.71C55.46 113.28 58.56 102.83 65.84 99.92H65.83Z" fill="white"/>
<path d="M82.93 42.69C90.63 43.71 97.35 47.61 102.31 53.29C80.68 56.87 62.87 76.33 60.01 101.89C59.88 103.02 59.8 104.14 59.73 105.25C50.9 97.99 45.74 85.97 47.18 73.15C49.32 53.99 65.33 40.36 82.94 42.69H82.93Z" fill="#1F1F21"/>
<path d="M80.5634 37.4666L80.6913 37.4783L80.6923 37.4792C80.9951 37.5196 81.8135 37.5505 83.1444 37.5691C84.4455 37.5872 86.1695 37.5934 88.2294 37.5945C92.3444 37.5967 97.7942 37.5791 103.835 37.6003C115.914 37.6428 130.41 37.84 141.494 38.6628H141.495C154.537 39.6396 164.248 51.8954 163.358 65.8835L163.352 65.9666L163.334 66.0476L156.824 93.8679L154.888 93.9109L146.167 62.906C145.483 63.4572 144.52 64.2005 143.293 65.0574C140.651 66.9025 136.788 69.2847 131.888 71.446C122.272 75.687 108.644 79.0832 92.4247 75.8816L80.3817 125.685L80.1581 126.609L79.2245 126.432L59.8651 122.783L59.289 122.675L59.1024 122.119L50.7421 97.2283C46.5059 84.6119 49.011 70.4561 57.3319 60.4792C61.8359 55.0745 66.8085 49.3046 70.9921 44.9236C73.0811 42.736 74.9941 40.8725 76.5653 39.572C77.3485 38.9238 78.074 38.3924 78.7128 38.03C79.2613 37.7189 79.9212 37.4273 80.5634 37.4666Z" fill="#1F1F21" stroke="white" stroke-width="2"/>
<path d="M133.66 103.63C132.8 111.32 126.38 116.79 119.32 115.85C112.26 114.91 107.23 107.93 108.09 100.24C108.95 92.5499 115.37 87.0799 122.43 88.0199C129.49 88.9599 134.52 95.9399 133.66 103.63Z" stroke="#1F1F21" stroke-width="3.47" stroke-miterlimit="10"/>
<path d="M77.57 136.72C70.81 139.27 62.78 133.3 59.62 123.39C56.46 113.48 59.38 103.38 66.14 100.83C72.9 98.28 80.93 104.25 84.09 114.16" fill="white"/>
<path d="M77.57 136.72C70.81 139.27 62.78 133.3 59.62 123.39C56.46 113.48 59.38 103.38 66.14 100.83C72.9 98.28 80.93 104.25 84.09 114.16" stroke="#1F1F21" stroke-width="3.47" stroke-linecap="round" stroke-linejoin="round"/>
<path d="M133.76 98.8899L144.23 99.2699" stroke="#1F1F21" stroke-width="3.47" stroke-miterlimit="10"/>
<path d="M81.05 107.19L108.09 100.24" stroke="#1F1F21" stroke-width="3.47" stroke-miterlimit="10"/>
<path d="M146.56 62.4199C146.56 62.4199 162.5 114.51 158.32 139.38C154.14 164.25 152.86 172.12 152.86 172.12C152.86 172.12 129.8 187.32 95.25 162.31" stroke="#1F1F21" stroke-width="3.47" stroke-linecap="round" stroke-linejoin="round"/>
<path d="M74.82 137.88L71.52 186.98" stroke="#1F1F21" stroke-width="3.47" stroke-linecap="round" stroke-linejoin="round"/>
<path d="M127.99 176.64L128.08 199.04" stroke="#1F1F21" stroke-width="3.47" stroke-linecap="round" stroke-linejoin="round"/>
<path d="M143.3 97.49C145.2 91.31 150.89 87.22 157.07 88.04C164.13 88.98 169.16 95.96 168.3 103.65C167.44 111.34 161.02 116.81 153.96 115.87C152.19 115.64 150.56 115.02 149.11 114.12" stroke="#1F1F21" stroke-width="3.47" stroke-miterlimit="10"/>
<path d="M140.61 88.8C140.61 88.8 148.66 118.55 150.15 121.35C151.63 124.15 140.15 130.45 140.15 130.45" stroke="#1F1F21" stroke-width="3.47" stroke-linecap="round" stroke-linejoin="round"/>
<mask id="path-21-outside-1_9_581" maskUnits="userSpaceOnUse" x="-1.0098" y="178.117" width="253" height="144" fill="black">
<rect fill="white" x="-1.0098" y="178.117" width="253" height="144"/>
<path d="M64.7705 187.29C65.2005 183.44 68.4202 180.7 71.9502 181.17L124.566 188.144L139.3 184.71C165.04 178.71 192.63 186.6 208.14 204.4H208.13L248.12 285.47L28.9404 319.57C22.7004 321.15 15.4799 314.18 12.8799 304L1.9902 259.73L4.07028 249.65C8.41028 228.59 23.4102 211.84 42.7802 207.21C42.9202 207.18 43.0602 207.14 43.2002 207.11L63.0683 202.479L64.7705 187.29Z"/>
</mask>
<path d="M64.7705 187.29C65.2005 183.44 68.4202 180.7 71.9502 181.17L124.566 188.144L139.3 184.71C165.04 178.71 192.63 186.6 208.14 204.4H208.13L248.12 285.47L28.9404 319.57C22.7004 321.15 15.4799 314.18 12.8799 304L1.9902 259.73L4.07028 249.65C8.41028 228.59 23.4102 211.84 42.7802 207.21C42.9202 207.18 43.0602 207.14 43.2002 207.11L63.0683 202.479L64.7705 187.29Z" fill="#1F1F21"/>
<path d="M64.7705 187.29L66.758 187.513L66.7581 187.512L64.7705 187.29ZM71.9502 181.17L71.6862 183.152L71.6874 183.153L71.9502 181.17ZM124.566 188.144L124.304 190.126L124.665 190.174L125.02 190.091L124.566 188.144ZM139.3 184.71L139.754 186.658L139.754 186.658L139.3 184.71ZM208.14 204.4V206.4H212.535L209.647 203.087L208.14 204.4ZM208.13 204.4V202.4H204.913L206.336 205.285L208.13 204.4ZM248.12 285.47L248.428 287.446L251.118 287.027L249.914 284.585L248.12 285.47ZM28.9404 319.57L28.6329 317.594L28.5403 317.608L28.4495 317.632L28.9404 319.57ZM12.8799 304L10.9377 304.478L10.9399 304.486L10.9421 304.495L12.8799 304ZM1.9902 259.73L0.0314729 259.326L-0.0599098 259.769L0.0480981 260.208L1.9902 259.73ZM4.07028 249.65L6.02901 250.055L6.02912 250.054L4.07028 249.65ZM42.7802 207.21L42.361 205.254L42.3381 205.259L42.3153 205.265L42.7802 207.21ZM43.2002 207.11L43.6192 209.066L43.6368 209.062L43.6542 209.058L43.2002 207.11ZM63.0683 202.479L63.5224 204.426L64.8985 204.105L65.0559 202.701L63.0683 202.479ZM64.7705 187.29L66.7581 187.512C67.0818 184.614 69.4231 182.851 71.6862 183.152L71.9502 181.17L72.2141 179.187C67.4173 178.549 63.3191 182.266 62.7828 187.068L64.7705 187.29ZM71.9502 181.17L71.6874 183.153L124.304 190.126L124.566 188.144L124.829 186.161L72.2129 179.187L71.9502 181.17ZM124.566 188.144L125.02 190.091L139.754 186.658L139.3 184.71L138.846 182.762L124.112 186.196L124.566 188.144ZM139.3 184.71L139.754 186.658C164.879 180.801 191.675 188.55 206.632 205.714L208.14 204.4L209.647 203.087C193.584 184.651 165.201 176.619 138.846 182.762L139.3 184.71ZM208.14 204.4V202.4H208.13V204.4V206.4H208.14V204.4ZM208.13 204.4L206.336 205.285L246.326 286.355L248.12 285.47L249.914 284.585L209.923 203.516L208.13 204.4ZM248.12 285.47L247.813 283.493L28.6329 317.594L28.9404 319.57L29.2479 321.547L248.428 287.446L248.12 285.47ZM28.9404 319.57L28.4495 317.632C26.2554 318.187 23.5713 317.309 20.9363 314.758C18.3312 312.236 16.0406 308.293 14.8176 303.505L12.8799 304L10.9421 304.495C12.3191 309.887 14.9388 314.519 18.1539 317.632C21.3392 320.716 25.3854 322.534 29.4313 321.509L28.9404 319.57ZM12.8799 304L14.822 303.522L3.93231 259.253L1.9902 259.73L0.0480981 260.208L10.9377 304.478L12.8799 304ZM1.9902 259.73L3.94893 260.135L6.02901 250.055L4.07028 249.65L2.11155 249.246L0.0314729 259.326L1.9902 259.73ZM4.07028 249.65L6.02912 250.054C10.2339 229.65 24.7283 213.581 43.2452 209.155L42.7802 207.21L42.3153 205.265C22.0922 210.099 6.58664 227.531 2.11144 249.247L4.07028 249.65ZM42.7802 207.21L43.1995 209.166C43.3066 209.143 43.4083 209.117 43.4728 209.101C43.5482 209.082 43.5865 209.073 43.6192 209.066L43.2002 207.11L42.7811 205.155C42.6739 205.178 42.5722 205.203 42.5076 205.219C42.4321 205.238 42.3938 205.247 42.361 205.254L42.7802 207.21ZM43.2002 207.11L43.6542 209.058L63.5224 204.426L63.0683 202.479L62.6142 200.531L42.7461 205.163L43.2002 207.11ZM63.0683 202.479L65.0559 202.701L66.758 187.513L64.7705 187.29L62.7829 187.067L61.0808 202.256L63.0683 202.479Z" fill="white" mask="url(#path-21-outside-1_9_581)"/>
<path d="M93.75 185.37L113.36 166.43C115.52 164.34 118.82 164.54 120.76 166.87L121.01 167.17C123.38 170.02 124.31 173.95 123.51 177.69L122.02 184.65" fill="white"/>
<path d="M93.75 185.37L113.36 166.43C115.52 164.34 118.82 164.54 120.76 166.87L121.01 167.17C123.38 170.02 124.31 173.95 123.51 177.69L122.02 184.65" stroke="#1F1F21" stroke-width="3.47" stroke-linecap="round" stroke-linejoin="round"/>
<path d="M72.54 313.22L93.75 185.37L143.4 170.42L155.23 166.97C159.74 165.65 163.83 170.25 162.47 175.11C161.93 177.04 160.6 178.59 158.86 179.3L146.55 184.32L153.21 213.66C154.04 217.31 153.77 221.15 152.44 224.62L149.38 232.6C147.59 237.28 144.02 240.89 139.6 242.5L125.96 247.45L138.12 303.19" fill="white"/>
<path d="M72.54 313.22L93.75 185.37L143.4 170.42L155.23 166.97C159.74 165.65 163.83 170.25 162.47 175.11C161.93 177.04 160.6 178.59 158.86 179.3L146.55 184.32L153.21 213.66C154.04 217.31 153.77 221.15 152.44 224.62L149.38 232.6C147.59 237.28 144.02 240.89 139.6 242.5L125.96 247.45L138.12 303.19" stroke="#1F1F21" stroke-width="3.47" stroke-linecap="round" stroke-linejoin="round"/>
<path d="M140.24 229.06C140.24 229.06 127.03 234.23 131.26 245.16" stroke="#1F1F21" stroke-width="3.47" stroke-linecap="round" stroke-linejoin="round"/>
<path d="M137 210.66C137 210.66 149.15 205.49 151.79 210.09" stroke="#1F1F21" stroke-width="3.47" stroke-linecap="round" stroke-linejoin="round"/>
<path d="M135.42 198.59C135.42 198.59 147.57 193.42 150.21 198.02" stroke="#1F1F21" stroke-width="3.47" stroke-linecap="round" stroke-linejoin="round"/>
<path d="M132.05 186.95C132.05 186.95 144.2 181.78 146.84 186.38" stroke="#1F1F21" stroke-width="3.47" stroke-linecap="round" stroke-linejoin="round"/>
</g>
<defs>
<clipPath id="clip0_9_581">
<rect width="320" height="283" fill="white"/>
</clipPath>
</defs>
</svg>
