<svg width="116" height="120" viewBox="0 0 116 120" fill="none" xmlns="http://www.w3.org/2000/svg">
<g clip-path="url(#clip0_12_2514)">
<path d="M65.8682 119.638C96.7978 116.214 119.085 88.4561 115.649 57.639C112.212 26.822 84.3531 4.61552 53.4234 8.03953C22.4938 11.4635 0.206231 39.2214 3.64275 70.0385C7.07927 100.856 34.9386 123.062 65.8682 119.638Z" fill="#D6E86B"/>
<path d="M49.9796 71.1279C71.1462 71.1279 89.2855 85.476 96.9682 105.893C83.4481 117.789 64.4525 123.017 45.674 118.234C30.2845 114.316 18.0308 104.415 10.722 91.6767C20.057 79.1191 34.1801 71.1279 49.9796 71.1279Z" fill="#1F1F21"/>
<path d="M53.2119 58.762L42.8276 64.5901C30.8875 71.2955 15.6066 67.0536 8.8767 55.1569L6.56104 51.0592C-1.8694 36.1583 3.4735 17.0997 18.4167 8.71191L21.8782 12.1728C31.2493 6.90939 43.2377 10.238 48.5203 19.5871L59.001 38.1051C63.1138 45.3752 60.5086 54.6763 53.2119 58.774V58.762Z" fill="#1F1F21"/>
<path d="M40.7773 63.9193C55.8132 60.3641 65.2853 46.0756 61.934 32.005C58.5827 17.9344 43.677 9.40992 28.6411 12.9651C13.6053 16.5203 4.13316 30.8088 7.48448 44.8794C10.8358 58.95 25.7415 67.4745 40.7773 63.9193Z" fill="#1F1F21"/>
<path d="M28.7286 43.7292C24.9898 35.6059 26.4009 25.692 32.6966 19.8037C36.6164 16.1266 41.6577 14.7567 46.5303 15.5258C44.2025 16.3189 37.8104 18.9265 37.545 23.6131C37.2194 29.3451 39.4627 39.6075 28.7286 43.7292Z" fill="#1F1F21"/>
<path d="M59.3388 10.262C62.7278 16.2584 60.6051 23.8651 54.5868 27.2418C48.5685 30.6185 40.9341 28.5036 37.545 22.5072C34.156 16.5108 36.2787 8.90413 42.297 5.52741C48.3153 2.15068 55.9497 4.26564 59.3388 10.262Z" fill="#1F1F21"/>
<path d="M15.9925 14.5159C5.04139 22.6273 1.42318 37.6002 7.8033 49.8814C11.4577 50.1458 15.2689 49.3647 18.7665 47.406C27.8362 42.3108 31.2373 31.2193 26.3768 22.6273C24.0611 18.5295 20.2861 15.7537 15.9925 14.5039V14.5159Z" fill="#1F1F21"/>
<path d="M36.0616 13.1224C39.4506 19.1188 37.3279 26.7254 31.3096 30.1022C25.2913 33.4789 17.6569 31.3639 14.2678 25.3675C10.8788 19.3711 13.0015 11.7645 19.0198 8.38776C25.0381 5.01103 32.6725 7.12599 36.0616 13.1224Z" fill="#1F1F21"/>
<path d="M49.0751 6.52496C52.5606 12.6896 50.3776 20.5125 44.1784 23.9854C37.9913 27.4583 30.1397 25.2832 26.6542 19.1066C23.1686 12.9419 25.3516 5.11899 31.5508 1.64613C37.738 -1.82674 45.5895 0.348309 49.0751 6.52496Z" fill="#1F1F21"/>
<path d="M63.4997 24.0451L60.5569 20.5963C53.5617 12.4128 41.9231 12.2566 34.6987 20.2358C27.812 26.088 26.0391 35.7014 29.8262 43.4643C26.6301 45.2909 25.0742 49.1603 26.3165 52.7533C27.3899 55.8897 30.2724 57.8965 33.4082 58.0287L34.2404 85.1987L59.0734 89.9694C65.4294 91.1951 71.1582 85.9438 70.4828 79.5388L67.2988 66.1521C68.8185 65.4311 70.2899 64.5298 71.6286 63.3882C79.7937 56.4425 80.7706 44.2214 73.8116 36.074L68.9511 30.39C70.4105 28.8519 70.5311 26.4485 69.132 24.7902C67.7209 23.1198 65.2847 22.8314 63.5117 24.0331L63.4997 24.0451Z" fill="white" stroke="#1F1F21" stroke-width="2" stroke-linecap="round" stroke-linejoin="round"/>
<path d="M36.158 57.8004C32.0695 59.1944 27.607 57.0193 26.2079 52.9336" stroke="#1F1F21" stroke-width="2" stroke-linecap="round" stroke-linejoin="round"/>
<path d="M30.9478 49.1483C30.9478 49.1483 34.1077 48.9079 35.5671 51.8641" stroke="#1F1F21" stroke-width="2" stroke-linecap="round" stroke-linejoin="round"/>
<path d="M29.8503 24.5498C22.8189 28.8158 19.7916 37.6121 22.9395 45.3509C25.1225 45.7114 27.4623 45.4591 29.6694 44.4737C35.4103 41.9141 38.0757 35.437 35.6394 30.0175C34.4816 27.4338 32.371 25.5472 29.8503 24.5618V24.5498Z" fill="#1F1F21"/>
<path d="M67.5883 66.0807C59.9177 69.4694 50.6309 67.6189 44.9141 60.9375" stroke="#1F1F21" stroke-width="2" stroke-linecap="round" stroke-linejoin="round"/>
<path d="M50.4379 64.7585C49.6901 64.3619 48.9786 63.9293 48.2911 63.4727C53.1636 71.1033 61.4614 75.2491 69.928 75.177L67.9863 67.0417C62.173 68.3395 55.9858 67.7026 50.4379 64.7585Z" fill="#1F1F21"/>
</g>
<defs>
<clipPath id="clip0_12_2514">
<rect width="116" height="120" fill="white"/>
</clipPath>
</defs>
</svg>
