<svg width="115" height="116" viewBox="0 0 115 116" fill="none" xmlns="http://www.w3.org/2000/svg">
<g clip-path="url(#clip0_12_2538)">
<path d="M57.7968 115.358C89.7171 115.358 115.594 89.5345 115.594 57.6791C115.594 25.8238 89.7171 0 57.7968 0C25.8765 0 0 25.8238 0 57.6791C0 89.5345 25.8765 115.358 57.7968 115.358Z" fill="#1F1F21"/>
<mask id="mask0_12_2538" style="mask-type:luminance" maskUnits="userSpaceOnUse" x="0" y="0" width="116" height="116">
<path d="M57.7968 115.358C89.7171 115.358 115.594 89.5345 115.594 57.6791C115.594 25.8238 89.7171 0 57.7968 0C25.8765 0 0 25.8238 0 57.6791C0 89.5345 25.8765 115.358 57.7968 115.358Z" fill="white"/>
</mask>
<g mask="url(#mask0_12_2538)">
<path d="M74.2554 20.4482H37.2328C25.6366 20.4482 16.236 29.8297 16.236 41.4023V55.7172C16.236 67.2898 25.6366 76.6712 37.2328 76.6712H74.2554C85.8516 76.6712 95.2522 67.2898 95.2522 55.7172V41.4023C95.2522 29.8297 85.8516 20.4482 74.2554 20.4482Z" fill="#D6E86B"/>
<path d="M67.3678 23.8047H35.9592C26.9991 23.8047 19.7355 31.0535 19.7355 39.9953V49.1396C19.7355 58.0814 26.9991 65.3302 35.9592 65.3302H67.3678C76.3279 65.3302 83.5914 58.0814 83.5914 49.1396V39.9953C83.5914 31.0535 76.3279 23.8047 67.3678 23.8047Z" fill="#1F1F21"/>
<path d="M94.0403 61.0969C97.7965 61.0969 100.841 55.3288 100.841 48.2135C100.841 41.0982 97.7965 35.3301 94.0403 35.3301C90.2842 35.3301 87.2393 41.0982 87.2393 48.2135C87.2393 55.3288 90.2842 61.0969 94.0403 61.0969Z" fill="#D6E86B"/>
<path d="M98.8135 48.2135C98.8135 51.7798 97.2925 54.6798 95.4006 54.6798C93.5086 54.6798 91.9877 51.7922 91.9877 48.2135C91.9877 44.6347 93.5086 41.7471 95.4006 41.7471C97.2925 41.7471 98.8135 44.6347 98.8135 48.2135Z" fill="white"/>
<path d="M94.0403 61.0972C90.2812 61.0972 87.2393 55.3219 87.2393 48.2138C87.2393 44.8943 87.8946 41.8709 88.9828 39.5879" stroke="#1F1F21" stroke-width="1.56" stroke-linecap="round" stroke-linejoin="round"/>
<path d="M35.8231 144.186L23.1113 110.645C17.5344 95.9473 28.4285 80.2256 44.1699 80.2256H69.6059C85.3597 80.2256 96.2414 95.9473 90.6645 110.645L77.9527 144.186C70.6199 163.548 43.1683 163.548 35.8355 144.186H35.8231Z" fill="#D6E86B"/>
<path d="M90.6645 110.632C96.2414 95.9346 85.3473 80.2129 69.6059 80.2129H53.679C48.8812 91.418 46.6801 106.708 48.8688 121.652L54.2726 158.538" stroke="#1F1F21" stroke-width="1.56" stroke-linecap="round" stroke-linejoin="round"/>
<path d="M69.6059 80.2129H44.1699C38.1231 80.2129 32.8059 82.5329 28.8489 86.2227C29.0221 89.0857 29.1828 91.9486 29.3559 94.8363C29.9124 105.535 36.9608 110.348 45.2086 112.088C53.4812 113.52 62.9532 111.878 68.8022 102.438C72.8457 95.984 70.929 87.5678 80.8957 83.2363C77.6188 81.3359 73.7855 80.2129 69.5936 80.2129H69.6059Z" stroke="#1F1F21" stroke-width="1.56" stroke-linecap="round" stroke-linejoin="round"/>
<path d="M53.9364 121.114C60.8768 118.245 64.1726 110.305 61.2978 103.378C58.423 96.452 50.4662 93.1629 43.5257 96.0318C36.5853 98.9008 33.2895 106.841 36.1643 113.768C39.0391 120.694 46.9959 123.983 53.9364 121.114Z" fill="#D6E86B" stroke="#1F1F21" stroke-width="1.56" stroke-linecap="round" stroke-linejoin="round"/>
<path d="M48.7328 116.482C53.1104 116.482 56.6591 112.94 56.6591 108.571C56.6591 104.203 53.1104 100.661 48.7328 100.661C44.3552 100.661 40.8065 104.203 40.8065 108.571C40.8065 112.94 44.3552 116.482 48.7328 116.482Z" fill="white"/>
<path d="M41.4124 32.4072H47.8919L56.6839 57.4213H49.957L48.4979 52.9417H40.6704L39.2484 57.4213H32.6575L41.4124 32.4072ZM46.8903 47.8328L44.578 40.5519L42.2656 47.8328H46.8903Z" fill="white"/>
<path d="M58.3656 31.7031H64.8081V36.5653H58.3656V31.7031ZM58.4645 38.2065H64.6968V57.4329H58.4645V38.2065Z" fill="white"/>
</g>
</g>
<defs>
<clipPath id="clip0_12_2538">
<rect width="115" height="116" fill="white"/>
</clipPath>
</defs>
</svg>
