<svg width="370" height="74" viewBox="0 0 370 74" fill="none" xmlns="http://www.w3.org/2000/svg">
    <path d="M1 1H369V57H200V71L183.5 57H1V1Z" fill="white" stroke="#1F1F21" stroke-width="2" stroke-dasharray="160 4"/>
    <path d="M23.679 32.953V20.812H29.968V22.864H25.921V32.953H23.679ZM39.639 29.875H41.976V29.628V27.994H39.639V29.875ZM46.574 27.994H44.218V29.647V29.875H46.574V27.994ZM48.74 31.699H44.104C43.952 32.877 43.629 33.998 43.059 35.005C44.807 35.841 46.992 36.373 49.557 36.601C49.082 37.095 48.493 38.026 48.208 38.615C45.643 38.292 43.477 37.627 41.71 36.62C40.798 37.456 39.506 38.159 37.815 38.653C37.53 38.159 36.865 37.247 36.409 36.772C37.929 36.43 39.05 35.936 39.867 35.309C38.936 34.53 38.176 33.561 37.53 32.478L39.373 31.908C39.829 32.649 40.437 33.295 41.14 33.865C41.52 33.181 41.729 32.478 41.843 31.699H37.606V26.151H41.976V24.821H37.207V23.073C36.865 23.795 36.485 24.536 36.067 25.258V38.691H33.92V28.488C33.407 29.134 32.894 29.742 32.362 30.274C32.153 29.723 31.545 28.507 31.165 27.956C32.97 26.246 34.737 23.567 35.763 20.869L37.853 21.553C37.682 21.952 37.511 22.351 37.34 22.769H41.976V21.04H44.218V22.769H49.253V24.821H44.218V26.151H48.74V31.699ZM56.226 21.648C58.335 22.047 61.945 22.446 63.902 22.56L63.598 24.783C61.622 24.612 58.107 24.213 55.865 23.833L56.226 21.648ZM64.567 27.633C64.073 27.975 63.674 28.317 63.332 28.583C62.477 29.324 60.71 30.939 60.273 31.414C60.444 31.414 60.786 31.471 60.976 31.566C61.527 31.737 61.869 32.136 62.135 32.839C62.306 33.352 62.477 34.074 62.648 34.549C62.819 35.138 63.237 35.423 63.978 35.423C65.422 35.423 66.714 35.29 67.664 35.1L67.512 37.57C66.733 37.722 64.795 37.836 63.826 37.836C62.04 37.836 61.071 37.456 60.615 36.221C60.406 35.67 60.197 34.796 60.064 34.321C59.836 33.656 59.437 33.409 59.057 33.409C58.677 33.409 58.278 33.713 57.841 34.169C57.176 34.834 55.77 36.354 54.478 38.007L52.236 36.449C52.578 36.183 53.053 35.784 53.547 35.29C54.516 34.302 58.354 30.483 60.083 28.659C58.753 28.716 56.511 28.906 55.428 29.001C54.782 29.058 54.212 29.153 53.813 29.229L53.585 26.626C54.022 26.664 54.706 26.683 55.39 26.683C56.283 26.683 60.558 26.493 62.116 26.284C62.458 26.246 62.971 26.132 63.18 26.056L64.567 27.633ZM87.576 26.626L86.246 28.621C85.163 27.747 83.016 26.512 81.724 25.942L82.94 24.08C84.289 24.669 86.626 25.942 87.576 26.626ZM80.489 23.738L80.546 25.923C79.691 26.151 78.532 26.398 77.278 26.569C76.385 29.21 74.77 32.478 73.25 34.625L70.951 33.466C72.471 31.623 73.953 28.849 74.789 26.816C74.466 26.835 74.143 26.835 73.82 26.835C73.041 26.835 72.281 26.816 71.464 26.778L71.293 24.574C72.11 24.669 73.117 24.707 73.801 24.707C74.352 24.707 74.922 24.688 75.492 24.65C75.758 23.605 75.967 22.465 76.005 21.496L78.608 21.762C78.456 22.37 78.228 23.32 77.962 24.327C78.874 24.175 79.748 23.966 80.489 23.738ZM80.945 34.207V33.846C80.451 33.732 79.957 33.656 79.425 33.656C78.342 33.656 77.639 34.112 77.639 34.777C77.639 35.48 78.228 35.955 79.254 35.955C80.527 35.955 80.945 35.214 80.945 34.207ZM80.641 27.614H83.016C82.959 28.412 82.997 29.191 83.016 30.027C83.035 30.559 83.073 31.471 83.13 32.402C84.745 33.01 86.075 33.96 87.025 34.815L85.771 36.829C85.106 36.221 84.251 35.461 83.225 34.834V35.005C83.225 36.753 82.275 38.121 79.596 38.121C77.259 38.121 75.416 37.076 75.416 35.005C75.416 33.162 76.955 31.737 79.577 31.737C80.014 31.737 80.451 31.775 80.85 31.813C80.793 30.407 80.698 28.754 80.641 27.614ZM93.998 23.472C93.865 24.137 93.77 25.239 93.77 25.752C93.751 26.968 93.77 28.393 93.884 29.742C94.15 32.459 94.72 34.302 95.898 34.302C96.791 34.302 97.532 32.098 97.893 30.616L99.793 32.896C98.539 36.164 97.361 37.323 95.841 37.323C93.789 37.323 91.984 35.461 91.452 30.407C91.281 28.678 91.243 26.493 91.243 25.334C91.243 24.802 91.224 24.004 91.11 23.434L93.998 23.472ZM103.403 23.871C105.189 26.056 106.633 30.597 106.842 33.485L104.353 34.435C104.068 31.414 103.061 26.987 101.009 24.669L103.403 23.871ZM112.77 31.205H116.114L115.696 29.666C115.259 28.203 114.879 26.588 114.461 25.068H114.385C114.024 26.607 113.606 28.203 113.188 29.666L112.77 31.205ZM117.71 37L116.722 33.39H112.162L111.174 37H108.324L112.827 22.94H116.133L120.655 37H117.71ZM122.681 37V22.94H125.493V37H122.681ZM134.443 26.607V38.748H128.135V36.696H132.182V26.607H134.443ZM145.995 23.738C148.313 24.061 152.056 23.985 154.089 23.738V26.17C151.771 26.379 148.37 26.379 146.014 26.17L145.995 23.738ZM145.349 31.585L147.515 31.794C147.363 32.402 147.287 32.858 147.287 33.371C147.287 34.207 148.009 34.701 149.909 34.701C151.6 34.701 152.987 34.549 154.621 34.207L154.678 36.753C153.462 36.981 151.942 37.133 149.814 37.133C146.565 37.133 145.026 35.955 145.026 34.036C145.026 33.257 145.159 32.459 145.349 31.585ZM140.466 22.275L143.107 22.503C142.955 22.883 142.727 23.833 142.651 24.175C142.385 25.429 141.739 29.191 141.739 31.072C141.739 31.433 141.758 31.889 141.815 32.288C142.081 31.623 142.385 30.996 142.651 30.388L143.829 31.3C143.297 32.877 142.67 34.91 142.48 35.917C142.423 36.183 142.366 36.601 142.366 36.791C142.385 37 142.385 37.304 142.404 37.57L140.238 37.722C139.858 36.411 139.497 34.112 139.497 31.566C139.497 28.735 140.067 25.562 140.276 24.118C140.352 23.586 140.466 22.864 140.466 22.275ZM168.643 27.576V35.347C168.643 36.183 168.681 37.361 168.814 37.836H165.812C165.888 37.38 165.945 36.183 165.945 35.347V29.115C163.988 30.103 161.613 31.091 159.409 31.699L158.041 29.381C161.366 28.659 164.558 27.253 166.686 25.942C168.605 24.745 170.581 23.054 171.645 21.648L173.678 23.491C172.234 24.935 170.524 26.36 168.643 27.576ZM191.728 26.892L193.419 27.937C193.286 28.184 193.134 28.526 193.058 28.735C192.488 30.578 191.671 32.421 190.246 33.998C188.327 36.126 185.895 37.418 183.463 38.102L181.563 35.955C184.432 35.366 186.712 34.112 188.156 32.63C189.182 31.585 189.771 30.407 190.113 29.343H180.936C180.48 29.343 179.53 29.362 178.732 29.438V26.968C179.53 27.044 180.347 27.082 180.936 27.082H190.341C190.949 27.082 191.462 27.006 191.728 26.892ZM180.48 24.878V22.427C181.012 22.503 181.81 22.522 182.456 22.522H189.771C190.36 22.522 191.291 22.503 191.823 22.427V24.878C191.31 24.84 190.417 24.821 189.733 24.821H182.456C181.848 24.821 181.031 24.84 180.48 24.878ZM207.403 27.576V35.347C207.403 36.183 207.441 37.361 207.574 37.836H204.572C204.648 37.38 204.705 36.183 204.705 35.347V29.115C202.748 30.103 200.373 31.091 198.169 31.699L196.801 29.381C200.126 28.659 203.318 27.253 205.446 25.942C207.365 24.745 209.341 23.054 210.405 21.648L212.438 23.491C210.994 24.935 209.284 26.36 207.403 27.576ZM230.488 26.892L232.179 27.937C232.046 28.184 231.894 28.526 231.818 28.735C231.248 30.578 230.431 32.421 229.006 33.998C227.087 36.126 224.655 37.418 222.223 38.102L220.323 35.955C223.192 35.366 225.472 34.112 226.916 32.63C227.942 31.585 228.531 30.407 228.873 29.343H219.696C219.24 29.343 218.29 29.362 217.492 29.438V26.968C218.29 27.044 219.107 27.082 219.696 27.082H229.101C229.709 27.082 230.222 27.006 230.488 26.892ZM219.24 24.878V22.427C219.772 22.503 220.57 22.522 221.216 22.522H228.531C229.12 22.522 230.051 22.503 230.583 22.427V24.878C230.07 24.84 229.177 24.821 228.493 24.821H221.216C220.608 24.821 219.791 24.84 219.24 24.878ZM238.43 21.952L241.47 21.99C241.337 22.788 241.242 23.738 241.223 24.498C241.128 26.512 240.995 30.73 240.995 33.067C240.995 34.967 242.135 35.575 243.579 35.575C246.695 35.575 248.671 33.789 250.02 31.737L251.73 33.846C250.514 35.632 247.854 38.14 243.56 38.14C240.482 38.14 238.487 36.791 238.487 33.58C238.487 31.053 238.677 26.113 238.677 24.498C238.677 23.605 238.601 22.693 238.43 21.952ZM262.826 34.511C262.826 34.302 262.826 34.036 262.807 33.713C262.313 33.637 261.8 33.58 261.268 33.58C259.938 33.58 259.216 34.093 259.216 34.739C259.216 35.442 259.881 35.898 261.173 35.898C262.18 35.898 262.826 35.594 262.826 34.511ZM270.35 34.986L269.001 37.095C267.994 36.145 266.702 35.176 265.201 34.492C265.22 34.739 265.22 34.967 265.22 35.157C265.22 36.772 264.004 38.007 261.515 38.007C258.513 38.007 256.917 36.867 256.917 34.872C256.917 32.972 258.665 31.642 261.572 31.642C261.971 31.642 262.351 31.661 262.731 31.699C262.693 31.129 262.674 30.54 262.655 29.989H261.686C260.584 29.989 258.418 29.894 257.164 29.742L257.183 27.519C258.266 27.728 260.717 27.861 261.724 27.861H262.617V25.904H261.724C260.527 25.904 258.722 25.79 257.639 25.619L257.62 23.472C258.798 23.7 260.546 23.833 261.705 23.833H262.636V22.978C262.636 22.636 262.617 22.047 262.541 21.686H265.106C265.049 22.066 264.992 22.541 264.973 23.016L264.954 23.757C266.417 23.7 267.804 23.548 269.438 23.301L269.495 25.467C268.26 25.581 266.74 25.733 264.935 25.828L264.916 27.785C266.816 27.709 268.393 27.538 269.932 27.348V29.571C268.241 29.761 266.778 29.894 264.954 29.951C264.992 30.654 265.03 31.414 265.087 32.136C267.462 32.82 269.267 34.074 270.35 34.986ZM284.519 22.161H287.065C287.008 22.446 286.97 23.263 286.951 23.776C286.932 24.517 286.913 25.182 286.894 25.809C287.407 25.771 287.882 25.733 288.319 25.714C288.832 25.676 289.573 25.619 290.124 25.581V27.899C289.801 27.88 288.813 27.899 288.3 27.918C287.901 27.937 287.407 27.956 286.856 27.994C286.799 29.419 286.723 30.958 286.571 31.756C286.381 32.744 285.906 32.991 284.937 32.991C284.272 32.991 282.771 32.82 282.106 32.706L282.163 30.635C282.752 30.749 283.512 30.863 283.892 30.863C284.272 30.863 284.424 30.787 284.481 30.426C284.557 29.913 284.595 29.058 284.614 28.165C282.961 28.298 281.118 28.469 279.503 28.64C279.484 30.369 279.465 32.098 279.503 32.896C279.56 34.739 279.712 35.157 282.543 35.157C284.386 35.157 286.761 34.929 288.167 34.663L288.072 37.247C286.799 37.399 284.5 37.551 282.714 37.551C277.831 37.551 277.242 36.525 277.166 33.276C277.147 32.478 277.147 30.654 277.147 28.887L275.874 29.02C275.285 29.096 274.107 29.286 273.613 29.362L273.366 26.949C273.898 26.949 274.772 26.911 275.722 26.835L277.147 26.702V24.802C277.147 24.023 277.09 23.377 276.995 22.712H279.655C279.579 23.339 279.541 23.871 279.541 24.669C279.541 25.106 279.541 25.733 279.522 26.474C281.118 26.322 282.942 26.151 284.652 25.999V23.871C284.652 23.396 284.576 22.503 284.519 22.161ZM303.025 22.712C302.835 22.94 302.626 23.282 302.417 23.586C301.486 24.935 300.061 27.557 299.13 29.21C299.833 28.811 300.555 28.64 301.277 28.64C302.683 28.64 303.538 29.552 303.614 31.11C303.652 31.946 303.595 33.466 303.709 34.245C303.766 34.986 304.279 35.271 304.906 35.271C306.521 35.271 307.547 33.162 308.079 30.825L310.112 32.478C309.143 35.727 307.395 37.855 304.488 37.855C302.436 37.855 301.448 36.601 301.372 35.233C301.296 34.226 301.315 32.687 301.258 31.927C301.201 31.262 300.84 30.882 300.156 30.882C298.864 30.882 297.819 32.174 297.154 33.713C296.641 34.815 296.014 36.905 295.729 37.893L293.069 37C294.456 33.238 298.427 25.334 299.415 23.548C299.662 23.035 300.004 22.427 300.346 21.629L303.025 22.712ZM317.313 21.762L320.106 22.047C319.992 22.541 319.859 23.13 319.764 23.605C319.669 24.175 319.517 24.859 319.384 25.543C320.011 25.505 320.581 25.467 320.961 25.467C322.956 25.467 324.362 26.36 324.362 29.058C324.362 31.281 324.096 34.283 323.298 35.917C322.671 37.228 321.626 37.646 320.201 37.646C319.479 37.646 318.586 37.532 317.959 37.38L317.541 34.891C318.263 35.1 319.346 35.29 319.84 35.29C320.467 35.29 320.961 35.1 321.246 34.473C321.778 33.428 322.025 31.186 322.025 29.324C322.025 27.823 321.379 27.614 320.182 27.614C319.878 27.614 319.422 27.652 318.89 27.69C318.168 30.54 316.8 34.967 315.071 37.741L312.601 36.753C314.444 34.283 315.717 30.521 316.401 27.956C315.736 28.032 315.147 28.108 314.786 28.165C314.254 28.222 313.285 28.355 312.696 28.45L312.487 25.904C313.171 25.961 313.798 25.923 314.482 25.904C315.071 25.885 315.964 25.828 316.914 25.752C317.18 24.308 317.332 22.94 317.313 21.762ZM324.324 24.764L326.604 23.814C327.744 25.429 329.321 29.02 329.891 30.806L327.516 31.927C327.022 29.837 325.673 26.436 324.324 24.764ZM338.764 32.117C338.365 29.134 342.393 28.45 342.393 26.607C342.393 25.467 341.481 24.821 339.999 24.821C338.821 24.821 337.833 25.334 336.959 26.322L335.401 24.878C336.598 23.472 338.27 22.56 340.303 22.56C343.058 22.56 345.072 23.833 345.072 26.36C345.072 29.153 340.93 29.476 341.215 32.117H338.764ZM338.023 35.29C338.023 34.188 338.859 33.428 339.999 33.428C341.139 33.428 341.975 34.188 341.975 35.29C341.975 36.392 341.139 37.171 339.999 37.171C338.859 37.171 338.023 36.392 338.023 35.29Z" fill="#1F1F21"/>
</svg>
