<svg width="254" height="560" viewBox="0 0 254 560" fill="none" xmlns="http://www.w3.org/2000/svg">
<g opacity="0.6" clip-path="url(#clip0_7_519)">
<g style="mix-blend-mode:plus-darker">
<path d="M5.09708 297.983H0V303.08H5.09708V297.983Z" fill="#BFC8D9"/>
<path d="M46.626 297.983H41.5289V303.08H46.626V297.983Z" fill="#BFC8D9"/>
<path d="M88.1492 297.983H83.0522V303.08H88.1492V297.983Z" fill="#BFC8D9"/>
<path d="M129.678 297.983H124.581V303.08H129.678V297.983Z" fill="#BFC8D9"/>
<path d="M171.201 297.983H166.104V303.08H171.201V297.983Z" fill="#BFC8D9"/>
<path d="M212.73 297.983H207.633V303.08H212.73V297.983Z" fill="#BFC8D9"/>
<path d="M254.259 297.983H249.162V303.08H254.259V297.983Z" fill="#BFC8D9"/>
<path d="M5.09708 340.803H0V345.9H5.09708V340.803Z" fill="#BFC8D9"/>
<path d="M46.626 340.803H41.5289V345.9H46.626V340.803Z" fill="#BFC8D9"/>
<path d="M88.1492 340.803H83.0522V345.9H88.1492V340.803Z" fill="#BFC8D9"/>
<path d="M129.678 340.803H124.581V345.9H129.678V340.803Z" fill="#BFC8D9"/>
<path d="M171.201 340.803H166.104V345.9H171.201V340.803Z" fill="#BFC8D9"/>
<path d="M212.73 340.803H207.633V345.9H212.73V340.803Z" fill="#BFC8D9"/>
<path d="M254.259 340.803H249.162V345.9H254.259V340.803Z" fill="#BFC8D9"/>
<path d="M5.09708 383.623H0V388.72H5.09708V383.623Z" fill="#BFC8D9"/>
<path d="M46.626 383.623H41.5289V388.72H46.626V383.623Z" fill="#BFC8D9"/>
<path d="M88.1492 383.623H83.0522V388.72H88.1492V383.623Z" fill="#BFC8D9"/>
<path d="M129.678 383.623H124.581V388.72H129.678V383.623Z" fill="#BFC8D9"/>
<path d="M171.201 383.623H166.104V388.72H171.201V383.623Z" fill="#BFC8D9"/>
<path d="M212.73 383.623H207.633V388.72H212.73V383.623Z" fill="#BFC8D9"/>
<path d="M254.259 383.623H249.162V388.72H254.259V383.623Z" fill="#BFC8D9"/>
<path d="M5.09708 426.443H0V431.54H5.09708V426.443Z" fill="#BFC8D9"/>
<path d="M46.626 426.443H41.5289V431.54H46.626V426.443Z" fill="#BFC8D9"/>
<path d="M88.1492 426.443H83.0522V431.54H88.1492V426.443Z" fill="#BFC8D9"/>
<path d="M129.678 426.443H124.581V431.54H129.678V426.443Z" fill="#BFC8D9"/>
<path d="M171.201 426.443H166.104V431.54H171.201V426.443Z" fill="#BFC8D9"/>
<path d="M212.73 426.443H207.633V431.54H212.73V426.443Z" fill="#BFC8D9"/>
<path d="M254.259 426.443H249.162V431.54H254.259V426.443Z" fill="#BFC8D9"/>
<path d="M5.09708 469.263H0V474.36H5.09708V469.263Z" fill="#BFC8D9"/>
<path d="M46.626 469.263H41.5289V474.36H46.626V469.263Z" fill="#BFC8D9"/>
<path d="M88.1492 469.263H83.0522V474.36H88.1492V469.263Z" fill="#BFC8D9"/>
<path d="M129.678 469.263H124.581V474.36H129.678V469.263Z" fill="#BFC8D9"/>
<path d="M171.201 469.263H166.104V474.36H171.201V469.263Z" fill="#BFC8D9"/>
<path d="M212.73 469.263H207.633V474.36H212.73V469.263Z" fill="#BFC8D9"/>
<path d="M254.259 469.263H249.162V474.36H254.259V469.263Z" fill="#BFC8D9"/>
<path d="M5.09708 512.083H0V517.18H5.09708V512.083Z" fill="#BFC8D9"/>
<path d="M46.626 512.083H41.5289V517.18H46.626V512.083Z" fill="#BFC8D9"/>
<path d="M88.1492 512.083H83.0522V517.18H88.1492V512.083Z" fill="#BFC8D9"/>
<path d="M129.678 512.083H124.581V517.18H129.678V512.083Z" fill="#BFC8D9"/>
<path d="M171.201 512.083H166.104V517.18H171.201V512.083Z" fill="#BFC8D9"/>
<path d="M212.73 512.083H207.633V517.18H212.73V512.083Z" fill="#BFC8D9"/>
<path d="M254.259 512.083H249.162V517.18H254.259V512.083Z" fill="#BFC8D9"/>
<path d="M5.09708 554.903H0V560H5.09708V554.903Z" fill="#BFC8D9"/>
<path d="M46.626 554.903H41.5289V560H46.626V554.903Z" fill="#BFC8D9"/>
<path d="M88.1492 554.903H83.0522V560H88.1492V554.903Z" fill="#BFC8D9"/>
<path d="M129.678 554.903H124.581V560H129.678V554.903Z" fill="#BFC8D9"/>
<path d="M171.201 554.903H166.104V560H171.201V554.903Z" fill="#BFC8D9"/>
<path d="M212.73 554.903H207.633V560H212.73V554.903Z" fill="#BFC8D9"/>
<path d="M254.259 554.903H249.162V560H254.259V554.903Z" fill="#BFC8D9"/>
<path d="M5.09708 0H0V5.09708H5.09708V0Z" fill="#BFC8D9"/>
<path d="M46.626 0H41.5289V5.09708H46.626V0Z" fill="#BFC8D9"/>
<path d="M88.1492 0H83.0522V5.09708H88.1492V0Z" fill="#BFC8D9"/>
<path d="M129.678 0H124.581V5.09708H129.678V0Z" fill="#BFC8D9"/>
<path d="M171.201 0H166.104V5.09708H171.201V0Z" fill="#BFC8D9"/>
<path d="M212.73 0H207.633V5.09708H212.73V0Z" fill="#BFC8D9"/>
<path d="M254.259 0H249.162V5.09708H254.259V0Z" fill="#BFC8D9"/>
<path d="M5.09708 42.82H0V47.9171H5.09708V42.82Z" fill="#BFC8D9"/>
<path d="M46.626 42.82H41.5289V47.9171H46.626V42.82Z" fill="#BFC8D9"/>
<path d="M88.1492 42.82H83.0522V47.9171H88.1492V42.82Z" fill="#BFC8D9"/>
<path d="M129.678 42.82H124.581V47.9171H129.678V42.82Z" fill="#BFC8D9"/>
<path d="M171.201 42.82H166.104V47.9171H171.201V42.82Z" fill="#BFC8D9"/>
<path d="M212.73 42.82H207.633V47.9171H212.73V42.82Z" fill="#BFC8D9"/>
<path d="M254.259 42.82H249.162V47.9171H254.259V42.82Z" fill="#BFC8D9"/>
<path d="M5.09708 85.64H0V90.7371H5.09708V85.64Z" fill="#BFC8D9"/>
<path d="M46.626 85.64H41.5289V90.7371H46.626V85.64Z" fill="#BFC8D9"/>
<path d="M88.1492 85.64H83.0522V90.7371H88.1492V85.64Z" fill="#BFC8D9"/>
<path d="M129.678 85.64H124.581V90.7371H129.678V85.64Z" fill="#BFC8D9"/>
<path d="M171.201 85.64H166.104V90.7371H171.201V85.64Z" fill="#BFC8D9"/>
<path d="M212.73 85.64H207.633V90.7371H212.73V85.64Z" fill="#BFC8D9"/>
<path d="M254.259 85.64H249.162V90.7371H254.259V85.64Z" fill="#BFC8D9"/>
<path d="M5.09708 128.46H0V133.557H5.09708V128.46Z" fill="#BFC8D9"/>
<path d="M46.626 128.46H41.5289V133.557H46.626V128.46Z" fill="#BFC8D9"/>
<path d="M88.1492 128.46H83.0522V133.557H88.1492V128.46Z" fill="#BFC8D9"/>
<path d="M129.678 128.46H124.581V133.557H129.678V128.46Z" fill="#BFC8D9"/>
<path d="M171.201 128.46H166.104V133.557H171.201V128.46Z" fill="#BFC8D9"/>
<path d="M212.73 128.46H207.633V133.557H212.73V128.46Z" fill="#BFC8D9"/>
<path d="M254.259 128.46H249.162V133.557H254.259V128.46Z" fill="#BFC8D9"/>
<path d="M5.09708 171.28H0V176.377H5.09708V171.28Z" fill="#BFC8D9"/>
<path d="M46.626 171.28H41.5289V176.377H46.626V171.28Z" fill="#BFC8D9"/>
<path d="M88.1492 171.28H83.0522V176.377H88.1492V171.28Z" fill="#BFC8D9"/>
<path d="M129.678 171.28H124.581V176.377H129.678V171.28Z" fill="#BFC8D9"/>
<path d="M171.201 171.28H166.104V176.377H171.201V171.28Z" fill="#BFC8D9"/>
<path d="M212.73 171.28H207.633V176.377H212.73V171.28Z" fill="#BFC8D9"/>
<path d="M254.259 171.28H249.162V176.377H254.259V171.28Z" fill="#BFC8D9"/>
<path d="M5.09708 214.1H0V219.197H5.09708V214.1Z" fill="#BFC8D9"/>
<path d="M46.626 214.1H41.5289V219.197H46.626V214.1Z" fill="#BFC8D9"/>
<path d="M88.1492 214.1H83.0522V219.197H88.1492V214.1Z" fill="#BFC8D9"/>
<path d="M129.678 214.1H124.581V219.197H129.678V214.1Z" fill="#BFC8D9"/>
<path d="M171.201 214.1H166.104V219.197H171.201V214.1Z" fill="#BFC8D9"/>
<path d="M212.73 214.1H207.633V219.197H212.73V214.1Z" fill="#BFC8D9"/>
<path d="M254.259 214.1H249.162V219.197H254.259V214.1Z" fill="#BFC8D9"/>
<path d="M5.09708 256.92H0V262.017H5.09708V256.92Z" fill="#BFC8D9"/>
<path d="M46.626 256.92H41.5289V262.017H46.626V256.92Z" fill="#BFC8D9"/>
<path d="M88.1492 256.92H83.0522V262.017H88.1492V256.92Z" fill="#BFC8D9"/>
<path d="M129.678 256.92H124.581V262.017H129.678V256.92Z" fill="#BFC8D9"/>
<path d="M171.201 256.92H166.104V262.017H171.201V256.92Z" fill="#BFC8D9"/>
<path d="M212.73 256.92H207.633V262.017H212.73V256.92Z" fill="#BFC8D9"/>
<path d="M254.259 256.92H249.162V262.017H254.259V256.92Z" fill="#BFC8D9"/>
</g>
</g>
<defs>
<clipPath id="clip0_7_519">
<rect width="254" height="560" fill="white"/>
</clipPath>
</defs>
</svg>
