<svg width="222" height="120" viewBox="0 0 222 120" fill="none" xmlns="http://www.w3.org/2000/svg">
<g clip-path="url(#clip0_7_623)">
<path d="M14.1293 120H9.4151V110.573H0V105.852H9.4151V96.4252H14.1293V105.852H23.5444V110.573H14.1293V120Z" fill="#BFC8D9"/>
<path d="M14.1293 28.2621H9.4151V18.8348H0V14.1211H9.4151V4.69384H14.1293V14.1211H23.5444V18.8348H14.1293V28.2621Z" fill="#BFC8D9"/>
<path d="M209.598 15.3226H206.691V0.653544H209.598V15.3226Z" fill="white" fill-opacity="0.7"/>
<path d="M210.257 -2.76566e-05H206.031V15.9894H210.257V-2.76566e-05ZM207.35 1.32032H208.939V14.6691H207.35V1.32032Z" fill="white" fill-opacity="0.7"/>
<path d="M221.341 12.4113V15.3226L206.691 15.3226V12.4113H221.341Z" fill="white" fill-opacity="0.7"/>
<path d="M222 11.7577H206.031V15.9894H222V11.7577ZM207.35 13.078H220.681V14.6691H207.35V13.078Z" fill="white" fill-opacity="0.7"/>
<path d="M206.691 12.4179H209.598V27.0869H206.691V12.4179Z" fill="white" fill-opacity="0.7"/>
<path d="M210.257 11.7577H206.031V27.7471H210.257V11.7577ZM207.35 13.078H208.939V26.4268H207.35V13.078Z" fill="white" fill-opacity="0.7"/>
<path d="M194.948 15.3292V12.4179L209.598 12.4179V15.3292H194.948Z" fill="white" fill-opacity="0.7"/>
<path d="M210.257 11.7577H194.289V15.9894H210.257V11.7577ZM195.607 13.078H208.939V14.6691H195.607V13.078Z" fill="white" fill-opacity="0.7"/>
<path d="M100.276 15.3226H97.3685V0.653544H100.276V15.3226Z" fill="white" fill-opacity="0.7"/>
<path d="M100.929 -2.76566e-05H96.7026V15.9894H100.929V-2.76566e-05ZM98.0279 1.32032H99.6168V14.6691H98.0279V1.32032Z" fill="white" fill-opacity="0.7"/>
<path d="M112.012 12.4179V15.3292L97.3619 15.3292V12.4179H112.012Z" fill="white" fill-opacity="0.7"/>
<path d="M112.671 11.7577H96.7026V15.9894H112.671V11.7577ZM98.0279 13.078H111.359V14.6691H98.0279V13.078Z" fill="white" fill-opacity="0.7"/>
<path d="M97.3619 12.4179H100.27V27.0869H97.3619V12.4179Z" fill="white" fill-opacity="0.7"/>
<path d="M100.929 11.7577H96.7026V27.7471H100.929V11.7577ZM98.0279 13.078H99.6168V26.4268H98.0279V13.078Z" fill="white" fill-opacity="0.7"/>
<path d="M85.626 15.3226V12.4113L100.276 12.4113V15.3226H85.626Z" fill="white" fill-opacity="0.7"/>
<path d="M100.929 11.7577H84.9601V15.9894H100.929V11.7577ZM86.2853 13.078H99.6168V14.6691H86.2853V13.078Z" fill="white" fill-opacity="0.7"/>
</g>
<defs>
<clipPath id="clip0_7_623">
<rect width="222" height="120" fill="white" transform="matrix(1 0 0 -1 0 120)"/>
</clipPath>
</defs>
</svg>
