<svg width="203" height="180" viewBox="0 0 203 180" fill="none" xmlns="http://www.w3.org/2000/svg">
<g clip-path="url(#clip0_9_335)">
<path d="M27.8894 121.734L39.2228 115.081C41.8799 113.525 43.5292 109.829 42.8808 106.837L41.9786 100.486C41.7601 97.4521 39.2016 94.3262 36.2485 93.5588L23.5125 90.2639C20.5523 89.4895 18.7621 86.4481 19.5444 83.5193L24.6261 63.8346C25.3944 60.9128 28.4532 59.1175 31.3994 59.8568L44.1424 63.1657C47.1096 63.919 50.8592 62.4758 52.5296 59.899L56.3779 54.7807C58.3866 52.4996 58.7672 48.4796 57.2166 45.8395L50.5562 34.5257C49.0126 31.9067 49.9148 28.4569 52.5296 26.9221L70.0935 16.6081C72.7084 15.0733 76.1267 15.9885 77.6703 18.6075L84.3308 29.9213C85.8813 32.5544 89.5887 34.1807 92.5771 33.526L98.9486 32.6389C102.007 32.4347 105.116 29.858 105.863 26.9221L109.175 14.1862C109.951 11.2574 112.988 9.47621 115.92 10.2225L135.641 15.3408C138.573 16.0941 140.356 19.1355 139.609 22.0854L136.304 34.8003C135.535 37.7572 136.994 41.5238 139.553 43.1853L144.67 47.0575C146.974 49.078 151.006 49.4371 153.635 47.8953L164.989 41.2281C167.604 39.6933 171.037 40.5804 172.58 43.2064L182.878 60.7087C184.428 63.3417 183.526 66.7563 180.911 68.2911L169.557 74.9583C166.928 76.5001 165.285 80.2104 165.92 83.1814L166.829 89.5458C167.033 92.5732 169.627 95.6991 172.594 96.4735L185.323 99.7754C188.255 100.536 190.053 103.591 189.298 106.527L184.174 126.205C183.413 129.148 180.376 130.936 177.429 130.169L164.679 126.867C161.747 126.092 157.977 127.549 156.306 130.098L152.43 135.223C150.414 137.533 150.026 141.56 151.584 144.2L158.244 155.521C159.795 158.161 158.921 161.561 156.306 163.096L138.742 173.41C136.127 174.945 132.688 174.079 131.137 171.439L124.477 160.118C122.926 157.478 119.226 155.852 116.238 156.478L109.894 157.358C106.842 157.584 103.755 160.153 102.966 163.11L99.6604 175.839C98.8922 178.789 95.8262 180.584 92.8872 179.817L73.2088 174.699C70.2557 173.938 68.4584 170.883 69.2337 167.947L72.5463 155.225C73.3075 152.268 71.8062 148.502 69.2689 146.84L64.1449 142.954C61.8613 140.954 57.8087 140.581 55.1586 142.144L43.8252 148.797C41.1963 150.339 37.785 149.452 36.2344 146.819L25.9371 129.317C24.3935 126.691 25.2675 123.276 27.8964 121.727L27.8894 121.734ZM117.986 118.108C130.764 110.603 135.021 94.1924 127.522 81.4565C120.015 68.6994 103.6 64.44 90.8221 71.945C78.0791 79.4218 73.7938 95.8399 81.3001 108.597C88.7993 121.34 105.243 125.592 117.986 118.115V118.108Z" fill="#FBEA00"/>
<path d="M88.9544 74.7402H100.104L115.244 117.834H103.664L101.148 110.118H87.6645L85.2118 117.834H73.8784L88.9544 74.7402ZM98.3918 101.303L94.4096 88.7575L90.4274 101.303H98.3918Z" fill="#1F1F21"/>
<path d="M118.127 73.5151H129.22V81.9002H118.127V73.5151ZM118.31 84.7163H129.037V117.834H118.31V84.7163Z" fill="#1F1F21"/>
<path d="M183.773 127.331C186.134 126.902 187.699 124.649 187.29 122.291L172.594 37.8349C172.327 36.2789 171.03 35.2018 169.698 35.4341L30.173 60.9905C28.8409 61.2228 27.9881 62.6731 28.2559 64.222L42.9372 148.6C43.353 150.987 45.6366 152.585 48.0259 152.149L183.773 127.331Z" stroke="#1F1F21" stroke-width="2"/>
<path d="M37.3763 66.2918C37.5243 67.1437 36.9534 67.9463 36.1076 68.0941C35.2548 68.242 34.4513 67.6717 34.3033 66.8269C34.1553 65.975 34.7262 65.1724 35.5719 65.0246C36.4248 64.8767 37.2282 65.447 37.3763 66.2918Z" fill="#1F1F21"/>
<path d="M41.8941 65.5103C42.0421 66.3622 41.4712 67.1648 40.6254 67.3126C39.7796 67.4605 38.9691 66.8902 38.8211 66.0454C38.6731 65.1935 39.244 64.3909 40.0898 64.2431C40.9426 64.0952 41.7461 64.6655 41.8941 65.5103Z" fill="#1F1F21"/>
<path d="M46.4119 64.7218C46.5599 65.5736 45.989 66.3762 45.1432 66.5241C44.2904 66.6719 43.4869 66.1017 43.3389 65.2568C43.1909 64.4049 43.7618 63.6023 44.6076 63.4545C45.4604 63.3066 46.2639 63.8769 46.4119 64.7218Z" fill="#1F1F21"/>
<path d="M155.947 42.5588L156.56 46.086" stroke="#1F1F21" stroke-width="2"/>
<path d="M158.012 44.0161L154.488 44.6286" stroke="#1F1F21" stroke-width="2"/>
<path d="M162.41 41.3198L160.972 41.5733L161.226 43.0025L162.657 42.7561L162.41 41.3198Z" fill="#1F1F21"/>
<path d="M162.812 43.6431L161.381 43.8895L161.628 45.3187L163.058 45.0722L162.812 43.6431Z" fill="#1F1F21"/>
<path d="M164.75 40.9185L163.319 41.1649L163.566 42.5941L164.997 42.3476L164.75 40.9185Z" fill="#1F1F21"/>
<path d="M165.152 43.2346L163.721 43.481L163.968 44.9173L165.405 44.6638L165.152 43.2346Z" fill="#1F1F21"/>
<path d="M190.694 53.7881H142.111C135.317 53.7881 129.805 59.2936 129.805 66.0805C129.805 72.4309 134.626 77.6618 140.814 78.3095V84.85L147.708 78.3799H190.694C197.488 78.3799 203 72.8744 203 66.0875C203 59.3007 197.488 53.7951 190.694 53.7951V53.7881Z" fill="#BFC8D9"/>
<path d="M143.732 63.4968H189.073" stroke="#1F1F21" stroke-width="2"/>
<path d="M143.732 68.6714H189.073" stroke="#1F1F21" stroke-width="2"/>
<path d="M56.6952 126.219H15.7526C10.0225 126.219 5.37781 121.58 5.37781 115.856C5.37781 110.505 9.44457 106.098 14.6602 105.556V100.043L20.4749 105.499H56.7022C62.4324 105.499 67.0771 110.139 67.0771 115.863C67.0771 121.587 62.4324 126.226 56.7022 126.226L56.6952 126.219Z" fill="#1F1F21"/>
<path d="M17.12 116.032H55.3349" stroke="white" stroke-width="2"/>
<path d="M42.8385 27.5629L41.161 30.8648C40.2377 32.6882 40.28 34.6173 41.2527 35.1735L90.8151 62.335L95.8404 52.4293L46.278 25.2677C45.2983 24.7115 43.7618 25.7394 42.8315 27.5629H42.8385Z" fill="#BFC8D9"/>
<path d="M42.7892 36.0394L47.8145 26.1337L46.285 25.2677C45.3053 24.7115 43.7689 25.7394 42.8385 27.5629L41.161 30.8648C40.2377 32.6882 40.28 34.6173 41.2527 35.1735L42.7821 36.0394H42.7892Z" fill="#1F1F21"/>
<path d="M90.8715 62.3773L103.466 63.2503L95.9038 52.4504L90.8715 62.3773Z" fill="white"/>
<path d="M97.546 62.842L103.466 63.2503L99.9071 58.1672L97.546 62.842Z" fill="#1F1F21"/>
<path d="M96.2845 10.3001L92.3093 14.2709L98.272 20.227L102.247 16.2562C103.34 15.165 103.34 13.3767 102.247 12.2855L100.26 10.3001C99.1671 9.20888 97.3769 9.20888 96.2845 10.3001Z" stroke="#1F1F21" stroke-width="2"/>
<path d="M94.5435 17.9951L72.934 39.5737" stroke="#1F1F21" stroke-width="2"/>
<path d="M91.5622 15.0171L69.9526 36.6027L67.7184 44.7836L75.9153 42.5518L97.5249 20.9732" stroke="#1F1F21" stroke-width="2"/>
<path d="M94.5436 10.5535L98.272 14.2708" stroke="#1F1F21" stroke-width="2"/>
<path d="M181.905 125.571L163.989 122.481L146.072 119.39L154.107 135.688L162.135 151.98L166.463 139.42L176.915 147.227L181.524 141.074L171.072 133.266L181.905 125.571Z" fill="#1F1F21"/>
<path d="M147.186 104.943L146.291 108.259" stroke="#1F1F21" stroke-width="2"/>
<path d="M147.186 104.943L146.291 108.259" stroke="#1F1F21" stroke-width="2"/>
<path d="M135.077 108.189L137.509 110.611" stroke="#1F1F21" stroke-width="2"/>
<path d="M131.842 120.277L135.162 119.39" stroke="#1F1F21" stroke-width="2"/>
<path d="M140.702 129.127L141.59 125.804" stroke="#1F1F21" stroke-width="2"/>
<path d="M152.803 125.881L150.372 123.452" stroke="#1F1F21" stroke-width="2"/>
<path d="M156.045 113.793L152.726 114.68" stroke="#1F1F21" stroke-width="2"/>
<path d="M35.4098 1.32369L35.9807 1.77427C36.1146 1.87987 36.3402 1.89395 36.4811 1.80243L36.7913 1.62642C36.9463 1.55602 37.0591 1.35889 37.038 1.18992L36.9534 0.464767C36.9322 0.295799 37.0591 0.140912 37.2212 0.126832L38.3489 0.000105734C38.5181 -0.0210152 38.6731 0.105711 38.6872 0.274678L38.7718 0.999832C38.7929 1.1688 38.9409 1.33073 39.1101 1.36593L39.4555 1.46449C39.6105 1.52082 39.829 1.46449 39.9347 1.33073L40.3858 0.760461C40.4915 0.626695 40.6889 0.605574 40.8228 0.711179L41.7109 1.41521C41.8448 1.52082 41.8659 1.71794 41.7602 1.84467L41.3091 2.41494C41.2034 2.5487 41.1963 2.77399 41.288 2.9148L41.4642 3.22457C41.5347 3.37946 41.732 3.48507 41.9012 3.47099L42.6271 3.3865C42.7963 3.36538 42.9443 3.49211 42.9654 3.65403L43.0923 4.77345C43.1134 4.94241 42.9866 5.09026 42.8245 5.11138L42.0985 5.19587C41.9293 5.21699 41.7602 5.36483 41.725 5.5338L41.6263 5.87878C41.5699 6.04071 41.6263 6.25191 41.7602 6.35752L42.3311 6.81514C42.465 6.92075 42.4862 7.11787 42.3804 7.2446L41.6756 8.12464C41.5699 8.25841 41.3725 8.27953 41.2457 8.17392L40.6748 7.7163C40.5409 7.6107 40.3153 7.59662 40.1744 7.69518L39.8642 7.87119C39.7092 7.94159 39.6035 8.13872 39.6176 8.30769L39.7021 9.03284C39.7233 9.20181 39.5964 9.3567 39.4343 9.37078L38.3137 9.4975C38.1445 9.51863 37.9894 9.3919 37.9754 9.22997L37.8908 8.50482C37.8696 8.33585 37.7216 8.17392 37.5595 8.13872L37.2142 8.04016C37.052 7.98383 36.8406 8.04016 36.7349 8.17392L36.2768 8.74419C36.171 8.87796 35.9737 8.89908 35.8468 8.79347L34.9588 8.08944C34.8248 7.98383 34.8037 7.78671 34.9094 7.65294L35.3675 7.08267C35.4733 6.94891 35.4874 6.72362 35.3887 6.58281L35.2195 6.27304C35.1491 6.11815 34.9517 6.01254 34.7826 6.02662L34.0566 6.11111C33.8874 6.13223 33.7324 6.0055 33.7183 5.83654L33.5914 4.71712C33.5703 4.54816 33.6971 4.39327 33.8592 4.37919L34.5852 4.2947C34.7544 4.27358 34.9165 4.12574 34.9517 3.95677L35.0504 3.61179C35.1068 3.45691 35.0504 3.23866 34.9165 3.13305L34.3456 2.68247C34.2117 2.57686 34.1905 2.37974 34.2962 2.25301L35.001 1.37297C35.1068 1.2392 35.3041 1.21808 35.431 1.32369H35.4098ZM37.3974 5.91398C38.0388 6.42792 38.9762 6.32232 39.4907 5.67461C40.0052 5.03394 39.8995 4.09758 39.2511 3.58363C38.6097 3.06969 37.6723 3.17529 37.1578 3.823C36.6433 4.46367 36.756 5.40003 37.3974 5.91398Z" fill="#1F1F21"/>
<path d="M53.9042 19.8537C53.9042 19.8537 53.9465 19.4806 53.9394 18.854" stroke="#1F1F21" stroke-width="2" stroke-miterlimit="10"/>
<path d="M53.7703 16.749C53.3403 13.9611 51.9025 9.94807 47.3917 7.54028" stroke="#1F1F21" stroke-width="2" stroke-miterlimit="10" stroke-dasharray="3 3"/>
<path d="M46.4331 7.07553C46.1301 6.94176 45.8199 6.81504 45.4957 6.70239" stroke="#1F1F21" stroke-width="2" stroke-miterlimit="10"/>
<path d="M26.5997 95.5373C26.5997 95.5373 26.4869 94.6291 26.4235 94.1574C25.8385 89.5882 21.6589 86.3567 17.0847 86.9411C15.5764 87.1312 10.3115 87.807 8.80317 87.9971C4.22894 88.5815 0.993849 92.7564 1.57884 97.3256C1.64228 97.7973 1.75505 98.7055 1.75505 98.7055L26.5997 95.5373Z" fill="#1F1F21"/>
<path d="M17.2257 77.1128C17.6134 80.1613 15.4566 82.9422 12.4119 83.3294C9.36002 83.7167 6.57601 81.5623 6.18837 78.5209C5.80072 75.4724 7.95744 72.6915 11.0022 72.3043C14.0541 71.9171 16.8381 74.0714 17.2257 77.1128Z" fill="#1F1F21"/>
<path d="M16.7411 139.556L2.51336 148.551C0.707619 149.692 0.170254 152.08 1.31312 153.884L10.318 168.096C11.4608 169.9 13.8512 170.436 15.6569 169.295L29.8847 160.3C31.6904 159.158 32.2278 156.771 31.0849 154.967L22.0801 140.755C20.9372 138.951 18.5469 138.414 16.7411 139.556Z" stroke="#1F1F21" stroke-width="2" stroke-miterlimit="10"/>
<path d="M13.4549 150.776C14.5051 152.43 14.0117 154.613 12.3554 155.662C10.6991 156.711 8.51417 156.218 7.464 154.563C6.41383 152.909 6.9072 150.727 8.5635 149.677C10.2198 148.628 12.4047 149.121 13.4549 150.776Z" fill="#1F1F21"/>
<path d="M10.3114 168.102L8.26746 164.878L8.80311 162.512C9.19781 160.759 10.9387 159.661 12.6937 160.055C14.357 160.428 15.9992 159.386 16.3728 157.725L18.4661 148.424C18.9665 146.214 21.1585 144.827 23.3716 145.327L25.2323 145.742L31.0822 154.979C32.224 156.781 31.6884 159.175 29.884 160.315L15.6609 169.306C13.8566 170.446 11.4603 169.911 10.3185 168.109L10.3114 168.102Z" fill="#1F1F21"/>
</g>
<defs>
<clipPath id="clip0_9_335">
<rect width="203" height="180" fill="white"/>
</clipPath>
</defs>
</svg>
