<svg width="162" height="110" viewBox="0 0 162 110" fill="none" xmlns="http://www.w3.org/2000/svg">
<g clip-path="url(#clip0_12_3365)">
<path d="M79.1769 43.4044C85.9901 43.4044 91.5133 37.8829 91.5133 31.0718C91.5133 24.2607 85.9901 18.7393 79.1769 18.7393C72.3636 18.7393 66.8404 24.2607 66.8404 31.0718C66.8404 37.8829 72.3636 43.4044 79.1769 43.4044Z" fill="#1F1F21"/>
<path d="M53.8716 11.8765C58.9869 11.7292 63.5887 14.1482 66.4458 17.9596C65.1004 17.646 63.7075 17.4939 62.2766 17.5319C52.5643 17.8123 45.0055 26.5948 45.3906 37.1452C45.4144 37.7298 45.4619 38.3096 45.5285 38.8799C41.9487 36.2375 39.5575 32.0601 39.3864 27.2934C39.0821 19.0194 45.5713 12.1141 53.8716 11.8717V11.8765Z" fill="#1F1F21"/>
<path d="M60.2515 17.3937C57.5655 14.5993 46.5031 9.61397 39.3484 20.787C35.7924 26.3426 24.5541 22.1984 20.808 21.7564C14.9987 21.0721 10.8485 31.3326 17.6229 41.3508C19.5672 44.226 27.4588 54.0398 30.14 53.5313C32.8212 53.018 57.4466 60.6029 45.3051 40.9658C42.1722 35.8997 57.3278 33.514 64.0689 25.6725C65.2146 24.3418 63.9025 21.2004 60.2515 17.3985V17.3937Z" stroke="#1F1F21" stroke-linecap="round" stroke-linejoin="round"/>
<path d="M62.3812 13.4636C58.6731 10.8973 45.0911 7.35197 40.0282 20.521C37.5133 27.0698 23.9551 24.4513 19.6765 24.5891C13.0448 24.8029 11.0862 36.5082 21.2026 46.1604C24.1072 48.9358 35.4168 58.1888 38.2645 57.2003C41.1121 56.2118 70.4344 60.3369 51.8655 41.2226C47.0735 36.2896 63.2987 31.252 68.7657 21.7281C69.6927 20.1123 67.4251 16.9519 62.3812 13.4589V13.4636Z" fill="#1F1F21"/>
<path d="M26.6173 52.8805C21.8443 58.5739 13.1874 59.4198 7.28302 54.7672C1.37863 50.1145 0.46112 41.7265 5.22932 36.0283C10.0023 30.3349 18.6592 29.4889 24.5636 34.1416C30.468 38.7942 31.3855 47.1823 26.6173 52.8805Z" fill="#1F1F21"/>
<path d="M24.9154 52.443C20.1424 58.1364 11.4855 58.9823 5.58112 54.3297C-0.323274 49.677 -1.24078 41.289 3.52742 35.5908C8.30037 29.8974 16.9573 29.0514 22.8617 33.7041C28.7661 38.3567 29.6836 46.7448 24.9154 52.443Z" stroke="#1F1F21" stroke-linecap="round" stroke-linejoin="round"/>
<path d="M41.7348 57.9935C37.7606 62.7365 30.5488 63.4398 25.6285 59.5666C20.7082 55.6933 19.9428 48.7025 23.9218 43.9596C27.8961 39.2166 35.1079 38.5133 40.0282 42.3865C44.9485 46.2597 45.7139 53.2506 41.7348 57.9935Z" fill="#1F1F21"/>
<path d="M63.0277 58.845C61.2593 58.5931 56.2248 56.9725 51.1667 55.2521C43.4035 52.605 34.8131 55.043 29.579 61.359L11.3381 83.3818C6.83141 87.7493 5.61916 95.4388 8.49054 101.508C10.5775 105.923 14.4615 108.651 18.6687 108.651H103.831L88.2426 73.0025C85.5091 66.7483 79.7759 62.1954 72.9112 60.8267L63.0325 58.8545L63.0277 58.845Z" fill="white" stroke="#1F1F21" stroke-linecap="round" stroke-linejoin="round"/>
<path d="M29.6836 90.0879L50.0732 94.9877" stroke="#1F1F21" stroke-linecap="round" stroke-linejoin="round"/>
<path d="M57.3713 60.5886L56.7667 60.2479C54.5759 59.0133 53.799 56.2296 55.0339 54.0396L70.2592 27.0386L84.8697 35.2719L73.0643 56.2078C69.9409 61.7471 62.9082 63.7088 57.3672 60.5862L57.3713 60.5886Z" fill="white" stroke="#1F1F21" stroke-linecap="round" stroke-linejoin="round"/>
<path d="M50.0733 94.8302L69.2934 97.0115C70.6436 95.1676 72.9635 92.1593 76.9568 87.193C77.5463 86.4564 78.4305 86.0334 79.3813 86.0334H79.8472L80.2132 85.5677C80.9691 84.6077 82.2194 84.1799 83.4269 84.4794L84.3016 83.7522C85.4236 82.816 87.0684 82.797 88.2236 83.7L88.5279 83.9471C88.5279 83.9471 88.5516 83.9471 88.5659 83.9518L97.4035 87.2643C97.4938 87.2975 97.5746 87.3593 97.6269 87.4449L103.802 97.0828C103.912 97.2492 103.897 97.463 103.769 97.6151C103.351 98.1189 102.414 98.789 101.192 98.789C100.655 98.789 100.066 98.6559 99.4382 98.3232C98.7916 97.9763 98.2592 97.6103 97.8171 97.2587L99.6236 101.826C99.7139 102.049 99.6093 102.306 99.3906 102.406C99.1529 102.515 97.5556 103.204 96.1675 103.204C95.6588 103.204 95.1786 103.104 94.7983 102.857C94.2849 103.194 93.5908 103.494 92.854 103.494C92.2597 103.494 91.6417 103.299 91.0665 102.781C90.6196 102.377 90.2108 101.902 89.8447 101.422C89.8352 101.55 89.7924 101.669 89.6878 101.75C89.2885 102.059 88.699 102.391 88.0763 102.539C88.0667 102.553 88.062 102.567 88.0525 102.581C87.8861 102.781 83.9831 107.486 80.6126 108.161C76.8474 108.912 71.4137 108.921 71.1855 108.921H48.1812C48.0528 108.921 49.9592 94.8112 50.078 94.8302H50.0733Z" fill="white"/>
<path d="M69.3743 97.477L50.2349 95.1436L48.6519 108.469H71.1808C71.1808 108.469 76.7524 108.469 80.5175 107.719C83.7692 107.067 87.9004 102.296 87.9004 102.296" stroke="#1F1F21" stroke-linecap="round" stroke-linejoin="round"/>
<path d="M67.8673 100.034C67.8673 99.2832 74.9031 90.4674 77.3134 87.4733C77.8173 86.846 78.5779 86.4848 79.3814 86.4848H80.0659L80.5651 85.848C81.2592 84.964 82.4286 84.6124 83.4935 84.9688L83.5268 84.9783L84.5822 84.0991C85.5472 83.2959 86.9401 83.2769 87.9289 84.0516L92.5926 87.844C93.5624 88.6329 94.3087 89.6547 94.7699 90.8143L99.191 101.992C99.191 101.992 96.177 103.346 94.9743 102.444" stroke="#1F1F21" stroke-linecap="round" stroke-linejoin="round"/>
<path d="M86.2413 86.9365L89.6974 90.5959C90.7955 91.7603 91.6513 93.1337 92.2027 94.6355L94.979 102.149C94.979 102.149 93.0204 103.955 91.366 102.448C89.7069 100.942 88.5041 98.3852 88.5041 98.3852" stroke="#1F1F21" stroke-linecap="round" stroke-linejoin="round"/>
<path d="M81.8771 89.6455C82.2099 89.8118 83.8405 91.2281 85.2239 92.4542C86.5788 93.6518 87.5629 95.2059 88.081 96.9405L89.4074 101.389C89.4074 101.389 87.4488 102.895 86.3934 101.688C85.338 100.486 82.7804 97.0213 82.7804 97.0213L79.619 94.7639" stroke="#1F1F21" stroke-linecap="round" stroke-linejoin="round"/>
<path d="M88.9557 84.375L97.2419 87.6875L103.417 97.3254C103.417 97.3254 101.91 99.1313 99.6521 97.929C97.394 96.7266 96.4907 95.2201 96.4907 95.2201" stroke="#1F1F21" stroke-linecap="round" stroke-linejoin="round"/>
<path d="M81.5729 96.5742C81.5729 96.5742 81.2734 96.5742 79.9898 98.6843" stroke="#1F1F21" stroke-linecap="round" stroke-linejoin="round"/>
<path d="M151.327 108.973H103.836L115.996 57.8942C116.695 54.9525 119.562 52.7093 122.034 53.1655L159.385 60.0376C161.368 60.4035 162.418 62.409 161.853 64.7663L151.327 108.973Z" fill="#1F1F21"/>
<path d="M74.8746 103.181H132.226V108.979H70.4249V107.629C70.4249 105.177 72.4168 103.181 74.8746 103.181Z" fill="#1F1F21"/>
<path d="M140.127 84.9689C139.262 87.8393 137.184 89.6453 135.483 88.9942C133.781 88.3431 133.101 85.4916 133.966 82.6164C134.831 79.7412 136.909 77.94 138.611 78.5911C140.313 79.2422 140.992 82.0936 140.127 84.9689Z" fill="white"/>
<path d="M55.7637 51.8398L64.4587 62.4283L72.6782 58.9495L74.0997 60.8457L67.4584 71.7526L64.6108 64.6429C64.6108 64.6429 60.1849 72.3846 60.028 71.9142C59.8711 71.4389 51.9653 55.4802 51.9653 55.4802L55.759 51.8446L55.7637 51.8398Z" fill="white" stroke="#1F1F21" stroke-linecap="round" stroke-linejoin="round"/>
<path d="M81.9973 45.4581C87.9003 39.0428 87.1467 28.7487 80.3139 22.4654C73.4812 16.1822 63.1568 16.2892 57.2537 22.7045C51.3507 29.1197 52.1043 39.4139 58.9371 45.6971C65.7698 51.9804 76.0942 51.8733 81.9973 45.4581Z" fill="#1F1F21"/>
<path d="M65.4665 33.3527C68.0622 28.8474 73.4627 26.4855 78.7063 27.9397C84.9244 29.6648 88.5612 36.0997 86.8402 42.3111L86.4932 43.5562C87.6912 44.0362 88.3663 45.3431 88.005 46.6121C87.6484 47.8667 86.4029 48.6223 85.1478 48.4132L83.9451 52.7474C82.2194 58.9636 75.7826 62.5993 69.5692 60.8789C63.351 59.1537 59.7143 52.7189 61.4352 46.5075L62.4716 42.7768L60.5605 41.3321C58.4878 39.7638 58.0789 36.8125 59.643 34.7405C61.0264 32.9108 63.4841 32.3785 65.4665 33.3527Z" fill="white" stroke="#1F1F21" stroke-linecap="round" stroke-linejoin="round"/>
<path d="M63.0087 35.8242C63.0087 35.8242 64.1972 37.3165 63.1989 39.0369" stroke="#1F1F21" stroke-linecap="round" stroke-linejoin="round"/>
<path d="M64.6203 64.6426L60.8267 96.2511" stroke="#1F1F21" stroke-linecap="round" stroke-linejoin="round"/>
<path d="M41.2214 54.6865L42.3529 58.0465C44.5825 64.6619 44.4541 71.8476 41.9773 78.3774L36.9524 91.67" stroke="#1F1F21" stroke-linecap="round" stroke-linejoin="round"/>
<path d="M43.4368 94.1982L40.746 109.525" stroke="#1F1F21" stroke-linecap="round" stroke-linejoin="round"/>
<path d="M46.2796 106.364C46.2796 106.977 45.7852 107.471 45.1719 107.471C44.5587 107.471 44.0643 106.977 44.0643 106.364C44.0643 105.751 44.5587 105.257 45.1719 105.257C45.7852 105.257 46.2796 105.751 46.2796 106.364Z" stroke="#1F1F21" stroke-linecap="round" stroke-linejoin="round"/>
<path d="M81.3599 30.0741C82.1992 24.9055 78.6882 20.0354 73.518 19.1964C68.3477 18.3574 63.476 21.8673 62.6368 27.0359C61.7975 32.2045 65.3085 37.0747 70.4788 37.9137C75.649 38.7526 80.5207 35.2428 81.3599 30.0741Z" fill="#1F1F21"/>
<path d="M133.99 27.4072C134.142 27.4548 134.289 27.5023 134.441 27.5546" stroke="#1F1F21" stroke-miterlimit="10"/>
<path d="M135.345 27.8916C144.363 31.4844 152.259 42.0681 148.922 54.1298" stroke="#1F1F21" stroke-miterlimit="10" stroke-dasharray="2.03 2.03"/>
<path d="M148.794 54.5908C148.746 54.7429 148.703 54.895 148.651 55.0471" stroke="#1F1F21" stroke-miterlimit="10"/>
<path d="M137.903 26.1854C140.606 14.7386 133.514 3.269 122.064 0.567318C110.614 -2.13437 99.1405 4.95494 96.4379 16.4017C93.7354 27.8485 100.827 39.3181 112.277 42.0198C123.728 44.7214 135.201 37.6322 137.903 26.1854Z" fill="#1F1F21"/>
<mask id="mask0_12_3365" style="mask-type:luminance" maskUnits="userSpaceOnUse" x="95" y="-1" width="44" height="44">
<path d="M137.903 26.1844C140.606 14.7376 133.514 3.26803 122.064 0.566341C110.614 -2.13534 99.1405 4.95396 96.4379 16.4007C93.7354 27.8475 100.827 39.3171 112.277 42.0188C123.728 44.7205 135.201 37.6312 137.903 26.1844Z" fill="white"/>
</mask>
<g mask="url(#mask0_12_3365)">
<path d="M123.241 7.54688H109.597C105.323 7.54688 101.858 11.0108 101.858 15.2838V20.5686C101.858 24.8416 105.323 28.3055 109.597 28.3055H123.241C127.516 28.3055 130.981 24.8416 130.981 20.5686V15.2838C130.981 11.0108 127.516 7.54688 123.241 7.54688Z" fill="#FBEA00"/>
<path d="M120.28 11.5244H108.704C105.401 11.5244 102.723 14.2011 102.723 17.503V20.8772C102.723 24.1791 105.401 26.8558 108.704 26.8558H120.28C123.582 26.8558 126.26 24.1791 126.26 20.8772V17.503C126.26 14.2011 123.582 11.5244 120.28 11.5244Z" fill="#1F1F21"/>
<path d="M111.399 14.2734H113.914L117.327 23.9953H114.715L114.149 22.2543H111.111L110.558 23.9953H108L111.399 14.2734ZM113.525 20.2686L112.627 17.4389L111.73 20.2686H113.525Z" fill="white"/>
<path d="M117.98 14H120.481V15.8897H117.98V14ZM118.018 16.5276H120.437V24H118.018V16.5276Z" fill="white"/>
<path d="M130.534 22.5603C131.917 22.5603 133.039 20.4304 133.039 17.8031C133.039 15.1758 131.917 13.0459 130.534 13.0459C129.15 13.0459 128.028 15.1758 128.028 17.8031C128.028 20.4304 129.15 22.5603 130.534 22.5603Z" fill="#FBEA00"/>
<path d="M132.288 17.8027C132.288 19.1191 131.727 20.1884 131.033 20.1884C130.339 20.1884 129.778 19.1191 129.778 17.8027C129.778 16.4863 130.339 15.417 131.033 15.417C131.727 15.417 132.288 16.4863 132.288 17.8027Z" fill="white"/>
<path d="M130.534 22.5605C129.15 22.5605 128.028 20.4314 128.028 17.8033C128.028 16.5771 128.271 15.4651 128.67 14.6191" stroke="#1F1F21" stroke-linecap="round" stroke-linejoin="round"/>
<path d="M109.074 53.2321L104.387 40.8472C102.333 35.4199 106.346 29.6172 112.15 29.6172H121.525C127.33 29.6172 131.342 35.4199 129.288 40.8472L124.601 53.2321C121.896 60.3797 111.779 60.3797 109.074 53.2321Z" fill="#FBEA00"/>
<path d="M129.288 40.8472C131.342 35.4199 127.33 29.6172 121.525 29.6172H115.654C113.885 33.7518 113.073 39.3977 113.881 44.9153L115.873 58.5358" stroke="#1F1F21" stroke-linecap="round" stroke-linejoin="round"/>
<path d="M121.525 29.6123H112.15C109.921 29.6123 107.962 30.4677 106.503 31.8317C106.564 32.8867 106.626 33.9465 106.693 35.0111C106.897 38.9604 109.498 40.7378 112.535 41.3793C115.583 41.9069 119.072 41.2986 121.23 37.815C122.718 35.434 122.015 32.3212 125.685 30.7291C124.477 30.0258 123.061 29.6123 121.52 29.6123H121.525Z" stroke="#1F1F21" stroke-linecap="round" stroke-linejoin="round"/>
<path d="M117.373 43.624C119.33 41.6678 119.33 38.4962 117.373 36.5401C115.417 34.5839 112.244 34.5839 110.287 36.5401C108.33 38.4962 108.33 41.6678 110.287 43.624C112.244 45.5801 115.417 45.5801 117.373 43.624Z" fill="#FBEA00" stroke="#1F1F21" stroke-linecap="round" stroke-linejoin="round"/>
<path d="M116.757 40.0819C116.757 41.6978 115.449 43.0047 113.833 43.0047C112.217 43.0047 110.909 41.6978 110.909 40.0819C110.909 38.4661 112.217 37.1592 113.833 37.1592C115.449 37.1592 116.757 38.4661 116.757 40.0819Z" fill="white"/>
</g>
<path d="M100.961 59.0565C102.906 58.9685 104.822 58.2682 106.57 57.4377C108.083 56.7221 109.574 55.6927 110.014 53.9667C110.45 52.2637 109.824 50.3962 108.69 49.1103C107.556 47.8245 105.849 46.9328 104.154 46.4238C102.334 45.8804 100.27 45.6355 98.3891 46.0067C96.9516 46.2937 95.3814 47.1012 95.2677 48.7583C95.1501 50.4957 96.0983 52.3211 97.3271 53.4883C97.8164 53.9514 99.0642 55.0497 99.4359 53.9284C99.7165 53.0865 98.9504 52.0953 98.4005 51.5328C97.7747 50.8937 96.8682 50.3847 95.9617 50.7023C95.1956 50.9702 94.6532 51.7203 94.4257 52.4819C93.8568 54.3838 95.207 56.1787 96.7772 57.0742L96.1362 57.4454C96.1627 56.9096 96.03 56.3815 95.6887 55.9567C95.518 55.7424 95.1994 55.3865 94.9074 55.5664C94.7025 55.6927 94.5281 56.0141 94.4105 56.2131C93.8264 57.1928 93.7051 58.383 94.0274 59.4698C94.1867 60.0018 93.3637 60.2276 93.2044 59.6995C92.7341 58.1189 93.0717 56.1978 94.255 55.0076C94.8808 54.3762 95.6507 54.6632 96.2007 55.2487C96.7506 55.8343 97.0313 56.6417 96.9896 57.4454C96.9706 57.7707 96.6406 57.985 96.3486 57.8166C94.6343 56.8407 93.2006 54.9617 93.4737 52.876C93.7051 51.1042 95.2032 49.4241 97.0958 49.803C98.0667 49.9982 98.8783 50.6909 99.4624 51.4639C100.047 52.2369 100.604 53.3276 100.191 54.3379C99.1856 56.7757 96.451 54.005 95.6621 52.8301C94.5622 51.1922 93.7733 48.6281 95.0894 46.8945C96.2652 45.3523 98.4005 45.0117 100.206 45.0002C104.378 44.9772 109.858 46.9022 110.856 51.5328C111.106 52.6885 111.045 53.9131 110.556 55C110.067 56.0868 109.259 56.8407 108.326 57.4531C107.325 58.1075 106.198 58.5667 105.087 58.9877C103.76 59.489 102.387 59.8525 100.964 59.9176C100.414 59.9406 100.418 59.0795 100.964 59.0565H100.961Z" fill="#1F1F21"/>
</g>
<defs>
<clipPath id="clip0_12_3365">
<rect width="162" height="110" fill="white"/>
</clipPath>
</defs>
</svg>
