<svg width="159" height="120" viewBox="0 0 159 120" fill="none" xmlns="http://www.w3.org/2000/svg">
<g clip-path="url(#clip0_12_3161)">
<path d="M159 120.001V36.9673C159 35.3373 157.873 34.0127 156.483 34.0127H48.7311C47.3408 34.0127 46.2141 35.3373 46.2141 36.9673V120.001H159Z" fill="#CED6DD"/>
<path d="M55.1086 40.6825C55.1086 41.5725 54.3903 42.2917 53.4962 42.2917C52.6021 42.2917 51.8889 41.5725 51.8889 40.6825C51.8889 39.7925 52.6124 39.0732 53.4962 39.0732C54.3799 39.0732 55.1086 39.7977 55.1086 40.6825Z" stroke="#1F1F21"/>
<path d="M59.8376 40.6825C59.8376 41.5725 59.114 42.2917 58.2251 42.2917C57.3361 42.2917 56.6178 41.5725 56.6178 40.6825C56.6178 39.7925 57.3361 39.0732 58.2251 39.0732C59.114 39.0732 59.8376 39.7977 59.8376 40.6825Z" stroke="#1F1F21"/>
<path d="M64.5613 40.6825C64.5613 41.5725 63.8429 42.2917 62.954 42.2917C62.0651 42.2917 61.3415 41.5725 61.3415 40.6825C61.3415 39.7925 62.0651 39.0732 62.954 39.0732C63.8429 39.0732 64.5613 39.7977 64.5613 40.6825Z" stroke="#1F1F21"/>
<path d="M135.557 40.1289L133.888 41.8002L132.218 40.1289" stroke="#1F1F21"/>
<path d="M77.3733 38.6182L75.3163 40.6828L77.3733 42.7474" stroke="#1F1F21"/>
<path d="M81.4097 38.6182L83.4718 40.6828L81.4097 42.7474" stroke="#1F1F21"/>
<path d="M141.263 38.8359V42.5305" stroke="#1F1F21"/>
<path d="M143.108 40.6836H139.418" stroke="#1F1F21"/>
<path d="M148.043 38.7158H146.545V40.2164H148.043V38.7158Z" fill="#1F1F21"/>
<path d="M148.043 41.1475H146.545V42.648H148.043V41.1475Z" fill="#1F1F21"/>
<path d="M150.493 38.7158H148.994V40.2164H150.493V38.7158Z" fill="#1F1F21"/>
<path d="M150.493 41.1475H148.994V42.648H150.493V41.1475Z" fill="#1F1F21"/>
<path d="M129.924 84.8461V3.47315C129.924 1.84321 128.797 0.518555 127.407 0.518555H8.63093C7.24068 0.518555 6.11401 1.84321 6.11401 3.47315V81.224C6.11401 83.2213 7.73166 84.8461 9.73176 84.8461H129.929H129.924Z" fill="white" stroke="#1F1F21" stroke-linecap="round" stroke-linejoin="round"/>
<path d="M15.0033 7.18249C15.0033 8.07249 14.285 8.79173 13.3909 8.79173C12.4968 8.79173 11.7835 8.07249 11.7835 7.18249C11.7835 6.29249 12.5071 5.57324 13.3909 5.57324C14.2746 5.57324 15.0033 6.29766 15.0033 7.18249Z" stroke="#1F1F21"/>
<path d="M19.7322 7.18249C19.7322 8.07249 19.0087 8.79173 18.1198 8.79173C17.2308 8.79173 16.5125 8.07249 16.5125 7.18249C16.5125 6.29249 17.2308 5.57324 18.1198 5.57324C19.0087 5.57324 19.7322 6.29766 19.7322 7.18249Z" stroke="#1F1F21"/>
<path d="M24.4612 7.18249C24.4612 8.07249 23.7428 8.79173 22.8538 8.79173C21.9649 8.79173 21.2414 8.07249 21.2414 7.18249C21.2414 6.29249 21.9649 5.57324 22.8538 5.57324C23.7428 5.57324 24.4612 6.29766 24.4612 7.18249Z" stroke="#1F1F21"/>
<path d="M106.481 6.63477L104.811 8.3061L103.142 6.63477" stroke="#1F1F21"/>
<path d="M37.2731 5.11816L35.211 7.18276L37.2731 9.24735" stroke="#1F1F21"/>
<path d="M41.3044 5.11816L43.3665 7.18276L41.3044 9.24735" stroke="#1F1F21"/>
<path d="M112.192 5.33594V9.03047" stroke="#1F1F21"/>
<path d="M114.037 7.18359H110.346" stroke="#1F1F21"/>
<path d="M118.972 5.2168H117.468V6.71738H118.972V5.2168Z" fill="#1F1F21"/>
<path d="M118.972 7.64844H117.468V9.14902H118.972V7.64844Z" fill="#1F1F21"/>
<path d="M121.417 5.2168H119.918V6.71738H121.417V5.2168Z" fill="#1F1F21"/>
<path d="M121.417 7.64844H119.918V9.14902H121.417V7.64844Z" fill="#1F1F21"/>
<path d="M155.543 119.477V105.744C155.543 99.7006 152.049 94.2002 146.581 91.6337L120.197 79.272C114.729 76.7107 108.212 78.7805 105.22 84.0325L85.4254 119.472H155.548L155.543 119.477Z" fill="#1F1F21"/>
<path d="M105.473 119.478V89.0416L106.005 78.9825C106.243 74.4497 104.703 69.9997 101.705 66.5898L93.126 56.8256C92.3663 55.9615 91.1621 55.6459 90.0768 56.0236C88.4074 56.6031 87.6735 58.5642 88.5521 60.1011L93.0588 67.9869L80.9342 71.3037L66.7681 65.7153C65.4606 65.1979 63.967 65.705 63.2434 66.9158C62.799 67.6609 63.0625 68.6285 63.8223 69.0476L89.224 82.9461L79.575 119.488" fill="white"/>
<path d="M105.473 119.478V89.0416L106.005 78.9825C106.243 74.4497 104.703 69.9997 101.705 66.5898L93.126 56.8256C92.3663 55.9615 91.1621 55.6459 90.0768 56.0236C88.4074 56.6031 87.6735 58.5642 88.5521 60.1011L93.0588 67.9869L80.9342 71.3037L66.7681 65.7153C65.4606 65.1979 63.967 65.705 63.2434 66.9158C62.799 67.6609 63.0625 68.6285 63.8223 69.0476L89.224 82.9461L79.575 119.488" stroke="#1F1F21" stroke-linecap="round" stroke-linejoin="round"/>
<path d="M74.4688 71.6405L69.006 62.0471C68.4995 61.1623 69.2127 60.0756 70.2257 60.1843C71.5177 60.324 72.6909 61.0019 73.4662 62.0471L80.159 70.6159" fill="white"/>
<path d="M74.4688 71.6405L69.006 62.0471C68.4995 61.1623 69.2127 60.0756 70.2257 60.1843C71.5177 60.324 72.6909 61.0019 73.4662 62.0471L80.159 70.6159" stroke="#1F1F21" stroke-linecap="round" stroke-linejoin="round"/>
<path d="M93.586 77.0733L85.2497 72.644L80.6913 63.2628C80.0711 61.9847 78.8204 61.1257 77.3992 61.0067C76.4844 60.9291 75.7815 61.8139 76.0658 62.6884L79.9833 74.8793" fill="white"/>
<path d="M93.586 77.0733L85.2497 72.644L80.6913 63.2628C80.0711 61.9847 78.8204 61.1257 77.3992 61.0067C76.4844 60.9291 75.7815 61.8139 76.0658 62.6884L79.9833 74.8793" stroke="#1F1F21" stroke-linecap="round" stroke-linejoin="round"/>
<path d="M130.244 72.7318L135.485 74.3307C141.506 76.1728 147.94 72.7422 149.775 66.714L150.41 64.6339C152.71 57.0844 148.426 49.0226 140.885 46.7148L139.676 48.619C134.947 47.1754 129.903 49.8661 128.456 54.5955L125.593 63.9819C124.471 67.6661 126.559 71.5986 130.239 72.7267L130.244 72.7318Z" fill="#1F1F21"/>
<path d="M149.378 61.9426C149.485 55.2677 143.818 49.7642 136.72 49.6501C129.623 49.536 123.782 54.8545 123.675 61.5293C123.568 68.2042 129.235 73.7077 136.333 73.8219C143.431 73.936 149.271 68.6174 149.378 61.9426Z" fill="#1F1F21"/>
<path d="M124.585 82.1706C128.409 81.3634 131.738 78.6468 133.154 74.6884L134.456 71.0456L124.812 67.5684L124.58 82.1654L124.585 82.1706Z" fill="#1F1F21"/>
<path d="M139.733 63.5273C140.606 59.4964 138.989 55.1654 135.578 53.1318C133.454 51.8641 131.056 51.7451 128.947 52.573C130.068 52.7024 133.2 53.2457 133.784 55.331C134.498 57.882 134.513 62.7304 139.733 63.5273Z" fill="#1F1F21"/>
<path d="M122.678 51.4703C121.753 54.5077 123.458 57.7262 126.497 58.6524C129.531 59.5786 132.746 57.871 133.671 54.8285C134.596 51.7911 132.89 48.5726 129.851 47.6464C126.818 46.7202 123.603 48.4277 122.678 51.4703Z" fill="#1F1F21"/>
<path d="M142.55 49.0947C148.266 51.6664 151.377 58.062 149.733 64.2351C148.121 64.7163 146.333 64.7422 144.57 64.204C139.997 62.8069 137.366 58.1448 138.694 53.7879C139.325 51.713 140.746 50.083 142.55 49.0947Z" fill="#1F1F21"/>
<path d="M133.407 50.4556C132.482 53.493 134.187 56.7115 137.226 57.6377C140.26 58.564 143.475 56.8564 144.4 53.8138C145.325 50.7764 143.619 47.558 140.581 46.6317C137.547 45.7055 134.332 47.4131 133.407 50.4556Z" fill="#1F1F21"/>
<path d="M126.916 48.7692C125.965 51.8946 127.722 55.2062 130.844 56.1583C133.965 57.1104 137.273 55.3511 138.224 52.2257C139.175 49.1004 137.418 45.7888 134.296 44.8367C131.174 43.8846 127.867 45.6439 126.916 48.7692Z" fill="#1F1F21"/>
<path d="M150.478 53.5247C150.478 53.5247 148.323 53.3074 147.31 54.8959" stroke="#1F1F21" stroke-linecap="round" stroke-linejoin="round"/>
<path d="M149.361 52.0605C149.361 52.0605 148.943 54.1872 147.129 54.6943" stroke="#1F1F21" stroke-linecap="round" stroke-linejoin="round"/>
<path d="M122.962 83.6493L124.559 83.8097L124.662 77.4607C123.908 77.29 123.164 77.0261 122.445 76.6432C118.088 74.325 116.44 68.9074 118.755 64.5454L120.373 61.5028C119.567 60.9543 119.277 59.8832 119.737 58.9932C120.202 58.098 121.267 57.7255 122.182 58.0928L122.647 57.2184C124.962 52.8563 130.373 51.2057 134.73 53.5238C138.405 55.4798 140.152 59.64 139.221 63.5105C140.834 64.0176 141.914 65.6061 141.718 67.3499C141.547 68.8712 140.451 70.0561 139.061 70.4287L138.777 88.1666L142.022 90.9556C140.87 94.1482 137.903 97.1494 133.821 98.8156C127.334 101.46 120.502 99.7211 118.554 94.9296C117.029 91.1833 118.957 86.6867 122.967 83.639L122.962 83.6493Z" fill="white" stroke="#1F1F21" stroke-linecap="round" stroke-linejoin="round"/>
<path d="M139.273 66.1914C139.273 66.1914 137.831 66.3932 137.474 67.8731" stroke="#1F1F21" stroke-linecap="round" stroke-linejoin="round"/>
<path d="M137.371 55.0039C141.056 56.2665 143.346 60.0438 142.684 63.9608C141.712 64.3541 140.606 64.4731 139.485 64.2402C136.575 63.64 134.678 60.9027 135.252 58.1293C135.526 56.8098 136.306 55.718 137.366 55.0039H137.371Z" fill="#1F1F21"/>
<path d="M124.699 77.3783C128.477 78.1493 132.461 76.3952 134.363 72.8145" stroke="#1F1F21" stroke-linecap="round" stroke-linejoin="round"/>
<path d="M48.545 50.5957L61.8325 58.2849" stroke="#001F1F" stroke-opacity="0.129412" stroke-width="10.27" stroke-linecap="round" stroke-linejoin="round"/>
<path d="M45.8575 51.5586C46.1056 54.8185 47.7025 57.3591 49.4132 57.2246C51.1291 57.0952 52.3178 54.3424 52.0645 51.0773C51.8164 47.8175 50.2195 45.2768 48.5088 45.4114C46.7981 45.5459 45.6043 48.2935 45.8575 51.5586Z" fill="#FBEA00"/>
<path d="M26.2596 40.3926H43.2269C48.5388 40.3926 52.8449 36.0813 52.8449 30.763V24.1759C52.8449 18.8577 48.5388 14.5463 43.2269 14.5463L26.2596 14.5463C20.9477 14.5463 16.6416 18.8577 16.6416 24.1759V30.763C16.6416 36.0813 20.9477 40.3926 26.2596 40.3926Z" fill="#FBEA00"/>
<path d="M44.1985 38.9482H32.0119C28.1254 38.9482 24.9676 35.7867 24.9676 31.8955V26.9074C24.9676 23.0162 28.1254 19.8546 32.0119 19.8546L44.1985 19.8546C48.085 19.8546 51.2428 23.0162 51.2428 26.9074V31.8955C51.2428 35.7867 48.085 38.9482 44.1985 38.9482Z" fill="#1F1F21"/>
<path d="M34.2896 22.4619H37.6384L42.1823 35.4052H38.7057L37.9516 33.0873H33.9062L33.1712 35.4052H29.765L34.2896 22.4619ZM37.1208 30.4437L35.9257 26.6763L34.7306 30.4437H37.1208Z" fill="white"/>
<path d="M43.0514 22.0977H46.381V24.6135H43.0514V22.0977ZM43.1025 25.4628H46.3235V35.4113H43.1025V25.4628Z" fill="white"/>
<path d="M14.0782 27.3153C14.0782 30.5856 15.4736 33.2401 17.1946 33.2401C18.9156 33.2401 20.311 30.5856 20.311 27.3153C20.311 24.0451 18.9156 21.3906 17.1946 21.3906C15.4736 21.3906 14.0782 24.0451 14.0782 27.3153Z" fill="#FBEA00"/>
<path d="M15.0085 27.3158C15.0085 28.9561 15.7062 30.2859 16.5693 30.2859C17.4324 30.2859 18.1301 28.9561 18.1301 27.3158C18.1301 25.6755 17.4324 24.3457 16.5693 24.3457C15.7062 24.3457 15.0085 25.6755 15.0085 27.3158Z" fill="white"/>
<path d="M17.1946 33.235C18.9156 33.235 20.311 30.5805 20.311 27.3103C20.311 25.7838 20.0061 24.3971 19.51 23.3467" stroke="#1F1F21" stroke-width="1.46" stroke-linecap="round" stroke-linejoin="round"/>
<path d="M43.8678 71.4277L49.6923 56.0079C52.2454 49.2501 47.2581 42.0215 40.0433 42.0215H28.389C21.1741 42.0215 16.1868 49.2501 18.7399 56.0079L24.5645 71.4277C27.929 80.3277 40.5033 80.3277 43.8678 71.4277Z" fill="#FBEA00"/>
<path d="M18.7399 56.0079C16.1868 49.2502 21.1741 42.0215 28.389 42.0215H35.6865C37.8881 47.17 38.8959 54.1969 37.8933 61.0737L35.4177 78.0303" stroke="#1F1F21" stroke-width="1.46" stroke-linecap="round" stroke-linejoin="round"/>
<path d="M28.3941 42.0215H40.0484C42.8186 42.0215 45.258 43.0874 47.072 44.7846C46.9945 46.0989 46.917 47.4184 46.8395 48.7431C46.581 53.6588 43.3561 55.8734 39.573 56.6754C35.7847 57.3326 31.4434 56.5771 28.7611 52.2358C26.9108 49.2708 27.7894 45.3952 23.2207 43.4134C24.7247 42.5389 26.4819 42.0215 28.3993 42.0215H28.3941Z" stroke="#1F1F21" stroke-width="1.46" stroke-linecap="round" stroke-linejoin="round"/>
<path d="M16.838 51.6103C16.8794 54.8444 18.7916 57.4367 21.1121 57.4057C23.4327 57.3747 25.2725 54.7305 25.2312 51.5017C25.1898 48.2677 23.2776 45.6753 20.9571 45.7063C18.6417 45.7374 16.7967 48.3815 16.838 51.6103Z" fill="#FBEA00"/>
<path d="M21.107 57.4061C23.4223 57.3751 25.2674 54.7309 25.226 51.5021C25.2054 49.9963 24.7816 48.6303 24.0994 47.6006" stroke="#1F1F21" stroke-width="1.46" stroke-linecap="round" stroke-linejoin="round"/>
<path d="M49.6975 56.0083C51.2944 51.786 49.9455 47.3774 46.9428 44.666" stroke="#1F1F21" stroke-width="1.46" stroke-linecap="round" stroke-linejoin="round"/>
<path d="M37.9553 61.302C41.3977 61.302 44.1882 58.5081 44.1882 55.0616C44.1882 51.6152 41.3977 48.8213 37.9553 48.8213C34.513 48.8213 31.7225 51.6152 31.7225 55.0616C31.7225 58.5081 34.513 61.302 37.9553 61.302Z" fill="#FBEA00" stroke="#1F1F21" stroke-width="1.46" stroke-linecap="round" stroke-linejoin="round"/>
<path d="M34.3221 55.0614C34.3221 57.0691 35.9501 58.6991 37.9553 58.6991C39.9606 58.6991 41.5886 57.0691 41.5886 55.0614C41.5886 53.0538 39.9606 51.4238 37.9553 51.4238C35.9501 51.4238 34.3221 53.0538 34.3221 55.0614Z" fill="white"/>
<path d="M19.479 51.4238L5.15268 57.659" stroke="#001F1F" stroke-opacity="0.129412" stroke-width="13.29" stroke-linecap="round" stroke-linejoin="round"/>
<path d="M5.92237 61.5516C8.52569 61.1285 10.2935 58.6726 9.87095 56.0662C9.44837 53.4597 6.9954 51.6898 4.39207 52.1128C1.78875 52.5359 0.0209128 54.9919 0.443491 57.5983C0.86607 60.2048 3.31905 61.9747 5.92237 61.5516Z" fill="#FBEA00" stroke="#1F1F21" stroke-width="1.46" stroke-linecap="round" stroke-linejoin="round"/>
<path d="M5.80902 58.1973L14.3211 69.7052" stroke="#001F1F" stroke-opacity="0.129412" stroke-width="10.27" stroke-linecap="round" stroke-linejoin="round"/>
<path d="M22.1561 73.2547C20.9622 70.4553 17.7321 69.1565 14.9361 70.3467C12.1401 71.5368 10.8429 74.776 12.0315 77.5753" stroke="#FBEA00" stroke-width="7.25" stroke-linecap="round" stroke-linejoin="round"/>
<path d="M61.0675 61.7518C63.7049 61.7518 65.843 59.6112 65.843 56.9706C65.843 54.3301 63.7049 52.1895 61.0675 52.1895C58.4301 52.1895 56.2921 54.3301 56.2921 56.9706C56.2921 59.6112 58.4301 61.7518 61.0675 61.7518Z" fill="#FBEA00" stroke="#1F1F21" stroke-width="1.46" stroke-linecap="round" stroke-linejoin="round"/>
<path d="M61.3622 56.4997L62.587 40.6143" stroke="#001F1F" stroke-opacity="0.129412" stroke-width="10.27" stroke-linecap="round" stroke-linejoin="round"/>
<path d="M68.1739 34.0635C68.2927 37.1009 65.9309 39.6622 62.8919 39.7864C59.853 39.9106 57.2999 37.5407 57.1759 34.4981" stroke="#FBEA00" stroke-width="7.25" stroke-linecap="round" stroke-linejoin="round"/>
<path d="M114.006 17.0127H77.058C73.61 17.0127 70.8148 19.8112 70.8148 23.2634V43.3143C70.8148 46.7664 73.61 49.565 77.058 49.565H114.006C117.454 49.565 120.249 46.7664 120.249 43.3143V23.2634C120.249 19.8112 117.454 17.0127 114.006 17.0127Z" fill="#1F1F21"/>
<path d="M110.341 42.9102V57.0208L98.4803 45.1455C98.4803 45.1455 111.716 42.9102 110.341 42.9102Z" fill="#1F1F21"/>
<path d="M112.801 27.4863H78.9548" stroke="white" stroke-width="2" stroke-miterlimit="10"/>
<path d="M112.801 32.5264H78.9548" stroke="white" stroke-width="2" stroke-miterlimit="10"/>
<path d="M112.801 37.5664H78.9548" stroke="white" stroke-width="2" stroke-miterlimit="10"/>
</g>
<defs>
<clipPath id="clip0_12_3161">
<rect width="159" height="120" fill="white"/>
</clipPath>
</defs>
</svg>
