<svg width="109" height="100" viewBox="0 0 109 100" fill="none" xmlns="http://www.w3.org/2000/svg">
<g clip-path="url(#clip0_12_70)">
<path d="M88.8101 84.7626C87.2908 80.9692 82.9696 79.1167 79.1615 80.6351C75.3534 82.1485 73.4937 86.453 75.018 90.2464C76.0983 92.944 78.5943 94.6491 81.3122 94.8702L81.9091 96.3591L88.0406 93.9219L87.4437 92.433C89.2639 90.4085 89.8953 87.4603 88.815 84.7626H88.8101Z" stroke="#1F1F21"/>
<path d="M82.0571 98.9538L89.7227 95.9072" stroke="#1F1F21"/>
<path d="M84.6665 94.3739L82.2198 88.2661" stroke="#1F1F21"/>
<path d="M80.6858 88.8753L83.754 87.6567" stroke="#1F1F21"/>
<path d="M78.0812 89.0278C77.2377 86.9198 78.2687 84.5268 80.3849 83.6865" stroke="#1F1F21"/>
<path d="M90.3442 59.5352C90.3442 59.5352 90.4527 59.6482 90.6401 59.8644" stroke="#1F1F21" stroke-miterlimit="10"/>
<path d="M91.2173 60.5669C93.8119 63.8493 100.826 74.6055 93.2841 87.283" stroke="#1F1F21" stroke-miterlimit="10" stroke-dasharray="1.85 1.85"/>
<path d="M93.0523 87.6714C92.9734 87.7991 92.8944 87.922 92.8155 88.0497" stroke="#1F1F21" stroke-miterlimit="10"/>
<path d="M81.9189 23.7826C70.1246 24.0283 60.7622 33.7526 61.0088 45.5014C61.2555 57.2502 71.0175 66.5765 82.8118 66.3309C94.6061 66.0852 103.969 56.3608 103.722 44.612C103.475 32.8632 93.7133 23.5369 81.9189 23.7826ZM82.6342 57.7662C75.5852 57.9136 69.7547 52.3414 69.6067 45.3196C69.4587 38.2978 75.0525 32.4898 82.1015 32.3424C89.1504 32.1949 94.981 37.7671 95.129 44.7889C95.277 51.8107 89.6832 57.6188 82.6342 57.7662Z" stroke="#282D33"/>
<path d="M81.9189 23.7827C81.7858 23.7827 81.6575 23.7975 81.5243 23.8024L81.7019 32.3671C81.8351 32.3621 81.9633 32.3523 82.0965 32.3474C89.1455 32.2 94.9761 37.7722 95.124 44.794C95.1734 47.1427 94.5765 49.3589 93.5012 51.2703L101.034 55.3979C102.814 52.2088 103.801 48.5284 103.722 44.6171C103.475 32.8683 93.7133 23.5419 81.9189 23.7876V23.7827Z" stroke="#282D33"/>
<path d="M65.0044 33.9049L71.6538 38.1455C73.8094 34.8386 77.4646 32.5881 81.6822 32.3669L81.5046 23.8022C74.3126 24.0872 68.0627 27.9003 64.4124 33.5266L65.0044 33.9049Z" stroke="#282D33"/>
<path d="M28.1515 81.1263L26.4891 79.5244L24.9353 80.8806C24.2891 80.458 23.5886 80.1681 22.8635 80.006L22.6514 77.8979L20.3379 77.9373L20.1998 79.9863C19.4697 80.1386 18.7644 80.4187 18.1132 80.8315L16.4657 79.49L14.8576 81.1459L16.219 82.6938C15.7948 83.3375 15.5038 84.0352 15.341 84.7576L13.2248 84.9689L13.2643 87.2734L15.3213 87.411C15.4742 88.1382 15.7553 88.8409 16.1697 89.4895L14.823 91.1307L16.4854 92.7326L18.0392 91.3764C18.6854 91.799 19.3859 92.0889 20.111 92.2511L20.3231 94.3591L22.6366 94.3197L22.7747 92.2707C23.5048 92.1184 24.2102 91.8383 24.8613 91.4255L26.5088 92.767L28.1169 91.1111L26.7604 89.5632C27.1846 88.9195 27.4757 88.2218 27.6385 87.4994L29.7546 87.2882L29.7152 84.9836L27.6582 84.846C27.5053 84.1188 27.2241 83.4161 26.8097 82.7675L28.1564 81.1263H28.1515ZM23.9438 88.492C22.6317 89.8433 20.4711 89.8777 19.1146 88.5756C17.7581 87.2685 17.7235 85.1163 19.0307 83.765C20.3428 82.4137 22.5034 82.3793 23.8599 83.6815C25.2165 84.9885 25.251 87.1407 23.9438 88.492Z" fill="#1F1F21"/>
<path d="M95.6647 4.15984L82.3943 12.9792C81.6216 13.4928 81.413 14.5332 81.9286 15.303L92.6465 31.3058C93.1621 32.0756 94.2065 32.2833 94.9793 31.7697L108.25 22.9503C109.022 22.4367 109.231 21.3963 108.715 20.6265L97.9975 4.62376C97.4819 3.85395 96.4375 3.64625 95.6647 4.15984Z" fill="#BFC8D9"/>
<path d="M88.9137 19.7088L85.6531 14.8393L96.8308 7.40967" stroke="#1F1F21"/>
<path d="M89.1504 21.5663L101.029 13.6748" stroke="#1F1F21"/>
<path d="M92.8796 24.1166L99.164 19.9399" stroke="#1F1F21"/>
<path d="M93.8119 28.5243L105.69 20.6328" stroke="#1F1F21"/>
<path d="M93.3433 18.7803L97.5362 25.0453" stroke="#1F1F21"/>
<path d="M89.8459 21.0996L94.0438 27.3647" stroke="#1F1F21"/>
<path d="M100.328 14.1367L104.521 20.4018" stroke="#1F1F21"/>
<path d="M96.8357 16.4609L101.029 22.7211" stroke="#1F1F21"/>
<path d="M37.3906 2.92844L48.8248 10.8347L59.4895 8.39254L48.0553 0.491211L37.3906 2.92844Z" stroke="#1F1F21" stroke-linecap="round" stroke-linejoin="round"/>
<path d="M55.2227 21.3305L59.4895 8.39258L48.8248 10.8347L44.558 23.7727L55.2227 21.3305Z" stroke="#1F1F21" stroke-linecap="round" stroke-linejoin="round"/>
<path d="M44.558 23.7724L48.8248 10.8345L37.3906 2.92822L33.1287 15.8662L44.558 23.7724Z" stroke="#1F1F21" stroke-linecap="round" stroke-linejoin="round"/>
<path d="M5.68751 29.458H0V35.1236H5.68751V29.458Z" fill="#BFC8D9"/>
<path d="M5.68751 39.6934H0V45.3589H5.68751V39.6934Z" fill="#BFC8D9"/>
<path d="M5.68751 49.7222H0V55.3877H5.68751V49.7222Z" fill="#BFC8D9"/>
<path d="M9.24408 32.0571H29.7497" stroke="#1F1F21" stroke-miterlimit="10"/>
<path d="M1.42065 31.2269L3.20139 32.9958L8.0602 28.1558" stroke="#1F1F21" stroke-miterlimit="10"/>
<path d="M9.24408 42.2876H25.0192" stroke="#1F1F21" stroke-miterlimit="10"/>
<path d="M9.24408 52.3218H20.624" stroke="#1F1F21" stroke-miterlimit="10"/>
<path d="M1.42065 41.4573L3.20139 43.2312L8.0602 38.3911" stroke="#1F1F21" stroke-miterlimit="10"/>
<path d="M55.9083 82.4236C68.6417 82.4236 78.9642 72.141 78.9642 59.4567C78.9642 46.7724 68.6417 36.4897 55.9083 36.4897C43.1749 36.4897 32.8524 46.7724 32.8524 59.4567C32.8524 72.141 43.1749 82.4236 55.9083 82.4236Z" fill="#1F1F21"/>
<mask id="mask0_12_70" style="mask-type:luminance" maskUnits="userSpaceOnUse" x="32" y="36" width="47" height="47">
<path d="M55.9083 82.4236C68.6417 82.4236 78.9642 72.141 78.9642 59.4567C78.9642 46.7724 68.6417 36.4897 55.9083 36.4897C43.1749 36.4897 32.8524 46.7724 32.8524 59.4567C32.8524 72.141 43.1749 82.4236 55.9083 82.4236Z" fill="white"/>
</mask>
<g mask="url(#mask0_12_70)">
<path d="M62.4739 44.6318H47.7051C43.0792 44.6318 39.3292 48.3674 39.3292 52.9754V58.6754C39.3292 63.2834 43.0792 67.0189 47.7051 67.0189H62.4739C67.0997 67.0189 70.8498 63.2834 70.8498 58.6754V52.9754C70.8498 48.3674 67.0997 44.6318 62.4739 44.6318Z" fill="#FBEA00"/>
<path d="M59.7263 45.9683H47.197C43.6227 45.9683 40.7252 48.8546 40.7252 52.4151V56.0562C40.7252 59.6167 43.6227 62.5031 47.197 62.5031H59.7263C63.3006 62.5031 66.1981 59.6167 66.1981 56.0562V52.4151C66.1981 48.8546 63.3006 45.9683 59.7263 45.9683Z" fill="#1F1F21"/>
<path d="M70.3664 60.8176C71.8647 60.8176 73.0794 58.5208 73.0794 55.6876C73.0794 52.8544 71.8647 50.5576 70.3664 50.5576C68.868 50.5576 67.6533 52.8544 67.6533 55.6876C67.6533 58.5208 68.868 60.8176 70.3664 60.8176Z" fill="#FBEA00"/>
<path d="M72.2704 55.6876C72.2704 57.1077 71.6637 58.2624 70.909 58.2624C70.1542 58.2624 69.5475 57.1126 69.5475 55.6876C69.5475 54.2626 70.1542 53.1128 70.909 53.1128C71.6637 53.1128 72.2704 54.2626 72.2704 55.6876Z" fill="white"/>
<path d="M70.3664 60.8225C68.8668 60.8225 67.6533 58.5229 67.6533 55.6925C67.6533 54.3707 67.9148 53.1669 68.3488 52.2578" stroke="#1F1F21" stroke-linecap="round" stroke-linejoin="round"/>
<path d="M47.1477 93.9021L42.0768 80.5465C39.8521 74.6942 44.1979 68.4341 50.4773 68.4341H60.6241C66.9085 68.4341 71.2493 74.6942 69.0246 80.5465L63.9537 93.9021C61.0286 101.612 50.0778 101.612 47.1526 93.9021H47.1477Z" fill="#FBEA00"/>
<path d="M69.0197 80.5416C71.2444 74.6893 66.8986 68.4292 60.6191 68.4292H54.2657C52.3518 72.8909 51.4737 78.9791 52.3468 84.9296L54.5025 99.6169" stroke="#1F1F21" stroke-linecap="round" stroke-linejoin="round"/>
<path d="M60.6192 68.4292H50.4724C48.0603 68.4292 45.9392 69.353 44.3607 70.8222C44.4297 71.9622 44.4938 73.1022 44.5629 74.252C44.7849 78.5122 47.5966 80.4286 50.8867 81.1215C54.1868 81.6914 57.9653 81.0379 60.2985 77.2789C61.9115 74.709 61.147 71.3578 65.1228 69.6331C63.8156 68.8764 62.2864 68.4292 60.6142 68.4292H60.6192Z" stroke="#1F1F21" stroke-linecap="round" stroke-linejoin="round"/>
<path d="M54.3676 84.7158C57.1362 83.5734 58.451 80.4116 57.3041 77.6537C56.1573 74.8957 52.9833 73.586 50.2146 74.7284C47.446 75.8708 46.1313 79.0326 47.2781 81.7906C48.4249 84.5485 51.599 85.8582 54.3676 84.7158Z" fill="#FBEA00" stroke="#1F1F21" stroke-linecap="round" stroke-linejoin="round"/>
<path d="M52.2926 82.8707C54.0389 82.8707 55.4545 81.4606 55.4545 79.721C55.4545 77.9815 54.0389 76.5713 52.2926 76.5713C50.5463 76.5713 49.1306 77.9815 49.1306 79.721C49.1306 81.4606 50.5463 82.8707 52.2926 82.8707Z" fill="white"/>
<path d="M49.3773 49.3984H51.9621L55.4693 59.3586H52.7859L52.2038 57.5749H49.0813L48.5141 59.3586H45.8849L49.3773 49.3984ZM51.5625 55.5357L50.6401 52.6366L49.7177 55.5357H51.5625Z" fill="white"/>
<path d="M56.1353 49.1133H58.7052V51.0493H56.1353V49.1133ZM56.1796 51.7028H58.6658V59.3585H56.1796V51.7028Z" fill="white"/>
</g>
</g>
<defs>
<clipPath id="clip0_12_70">
<rect width="109" height="100" fill="white"/>
</clipPath>
</defs>
</svg>
