<svg width="157" height="100" viewBox="0 0 157 100" fill="none" xmlns="http://www.w3.org/2000/svg">
<g clip-path="url(#clip0_12_1168)">
<path d="M106.496 83.3903C122.324 67.5695 122.324 41.9188 106.496 26.098C90.6687 10.2771 65.0068 10.2771 49.1791 26.098C33.3513 41.9188 33.3513 67.5695 49.1791 83.3903C65.0068 99.2112 90.6687 99.2112 106.496 83.3903Z" fill="#BFC8D9"/>
<path d="M68.9454 2.46484L102.074 10.4658L108.357 20.7445L97.205 66.872L55.7917 56.8698L68.9454 2.46484Z" fill="white" stroke="#1F1F21" stroke-miterlimit="10"/>
<path d="M100.89 10.1816L98.6038 19.6422L108.068 21.9277" stroke="#1F1F21"/>
<path d="M72.769 38.4365L95.2529 43.8678" stroke="#1F1F21"/>
<path d="M71.6277 43.1689L94.1078 48.6002" stroke="#1F1F21"/>
<path d="M70.4825 47.8975L92.9626 53.3287" stroke="#1F1F21"/>
<path d="M72.769 18.2168L98.6038 24.4585" stroke="#1F1F21"/>
<path d="M71.6277 22.9492L97.5432 29.2063" stroke="#1F1F21"/>
<path d="M70.4825 27.6777L95.8255 33.8004" stroke="#1F1F21"/>
<path d="M28.3122 95.1575C28.3429 96.8553 34.6643 98.1267 42.4305 97.9923C50.2005 97.8578 56.4719 96.3713 56.445 94.6736C56.4142 92.9758 50.0929 91.7044 42.3267 91.8389C34.5567 91.9733 28.2853 93.4598 28.3122 95.1575Z" fill="#1F1F21"/>
<path d="M58.9581 51.83L66.9049 54.538L66.6398 55.3139C66.1556 56.7351 64.607 57.4956 63.1851 57.0078L58.5047 55.4137L58.9581 51.8262V51.83Z" fill="#FBEA00"/>
<path d="M59.5999 51.3309L67.9233 50.2285L68.0309 51.0428C68.2268 52.5332 67.1816 53.8967 65.6906 54.0965L60.7911 54.7456L59.5999 51.3309Z" fill="#FBEA00"/>
<path d="M65.9711 44.2398L59.6882 47.3242L64.1535 56.4122C65.3332 58.8167 65.5139 61.5938 64.6454 64.1289L63.8423 67.4745L53.8204 94.4388C49.9008 96.3133 45.4355 96.7012 41.2546 95.5335L37.3273 94.4388L52.2026 67.4745L49.0208 54.507L54.2354 45.7263L66.928 39.4961L67.32 40.295C68.0385 41.7585 67.4352 43.5254 65.9711 44.2437V44.2398Z" fill="#FBEA00"/>
<path d="M59.8419 49.8669L67.3776 46.168L67.7388 46.9055C68.3998 48.2537 67.8464 49.8823 66.4976 50.5468L62.0592 52.7247L59.8419 49.8708V49.8669Z" fill="#FBEA00"/>
<path d="M42.1768 55.6015L68.9416 42.7146L74.1946 42.5879L71.0551 46.5019L44.2903 59.3888L44.1866 59.3196C42.9262 58.5015 42.1691 57.0995 42.1768 55.6015Z" fill="#1F1F21"/>
<path d="M69.5833 43.0796L73.3761 42.9912L71.1089 45.8144L69.5833 43.0796Z" fill="white"/>
<path d="M72.5576 43.3944L71.1665 45.1306L70.2289 43.4521L72.5576 43.3944ZM74.1908 42.584L68.9377 42.7107L71.0513 46.498L74.1908 42.584Z" fill="#1F1F21"/>
<path d="M71.889 42.6416L74.1908 42.584L72.7459 44.3854L71.889 42.6416Z" fill="#1F1F21"/>
<path d="M57.8668 56.093L61.7326 44.7656L61.7902 44.7887C63.6117 45.5607 64.6416 47.5082 64.2458 49.4479L63.4388 55.052L64.6262 57.4681" fill="#FBEA00"/>
<path d="M57.8668 56.093L61.7326 44.7656L61.7902 44.7887C63.6117 45.5607 64.6416 47.5082 64.2458 49.4479L63.4388 55.052L64.6262 57.4681" stroke="#1F1F21" stroke-linecap="round" stroke-linejoin="round"/>
<path d="M64.0728 50.9231L66.7205 50.3623" stroke="#1F1F21" stroke-linecap="round" stroke-linejoin="round"/>
<path d="M63.7193 53.4473L65.5254 54.081" stroke="#1F1F21" stroke-linecap="round" stroke-linejoin="round"/>
<path d="M29.1268 61.6514H32.4508L38.4993 78.6097H34.8833L33.6305 74.9492H27.8241L26.5945 78.6097H23.0745L29.123 61.6514H29.1268ZM32.5738 71.8648L30.7408 66.372L28.8847 71.8648H32.5738Z" fill="#1F1F21"/>
<path d="M40.3361 61.2178H43.9022V64.3252H40.3361V61.2178ZM40.4091 65.6965H43.833V78.6063H40.4091V65.6965Z" fill="#1F1F21"/>
<path d="M51.7816 74.821C54.517 65.2416 48.9654 55.2595 39.3819 52.5253C29.7983 49.7911 19.8119 55.3403 17.0765 64.9196C14.3411 74.499 19.8927 84.4811 29.4762 87.2153C39.0598 89.9495 49.0462 84.4004 51.7816 74.821Z" stroke="#1F1F21" stroke-miterlimit="10" stroke-dasharray="1.99 1.99"/>
<path d="M79.5668 85.5434C78.5561 85.9851 77.3995 86.204 76.0929 86.204C74.9785 86.204 73.9641 86.0197 73.0495 85.6547C72.1349 85.2898 71.3471 84.779 70.6862 84.1298C70.0291 83.4769 69.5142 82.7048 69.1491 81.8098C68.784 80.9149 68.5996 79.9354 68.5996 78.8791V78.8368C68.5996 77.819 68.7879 76.8664 69.1606 75.9752C69.5334 75.088 70.0521 74.3044 70.7169 73.6322C71.3817 72.96 72.1695 72.4299 73.0802 72.0458C73.991 71.6617 74.9862 71.4658 76.0737 71.4658C76.7116 71.4658 77.2919 71.5119 77.8145 71.5964C78.3371 71.6848 78.8213 71.8115 79.2709 71.9728C79.7205 72.1342 80.1394 72.3377 80.5352 72.5836C80.9271 72.8294 81.3076 73.106 81.6765 73.4171L79.7013 75.7986C79.4285 75.5681 79.1595 75.3645 78.8866 75.1878C78.6138 75.0111 78.3333 74.8613 78.0412 74.7384C77.7492 74.6155 77.4341 74.5233 77.0959 74.4542C76.7577 74.385 76.3812 74.3543 75.9738 74.3543C75.4051 74.3543 74.8709 74.4734 74.3752 74.7115C73.8795 74.9497 73.4453 75.2685 73.0725 75.6718C72.6998 76.0751 72.4077 76.5437 72.1964 77.0815C71.985 77.6192 71.8813 78.1954 71.8813 78.8061V78.8484C71.8813 79.5014 71.985 80.1044 72.1964 80.6537C72.4077 81.2029 72.7075 81.6831 73.0918 82.0941C73.4799 82.5012 73.9333 82.82 74.4559 83.0428C74.9785 83.2656 75.5588 83.3808 76.1967 83.3808C77.3649 83.3808 78.3486 83.0928 79.1479 82.5204V80.4693H75.993V77.7613H82.1837V83.9493C81.4497 84.5754 80.5774 85.1055 79.5668 85.5472V85.5434Z" fill="#1F1F21"/>
<path d="M95.7063 82.7353C95.4066 83.419 94.9954 84.022 94.4651 84.5367C93.9348 85.0514 93.3123 85.4586 92.5899 85.7582C91.8713 86.0578 91.0835 86.2076 90.2266 86.2076C89.3696 86.2076 88.6049 86.0616 87.8863 85.7697C87.1677 85.4778 86.5452 85.0783 86.0226 84.5675C85.5 84.0604 85.0888 83.4612 84.7891 82.7775C84.4893 82.0938 84.3395 81.3563 84.3395 80.5689V80.5267C84.3395 79.7392 84.4893 79.0017 84.7891 78.318C85.0888 77.6343 85.5038 77.0313 86.0303 76.5166C86.5567 76.0019 87.1831 75.5947 87.9056 75.2951C88.6241 74.9955 89.4119 74.8457 90.2688 74.8457C91.1258 74.8457 91.8905 74.9917 92.6091 75.2836C93.3277 75.5755 93.9502 75.975 94.4728 76.4858C94.9954 76.9967 95.4066 77.5921 95.7063 78.2758C96.0061 78.9633 96.1559 79.697 96.1559 80.4844V80.5267C96.1559 81.3141 96.0061 82.0516 95.7063 82.7353ZM93.101 80.5267C93.101 80.1195 93.0318 79.7354 92.8973 79.3782C92.7628 79.0171 92.563 78.6983 92.3055 78.4217C92.048 78.1452 91.7406 77.9224 91.3909 77.7611C91.0374 77.5998 90.6493 77.5153 90.2304 77.5153C89.7808 77.5153 89.385 77.5921 89.0392 77.7496C88.6933 77.907 88.3974 78.1183 88.1515 78.391C87.9056 78.6637 87.7211 78.9787 87.5904 79.3359C87.4598 79.697 87.3983 80.0772 87.3983 80.4882V80.5305C87.3983 80.9377 87.4675 81.3218 87.602 81.6828C87.7365 82.0439 87.9363 82.3627 88.1938 82.6392C88.4512 82.9158 88.7548 83.1386 89.1006 83.2999C89.4465 83.4612 89.8385 83.5457 90.2727 83.5457C90.7069 83.5457 91.1181 83.4689 91.4639 83.3114C91.8098 83.154 92.1057 82.9427 92.3516 82.67C92.5976 82.3973 92.782 82.0823 92.9127 81.7251C93.0395 81.364 93.1048 80.9837 93.1048 80.5766V80.5343L93.101 80.5267Z" fill="#1F1F21"/>
<path d="M109.229 82.7353C108.929 83.419 108.518 84.022 107.988 84.5367C107.457 85.0514 106.835 85.4586 106.113 85.7582C105.394 86.0578 104.606 86.2076 103.749 86.2076C102.892 86.2076 102.128 86.0616 101.409 85.7697C100.69 85.4778 100.068 85.0783 99.5452 84.5675C99.0226 84.0604 98.6115 83.4612 98.3117 82.7775C98.012 82.0938 97.8621 81.3563 97.8621 80.5689V80.5267C97.8621 79.7392 98.012 79.0017 98.3117 78.318C98.6115 77.6343 99.0265 77.0313 99.5529 76.5166C100.079 76.0019 100.706 75.5947 101.428 75.2951C102.147 74.9955 102.935 74.8457 103.791 74.8457C104.648 74.8457 105.413 74.9917 106.132 75.2836C106.85 75.5755 107.473 75.975 107.995 76.4858C108.518 76.9967 108.929 77.5921 109.229 78.2758C109.529 78.9633 109.679 79.697 109.679 80.4844V80.5267C109.679 81.3141 109.529 82.0516 109.229 82.7353ZM106.624 80.5267C106.624 80.1195 106.554 79.7354 106.42 79.3782C106.285 79.0171 106.086 78.6983 105.828 78.4217C105.571 78.1452 105.263 77.9224 104.914 77.7611C104.56 77.5998 104.172 77.5153 103.753 77.5153C103.303 77.5153 102.908 77.5921 102.562 77.7496C102.216 77.907 101.92 78.1183 101.674 78.391C101.428 78.6637 101.244 78.9787 101.113 79.3359C100.982 79.697 100.921 80.0772 100.921 80.4882V80.5305C100.921 80.9377 100.99 81.3218 101.125 81.6828C101.259 82.0439 101.459 82.3627 101.716 82.6392C101.974 82.9158 102.277 83.1386 102.623 83.2999C102.969 83.4612 103.361 83.5457 103.795 83.5457C104.23 83.5457 104.641 83.4689 104.987 83.3114C105.332 83.154 105.628 82.9427 105.874 82.67C106.12 82.3973 106.305 82.0823 106.435 81.7251C106.562 81.364 106.627 80.9837 106.627 80.5766V80.5343L106.624 80.5267Z" fill="#1F1F21"/>
<path d="M122.521 86.1347C122.271 86.8606 121.891 87.456 121.38 87.9169C120.869 88.3779 120.235 88.7159 119.474 88.9348C118.713 89.1499 117.825 89.2613 116.807 89.2613C115.912 89.2613 115.055 89.1615 114.24 88.9656C113.425 88.7697 112.672 88.4854 111.98 88.1205L113.041 85.8005C113.61 86.1116 114.186 86.3575 114.763 86.5342C115.339 86.7108 115.996 86.7992 116.73 86.7992C117.791 86.7992 118.575 86.5495 119.082 86.0463C119.589 85.5432 119.847 84.8057 119.847 83.8262V83.2961C119.385 83.8531 118.882 84.2871 118.34 84.5983C117.798 84.9094 117.11 85.0669 116.284 85.0669C115.646 85.0669 115.035 84.9555 114.451 84.7327C113.867 84.5099 113.352 84.1796 112.903 83.7455C112.453 83.3115 112.1 82.7776 111.834 82.1477C111.569 81.5177 111.439 80.7956 111.439 79.9813V79.939C111.439 79.1247 111.573 78.4026 111.846 77.7727C112.119 77.1427 112.476 76.6088 112.926 76.1748C113.375 75.7407 113.89 75.4104 114.474 75.1876C115.058 74.9648 115.662 74.8496 116.288 74.8496C117.13 74.8496 117.821 75.0071 118.367 75.3182C118.913 75.6293 119.393 76.0173 119.812 76.4782V75.0532H122.909V83.5036C122.909 84.5368 122.782 85.4126 122.533 86.1385L122.521 86.1347ZM119.843 79.9352C119.843 79.5703 119.774 79.2284 119.639 78.9173C119.505 78.6062 119.316 78.3373 119.078 78.1145C118.84 77.8917 118.559 77.7189 118.233 77.596C117.906 77.4731 117.552 77.4116 117.172 77.4116C116.792 77.4116 116.442 77.4731 116.123 77.596C115.804 77.7189 115.523 77.8917 115.289 78.1145C115.051 78.3373 114.862 78.6062 114.728 78.9173C114.593 79.2284 114.524 79.5703 114.524 79.9352V79.9774C114.524 80.738 114.774 81.3487 115.277 81.8096C115.781 82.2706 116.411 82.501 117.172 82.501C117.552 82.501 117.906 82.4396 118.233 82.3167C118.559 82.1937 118.84 82.0209 119.078 81.7981C119.316 81.5753 119.501 81.3065 119.639 80.9953C119.774 80.6842 119.843 80.3423 119.843 79.9774V79.9352Z" fill="#1F1F21"/>
<path d="M125.807 85.9617V71.1006H128.904V85.9617H125.807Z" fill="#1F1F21"/>
<path d="M141.988 81.1988C141.981 81.3063 141.973 81.4369 141.958 81.5867H134.361C134.51 82.2935 134.818 82.8236 135.287 83.1846C135.756 83.5457 136.336 83.7224 137.027 83.7224C137.542 83.7224 138.004 83.634 138.411 83.4573C138.818 83.2806 139.237 82.9964 139.675 82.6008L141.447 84.1679C140.932 84.8055 140.305 85.3049 139.571 85.666C138.837 86.027 137.977 86.2037 136.985 86.2037C136.171 86.2037 135.413 86.0693 134.714 85.7965C134.015 85.5238 133.411 85.1397 132.9 84.6365C132.389 84.1334 131.993 83.5418 131.709 82.8543C131.425 82.1667 131.283 81.4062 131.283 80.565V80.5227C131.283 79.7507 131.413 79.017 131.678 78.3257C131.943 77.6343 132.312 77.0312 132.789 76.5127C133.265 75.998 133.83 75.5908 134.487 75.2912C135.144 74.9916 135.875 74.8418 136.678 74.8418C137.588 74.8418 138.376 75.0031 139.041 75.3296C139.706 75.6561 140.259 76.094 140.701 76.6433C141.143 77.1925 141.47 77.8225 141.677 78.5369C141.889 79.2475 141.992 79.9927 141.992 80.7647V80.807C141.992 80.9568 141.992 81.0835 141.981 81.1949L141.988 81.1988ZM138.253 77.9684C137.861 77.5421 137.339 77.327 136.685 77.327C136.032 77.327 135.506 77.5382 135.106 77.9569C134.706 78.3794 134.445 78.9402 134.322 79.647H138.987C138.891 78.9556 138.649 78.3948 138.253 77.9684Z" fill="#1F1F21"/>
</g>
<defs>
<clipPath id="clip0_12_1168">
<rect width="126" height="96" fill="white" transform="translate(16 2)"/>
</clipPath>
</defs>
</svg>
