<svg width="157" height="100" viewBox="0 0 157 100" fill="none" xmlns="http://www.w3.org/2000/svg">
<path d="M125.699 72.5951L95.2392 63.2335C91.1011 61.9649 88.779 57.5868 90.0479 53.4491L99.4105 22.9516C100.679 18.814 105.075 16.4839 109.213 17.7609L139.673 27.1224C143.811 28.3911 146.133 32.7692 144.864 36.9068L135.501 67.4043C134.232 71.542 129.837 73.872 125.699 72.5951Z" stroke="#1F1F21" stroke-miterlimit="10"/>
<path d="M112.835 41.3905C116.623 41.3845 119.689 38.3096 119.683 34.5224C119.677 30.7351 116.601 27.6698 112.814 27.6758C109.026 27.6817 105.96 30.7567 105.966 34.5439C105.972 38.3311 109.048 41.3964 112.835 41.3905Z" stroke="#1F1F21" stroke-miterlimit="10"/>
<path d="M89.9484 53.7729L92.1211 46.6999L96.2758 44.4943C99.3442 42.8691 103.159 44.0382 104.784 47.1062C106.327 50.0167 109.934 51.1278 112.845 49.5855L129.157 40.9288C133.03 38.8724 137.84 40.3484 139.888 44.229L141.613 47.4877L135.402 67.7364C134.191 71.6916 129.995 73.9139 126.047 72.7032L94.9158 63.1344C90.9601 61.9155 88.7376 57.7281 89.9567 53.7729H89.9484Z" stroke="#1F1F21" stroke-miterlimit="10"/>
<path d="M83.2394 1.12769C84.3506 1.12769 85.3458 1.8408 85.719 2.89386L91.1093 18.3499C91.3415 19.0133 91.3001 19.7264 90.9932 20.3648C90.6864 21.0033 90.1557 21.476 89.4922 21.7081L74.0923 27.1144C73.8104 27.2139 73.5201 27.2637 73.2216 27.2637C72.1103 27.2637 71.1152 26.5506 70.742 25.4975L65.3516 10.0415C65.1194 9.37811 65.1609 8.66501 65.4677 8.02653C65.7746 7.39635 66.3053 6.91542 66.9687 6.68325L82.3686 1.27695C82.6506 1.17745 82.9408 1.12769 83.2394 1.12769ZM83.2394 0C82.8247 0 82.4101 0.066335 82.0038 0.215589L66.6039 5.62189C64.6467 6.31012 63.6184 8.45771 64.3067 10.4229L69.6971 25.8789C70.2361 27.4295 71.6874 28.3997 73.2382 28.3997C73.6528 28.3997 74.0675 28.3333 74.4738 28.1841L89.8737 22.7778C91.8308 22.0896 92.8591 19.942 92.1708 17.9768L86.7805 2.52073C86.2414 0.970149 84.7902 0 83.2394 0Z" fill="#1F1F21"/>
<path d="M76.4558 10.1241C77.0861 11.9235 76.1407 13.8887 74.3494 14.5188C72.5581 15.149 70.601 14.2037 69.9708 12.4044C69.3405 10.6051 70.2859 8.6399 72.0772 8.00972C73.8684 7.37953 75.8255 8.32481 76.4558 10.1241Z" fill="#BFC8D9"/>
<path d="M69.6888 25.8704L68.4697 22.3629L69.4897 20.2319C70.2444 18.6565 72.1269 17.9931 73.6942 18.756C75.1787 19.4773 76.9616 18.8472 77.6748 17.3546L81.6886 8.98813C82.6423 7.00637 85.014 6.16889 86.996 7.12246L88.6629 7.92677L92.1625 17.9682C92.8508 19.9334 91.8142 22.081 89.8654 22.7692L74.4655 28.1755C72.5084 28.8638 70.3688 27.8273 69.6888 25.8621V25.8704Z" fill="#1F1F21"/>
<path d="M56.9675 19.5107C57.4153 19.8838 57.5729 20.5057 57.3655 21.0613L53.5176 31.2685C53.385 31.6168 53.1279 31.8904 52.7962 32.0397C52.4644 32.1889 52.0913 32.2055 51.743 32.0729L41.5676 28.2088C41.4183 28.1508 41.2856 28.0762 41.1695 27.9767C40.7217 27.6035 40.5641 26.9816 40.7715 26.4261L44.6194 16.2188C44.8847 15.5057 45.6809 15.1491 46.3941 15.4145L56.5694 19.2785C56.7187 19.3365 56.8514 19.4112 56.9675 19.5107ZM57.689 18.6483C57.4816 18.4742 57.2329 18.3249 56.9675 18.2254L46.7921 14.3614C45.4984 13.8722 44.0555 14.5273 43.5662 15.8208L39.7183 26.0281C39.3285 27.0563 39.6602 28.1757 40.448 28.839C40.6554 29.0132 40.9042 29.1624 41.1695 29.2619L51.3449 33.1259C52.6386 33.6151 54.0816 32.9601 54.5708 31.6666L58.4187 21.4593C58.8085 20.4311 58.4768 19.3117 57.689 18.6483Z" fill="#BFC8D9"/>
<path d="M49.902 20.8951C49.4541 22.0808 48.1356 22.6778 46.9497 22.2301C45.7638 21.7823 45.1667 20.4556 45.6145 19.2699C46.0624 18.0841 47.3809 17.4871 48.5668 17.9349C49.7527 18.3827 50.3498 19.7094 49.902 20.8951Z" fill="#BFC8D9"/>
<path d="M39.7266 26.0283L40.5973 23.7148L42.032 23.0681C43.0935 22.5871 44.3374 23.0681 44.8101 24.1211C45.2662 25.1244 46.4438 25.5722 47.439 25.1162L53.0616 22.5705C54.3967 21.9652 55.9641 22.5623 56.5695 23.8972L57.0753 25.0249L54.5792 31.6584C54.0899 32.952 52.6469 33.607 51.3532 33.1178L41.1778 29.2538C39.8842 28.7646 39.2373 27.3135 39.7266 26.02V26.0283Z" fill="#BFC8D9"/>
<path d="M77.227 79.6015C91.7412 79.6015 103.507 67.7887 103.507 53.2168C103.507 38.6449 91.7412 26.832 77.227 26.832C62.7129 26.832 50.9468 38.6449 50.9468 53.2168C50.9468 67.7887 62.7129 79.6015 77.227 79.6015Z" fill="#1F1F21"/>
<mask id="mask0_12_1357" style="mask-type:luminance" maskUnits="userSpaceOnUse" x="50" y="26" width="54" height="54">
<path d="M77.227 79.6015C91.7412 79.6015 103.507 67.7887 103.507 53.2168C103.507 38.6449 91.7412 26.832 77.227 26.832C62.7129 26.832 50.9468 38.6449 50.9468 53.2168C50.9468 67.7887 62.7129 79.6015 77.227 79.6015Z" fill="white"/>
</mask>
<g mask="url(#mask0_12_1357)">
<path d="M84.6906 36.1855H67.8809C62.6001 36.1855 58.3192 40.4659 58.3192 45.7461V52.3381C58.3192 57.6183 62.6001 61.8987 67.8809 61.8987H84.6906C89.9714 61.8987 94.2523 57.6183 94.2523 52.3381V45.7461C94.2523 40.4659 89.9714 36.1855 84.6906 36.1855Z" fill="#FBEA00"/>
<path d="M81.5642 37.7197H67.3004C63.2196 37.7197 59.9114 41.0275 59.9114 45.1078V49.3284C59.9114 53.4087 63.2196 56.7164 67.3004 56.7164H81.5642C85.645 56.7164 88.9532 53.4087 88.9532 49.3284V45.1078C88.9532 41.0275 85.645 37.7197 81.5642 37.7197Z" fill="#1F1F21"/>
<path d="M93.705 54.7842C95.4134 54.7842 96.7983 52.1447 96.7983 48.8887C96.7983 45.6327 95.4134 42.9932 93.705 42.9932C91.9967 42.9932 90.6118 45.6327 90.6118 48.8887C90.6118 52.1447 91.9967 54.7842 93.705 54.7842Z" fill="#FBEA00"/>
<path d="M95.8777 48.8884C95.8777 50.5219 95.1811 51.8403 94.327 51.8403C93.4728 51.8403 92.7762 50.5136 92.7762 48.8884C92.7762 47.2632 93.4728 45.9365 94.327 45.9365C95.1811 45.9365 95.8777 47.2632 95.8777 48.8884Z" fill="white"/>
<path d="M93.705 54.7839C91.9967 54.7839 90.6118 52.147 90.6118 48.8883C90.6118 47.3709 90.9103 45.9862 91.4079 44.9414" stroke="#1F1F21" stroke-linecap="round" stroke-linejoin="round"/>
<path d="M67.2341 92.7855L61.4539 77.4372C58.9163 70.7125 63.8671 63.5234 71.0322 63.5234H82.6008C89.7658 63.5234 94.7167 70.7125 92.1791 77.4372L86.3989 92.7855C83.0652 101.641 70.5844 101.641 67.2424 92.7855H67.2341Z" fill="#FBEA00"/>
<path d="M92.1708 77.4372C94.7085 70.7125 89.7576 63.5234 82.5925 63.5234H75.3445C73.1635 68.6478 72.1601 75.6379 73.1552 82.4787L75.6099 99.3526" stroke="#1F1F21" stroke-linecap="round" stroke-linejoin="round"/>
<path d="M82.5925 63.5239H71.024C68.2707 63.5239 65.8575 64.5853 64.0579 66.2685C64.1326 67.5786 64.2155 68.8888 64.2901 70.2072C64.5472 75.0994 67.7483 77.305 71.4966 78.101C75.2533 78.7561 79.5656 78.0015 82.2277 73.6815C84.0604 70.7296 83.1896 66.8738 87.7258 64.9004C86.2331 64.0297 84.4916 63.5156 82.5842 63.5156L82.5925 63.5239Z" stroke="#1F1F21" stroke-linecap="round" stroke-linejoin="round"/>
<path d="M73.0971 82.7113C76.5139 82.7113 79.2836 79.9307 79.2836 76.5007C79.2836 73.0706 76.5139 70.29 73.0971 70.29C69.6804 70.29 66.9106 73.0706 66.9106 76.5007C66.9106 79.9307 69.6804 82.7113 73.0971 82.7113Z" fill="#FBEA00" stroke="#1F1F21" stroke-linecap="round" stroke-linejoin="round"/>
<path d="M73.0972 80.1163C75.0895 80.1163 76.7046 78.4977 76.7046 76.501C76.7046 74.5043 75.0895 72.8857 73.0972 72.8857C71.1048 72.8857 69.4897 74.5043 69.4897 76.501C69.4897 78.4977 71.1048 80.1163 73.0972 80.1163Z" fill="white"/>
<path d="M69.7717 41.6582H72.7157L76.7129 53.101H73.6528L72.9894 51.0529H69.4234L68.7766 53.101H65.7828L69.7634 41.6582H69.7717ZM72.2679 48.7146L71.2147 45.3813L70.1615 48.7146H72.2679Z" fill="white"/>
<path d="M77.4841 41.335H80.4115V43.5655H77.4841V41.335ZM77.5256 44.3117H80.3618V53.1011H77.5256V44.3117Z" fill="white"/>
</g>
<path d="M32.5864 34.71L33.9216 37.1726L36.3763 38.5159L33.9216 39.8675L32.5864 42.3302L31.243 39.8675L28.7883 38.5159L31.243 37.1726L32.5864 34.71Z" stroke="#1F1F21" stroke-linecap="round" stroke-linejoin="round"/>
<path d="M19.4173 21.9902L22.0959 26.9156L26.997 29.6022L22.0959 32.297L19.4173 37.2224L16.7304 32.297L11.8293 29.6022L16.7304 26.9156L19.4173 21.9902Z" stroke="#1F1F21" stroke-linecap="round" stroke-linejoin="round"/>
<path d="M28.6058 72.1727L30.8034 69.4198L26.6901 66.1113L24.4925 68.8642C23.8871 69.6188 24.0115 70.7382 24.7662 71.3435L26.1345 72.4463C26.8892 73.0516 28.0004 72.9272 28.6058 72.1727Z" stroke="#1F1F21"/>
<path d="M29.1531 67.2474L39.0549 54.8594" stroke="#1F1F21"/>
<path d="M31.2181 68.9054L41.1115 56.5173L41.9408 51.252L36.9982 53.2088L27.0965 65.5969" stroke="#1F1F21"/>
<path d="M29.6673 71.8987L27.0965 69.834" stroke="#1F1F21"/>
</svg>
