<svg width="153" height="100" viewBox="0 0 153 100" fill="none" xmlns="http://www.w3.org/2000/svg">
<path d="M37.7432 67.271C36.2319 67.271 35.0007 65.2985 35.0007 63.7839V12.752C35.0007 11.2338 36.2319 10 37.7432 10H112.154C113.669 10 114.9 11.2338 114.9 12.752V63.7839C114.9 65.2985 113.669 67.271 112.154 67.271H37.7432Z" fill="#BFC8D9"/>
<path d="M114.638 63.7841C114.638 65.1583 113.525 67.0127 112.15 67.0127H37.7431C36.3682 67.0127 35.255 65.1583 35.255 63.7841V12.7522C35.255 11.3744 36.3682 10.2588 37.7431 10.2588H112.154C113.529 10.2588 114.642 11.3744 114.642 12.7522V63.7841H114.638Z" fill="#1F1F21"/>
<path d="M110.746 13.834H39.1475V59.6316H110.746V13.834Z" fill="white"/>
<path d="M127.908 63.8213H21.9851V66.9501H127.908V63.8213Z" fill="white"/>
<path d="M127.54 64.19V66.5799H22.3537V64.19H127.54ZM128.277 63.4512H21.6165V67.3187H128.277V63.4512Z" fill="#1F1F21"/>
<path d="M21.7713 67.3188C23.0319 68.6561 25.3505 69.1806 26.9539 69.1806H122.94C124.539 69.1806 126.862 68.6561 128.118 67.3188H21.7713Z" fill="#1F1F21"/>
<path d="M67.1676 24H71.8194L80.279 47.7743H75.2254L73.4745 42.6397H65.354L63.6363 47.7743H58.7154L67.175 24H67.1676ZM71.9853 38.3178L69.4235 30.6196L66.8285 38.3178H71.9853Z" fill="#FBEA00"/>
<path d="M82.8371 23.3906H87.8244V27.7458H82.8371V23.3906ZM82.9366 29.6703H87.7212V47.7707H82.9366V29.6703Z" fill="#FBEA00"/>
<path d="M31.3773 90C40.4222 90 47.7545 88.5297 47.7545 86.7161C47.7545 84.9024 40.4222 83.4321 31.3773 83.4321C22.3324 83.4321 15 84.9024 15 86.7161C15 88.5297 22.3324 90 31.3773 90Z" fill="#1F1F21"/>
<path d="M121.023 90C130.068 90 137.4 88.5297 137.4 86.7161C137.4 84.9024 130.068 83.4321 121.023 83.4321C111.978 83.4321 104.646 84.9024 104.646 86.7161C104.646 88.5297 111.978 90 121.023 90Z" fill="#1F1F21"/>
<path d="M56.3394 57.5889L61.3415 62.476C61.6732 62.801 61.6327 63.3477 61.2567 63.6174C60.173 64.4005 58.7096 64.4005 57.6222 63.6174L54.3637 61.2607L56.3358 57.5889H56.3394Z" fill="#BFC8D9"/>
<path d="M42.2401 86.7525L47.8835 78.9177L57.3825 75.3899C59.373 74.6511 61.1202 73.3767 62.4362 71.7071L63.8221 69.9487C64.2387 69.4168 64.0396 68.6337 63.4167 68.3751C62.5283 67.9983 61.5036 68.1387 60.7479 68.7408L57.8875 71.0126L56.144 71.2268C53.6191 71.5371 51.8608 68.7778 53.2099 66.6131L58.0313 58.8669L62.9928 56.1555C63.7374 55.7492 64.1502 54.9217 64.0322 54.0795C63.988 53.7692 63.6894 53.5624 63.3835 53.6362L57.3273 55.0584L55.0714 57.3191L51.1273 58.3091L53.0993 55.2025L58.5916 52.3249C59.0118 52.107 59.233 51.6341 59.1334 51.1687C59.0007 50.5407 58.3372 50.1787 57.7364 50.4003L50.5633 53.0822L46.6192 57.7439C46.6192 57.7439 50.0952 50.0531 49.299 49.7428C48.7977 49.547 48.23 49.717 47.913 50.1492L45.0673 54.0721L36.6115 69.8896L21.6497 85.6591C21.6497 85.6591 29.0034 90.8196 42.2438 86.7636L42.2401 86.7525Z" fill="#BFC8D9"/>
<path d="M51.7355 60.6036L55.0714 57.3086" stroke="#1F1F21" stroke-linecap="round" stroke-linejoin="round"/>
<path d="M49.2916 59.0039L51.1236 58.2983" stroke="#1F1F21" stroke-linecap="round" stroke-linejoin="round"/>
<path d="M93.2003 56.2153L90.4763 63.4998C91.7959 63.884 93.204 63.3225 93.9006 62.1404L96.3298 58.018L93.2003 56.219V56.2153Z" fill="#BFC8D9"/>
<path d="M90.233 56.2153L87.509 63.4998C88.8286 63.884 90.2367 63.3225 90.9333 62.1404L93.3625 58.018L90.233 56.219V56.2153Z" fill="#BFC8D9"/>
<path d="M87.8149 56.2478L84.0109 63.0262C85.2531 63.6062 86.7349 63.27 87.6048 62.2062L90.6348 58.5048L87.8149 56.2441V56.2478Z" fill="#BFC8D9"/>
<path d="M129.025 86.3832L107.263 65.2871L98.9469 53.991L88.7991 54.8369L80.2031 52.5762C80.2916 53.8875 81.0694 55.0511 82.2452 55.6311L88.095 58.5087L93.027 63.3108C93.7753 65.4274 92.1829 67.6438 89.9418 67.5995H89.669C88.0803 67.5625 86.5284 67.1193 85.1646 66.3066L82.4553 64.6923C82.1826 64.5298 81.8619 64.4596 81.5449 64.4966C80.2768 64.6369 79.7792 66.2253 80.7413 67.0638L89.363 74.6106L97.959 77.2924L108.188 86.9188C108.188 86.9188 114.561 90.1954 129.025 86.3869V86.3832Z" fill="#BFC8D9"/>
<path d="M94.7189 58.7894L88.799 54.8369" stroke="#1F1F21" stroke-linecap="round" stroke-linejoin="round"/>
<path d="M96.8311 57.238L93.1671 54.4121" stroke="#1F1F21" stroke-linecap="round" stroke-linejoin="round"/>
<path d="M98.9469 56.8132L96.2671 54.4121" stroke="#1F1F21" stroke-linecap="round" stroke-linejoin="round"/>
<path d="M93.027 63.3112L86.8933 57.8589" stroke="#1F1F21" stroke-linecap="round" stroke-linejoin="round"/>
</svg>
