<svg width="157" height="100" viewBox="0 0 157 100" fill="none" xmlns="http://www.w3.org/2000/svg">
<path d="M139.183 72.9554C140.8 72.6612 141.872 71.1184 141.592 69.5032L131.528 11.6657C131.344 10.6002 130.456 9.86248 129.544 10.0216L33.9857 27.5233C33.0735 27.6824 32.4894 28.6756 32.6728 29.7363L42.7273 87.5208C43.012 89.1553 44.576 90.2497 46.2123 89.9508L139.178 72.9554H139.183Z" stroke="#1F1F21"/>
<path d="M38.919 31.1539C39.0204 31.7372 38.6294 32.2869 38.0501 32.3881C37.4661 32.4894 36.9158 32.0988 36.8145 31.5203C36.7131 30.9369 37.1041 30.3873 37.6833 30.286C38.2674 30.1848 38.8176 30.5753 38.919 31.1539Z" fill="#1F1F21"/>
<path d="M42.0179 30.6187C42.1192 31.2021 41.7283 31.7517 41.149 31.853C40.5698 31.9542 40.0147 31.5637 39.9133 30.9851C39.812 30.4017 40.203 29.8521 40.7822 29.7508C41.3662 29.6496 41.9165 30.0401 42.0179 30.6187Z" fill="#1F1F21"/>
<path d="M45.1119 30.0787C45.2132 30.662 44.8222 31.2117 44.243 31.3129C43.659 31.4142 43.1087 31.0237 43.0073 30.4451C42.906 29.8617 43.2969 29.3121 43.8762 29.2108C44.4602 29.1096 45.0105 29.5001 45.1119 30.0787Z" fill="#1F1F21"/>
<path d="M120.122 14.9009L120.542 17.3164" stroke="#1F1F21"/>
<path d="M121.541 15.8989L119.127 16.3184" stroke="#1F1F21"/>
<path d="M124.548 14.0522L123.568 14.2258L123.737 15.2046L124.722 15.0358L124.548 14.0522Z" fill="#1F1F21"/>
<path d="M124.828 15.6436L123.843 15.8123L124.017 16.7959L124.997 16.6223L124.828 15.6436Z" fill="#1F1F21"/>
<path d="M126.155 13.7773L125.171 13.9461L125.345 14.9248L126.324 14.7561L126.155 13.7773Z" fill="#1F1F21"/>
<path d="M126.431 15.3638L125.451 15.5325L125.62 16.5161L126.599 16.3425L126.431 15.3638Z" fill="#1F1F21"/>
<path d="M21.3537 50.5839L20.2049 52.8451C19.5726 54.0939 19.6016 55.4149 20.2677 55.7958L54.2104 74.3968L57.652 67.6131L23.7141 49.0121C23.0431 48.6312 21.9909 49.3352 21.3537 50.5839Z" fill="#FBEA00"/>
<path d="M21.3152 56.3889L24.7568 49.6052L23.7093 49.0121C23.0384 48.6312 21.9861 49.3352 21.349 50.5839L20.2002 52.8451C19.5678 54.0939 19.5968 55.4149 20.2629 55.7958L21.3103 56.3889H21.3152Z" fill="#1F1F21"/>
<path d="M54.249 74.4256L62.8699 75.0235L57.6954 67.6274L54.249 74.4256Z" fill="white"/>
<path d="M58.8153 74.7439L62.8699 75.0235L60.4371 71.5425L58.8153 74.7439Z" fill="#1F1F21"/>
<path d="M57.9513 38.767L55.2289 41.4863L59.3124 45.5652L62.0348 42.8459C62.783 42.0986 62.783 40.874 62.0348 40.1267L60.6736 38.767C59.9255 38.0197 58.6994 38.0197 57.9513 38.767Z" stroke="#1F1F21"/>
<path d="M56.7639 44.0317L41.9646 58.8142" stroke="#1F1F21"/>
<path d="M54.7221 41.9927L39.9228 56.7751L38.3927 62.3824L44.0064 60.854L58.8056 46.0716" stroke="#1F1F21"/>
<path d="M56.7639 38.9355L59.3125 41.4861" stroke="#1F1F21"/>
<path d="M137.904 71.7499L125.634 69.6333L113.364 67.5215L118.867 78.6782L124.365 89.8349L127.328 81.2336L134.487 86.5853L137.643 82.3666L130.48 77.0196L137.904 71.7499Z" fill="#BFC8D9"/>
<path d="M114.122 57.623L113.514 59.8939" stroke="#1F1F21"/>
<path d="M114.122 57.623L113.514 59.8939" stroke="#1F1F21"/>
<path d="M105.834 59.8457L107.499 61.5091" stroke="#1F1F21"/>
<path d="M103.614 68.1241L105.892 67.5166" stroke="#1F1F21"/>
<path d="M109.686 74.1844L110.294 71.9087" stroke="#1F1F21"/>
<path d="M117.974 71.9617L116.309 70.2983" stroke="#1F1F21"/>
<path d="M120.194 63.6836L117.916 64.2911" stroke="#1F1F21"/>
<path d="M16.2662 32.6194L16.6572 32.928C16.7489 33.0003 16.9034 33.01 16.9999 32.9473L17.2123 32.8267C17.3185 32.7785 17.3957 32.6435 17.3812 32.5278L17.3233 32.0312C17.3088 31.9155 17.3957 31.8094 17.5067 31.7998L18.2742 31.713C18.3901 31.6985 18.4963 31.7853 18.5059 31.901L18.5638 32.3976C18.5783 32.5134 18.6797 32.6242 18.7955 32.6484L19.032 32.7159C19.1382 32.7544 19.2879 32.7159 19.3603 32.6242L19.6692 32.2337C19.7416 32.1421 19.8767 32.1276 19.9685 32.2L20.5766 32.6821C20.6684 32.7544 20.6828 32.8894 20.6104 32.9762L20.3015 33.3667C20.2291 33.4584 20.2243 33.6126 20.287 33.7091L20.4077 33.9212C20.456 34.0273 20.5911 34.0996 20.707 34.09L21.2041 34.0321C21.32 34.0176 21.4214 34.1044 21.4358 34.2153L21.5227 34.9819C21.5372 35.0976 21.4503 35.1989 21.3393 35.2133L20.8421 35.2712C20.7263 35.2857 20.6104 35.3869 20.5863 35.5026L20.5187 35.7389C20.4801 35.8498 20.5187 35.9944 20.6104 36.0667L21.0014 36.3801C21.0931 36.4524 21.1076 36.5874 21.0352 36.6742L20.5525 37.2769C20.4801 37.3685 20.345 37.383 20.2581 37.3107L19.8671 36.9973C19.7754 36.9249 19.6209 36.9153 19.5244 36.9828L19.312 37.1033C19.2058 37.1515 19.1334 37.2865 19.1431 37.4023L19.201 37.8989C19.2155 38.0146 19.1286 38.1206 19.0176 38.1303L18.2501 38.2171C18.1342 38.2315 18.028 38.1448 18.0184 38.0339L17.9605 37.5373C17.946 37.4215 17.8446 37.3107 17.7336 37.2865L17.4971 37.219C17.3861 37.1805 17.2413 37.219 17.1689 37.3107L16.8551 37.7012C16.7827 37.7928 16.6476 37.8073 16.5607 37.7349L15.9525 37.2528C15.8608 37.1805 15.8463 37.0455 15.9187 36.9539L16.2324 36.5633C16.3048 36.4717 16.3145 36.3174 16.2469 36.221L16.1311 36.0089C16.0828 35.9028 15.9477 35.8305 15.8318 35.8401L15.3346 35.898C15.2188 35.9124 15.1126 35.8257 15.1029 35.7099L15.0016 34.9482C14.9871 34.8325 15.074 34.7264 15.185 34.7167L15.6822 34.6589C15.798 34.6444 15.909 34.5432 15.9332 34.4275L16.0007 34.1912C16.0394 34.0851 16.0007 33.9357 15.909 33.8633L15.5181 33.5548C15.4263 33.4825 15.4119 33.3475 15.4843 33.2607L15.967 32.658C16.0394 32.5664 16.1745 32.5519 16.2614 32.6242L16.2662 32.6194ZM17.6274 35.763C18.0667 36.1149 18.7086 36.0426 19.061 35.5991C19.4134 35.1603 19.341 34.5191 18.8969 34.1671C18.4576 33.8151 17.8157 33.8875 17.4633 34.331C17.1109 34.7698 17.1882 35.411 17.6274 35.763Z" fill="#1F1F21"/>
<path d="M28.932 45.3096C28.932 45.3096 28.961 45.0541 28.9561 44.625" stroke="#1F1F21" stroke-miterlimit="10"/>
<path d="M28.8403 43.1833C28.5458 41.2741 27.5611 38.5259 24.4719 36.877" stroke="#1F1F21" stroke-miterlimit="10" stroke-dasharray="3 3"/>
<path d="M23.8154 36.5588C23.6079 36.4672 23.3955 36.3804 23.1735 36.3032" stroke="#1F1F21" stroke-miterlimit="10"/>
<path d="M64.2938 46.4185L76.4142 39.6396V44.2007L68.3967 48.5785L76.4142 52.8165V57.3776L64.2938 50.8108V46.4185Z" fill="#1F1F21"/>
<path d="M92.9463 34.3696L87.3037 62.6616H83.2443L88.8869 34.3696H92.9463Z" fill="#1F1F21"/>
<path d="M111.332 50.8108L99.2117 57.3776V52.8165L107.229 48.5785L99.2117 44.2007V39.6396L111.332 46.4185V50.8108Z" fill="#1F1F21"/>
</svg>
