<svg width="157" height="100" viewBox="0 0 157 100" fill="none" xmlns="http://www.w3.org/2000/svg">
<path d="M114.809 6H21.4102C18.9745 6 17 7.9745 17 10.4102V61.3049C17 63.7406 18.9745 65.7151 21.4102 65.7151H114.809C117.244 65.7151 119.219 63.7406 119.219 61.3049V10.4102C119.219 7.9745 117.244 6 114.809 6Z" stroke="#1F1F21" stroke-linecap="round" stroke-linejoin="round"/>
<path d="M21.4102 6.5H114.809C116.966 6.5 118.719 8.25252 118.719 10.4102V13.1963H17.5V10.4102C17.5 8.25253 19.2525 6.50001 21.4102 6.5Z" fill="#1F1F21" stroke="#1F1F21"/>
<path d="M23.7253 9.75483C23.7253 10.664 22.9856 11.4037 22.0764 11.4037C21.1673 11.4037 20.4276 10.664 20.4276 9.75483C20.4276 8.84569 21.1673 8.10596 22.0764 8.10596C22.9856 8.10596 23.7253 8.84569 23.7253 9.75483Z" fill="white"/>
<path d="M28.2598 9.75483C28.2598 10.664 27.5201 11.4037 26.6109 11.4037C25.7018 11.4037 24.9621 10.664 24.9621 9.75483C24.9621 8.84569 25.7018 8.10596 26.6109 8.10596C27.5201 8.10596 28.2598 8.84569 28.2598 9.75483Z" fill="white"/>
<path d="M32.7941 9.75483C32.7941 10.664 32.0544 11.4037 31.1452 11.4037C30.2361 11.4037 29.4964 10.664 29.4964 9.75483C29.4964 8.84569 30.2361 8.10596 31.1452 8.10596C32.0544 8.10596 32.7941 8.84569 32.7941 9.75483Z" fill="white"/>
<path d="M70.7408 45.8726H64.3655V53.8289H70.7408V45.8726Z" fill="#1F1F21"/>
<path d="M81.2608 35.1768H74.8799V53.8338H81.2608V35.1768Z" fill="#FBEA00"/>
<path d="M91.7695 40.2251H85.3886V53.8339H91.7695V40.2251Z" fill="#BFC8D9"/>
<path d="M102.278 30.8574H95.903V53.8343H102.278V30.8574Z" fill="#FBEA00"/>
<path d="M62.3158 53.8335H105.717" stroke="#1F1F21"/>
<path d="M114.058 93.9998C128.634 93.9998 140.451 82.1832 140.451 67.6066C140.451 53.03 128.634 41.2134 114.058 41.2134C99.481 41.2134 87.6644 53.03 87.6644 67.6066C87.6644 82.1832 99.481 93.9998 114.058 93.9998Z" fill="#1F1F21"/>
<mask id="mask0_12_221" style="mask-type:luminance" maskUnits="userSpaceOnUse" x="87" y="41" width="54" height="53">
<path d="M114.058 93.9998C128.634 93.9998 140.451 82.1832 140.451 67.6066C140.451 53.03 128.634 41.2134 114.058 41.2134C99.481 41.2134 87.6644 53.03 87.6644 67.6066C87.6644 82.1832 99.481 93.9998 114.058 93.9998Z" fill="white"/>
</mask>
<g mask="url(#mask0_12_221)">
<path d="M121.573 50.5693H104.667C99.3714 50.5693 95.0786 54.8622 95.0786 60.1576V66.7079C95.0786 72.0034 99.3714 76.2962 104.667 76.2962H121.573C126.869 76.2962 131.162 72.0034 131.162 66.7079V60.1576C131.162 54.8622 126.869 50.5693 121.573 50.5693Z" fill="#FBEA00"/>
<path d="M118.428 52.106H104.085C99.9936 52.106 96.6767 55.4229 96.6767 59.5146V63.6989C96.6767 67.7905 99.9936 71.1075 104.085 71.1075H118.428C122.52 71.1075 125.837 67.7905 125.837 63.6989V59.5146C125.837 55.4229 122.52 52.106 118.428 52.106Z" fill="#1F1F21"/>
<path d="M130.608 69.1719C132.324 69.1719 133.714 66.5325 133.714 63.2766C133.714 60.0208 132.324 57.3813 130.608 57.3813C128.893 57.3813 127.503 60.0208 127.503 63.2766C127.503 66.5325 128.893 69.1719 130.608 69.1719Z" fill="#FBEA00"/>
<path d="M132.788 63.2753C132.788 64.9073 132.093 66.2343 131.23 66.2343C130.366 66.2343 129.671 64.9129 129.671 63.2753C129.671 61.6378 130.366 60.3164 131.23 60.3164C132.093 60.3164 132.788 61.6378 132.788 63.2753Z" fill="white"/>
<path d="M130.608 69.1754C128.892 69.1754 127.503 66.5327 127.503 63.2801C127.503 61.7611 127.802 60.3777 128.299 59.333" stroke="#1F1F21" stroke-linecap="round" stroke-linejoin="round"/>
<path d="M104.029 107.191L98.2238 91.8432C95.6771 85.1179 100.652 77.9238 107.84 77.9238H119.456C126.65 77.9238 131.619 85.1179 129.072 91.8432L123.267 107.191C119.919 116.051 107.383 116.051 104.034 107.191H104.029Z" fill="#FBEA00"/>
<path d="M129.067 91.8364C131.614 85.111 126.639 77.917 119.45 77.917H112.177C109.986 83.0443 108.981 90.0407 109.981 96.879L112.448 113.757" stroke="#1F1F21" stroke-linecap="round" stroke-linejoin="round"/>
<path d="M119.45 77.917H107.835C105.073 77.917 102.645 78.9786 100.838 80.667C100.917 81.977 100.991 83.2871 101.07 84.6085C101.324 89.5043 104.543 91.7065 108.309 92.5027C112.087 93.1577 116.412 92.4067 119.083 88.0869C120.93 85.1336 120.054 81.2825 124.606 79.3005C123.109 78.4309 121.359 77.917 119.445 77.917H119.45Z" stroke="#1F1F21" stroke-linecap="round" stroke-linejoin="round"/>
<path d="M112.298 96.6311C115.467 95.3183 116.972 91.6847 115.659 88.5154C114.346 85.346 110.713 83.8409 107.543 85.1537C104.374 86.4665 102.869 90.1001 104.182 93.2694C105.495 96.4388 109.128 97.9439 112.298 96.6311Z" fill="#FBEA00" stroke="#1F1F21" stroke-linecap="round" stroke-linejoin="round"/>
<path d="M109.918 94.5136C111.917 94.5136 113.538 92.8931 113.538 90.894C113.538 88.895 111.917 87.2744 109.918 87.2744C107.919 87.2744 106.299 88.895 106.299 90.894C106.299 92.8931 107.919 94.5136 109.918 94.5136Z" fill="white"/>
<path d="M106.581 56.0488H109.54L113.555 67.4949H110.483L109.817 65.4451H106.242L105.593 67.4949H102.583L106.581 56.0488ZM109.083 63.1017L108.027 59.7701L106.971 63.1017H109.083Z" fill="white"/>
<path d="M114.317 55.7197H117.259V57.9446H114.317V55.7197ZM114.368 58.6956H117.214V67.4933H114.368V58.6956Z" fill="white"/>
</g>
<path d="M34.4374 45.323C39.6664 50.5519 48.1423 50.5519 53.3656 45.323C58.5945 40.094 58.5945 31.6182 53.3656 26.3949C48.1366 21.1659 39.6607 21.1659 34.4374 26.3949C29.2085 31.6238 29.2085 40.0997 34.4374 45.323ZM49.5596 30.2008C52.6823 33.3235 52.6823 38.3887 49.5596 41.5114C46.4369 44.6341 41.3717 44.6341 38.249 41.5114C35.1263 38.3887 35.1263 33.3235 38.249 30.2008C41.3717 27.0781 46.4369 27.0781 49.5596 30.2008Z" stroke="#BFC8D9"/>
<path d="M34.4374 45.3255C34.4939 45.382 34.556 45.4384 34.6181 45.4949L38.4297 41.6833C38.3676 41.6268 38.3112 41.5704 38.249 41.5139C35.1263 38.3912 35.1263 33.326 38.249 30.2033C39.2937 29.1587 40.5586 28.4641 41.8912 28.1197L40.4965 22.9189C38.2773 23.5006 36.1767 24.6582 34.4374 26.3974C29.2085 31.6263 29.2085 40.1022 34.4374 45.3255Z" stroke="#BFC8D9"/>
<path d="M46.369 48.5653L45.409 43.7091C42.9752 44.1721 40.3664 43.5001 38.4352 41.6875L34.6236 45.4991C37.8762 48.6274 42.3146 49.7963 46.4537 48.9945L46.369 48.5597V48.5653Z" stroke="#BFC8D9"/>
</svg>
