<svg width="157" height="100" viewBox="0 0 157 100" fill="none" xmlns="http://www.w3.org/2000/svg">
<g clip-path="url(#clip0_12_319)">
<path d="M67.7879 9.18604L68.7253 10.9074L70.4427 11.8511L68.7253 12.7907L67.7879 14.5121L66.8465 12.7907L65.1292 11.8511L66.8465 10.9074L67.7879 9.18604Z" stroke="#1F1F21" stroke-linecap="round" stroke-linejoin="round"/>
<path d="M114.085 12.4707H117.492L123.691 29.9019H119.985L118.701 26.1393H112.749L111.489 29.9019H107.881L114.081 12.4707H114.085ZM117.618 22.9689L115.739 17.323L113.836 22.9689H117.618Z" fill="#1F1F21"/>
<path d="M125.574 12.0244H129.229V15.2185H125.574V12.0244ZM125.649 16.628H129.158V29.8978H125.649V16.628Z" fill="#1F1F21"/>
<path d="M123.057 50.5L126.228 52.5886" stroke="#1F1F21" stroke-linecap="round" stroke-linejoin="round"/>
<path d="M120.844 53.7056L122.159 55.3322" stroke="#1F1F21" stroke-linecap="round" stroke-linejoin="round"/>
<path d="M125.023 47.1201L127.051 47.6255" stroke="#1F1F21" stroke-linecap="round" stroke-linejoin="round"/>
<path d="M64.5856 24.0508L64.9756 24.7694L65.6964 25.1642L64.9756 25.559L64.5856 26.2815L64.1917 25.559L63.4709 25.1642L64.1917 24.7694L64.5856 24.0508Z" stroke="#1F1F21" stroke-miterlimit="10"/>
<path d="M122.297 41.1504C121.773 50.0772 114.289 57.7249 108.578 58.4118C102.867 59.0988 101.91 55.656 102.969 54.5545C105.947 51.4709 111.3 55.2888 110.327 61.5112C109.201 68.7166 102.386 72.9175 102.386 72.9175" stroke="#1F1F21" stroke-miterlimit="10"/>
<path d="M137.314 26.0065C140.118 16.16 134.428 5.89953 124.605 3.08911C114.781 0.278688 104.545 5.98256 101.742 15.8291C98.9379 25.6756 104.628 35.936 114.451 38.7464C124.274 41.5569 134.511 35.853 137.314 26.0065Z" stroke="#1F1F21" stroke-miterlimit="10" stroke-dasharray="1.99 1.99"/>
<path d="M57.4761 27.9047L21.8141 45.3478L15 21.4534L52.2651 7.26758L57.4761 27.9047Z" fill="#FBEA00"/>
<path d="M30.4677 23.1431L48.1293 16.1035" stroke="#1F1F21"/>
<path d="M31.5627 27.127L49.0904 19.811" stroke="#1F1F21"/>
<path d="M32.6459 31.0869L50.0396 23.5024" stroke="#1F1F21"/>
<path d="M28.6362 28.4772C29.4673 31.4857 28.774 34.5929 27.1 35.4379C25.43 36.2946 23.3818 34.5061 22.5153 31.4265C21.6448 28.3351 22.3105 25.1805 24.016 24.3987C25.7254 23.6249 27.8012 25.4608 28.6362 28.4772Z" fill="#1F1F21"/>
<path d="M79.3168 56.9438L42.3353 50.8992L42.6859 28.5801L81.3256 37.9925L79.3168 56.9438Z" stroke="#1F1F21"/>
<path d="M56.7632 39.3032L74.8541 43.0698" stroke="#1F1F21"/>
<path d="M56.5938 42.9873L74.5469 46.4696" stroke="#1F1F21"/>
<path d="M56.4284 46.6821L65.1489 48.2496" stroke="#1F1F21"/>
<path d="M53.494 42.3C53.3876 45.1071 51.8554 47.0852 50.0593 46.7061C48.2593 46.3153 46.8492 43.6502 46.9201 40.7681C46.9949 37.8977 48.5468 35.9592 50.3863 36.4251C52.2178 36.8831 53.6082 39.5046 53.4979 42.3H53.494Z" stroke="#1F1F21"/>
<path d="M95.6825 64.1252L61.6355 82.0855L57.8857 61.6379L93.658 47.1836L95.6825 64.1252Z" fill="#1F1F21"/>
<path d="M66.6063 82.9498L69.2217 81.564" stroke="#1F1F21" stroke-linecap="round" stroke-linejoin="round"/>
<path d="M93.7998 68.4912L71.195 80.5055" stroke="#1F1F21" stroke-linecap="round" stroke-linejoin="round"/>
<path d="M95.2335 67.7888L96.1946 67.2163" stroke="#1F1F21" stroke-linecap="round" stroke-linejoin="round"/>
<path d="M62.4036 83.9131L62.6675 85.8951" stroke="#1F1F21" stroke-linecap="round" stroke-linejoin="round"/>
<path d="M64.0381 83.0444L64.302 85.0264" stroke="#1F1F21" stroke-linecap="round" stroke-linejoin="round"/>
<path d="M70.1591 80.5138C70.2655 80.5138 70.4861 80.723 70.5176 81.1099C70.5333 81.3073 70.49 81.5008 70.4034 81.635C70.3561 81.7101 70.297 81.7574 70.2419 81.7614C70.1355 81.7614 69.9149 81.5521 69.8834 81.1652C69.8519 80.7783 70.041 80.5256 70.1513 80.5177H70.1591M70.1552 79.7241C70.1316 79.7241 70.1079 79.7241 70.0843 79.7241C69.4738 79.7715 69.0326 80.4427 69.0917 81.2205C69.1508 81.9706 69.655 82.5471 70.2379 82.5471C70.2616 82.5471 70.2852 82.5471 70.3088 82.5471C70.9193 82.4997 71.3605 81.8285 71.3014 81.0507C71.2423 80.3006 70.7381 79.7241 70.1591 79.7241H70.1552Z" fill="#1F1F21"/>
<path d="M103.147 77.5844C101.859 76.6685 99.6489 73.9363 97.2817 73.7073C97.2344 73.7034 97.1911 73.6994 97.1438 73.6955C97.0848 73.6955 97.0296 73.6797 96.9745 73.6797C96.9508 73.6797 96.9272 73.6797 96.8996 73.6797C96.876 73.6797 96.8524 73.6797 96.8248 73.6797C96.7657 73.6797 96.7106 73.6915 96.6554 73.6955C96.6082 73.6955 96.5648 73.7034 96.5176 73.7073C94.0716 73.9403 91.791 76.854 90.5266 77.6713C90.2746 77.8332 90.2746 77.9398 90.5266 78.1056C91.7949 78.9229 94.0716 81.8327 96.5176 82.0696C96.5648 82.0735 96.6082 82.0775 96.6554 82.0814C96.7106 82.0814 96.7697 82.0972 96.8248 82.0972C96.8484 82.0972 96.8721 82.0972 96.8996 82.0972C96.9233 82.0972 96.9469 82.0972 96.9745 82.0972C97.0336 82.0972 97.0887 82.0854 97.1438 82.0814C97.1911 82.0814 97.2344 82.0735 97.2817 82.0696C99.6568 81.8406 101.874 79.0887 103.162 78.1806C103.466 77.9674 103.458 77.8055 103.147 77.5844Z" stroke="#1F1F21" stroke-linecap="round" stroke-linejoin="round"/>
<path d="M98.6682 78.1574C97.9513 78.1574 97.3684 77.573 97.3684 76.8545C97.3684 76.2504 97.782 75.745 98.3413 75.5989C97.9119 75.3186 97.4038 75.1567 96.8563 75.1567C95.3517 75.1567 94.1307 76.3807 94.1307 77.8889C94.1307 79.3971 95.3517 80.621 96.8563 80.621C98.361 80.621 99.582 79.3971 99.582 77.8889C99.582 77.8533 99.582 77.8218 99.578 77.7862C99.3457 78.0152 99.0227 78.1613 98.6682 78.1613V78.1574Z" fill="#1F1F21"/>
<path d="M30.96 48.8256L31.5587 48.4743C31.7005 48.3913 31.7872 48.1939 31.7517 48.036L31.7045 47.7004C31.6926 47.5385 31.5587 47.3727 31.4012 47.3332L30.7276 47.1595C30.5701 47.12 30.4756 46.9582 30.5189 46.8002L30.7867 45.7579C30.8261 45.6039 30.9876 45.5092 31.1452 45.5487L31.8187 45.7224C31.9762 45.7619 32.1732 45.6868 32.2598 45.5487L32.4647 45.2762C32.571 45.1538 32.5907 44.9406 32.508 44.8024L32.1574 44.2023C32.0747 44.0641 32.122 43.8825 32.2598 43.7996L33.1855 43.2548C33.3233 43.1718 33.5045 43.2232 33.5872 43.3614L33.9378 43.9615C34.0205 44.0997 34.2135 44.1865 34.375 44.151L34.7098 44.1036C34.8713 44.0918 35.0367 43.9575 35.0761 43.7996L35.2494 43.1245C35.2888 42.9705 35.4503 42.8757 35.6039 42.9152L36.6437 43.1876C36.7973 43.2271 36.8919 43.389 36.8525 43.5469L36.6792 44.2221C36.6398 44.38 36.7146 44.5774 36.8525 44.6682L37.1243 44.8735C37.2464 44.9801 37.4591 44.9999 37.5969 44.9169L38.1956 44.5656C38.3335 44.4826 38.5147 44.53 38.5974 44.6722L39.1409 45.6C39.2236 45.7382 39.1764 45.9198 39.0385 46.0027L38.4398 46.3541C38.302 46.437 38.2153 46.6305 38.2468 46.7884L38.2941 47.124C38.3059 47.2859 38.4438 47.4517 38.5974 47.4912L39.2709 47.6649C39.4245 47.7044 39.5191 47.8662 39.4797 48.0242L39.2079 49.0665C39.1685 49.2244 39.007 49.3152 38.8534 49.2757L38.1799 49.102C38.0263 49.0625 37.8254 49.1375 37.7387 49.2718L37.5339 49.5442C37.4276 49.6666 37.4079 49.8798 37.4906 50.018L37.8411 50.6181C37.9238 50.7563 37.8766 50.9379 37.7387 51.0208L36.8131 51.5657C36.6752 51.6486 36.4941 51.6012 36.4113 51.463L36.0608 50.8629C35.9781 50.7247 35.7851 50.6379 35.6275 50.6694L35.2927 50.7168C35.1312 50.7287 34.9697 50.8629 34.9264 51.0208L34.7531 51.696C34.7137 51.8539 34.5522 51.9487 34.3947 51.9052L33.3548 51.6328C33.1973 51.5933 33.1027 51.4314 33.1461 51.2735L33.3194 50.5984C33.3588 50.4404 33.28 50.243 33.1461 50.1562L32.8743 49.9509C32.7522 49.8443 32.5395 49.8245 32.4016 49.9074L31.8029 50.2588C31.6651 50.3417 31.4839 50.2944 31.4012 50.1562L30.8576 49.2284C30.7749 49.0902 30.8222 48.9086 30.96 48.8256ZM35.7181 48.6322C36.3916 48.2334 36.6162 47.3648 36.2223 46.6897C35.8245 46.0145 34.9579 45.7895 34.2844 46.1843C33.6108 46.5791 33.3863 47.4517 33.7802 48.1268C34.1741 48.802 35.0446 49.027 35.7181 48.6322Z" fill="#1F1F21"/>
<path d="M77.3356 62.4824L77.7925 66.5925L80.9829 63.1339L77.3356 62.4824Z" fill="white"/>
<path d="M50.0593 46.7061C51.2961 46.9707 52.4108 46.106 53.0174 44.6254C52.5959 44.3096 52.0642 44.1319 51.4931 44.1595C51.0677 44.1832 49.5867 44.2622 49.1613 44.2859C48.665 44.3135 48.212 44.4951 47.8497 44.7794C48.4129 45.798 49.1889 46.5166 50.0593 46.7061Z" fill="#1F1F21"/>
<path d="M50.2681 43.0537C51.1267 43.0063 51.7845 42.272 51.7412 41.4113C51.6939 40.5506 50.9613 39.8912 50.1026 39.9346C49.244 39.982 48.5862 40.7164 48.6295 41.5771C48.6768 42.4378 49.4094 43.0971 50.2681 43.0537Z" fill="#1F1F21"/>
<path d="M86.2036 81.6896L80.3747 84.2132C79.6338 84.5339 79.2926 85.396 79.6126 86.1387L82.1302 91.9814C82.4502 92.7241 83.3102 93.0661 84.0511 92.7454L89.88 90.2218C90.6209 89.901 90.9621 89.039 90.6421 88.2963L88.1246 82.4535C87.8046 81.7108 86.9445 81.3688 86.2036 81.6896Z" stroke="#1F1F21" stroke-miterlimit="10" stroke-dasharray="1.74 1.74"/>
<path d="M32.701 78.4372C37.983 83.7317 46.542 83.7317 51.8239 78.4372C57.1059 73.1426 57.1059 64.5632 51.8239 59.2687C46.542 53.9742 37.983 53.9742 32.701 59.2687C27.4191 64.5632 27.4191 73.1426 32.701 78.4372ZM47.9757 63.1261C51.1307 66.2886 51.1307 71.4173 47.9757 74.5798C44.8207 77.7423 39.7042 77.7423 36.5492 74.5798C33.3942 71.4173 33.3942 66.2886 36.5492 63.1261C39.7042 59.9636 44.8207 59.9636 47.9757 63.1261Z" stroke="#1F1F21"/>
<path d="M32.701 78.4373C32.7601 78.4965 32.8231 78.5518 32.8822 78.611L36.7304 74.7537C36.6713 74.6984 36.6083 74.6392 36.5492 74.5799C33.3942 71.4175 33.3942 66.2888 36.5492 63.1263C37.6048 62.0682 38.881 61.3654 40.232 61.014L38.8219 55.7432C36.5807 56.3314 34.4577 57.5041 32.701 59.2649C27.4191 64.5595 27.4191 73.1389 32.701 78.4334V78.4373Z" stroke="#1F1F21"/>
<path d="M44.7577 81.7224L43.7887 76.8069C41.3309 77.2767 38.6959 76.5937 36.7462 74.7617L32.8979 78.6191C36.1829 81.7855 40.6692 82.97 44.8483 82.1606L44.7616 81.7224H44.7577Z" stroke="#1F1F21"/>
<path d="M96.8326 93.9966H93.6343V98H96.8326V93.9966Z" stroke="#1F1F21"/>
<path d="M102.111 88.6191H98.9084V98H102.111V88.6191Z" stroke="#1F1F21"/>
<path d="M107.385 91.1577H104.182V97.9999H107.385V91.1577Z" stroke="#1F1F21"/>
<path d="M112.655 86.4478H109.456V98.0001H112.655V86.4478Z" stroke="#1F1F21"/>
<path d="M92.6063 98H114.38" stroke="#1F1F21"/>
</g>
<defs>
<clipPath id="clip0_12_319">
<rect width="157" height="100" fill="white"/>
</clipPath>
</defs>
</svg>
