<svg width="157" height="100" viewBox="0 0 157 100" fill="none" xmlns="http://www.w3.org/2000/svg">
<g clip-path="url(#clip0_12_424)">
<path d="M116.736 42.2886H46.0185C44.7117 42.2886 43.6523 43.3493 43.6523 44.6577V93.1161C43.6523 94.4246 44.7117 95.4853 46.0185 95.4853H116.736C118.043 95.4853 119.103 94.4246 119.103 93.1161V44.6577C119.103 43.3493 118.043 42.2886 116.736 42.2886Z" fill="white" stroke="#1F1F21" stroke-linecap="round" stroke-linejoin="round"/>
<path d="M115.408 45.688H47.3557V89.1812H115.408V45.688Z" fill="#1F1F21"/>
<path d="M132.071 92.8076H30.6927V95.7758H132.071V92.8076Z" fill="white" stroke="#1F1F21" stroke-linecap="round" stroke-linejoin="round"/>
<path d="M30.8423 95.7759C32.039 97.0467 34.2465 97.5459 35.765 97.5459H126.994C128.513 97.5459 130.72 97.0467 131.917 95.7759H30.8423Z" fill="#1F1F21" stroke="#1F1F21" stroke-linecap="round" stroke-linejoin="round"/>
<path d="M74.4943 92.8076V93.1253C74.4943 93.7108 74.9702 94.1873 75.555 94.1873H87.2091C87.7938 94.1873 88.2698 93.7108 88.2698 93.1253V92.8076H74.4943Z" fill="#1F1F21"/>
<path d="M90.151 80.1633L90.5907 77.0589C90.5952 77.0226 90.6224 76.9954 90.6587 76.9863C90.6949 76.9772 90.7312 76.9954 90.7493 77.0272C91.9551 78.9787 93.8499 80.3312 96.0846 80.8396C98.3193 81.3479 100.613 80.9485 102.539 79.714C104.48 78.4704 105.971 76.6913 106.85 74.5582L107.313 73.4417C107.648 72.6247 107.399 71.6807 106.705 71.1361L104.761 75.0574C104.792 75.0937 104.788 75.1482 104.752 75.18C104.715 75.2117 104.661 75.2072 104.629 75.1709L97.3674 66.652C97.2767 66.5476 97.1997 66.4341 97.1317 66.3161L93.5416 69.1573C93.5144 69.18 93.4781 69.18 93.4464 69.1663C93.4147 69.1527 93.3966 69.1164 93.4011 69.0801L94.3349 60.4432C94.3711 60.1028 94.2578 59.7624 94.0221 59.5128C93.7864 59.2632 93.4555 59.127 93.111 59.1452C92.6305 59.1679 92.218 59.4765 92.0593 59.9258L90.015 65.6762C88.3469 70.3781 88.3968 75.5113 90.1555 80.1679L90.151 80.1633Z" fill="white"/>
<path d="M70.5688 80.1633L70.1291 77.0589C70.1246 77.0226 70.0974 76.9954 70.0611 76.9863C70.0249 76.9772 69.9886 76.9954 69.9705 77.0272C68.7647 78.9787 66.87 80.3312 64.6352 80.8396C62.4005 81.3479 60.1069 80.9485 58.1804 79.714C56.2403 78.4704 54.749 76.6913 53.8696 74.5582L53.4072 73.4417C53.0718 72.6247 53.3211 71.6807 54.0146 71.1361L55.9592 75.0574C55.9275 75.0937 55.932 75.1482 55.9683 75.18C56.0046 75.2117 56.059 75.2072 56.0907 75.1709L63.3524 66.652C63.4431 66.5476 63.5201 66.4341 63.5881 66.3161L67.1782 69.1573C67.2054 69.18 67.2417 69.18 67.2734 69.1663C67.3051 69.1482 67.3233 69.1164 67.3187 69.0801L66.3849 60.4432C66.3487 60.1028 66.462 59.7624 66.6977 59.5128C66.9334 59.2632 67.2643 59.127 67.6088 59.1452C68.0893 59.1679 68.5018 59.4765 68.6605 59.9258L70.7048 65.6762C72.3729 70.3781 72.3231 75.5113 70.5643 80.1679L70.5688 80.1633Z" fill="white"/>
<path d="M89.8995 18.588L63.7326 21.842C58.4707 22.4964 54.7349 27.2978 55.3884 32.5663L58.6384 58.7659C59.2919 64.0343 64.0873 67.7748 69.3492 67.1205L95.5161 63.8664C100.778 63.2121 104.514 58.4107 103.86 53.1422L100.61 26.9426C99.9568 21.6741 95.1614 17.9336 89.8995 18.588Z" fill="#FBEA00"/>
<path d="M56.6891 89.2589L61.4169 78.4117L71.5933 76.2559L68.2163 89.2589H56.6891Z" fill="white"/>
<path d="M62.9988 63.9651C62.9625 63.9333 62.958 63.8788 62.9897 63.8425L64.1139 62.549C64.6216 61.9635 64.7848 61.1466 64.5355 60.4114C64.4539 60.2071 64.2861 60.0483 64.0731 59.9847C63.8601 59.9212 63.6334 59.9575 63.4476 60.0846L53.312 67.2328C52.3737 67.8955 52.0654 69.1209 52.5776 70.1466L53.2757 71.5445C53.2893 71.5717 53.2848 71.5989 53.2757 71.6216C53.4117 71.8894 53.5069 72.0846 53.5069 72.1027L62.3325 64.7775L63.0124 63.9696C63.0124 63.9696 63.0079 63.9696 63.0033 63.9651H62.9988Z" fill="white"/>
<path d="M63.0759 64.3464C63.0397 64.3146 63.0352 64.2602 63.0669 64.2239L64.191 62.9304C64.6987 62.3449 64.8619 61.5279 64.6126 60.7927C64.531 60.5885 64.3633 60.4296 64.1502 60.3661C63.9372 60.3025 63.7106 60.3388 63.5247 60.4659L53.3891 67.6142C52.4508 68.2768 52.1426 69.5022 52.6548 70.528L53.3528 71.9258C53.3664 71.9531 53.3619 71.9803 53.3528 72.003C53.4888 72.2708 53.584 72.4659 53.584 72.4841L62.4096 65.1588L63.0895 64.3509C63.0895 64.3509 63.085 64.3509 63.0805 64.3464H63.0759Z" fill="white"/>
<path d="M70.5688 80.1633L70.1291 77.0589C70.1246 77.0226 70.0974 76.9954 70.0611 76.9863C70.0249 76.9772 69.9886 76.9954 69.9705 77.0271C68.7647 78.9787 66.87 80.3312 64.6352 80.8395C62.4005 81.3479 60.1069 80.9485 58.1804 79.714C56.2403 78.4704 54.749 76.6913 53.8696 74.5581L53.4072 73.4416C53.0718 72.6247 53.3211 71.6807 54.0146 71.136L62.5184 64.4916C62.6453 64.3917 62.7949 64.3418 62.949 64.3418C63.0306 64.3418 63.1122 64.3554 63.1938 64.3872C63.425 64.4734 63.5881 64.664 63.6425 64.9046C63.7649 65.481 63.6063 66.0937 63.2255 66.543L55.9638 75.0619C55.932 75.0982 55.9366 75.1527 55.9728 75.1845C56.0091 75.2162 56.0635 75.2117 56.0952 75.1754L63.357 66.6565C63.4476 66.5521 63.5247 66.4386 63.5927 66.3206L67.1827 69.1618C67.2099 69.1845 67.2462 69.1845 67.2779 69.1708C67.3097 69.1527 67.3278 69.1209 67.3233 69.0846C67.3233 69.0846 72.3276 75.5112 70.5688 80.1724V80.1633Z" fill="white"/>
<path d="M56.2947 51.2072C56.349 50.9667 56.5394 50.8532 56.6981 50.826C56.8567 50.7988 57.0743 50.8441 57.2012 51.0529L57.2738 51.0075L57.2103 51.0711C57.6047 51.711 57.7905 52.4553 57.7452 53.2224L57.2783 61.9909C57.2783 61.9909 57.2828 62.0272 57.2919 62.0408L53.6792 64.1694C53.5522 64.2466 53.4299 64.3283 53.3165 64.419L56.2901 51.2072H56.2947Z" fill="white"/>
<path d="M64.2001 60.2028C63.9326 60.1211 63.6516 60.1665 63.425 60.3299L53.2894 67.4782C52.8995 67.7505 52.614 68.1136 52.4372 68.522L52.3646 68.3314C51.7935 66.8246 52.3873 65.1408 53.7744 64.3239L63.4793 58.6053C63.6697 58.4918 63.8964 58.4736 64.1049 58.5553C64.3089 58.6325 64.4675 58.8004 64.5355 59.0092C64.6715 59.4449 64.7168 59.8942 64.6579 60.3481L64.6398 60.5069C64.5264 60.3662 64.3769 60.2618 64.2001 60.2074V60.2028Z" fill="white"/>
<path d="M53.9692 71.0678L55.3518 69.9877L62.4775 64.4234C62.7087 64.2418 62.9943 64.2146 63.2345 64.3054C63.2345 64.3054 63.7513 64.7184 63.5926 66.1435C63.5745 66.3205 63.4204 66.4566 63.3025 66.5973L56.0408 75.1162" stroke="#1F1F21" stroke-linecap="round" stroke-linejoin="round"/>
<path d="M70.0475 77.0728C67.9306 80.4994 63.7966 81.9063 60.1385 80.7308" stroke="#1F1F21" stroke-linecap="round" stroke-linejoin="round"/>
<path d="M53.3392 67.546L63.4748 60.3977C63.9055 60.0936 64.463 60.2933 64.6942 60.7653C65.3741 62.1542 63.2844 64.2464 63.2844 64.2464" stroke="#1F1F21" stroke-linecap="round" stroke-linejoin="round"/>
<path d="M53.235 64.5962C53.3846 64.4646 53.5523 64.3466 53.7291 64.2422L57.4415 61.7959" stroke="#1F1F21" stroke-linecap="round" stroke-linejoin="round"/>
<path d="M104.031 89.2589L99.3075 78.4117L89.1266 76.2559L92.5081 89.2589H104.031Z" fill="white"/>
<path d="M97.7255 63.9651C97.7617 63.9333 97.7663 63.8788 97.7345 63.8425L96.6104 62.549C96.1027 61.9635 95.9395 61.1466 96.1888 60.4114C96.2704 60.2071 96.4381 60.0483 96.6512 59.9847C96.8642 59.9212 97.0909 59.9575 97.2767 60.0846L107.412 67.2328C108.351 67.8955 108.659 69.1209 108.147 70.1466L107.449 71.5445C107.435 71.5717 107.44 71.5989 107.449 71.6216C107.313 71.8894 107.217 72.0846 107.217 72.1027L98.3918 64.7775L97.7119 63.9696C97.7119 63.9696 97.7164 63.9696 97.7209 63.9651H97.7255Z" fill="white"/>
<path d="M97.6484 64.3464C97.6847 64.3146 97.6892 64.2602 97.6575 64.2239L96.5333 62.9304C96.0257 62.3449 95.8625 61.5279 96.1118 60.7927C96.1934 60.5885 96.3611 60.4296 96.5741 60.3661C96.7872 60.3025 97.0138 60.3388 97.1997 60.4659L107.335 67.6142C108.274 68.2768 108.582 69.5022 108.07 70.528L107.372 71.9258C107.358 71.9531 107.362 71.9803 107.372 72.003C107.236 72.2708 107.14 72.4659 107.14 72.4841L98.3148 65.1588L97.6348 64.3509C97.6348 64.3509 97.6394 64.3509 97.6439 64.3464H97.6484Z" fill="white"/>
<path d="M90.151 80.1633L90.5907 77.0589C90.5952 77.0226 90.6224 76.9954 90.6587 76.9863C90.695 76.9772 90.7312 76.9954 90.7494 77.0271C91.9551 78.9787 93.8499 80.3312 96.0846 80.8395C98.3193 81.3479 100.613 80.9485 102.539 79.714C104.48 78.4704 105.971 76.6913 106.85 74.5581L107.313 73.4416C107.648 72.6247 107.399 71.6807 106.705 71.136L98.2015 64.4916C98.0746 64.3917 97.925 64.3418 97.7708 64.3418C97.6893 64.3418 97.6077 64.3554 97.5261 64.3872C97.2949 64.4734 97.1317 64.664 97.0773 64.9046C96.9549 65.481 97.1136 66.0937 97.4943 66.543L104.756 75.0619C104.788 75.0982 104.783 75.1527 104.747 75.1845C104.711 75.2162 104.656 75.2117 104.625 75.1754L97.3629 66.6565C97.2722 66.5521 97.1952 66.4386 97.1272 66.3206L93.5371 69.1618C93.5099 69.1845 93.4736 69.1845 93.4419 69.1708C93.4102 69.1572 93.3921 69.1209 93.3966 69.0846C93.3966 69.0846 88.3923 75.5112 90.151 80.1724V80.1633Z" fill="white"/>
<path d="M104.425 51.2072C104.371 50.9667 104.18 50.8532 104.022 50.826C103.863 50.7988 103.645 50.8441 103.519 51.0529L103.446 51.0075L103.509 51.0711C103.115 51.711 102.929 52.4553 102.975 53.2224L103.441 61.9909C103.441 61.9909 103.437 62.0272 103.428 62.0408L107.041 64.1694C107.168 64.2466 107.29 64.3283 107.403 64.419L104.43 51.2072H104.425Z" fill="white"/>
<path d="M96.5197 60.2028C96.7872 60.1211 97.0682 60.1665 97.2949 60.3299L107.43 67.4782C107.82 67.7505 108.106 68.1136 108.283 68.522L108.355 68.3314C108.926 66.8246 108.333 65.1408 106.945 64.3239L97.2405 58.6053C97.0501 58.4918 96.8234 58.4736 96.6149 58.5553C96.411 58.6325 96.2523 58.8004 96.1843 59.0092C96.0483 59.4449 96.003 59.8942 96.0619 60.3481L96.08 60.5069C96.1934 60.3662 96.343 60.2618 96.5197 60.2074V60.2028Z" fill="white"/>
<path d="M106.755 71.0678L105.373 69.9877L98.2469 64.4234C98.0157 64.2418 97.7301 64.2146 97.4899 64.3054C97.4899 64.3054 96.6694 64.7864 97.1318 66.1435C97.1907 66.3114 97.304 66.4566 97.4219 66.5973L104.684 75.1162" stroke="#1F1F21" stroke-linecap="round" stroke-linejoin="round"/>
<path d="M90.6769 77.0728C92.7938 80.4994 96.9278 81.9063 100.586 80.7308" stroke="#1F1F21" stroke-linecap="round" stroke-linejoin="round"/>
<path d="M107.381 67.546L97.2451 60.3978C96.8144 60.0937 96.2161 60.2752 96.0257 60.7654C96.0257 60.7654 95.509 62.2586 97.4898 64.301" stroke="#1F1F21" stroke-linecap="round" stroke-linejoin="round"/>
<path d="M107.485 64.5961C107.335 64.4644 107.168 64.3464 106.991 64.2421L103.219 61.7231" stroke="#1F1F21" stroke-linecap="round" stroke-linejoin="round"/>
<path d="M130.118 75.811L127.656 78.2755" stroke="#1F1F21"/>
<path d="M130.118 78.2755L127.656 75.811" stroke="#1F1F21"/>
<path d="M20.2943 39.6431H17.7966V42.1438H20.2943V39.6431Z" fill="#BFC8D9"/>
<path d="M20.2943 44.1592H17.7966V46.6599H20.2943V44.1592Z" fill="#BFC8D9"/>
<path d="M20.2943 48.584H17.7966V51.0847H20.2943V48.584Z" stroke="#1F1F21" stroke-linecap="round" stroke-linejoin="round"/>
<path d="M21.8535 40.7915H33.5756" stroke="#1F1F21" stroke-miterlimit="10"/>
<path d="M18.4221 40.4238L19.2018 41.2044L21.3368 39.0713" stroke="#1F1F21" stroke-miterlimit="10"/>
<path d="M21.8535 45.3027H37.8774" stroke="#1F1F21" stroke-miterlimit="10"/>
<path d="M21.8535 49.7324H32.5285" stroke="#1F1F21" stroke-miterlimit="10"/>
<path d="M18.4221 44.9396L19.2018 45.7202L21.3368 43.5825" stroke="#1F1F21" stroke-miterlimit="10"/>
<path d="M45.6241 12.4341H19.501C14.6117 12.4341 10.6482 16.4026 10.6482 21.2979V22.7684C10.6482 27.6638 14.6117 31.6323 19.501 31.6323H45.6241C50.5134 31.6323 54.4769 27.6638 54.4769 22.7684V21.2979C54.4769 16.4026 50.5134 12.4341 45.6241 12.4341Z" fill="#BFC8D9"/>
<path d="M45.1482 24.9106V36.9016L35.126 26.0907L45.1482 24.9106Z" fill="#BFC8D9"/>
<path d="M46.8163 19.8276H19.1973" stroke="#1F1F21" stroke-linecap="round" stroke-linejoin="round"/>
<path d="M46.8163 23.3721H19.1973" stroke="#1F1F21" stroke-linecap="round" stroke-linejoin="round"/>
<path d="M145.026 67.9408H125.626C123.985 67.9408 122.652 66.6065 122.652 64.9635V56.4991C122.652 54.8561 123.985 53.5218 125.626 53.5218H125.852L122.652 45.9741L132.833 53.5218H145.026C146.667 53.5218 148 54.8561 148 56.4991V64.9635C148 66.6065 146.667 67.9408 145.026 67.9408Z" fill="#BFC8D9"/>
<path d="M144.088 58.9365H126.772" stroke="#1F1F21" stroke-linecap="round" stroke-linejoin="round"/>
<path d="M144.088 60.9199H126.772" stroke="#1F1F21" stroke-linecap="round" stroke-linejoin="round"/>
<path d="M139.31 62.9893H126.772" stroke="#1F1F21" stroke-linecap="round" stroke-linejoin="round"/>
<path d="M33.5394 64.4375H31.3454V58.6235L25.5388 64.4375H14.5465C12.2845 64.4375 10.4532 66.2756 10.4532 68.5358V77.0683C10.4532 79.3331 12.2891 81.1667 14.5465 81.1667H33.5394C35.8013 81.1667 37.6326 79.3285 37.6326 77.0683V68.5358C37.6326 66.271 35.7968 64.4375 33.5394 64.4375Z" stroke="#1F1F21" stroke-linecap="round" stroke-linejoin="round"/>
<path d="M15.6616 69.938H32.4289" stroke="#1F1F21" stroke-linecap="round" stroke-linejoin="round"/>
<path d="M15.6616 72.8701H32.4289" stroke="#1F1F21" stroke-linecap="round" stroke-linejoin="round"/>
<path d="M15.6616 75.8062H23.363" stroke="#1F1F21" stroke-linecap="round" stroke-linejoin="round"/>
<path d="M86.4023 4.89111L85.7813 7.01971L86.4023 9.15284L84.2763 8.52651L82.1504 9.15284L82.7714 7.01971L82.1504 4.89111L84.2763 5.5129L86.4023 4.89111Z" stroke="#1F1F21"/>
<path d="M111.243 31.7594L110.408 30.4795" stroke="#1F1F21" stroke-miterlimit="10"/>
<path d="M108.69 27.8334L107.856 26.5581" stroke="#1F1F21" stroke-miterlimit="10"/>
<path d="M112.643 28.9907L111.125 29.0724" stroke="#1F1F21" stroke-miterlimit="10"/>
<path d="M107.974 29.2402L106.456 29.3219" stroke="#1F1F21" stroke-miterlimit="10"/>
<path d="M108.147 31.9225L108.836 30.5654" stroke="#1F1F21" stroke-miterlimit="10"/>
<path d="M110.263 27.7472L110.952 26.3901" stroke="#1F1F21" stroke-miterlimit="10"/>
<path d="M123.676 25.1694H137.651C140.661 25.1694 143.1 27.6112 143.1 30.6248C143.1 33.6384 140.661 36.0802 137.651 36.0802H129.778L125.635 40.2284V36.0802H123.672C120.662 36.0802 118.223 33.6384 118.223 30.6248C118.223 27.6112 120.662 25.1694 123.672 25.1694H123.676Z" stroke="#1F1F21" stroke-linecap="round" stroke-linejoin="round"/>
<path d="M125.499 30.4204H135.829" stroke="#1F1F21" stroke-linecap="round" stroke-linejoin="round"/>
<path d="M101.973 7.05615H126.129C129.139 7.05615 131.577 9.49791 131.577 12.5115C131.577 15.5251 129.139 17.9669 126.129 17.9669H108.074L103.931 22.1152V17.9669H101.968C98.9584 17.9669 96.5197 15.5251 96.5197 12.5115C96.5197 9.49791 98.9584 7.05615 101.968 7.05615H101.973Z" fill="#1F1F21"/>
<path d="M103.795 12.3115H124.306" stroke="white" stroke-linecap="round" stroke-linejoin="round"/>
<path d="M71.0765 30.8833H75.9176L84.7251 55.6186H79.4624L77.6402 50.2766H69.1817L67.3912 55.6186H62.269L71.0765 30.8833ZM76.0944 45.7789L73.4291 37.7683L70.7275 45.7789H76.0944Z" fill="#1F1F21"/>
<path d="M87.3905 30.2524H92.5852V34.7865H87.3905V30.2524ZM87.4993 36.7835H92.481V55.614H87.4993V36.7835Z" fill="#1F1F21"/>
<path d="M59.9799 2.4541H72.7219C73.2477 2.4541 73.6738 2.88073 73.6738 3.4072V13.3331C73.6738 13.8595 73.2477 14.2862 72.7219 14.2862H71.0492V16.7189L68.0167 14.2862H59.9799C59.454 14.2862 59.028 13.8595 59.028 13.3331V3.4072C59.028 2.88073 59.454 2.4541 59.9799 2.4541Z" stroke="#1F1F21" stroke-linecap="round" stroke-linejoin="round"/>
</g>
<defs>
<clipPath id="clip0_12_424">
<rect width="138" height="96" fill="white" transform="translate(10 2)"/>
</clipPath>
</defs>
</svg>
