<svg width="157" height="100" viewBox="0 0 157 100" fill="none" xmlns="http://www.w3.org/2000/svg">
<g clip-path="url(#clip0_12_568)">
<path d="M65.0627 8.70524L52.4214 8.85917C50.8174 8.8787 49.533 10.1904 49.5526 11.789L49.7071 24.3877C49.7267 25.9862 51.0428 27.2662 52.6468 27.2467L65.2882 27.0928C66.8921 27.0733 68.1765 25.7615 68.1569 24.163L68.0024 11.5643C67.9828 9.96575 66.6667 8.68571 65.0627 8.70524Z" fill="#FBEA00"/>
<path d="M56.9124 21.7373C56.8641 21.7373 56.8206 21.7181 56.7819 21.6844L54.4043 19.3147C54.3318 19.2425 54.3318 19.1269 54.4043 19.0594C54.4767 18.9872 54.5927 18.9872 54.6604 19.0594L56.9124 21.3039L63.0451 15.1919C63.1176 15.1196 63.2336 15.1196 63.3012 15.1919C63.3737 15.2641 63.3737 15.3797 63.3012 15.4471L57.0381 21.6892C57.0042 21.7229 56.9559 21.7422 56.9076 21.7422L56.9124 21.7373Z" fill="#1F1F21"/>
<path d="M52.6113 47.6499C50.9296 47.6499 49.5426 46.2868 49.5232 44.6107L49.3686 32.0159C49.3589 31.1923 49.6682 30.4169 50.2481 29.8293C50.8232 29.2417 51.5965 28.9094 52.4229 28.8997L65.099 28.7456C66.7808 28.7456 68.1677 30.1086 68.1871 31.7847L68.3417 44.3796C68.3514 45.2032 68.0421 45.9786 67.4622 46.5662C66.8871 47.1538 66.1138 47.4861 65.2875 47.4958L52.6113 47.6499Z" fill="white"/>
<path d="M65.099 28.9334C66.6889 28.9334 67.9841 30.2049 68.0034 31.7943L68.1581 44.3891C68.1774 45.9881 66.8919 47.303 65.2874 47.3223L52.65 47.4764C52.65 47.4764 52.6258 47.4764 52.6161 47.4764C51.0262 47.4764 49.731 46.2049 49.7117 44.6155L49.5571 32.0207C49.5377 30.4216 50.8232 29.1068 52.4277 29.0875L65.0651 28.9334C65.0651 28.9334 65.0893 28.9334 65.099 28.9334ZM65.099 28.5673H65.0603L52.4228 28.7214C51.5481 28.7311 50.7314 29.0827 50.1225 29.704C49.5136 30.3253 49.1801 31.1489 49.1946 32.0207L49.3493 44.6155C49.3686 46.3927 50.8377 47.8328 52.621 47.8328H52.6596L65.2971 47.6787C67.0997 47.6546 68.5495 46.176 68.5253 44.3795L68.3707 31.7847C68.3514 30.0074 66.8822 28.5625 65.1038 28.5625L65.099 28.5673Z" fill="#1F1F21"/>
<path d="M56.9124 41.9615C56.8641 41.9615 56.8206 41.9422 56.7819 41.9085L54.4043 39.5388C54.3318 39.4666 54.3318 39.351 54.4043 39.2836C54.4767 39.2113 54.5927 39.2113 54.6604 39.2836L56.9124 41.528L63.0451 35.416C63.1176 35.3438 63.2336 35.3438 63.3012 35.416C63.3737 35.4882 63.3737 35.6038 63.3012 35.6713L57.0381 41.9133C57.0042 41.947 56.9559 41.9663 56.9076 41.9663L56.9124 41.9615Z" fill="#1F1F21"/>
<path d="M137.082 51.103H19V97.9953H137.082V51.103Z" fill="#BFC8D9"/>
<path d="M44.6374 90.8139C44.3716 90.8139 44.1541 90.5972 44.1541 90.3323V76.8368H41.0467V90.3323C41.0467 90.5972 40.8292 90.8139 40.5634 90.8139C40.2976 90.8139 40.0802 90.5972 40.0802 90.3323V76.3552C40.0802 76.0903 40.2976 75.8735 40.5634 75.8735H44.6374C44.9032 75.8735 45.1207 76.0903 45.1207 76.3552V90.3323C45.1207 90.5972 44.9032 90.8139 44.6374 90.8139Z" fill="#1F1F21"/>
<path d="M55.2113 90.814C54.9455 90.814 54.728 90.5972 54.728 90.3323V66.4672H51.6206V90.3323C51.6206 90.5972 51.4031 90.814 51.1374 90.814C50.8716 90.814 50.6541 90.5972 50.6541 90.3323V65.9855C50.6541 65.7206 50.8716 65.5039 51.1374 65.5039H55.2113C55.4771 65.5039 55.6946 65.7206 55.6946 65.9855V90.3323C55.6946 90.5972 55.4771 90.814 55.2113 90.814Z" fill="#1F1F21"/>
<path d="M65.79 90.8138C65.5242 90.8138 65.3068 90.5971 65.3068 90.3322V84.0517H62.1994V90.3322C62.1994 90.5971 61.9819 90.8138 61.7161 90.8138C61.4503 90.8138 61.2328 90.5971 61.2328 90.3322V83.57C61.2328 83.3051 61.4503 83.0884 61.7161 83.0884H65.79C66.0558 83.0884 66.2733 83.3051 66.2733 83.57V90.3322C66.2733 90.5971 66.0558 90.8138 65.79 90.8138Z" fill="#1F1F21"/>
<path d="M76.364 90.8141C76.0982 90.8141 75.8807 90.5973 75.8807 90.3324V74.5829H72.7733V90.3324C72.7733 90.5973 72.5558 90.8141 72.29 90.8141C72.0242 90.8141 71.8067 90.5973 71.8067 90.3324V74.1013C71.8067 73.8364 72.0242 73.6196 72.29 73.6196H76.364C76.6298 73.6196 76.8472 73.8364 76.8472 74.1013V90.3324C76.8472 90.5973 76.6298 90.8141 76.364 90.8141Z" fill="#1F1F21"/>
<path d="M86.9379 90.8139C86.6721 90.8139 86.4546 90.5972 86.4546 90.3323V68.9428H83.3472V90.3323C83.3472 90.5972 83.1297 90.8139 82.8639 90.8139C82.5981 90.8139 82.3806 90.5972 82.3806 90.3323V68.4611C82.3806 68.1962 82.5981 67.9795 82.8639 67.9795H86.9379C87.2037 67.9795 87.4211 68.1962 87.4211 68.4611V90.3323C87.4211 90.5972 87.2037 90.8139 86.9379 90.8139Z" fill="#1F1F21"/>
<path d="M97.5166 90.8139C97.2508 90.8139 97.0333 90.5972 97.0333 90.3323V87.8808H93.9259V90.3323C93.9259 90.5972 93.7084 90.8139 93.4426 90.8139C93.1769 90.8139 92.9594 90.5972 92.9594 90.3323V87.3991C92.9594 87.1342 93.1769 86.9175 93.4426 86.9175H97.5166C97.7824 86.9175 97.9999 87.1342 97.9999 87.3991V90.3323C97.9999 90.5972 97.7824 90.8139 97.5166 90.8139Z" fill="#1F1F21"/>
<path d="M108.091 90.8138C107.825 90.8138 107.607 90.5971 107.607 90.3322V71.2016H104.5V90.3322C104.5 90.5971 104.282 90.8138 104.017 90.8138C103.751 90.8138 103.533 90.5971 103.533 90.3322V70.7199C103.533 70.455 103.751 70.2383 104.017 70.2383H108.091C108.356 70.2383 108.574 70.455 108.574 70.7199V90.3322C108.574 90.5971 108.356 90.8138 108.091 90.8138Z" fill="#1F1F21"/>
<path d="M118.664 90.8141C118.399 90.8141 118.181 90.5973 118.181 90.3324V78.8646H115.074V90.3324C115.074 90.5973 114.856 90.8141 114.59 90.8141C114.325 90.8141 114.107 90.5973 114.107 90.3324V78.383C114.107 78.1181 114.325 77.9014 114.59 77.9014H118.664C118.93 77.9014 119.148 78.1181 119.148 78.383V90.3324C119.148 90.5973 118.93 90.8141 118.664 90.8141Z" fill="#1F1F21"/>
<path d="M129.243 90.8138C128.977 90.8138 128.76 90.5971 128.76 90.3322V84.0517H125.653V90.3322C125.653 90.5971 125.435 90.8138 125.169 90.8138C124.903 90.8138 124.686 90.5971 124.686 90.3322V83.57C124.686 83.3051 124.903 83.0884 125.169 83.0884H129.243C129.509 83.0884 129.726 83.3051 129.726 83.57V90.3322C129.726 90.5971 129.509 90.8138 129.243 90.8138Z" fill="#1F1F21"/>
<path d="M131.93 59.1851C131.804 59.1851 131.684 59.1369 131.587 59.0454L128.306 55.7751C128.117 55.5872 128.117 55.2838 128.306 55.096C128.494 54.9081 128.799 54.9081 128.987 55.096L132.268 58.3663C132.457 58.5541 132.457 58.8575 132.268 59.0454C132.172 59.1417 132.051 59.1851 131.925 59.1851H131.93Z" fill="#1F1F21"/>
<path d="M128.649 59.1851C128.523 59.1851 128.402 59.1369 128.306 59.0454C128.117 58.8575 128.117 58.5541 128.306 58.3663L131.587 55.096C131.776 54.9081 132.08 54.9081 132.268 55.096C132.457 55.2838 132.457 55.5872 132.268 55.7751L128.987 59.0454C128.89 59.1417 128.77 59.1851 128.644 59.1851H128.649Z" fill="#1F1F21"/>
<path d="M27.5973 60.3795H24.2773C24.0115 60.3795 23.794 60.1628 23.794 59.8979V56.5891C23.794 56.3242 24.0115 56.1074 24.2773 56.1074H27.5973C27.8631 56.1074 28.0806 56.3242 28.0806 56.5891V59.8979C28.0806 60.1628 27.8631 60.3795 27.5973 60.3795ZM24.7605 59.4163H27.1141V57.0707H24.7605V59.4163Z" fill="#1F1F21"/>
<path d="M37.3207 58.7274H30.0814C29.8156 58.7274 29.5981 58.5107 29.5981 58.2458C29.5981 57.9809 29.8156 57.7642 30.0814 57.7642H37.3207C37.5865 57.7642 37.804 57.9809 37.804 58.2458C37.804 58.5107 37.5865 58.7274 37.3207 58.7274Z" fill="#1F1F21"/>
<path d="M27.5973 66.2409H24.2773C24.0115 66.2409 23.794 66.0241 23.794 65.7592V62.4504C23.794 62.1855 24.0115 61.9688 24.2773 61.9688H27.5973C27.8631 61.9688 28.0806 62.1855 28.0806 62.4504V65.7592C28.0806 66.0241 27.8631 66.2409 27.5973 66.2409ZM24.7605 65.2776H27.1141V62.932H24.7605V65.2776Z" fill="#1F1F21"/>
<path d="M37.3207 64.5888H30.0814C29.8156 64.5888 29.5981 64.372 29.5981 64.1071C29.5981 63.8422 29.8156 63.6255 30.0814 63.6255H37.3207C37.5865 63.6255 37.804 63.8422 37.804 64.1071C37.804 64.372 37.5865 64.5888 37.3207 64.5888Z" fill="#1F1F21"/>
<path d="M104.476 60.7354C90.775 60.7354 79.6309 49.6288 79.6309 35.9744C79.6309 22.3199 90.775 11.2134 104.476 11.2134C118.176 11.2134 129.321 22.3199 129.321 35.9744C129.321 49.6288 118.176 60.7354 104.476 60.7354ZM104.476 21.9443C96.7144 21.9443 90.4029 28.2345 90.4029 35.9695C90.4029 43.7046 96.7144 49.9948 104.476 49.9948C112.237 49.9948 118.548 43.7046 118.548 35.9695C118.548 28.2345 112.237 21.9443 104.476 21.9443Z" fill="white"/>
<path d="M104.476 11.6903C117.93 11.6903 128.837 22.5609 128.837 35.9697C128.837 49.3785 117.93 60.249 104.476 60.249C91.0215 60.249 80.1141 49.3785 80.1141 35.9697C80.1141 22.5609 91.0215 11.6903 104.476 11.6903ZM104.476 50.4814C112.517 50.4814 119.032 43.9841 119.032 35.9745C119.032 27.9649 112.512 21.4676 104.476 21.4676C96.4389 21.4676 89.9196 27.9649 89.9196 35.9745C89.9196 43.9841 96.4389 50.4814 104.476 50.4814ZM104.476 10.7271C90.5092 10.7271 79.1476 22.0503 79.1476 35.9697C79.1476 49.889 90.5092 61.2123 104.476 61.2123C118.442 61.2123 129.804 49.889 129.804 35.9697C129.804 22.0503 118.442 10.7271 104.476 10.7271ZM104.476 49.5181C96.9802 49.5181 90.8862 43.4447 90.8862 35.9745C90.8862 28.5043 96.9802 22.4308 104.476 22.4308C111.971 22.4308 118.065 28.5043 118.065 35.9745C118.065 43.4447 111.966 49.5181 104.476 49.5181Z" fill="#1F1F21"/>
<path d="M104.476 11.6904C104.326 11.6904 104.176 11.7001 104.026 11.7001V21.4725C104.176 21.4725 104.326 21.4629 104.476 21.4629C112.517 21.4629 119.032 27.9601 119.032 35.9698C119.032 38.6525 118.297 41.1618 117.026 43.3196L125.517 48.2034C127.624 44.6104 128.837 40.4346 128.837 35.9698C128.837 22.561 117.93 11.6904 104.476 11.6904Z" fill="#FBEA00"/>
<path d="M84.942 22.8357L92.423 27.8303C94.9601 24.1121 99.1839 21.6316 103.997 21.4775V11.7051C95.7865 11.864 88.5713 16.0591 84.2751 22.3926L84.942 22.8357Z" fill="#1F1F21"/>
<path d="M132.346 2.48145H113.953C111.096 2.48145 108.782 4.78849 108.782 7.63497V11.4784C108.782 14.3249 111.096 16.632 113.953 16.632H114.416V21.8096L120.071 16.632H132.346C135.202 16.632 137.517 14.3249 137.517 11.4784V7.63497C137.517 4.78849 135.202 2.48145 132.346 2.48145Z" fill="white"/>
<path d="M114.421 22.2914C114.354 22.2914 114.291 22.2769 114.228 22.2529C114.054 22.1758 113.938 22.0024 113.938 21.8098V17.1138C110.831 17.1042 108.303 14.5804 108.303 11.4786V7.63516C108.303 4.5286 110.84 2 113.957 2H132.351C135.468 2 138.005 4.5286 138.005 7.63516V11.4786C138.005 14.5852 135.468 17.1138 132.351 17.1138H120.264L114.75 22.1613C114.658 22.2432 114.542 22.2866 114.421 22.2866V22.2914ZM113.953 2.96328C111.367 2.96328 109.265 5.0584 109.265 7.63516V11.4786C109.265 14.0554 111.367 16.1505 113.953 16.1505H114.417C114.682 16.1505 114.9 16.3672 114.9 16.6321V20.7116L119.742 16.2757C119.829 16.1939 119.95 16.1505 120.071 16.1505H132.346C134.931 16.1505 137.033 14.0554 137.033 11.4786V7.63516C137.033 5.0584 134.931 2.96328 132.346 2.96328H113.953Z" fill="#1F1F21"/>
<path d="M130.529 7.10536H115.997C115.731 7.10536 115.514 6.88863 115.514 6.62373C115.514 6.35883 115.731 6.14209 115.997 6.14209H130.529C130.794 6.14209 131.012 6.35883 131.012 6.62373C131.012 6.88863 130.794 7.10536 130.529 7.10536Z" fill="#1F1F21"/>
<path d="M130.529 10.0819H115.997C115.731 10.0819 115.514 9.86519 115.514 9.60029C115.514 9.33539 115.731 9.11865 115.997 9.11865H130.529C130.794 9.11865 131.012 9.33539 131.012 9.60029C131.012 9.86519 130.794 10.0819 130.529 10.0819Z" fill="#1F1F21"/>
<path d="M130.529 13.0634H115.997C115.731 13.0634 115.514 12.8466 115.514 12.5817C115.514 12.3168 115.731 12.1001 115.997 12.1001H130.529C130.794 12.1001 131.012 12.3168 131.012 12.5817C131.012 12.8466 130.794 13.0634 130.529 13.0634Z" fill="#1F1F21"/>
<path d="M44.4489 41.4605L40.7278 42.3949C36.3107 43.5075 31.2654 40.1986 28.7669 34.1878C25.9108 27.3196 27.462 19.5219 32.2319 16.7718L35.9531 15.8374C31.1832 18.5876 29.6319 26.3853 32.4929 33.2582C34.9914 39.2691 40.0367 42.5731 44.4538 41.4653L44.4489 41.4605Z" fill="#1F1F21"/>
<path d="M35.9482 15.8371C40.7181 13.0869 46.8991 16.4247 49.7552 23.2928C52.6113 30.161 51.0649 37.9587 46.295 40.7089C41.5252 43.459 35.3442 40.1261 32.488 33.2531C29.6319 26.385 31.1784 18.5872 35.9482 15.8323V15.8371ZM45.4058 38.5704C49.3541 36.2922 50.6396 29.8335 48.2716 24.1405C45.9036 18.4524 40.7858 15.6878 36.8375 17.9659C32.8892 20.2441 31.6037 26.7028 33.9717 32.3958C36.3397 38.0839 41.4575 40.8485 45.4058 38.5704Z" fill="white"/>
<path d="M42.7188 41.9901C41.8441 41.9901 40.9549 41.8408 40.056 41.5374C36.7505 40.42 33.8847 37.4483 32.1932 33.3736C29.284 26.3754 30.8932 18.3851 35.7888 15.5627C37.7315 14.4405 39.94 14.2478 42.1824 15.004C45.4879 16.1166 48.3537 19.0931 50.0452 23.1677C52.9544 30.1659 51.3403 38.1563 46.4496 40.9787C45.285 41.6482 44.0236 41.9901 42.7188 41.9901ZM36.1077 16.1069C31.478 18.78 29.9847 26.414 32.778 33.1328C34.3776 36.9811 37.1757 39.8998 40.259 40.9402C42.3225 41.6385 44.3523 41.4603 46.1355 40.4345C50.7652 37.7662 52.2585 30.1274 49.4652 23.4086C47.8656 19.5603 45.0675 16.6416 41.9843 15.6012C39.9207 14.9028 37.891 15.081 36.1125 16.1069H36.1077ZM42.4434 39.6879C41.7136 39.6879 40.9694 39.5627 40.2203 39.3074C37.4705 38.3779 35.0832 35.9022 33.672 32.5163C31.2509 26.6933 32.5943 20.0467 36.6731 17.6963C38.2969 16.762 40.143 16.5982 42.0132 17.234C44.763 18.1635 47.1504 20.6391 48.5615 24.0251C50.9827 29.8481 49.6344 36.4947 45.5604 38.845C44.5891 39.4086 43.5355 39.6879 42.4434 39.6879ZM39.795 17.4844C38.814 17.4844 37.8668 17.7397 36.9921 18.2406C33.1791 20.4417 31.9564 26.7367 34.2568 32.2755C35.5761 35.4495 37.8813 37.8529 40.4233 38.7102C42.1147 39.2833 43.782 39.1388 45.2415 38.296C49.0545 36.0997 50.2771 29.7999 47.9768 24.2611C46.6575 21.0871 44.3523 18.6837 41.8103 17.8264C41.1289 17.5952 40.4523 17.4844 39.795 17.4844Z" fill="#1F1F21"/>
<path d="M42.4482 39.688C41.7185 39.688 40.9742 39.5627 40.2252 39.3075C37.4754 38.3779 35.088 35.9023 33.6769 32.5164C31.2557 26.6982 32.5992 20.0468 36.678 17.6964C38.3018 16.762 40.1478 16.5983 42.0181 17.234C44.7679 18.1636 47.1552 20.6392 48.5664 24.0251C50.9876 29.8481 49.6392 36.4947 45.5653 38.8451C44.5939 39.4086 43.5404 39.688 42.4482 39.688ZM36.9921 18.2406C33.1791 20.4417 31.9564 26.7367 34.2568 32.2756C35.5761 35.4496 37.8813 37.8529 40.4233 38.7102C42.1147 39.2834 43.782 39.1389 45.2415 38.296C49.0545 36.0998 50.2771 29.7999 47.9768 24.2611C46.6575 21.0871 44.3523 18.6838 41.8103 17.8264C40.1188 17.2533 38.4516 17.3978 36.9921 18.2406Z" fill="#1F1F21"/>
<path d="M35.0203 41.4699C34.8947 41.4699 34.7787 41.3976 34.7304 41.2772C34.6627 41.1183 34.7401 40.9305 34.8995 40.863L37.2482 39.8853C37.4077 39.8179 37.5962 39.8949 37.6638 40.0539C37.7315 40.2128 37.6542 40.4007 37.4947 40.4681L35.146 41.4458C35.1073 41.4603 35.0638 41.4699 35.0252 41.4699H35.0203Z" fill="white"/>
<path d="M33.6865 40.4924C33.5609 40.4924 33.4449 40.4201 33.3966 40.2997C33.3289 40.1408 33.4063 39.9529 33.5657 39.8855L35.9144 38.9078C36.0739 38.8403 36.2624 38.9174 36.33 39.0763C36.3977 39.2353 36.3204 39.4231 36.1609 39.4905L33.8122 40.4683C33.7735 40.4827 33.73 40.4924 33.6914 40.4924H33.6865Z" fill="white"/>
<path d="M32.5267 39.4084C32.401 39.4084 32.2851 39.3361 32.2367 39.2157C32.1691 39.0568 32.2464 38.8689 32.4059 38.8015L34.7546 37.8238C34.914 37.7563 35.1025 37.8334 35.1702 37.9924C35.2378 38.1513 35.1605 38.3391 35.001 38.4066L32.6523 39.3843C32.6137 39.3987 32.5702 39.4084 32.5315 39.4084H32.5267Z" fill="white"/>
</g>
<defs>
<clipPath id="clip0_12_568">
<rect width="119" height="96" fill="white" transform="translate(19 2)"/>
</clipPath>
</defs>
</svg>
