<svg width="157" height="100" viewBox="0 0 157 100" fill="none" xmlns="http://www.w3.org/2000/svg">
<g clip-path="url(#clip0_12_797)">
<path d="M87.0591 0H30.5248C25.967 0 22.2722 3.69017 22.2722 8.24222V32.609C22.2722 37.1611 25.967 40.8513 30.5248 40.8513H87.0591C91.6169 40.8513 95.3117 37.1611 95.3117 32.609V8.24222C95.3117 3.69017 91.6169 0 87.0591 0Z" fill="#CED6DD"/>
<path d="M85.1119 47.344V40.2158H77.9747L85.1119 47.344Z" fill="#CED6DD"/>
<path d="M59.1388 51.8037H93.9548C98.2901 51.8037 101.809 55.3142 101.809 59.6478C101.809 63.9775 98.2939 67.4919 93.9548 67.4919H67.932L61.9638 73.4525V67.4919H59.135C54.7998 67.4919 51.281 63.9814 51.281 59.6478C51.281 55.318 54.796 51.8037 59.135 51.8037H59.1388Z" fill="#1F1F21"/>
<path d="M61.7683 59.3569H91.3291" stroke="white" stroke-linecap="round" stroke-linejoin="round"/>
<path d="M31.3029 10.2178H85.1119" stroke="#1F1F21" stroke-linecap="round" stroke-linejoin="round"/>
<path d="M31.3029 15.0527H85.1119" stroke="#1F1F21" stroke-linecap="round" stroke-linejoin="round"/>
<path d="M31.3029 19.8916H85.1119" stroke="#1F1F21" stroke-linecap="round" stroke-linejoin="round"/>
<path d="M31.3029 24.7305H85.1119" stroke="#1F1F21" stroke-linecap="round" stroke-linejoin="round"/>
<path d="M31.3029 29.5659H67.2688" stroke="#1F1F21" stroke-linecap="round" stroke-linejoin="round"/>
<path d="M35.0938 61.4551H38.4094L44.4427 78.3568H40.8358L39.5862 74.7085H33.7944L32.5678 78.3568H29.0567L35.09 61.4551H35.0938ZM38.5321 71.6344L36.7037 66.16L34.8523 71.6344H38.5321Z" fill="#1F1F21"/>
<path d="M46.275 61.0225H49.8321V64.1195H46.275V61.0225ZM46.3478 65.4862H49.7631V78.353H46.3478V65.4862Z" fill="#1F1F21"/>
<path d="M57.6913 74.5783C60.4198 65.0309 54.8822 55.0821 45.3228 52.357C35.7633 49.632 25.8019 55.1626 23.0734 64.71C20.3449 74.2574 25.8825 84.2062 35.442 86.9312C45.0015 89.6563 54.9628 84.1257 57.6913 74.5783Z" stroke="#1F1F21" stroke-miterlimit="10" stroke-dasharray="1.99 1.99"/>
<path d="M118.084 42.9413C127.979 42.9413 136 34.9302 136 25.048C136 15.1659 127.979 7.15479 118.084 7.15479C108.189 7.15479 100.168 15.1659 100.168 25.048C100.168 34.9302 108.189 42.9413 118.084 42.9413Z" fill="#1F1F21"/>
<mask id="mask0_12_797" style="mask-type:luminance" maskUnits="userSpaceOnUse" x="100" y="7" width="36" height="36">
<path d="M118.084 42.9413C127.979 42.9413 136 34.9302 136 25.048C136 15.1659 127.979 7.15479 118.084 7.15479C108.189 7.15479 100.168 15.1659 100.168 25.048C100.168 34.9302 108.189 42.9413 118.084 42.9413Z" fill="white"/>
</mask>
<g mask="url(#mask0_12_797)">
<path d="M123.186 13.498H111.71C108.115 13.498 105.201 16.4084 105.201 19.9984V24.4392C105.201 28.0292 108.115 30.9396 111.71 30.9396H123.186C126.781 30.9396 129.695 28.0292 129.695 24.4392V19.9984C129.695 16.4084 126.781 13.498 123.186 13.498Z" fill="#FBEA00"/>
<path d="M121.051 14.5396H111.315C108.537 14.5396 106.286 16.7883 106.286 19.5622V22.3989C106.286 25.1729 108.537 27.4216 111.315 27.4216H121.051C123.828 27.4216 126.08 25.1729 126.08 22.3989V19.5622C126.08 16.7883 123.828 14.5396 121.051 14.5396Z" fill="#1F1F21"/>
<path d="M129.319 26.1081C130.483 26.1081 131.427 24.3188 131.427 22.1114C131.427 19.9041 130.483 18.1147 129.319 18.1147C128.155 18.1147 127.211 19.9041 127.211 22.1114C127.211 24.3188 128.155 26.1081 129.319 26.1081Z" fill="#FBEA00"/>
<path d="M130.795 22.1115C130.795 23.2178 130.323 24.1175 129.737 24.1175C129.15 24.1175 128.679 23.2217 128.679 22.1115C128.679 21.0013 129.15 20.1055 129.737 20.1055C130.323 20.1055 130.795 21.0013 130.795 22.1115Z" fill="white"/>
<path d="M129.319 26.1121C128.154 26.1121 127.211 24.3205 127.211 22.1154C127.211 21.0856 127.414 20.1477 127.751 19.4395" stroke="#1F1F21" stroke-linecap="round" stroke-linejoin="round"/>
<path d="M111.273 51.8838L107.332 41.4786C105.604 36.9192 108.981 32.042 113.86 32.042H121.745C126.628 32.042 130.001 36.9192 128.272 41.4786L124.332 51.8838C122.059 57.8903 113.55 57.8903 111.277 51.8838H111.273Z" fill="#FBEA00"/>
<path d="M128.272 41.4747C130.001 36.9153 126.624 32.0381 121.745 32.0381H116.808C115.32 35.5141 114.638 40.2573 115.317 44.8933L116.992 56.336" stroke="#1F1F21" stroke-linecap="round" stroke-linejoin="round"/>
<path d="M121.741 32.0381H113.856C111.982 32.0381 110.334 32.7578 109.107 33.9024C109.161 34.7906 109.211 35.6788 109.264 36.5746C109.437 39.8937 111.622 41.3867 114.178 41.9265C116.743 42.3705 119.679 41.8614 121.492 38.9328C122.745 36.9306 122.151 34.3197 125.241 32.976C124.225 32.3865 123.037 32.0381 121.737 32.0381H121.741Z" stroke="#1F1F21" stroke-linecap="round" stroke-linejoin="round"/>
<path d="M116.887 44.7252C119.039 43.8352 120.06 41.3719 119.169 39.2232C118.278 37.0745 115.811 36.0541 113.66 36.9442C111.509 37.8342 110.487 40.2975 111.378 42.4462C112.269 44.5949 114.736 45.6152 116.887 44.7252Z" fill="#FBEA00" stroke="#1F1F21" stroke-linecap="round" stroke-linejoin="round"/>
<path d="M115.274 43.2897C116.631 43.2897 117.731 42.191 117.731 40.8357C117.731 39.4805 116.631 38.3818 115.274 38.3818C113.917 38.3818 112.817 39.4805 112.817 40.8357C112.817 42.191 113.917 43.2897 115.274 43.2897Z" fill="white"/>
<path d="M113.005 17.2114H115.014L117.739 24.9713H115.654L115.202 23.5816H112.775L112.334 24.9713H110.291L113.005 17.2114ZM114.703 21.9929L113.987 19.7342L113.27 21.9929H114.703Z" fill="white"/>
<path d="M118.257 16.9893H120.254V18.4976H118.257V16.9893ZM118.291 19.0067H120.223V24.9712H118.291V19.0067Z" fill="white"/>
</g>
<path d="M105.496 65.8765H124.869" stroke="#282D33"/>
<path d="M105.496 69.9536H120.281" stroke="#282D33"/>
<path d="M105.496 75.1753H128.437" stroke="#282D33"/>
<path d="M105.496 78.1001H128.437" stroke="#282D33"/>
<path d="M105.496 81.0249H117.222" stroke="#282D33"/>
</g>
<defs>
<clipPath id="clip0_12_797">
<rect width="114" height="88" fill="white" transform="translate(22)"/>
</clipPath>
</defs>
</svg>
