<svg width="157" height="100" viewBox="0 0 157 100" fill="none" xmlns="http://www.w3.org/2000/svg">
<g clip-path="url(#clip0_12_895)">
<path d="M49.2184 62.6119L55.3753 59.0008C56.8188 58.1563 57.7148 56.1502 57.3625 54.5262L56.8724 51.0795C56.7537 49.4325 55.3638 47.7359 53.7595 47.3194L46.8407 45.5311C45.2325 45.1108 44.26 43.46 44.685 41.8704L47.4456 31.1863C47.863 29.6005 49.5247 28.6261 51.1252 29.0273L58.0479 30.8233C59.6599 31.2322 61.6968 30.4488 62.6043 29.0503L64.6949 26.2722C65.7861 25.0342 65.9929 22.8523 65.1505 21.4193L61.5322 15.2787C60.6937 13.8572 61.1838 11.9848 62.6043 11.1518L72.1459 5.5537C73.5665 4.72068 75.4235 5.21743 76.262 6.63892L79.8803 12.7796C80.7227 14.2087 82.7367 15.0914 84.3602 14.736L87.8215 14.2546C89.4832 14.1438 91.1718 12.7452 91.5777 11.1518L93.3772 4.23921C93.7984 2.64959 95.4487 1.68282 97.0415 2.08787L107.755 4.86588C109.348 5.27475 110.316 6.92551 109.91 8.52659L108.115 15.4277C107.697 17.0326 108.49 19.0769 109.88 19.9787L112.66 22.0804C113.912 23.1771 116.102 23.372 117.53 22.5351L123.698 18.9164C125.119 18.0834 126.984 18.5649 127.822 19.9902L133.416 29.4897C134.259 30.9188 133.768 32.7721 132.348 33.6051L126.18 37.2238C124.751 38.0606 123.859 40.0744 124.204 41.687L124.698 45.1413C124.809 46.7844 126.218 48.4811 127.83 48.9014L134.745 50.6935C136.338 51.1062 137.314 52.7646 136.904 54.3581L134.121 65.0383C133.707 66.6356 132.057 67.6062 130.456 67.1897L123.53 65.3975C121.937 64.9772 119.889 65.7682 118.981 67.1514L116.875 69.9333C115.78 71.1866 115.57 73.3724 116.416 74.8053L120.034 80.9498C120.876 82.3827 120.402 84.2284 118.981 85.0614L109.44 90.6595C108.019 91.4925 106.15 91.0225 105.308 89.5895L101.69 83.445C100.847 82.0121 98.8373 81.1294 97.2138 81.4695L93.7678 81.9471C92.1099 82.0694 90.4328 83.4641 90.004 85.069L88.2082 91.9778C87.7909 93.5789 86.1253 94.5533 84.5286 94.1367L73.8383 91.3587C72.234 90.9461 71.2576 89.2877 71.6788 87.6942L73.4784 80.7893C73.8919 79.1844 73.0764 77.1401 71.698 76.2383L68.9143 74.129C67.6738 73.0437 65.4722 72.8412 64.0325 73.6895L57.8756 77.3005C56.4474 78.1374 54.5942 77.6559 53.7519 76.2268L48.1578 66.7273C47.3193 65.302 47.7941 63.4487 49.2223 62.608L49.2184 62.6119ZM98.1634 60.6439C105.105 56.5705 107.418 47.6633 103.344 40.7508C99.2661 33.8268 90.3486 31.5149 83.4068 35.5883C76.4841 39.6464 74.1561 48.5575 78.2339 55.4815C82.3079 62.3979 91.2407 64.7059 98.1634 60.6478V60.6439Z" fill="#CED6DD" fill-opacity="0.5"/>
<path d="M107.713 61.1829L40.6225 74.2667C39.2441 74.5342 37.9116 73.6401 37.6436 72.2644L28.6265 26.2343C28.3585 24.8586 29.2544 23.5288 30.6328 23.2614L97.723 10.1738C99.1014 9.90627 100.434 10.8004 100.702 12.1761L109.715 58.2062C109.983 59.5819 109.087 60.9116 107.709 61.1791L107.713 61.1829Z" stroke="#BFC8D9" stroke-linecap="round" stroke-linejoin="round"/>
<path d="M97.723 10.1738L30.6328 23.2614C29.2544 23.5289 28.3585 24.8625 28.6265 26.2343L28.9902 28.0876L101.066 14.0332L100.702 12.18C100.434 10.8043 99.0976 9.91018 97.723 10.1777V10.1738Z" fill="#BFC8D9"/>
<path d="M32.3559 25.1225C32.4554 25.6345 32.1223 26.1351 31.6054 26.2344C31.0923 26.3338 30.5908 26.0013 30.4912 25.4855C30.3917 24.9696 30.7248 24.4729 31.2417 24.3735C31.7548 24.2741 32.2563 24.6066 32.3559 25.1225Z" fill="white"/>
<path d="M34.9212 24.6254C35.0208 25.1374 34.6876 25.638 34.1707 25.7374C33.6577 25.8367 33.1561 25.5043 33.0565 24.9884C32.957 24.4764 33.2901 23.9758 33.807 23.8764C34.3239 23.7771 34.8216 24.1095 34.9212 24.6254Z" fill="white"/>
<path d="M37.4827 24.1249C37.5823 24.6369 37.2492 25.1375 36.7323 25.2369C36.2154 25.3362 35.7176 25.0038 35.618 24.4879C35.5185 23.9759 35.8516 23.4753 36.3685 23.3759C36.8816 23.2766 37.3832 23.609 37.4827 24.1249Z" fill="white"/>
<path d="M46.7717 98.0043C54.1687 98.0043 60.1652 97.0599 60.1652 95.8949C60.1652 94.73 54.1687 93.7856 46.7717 93.7856C39.3747 93.7856 33.3782 94.73 33.3782 95.8949C33.3782 97.0599 39.3747 98.0043 46.7717 98.0043Z" fill="#1F1F21"/>
<path d="M97.1946 44.5532H93.6107V49.0164H97.1946V44.5532Z" stroke="#1F1F21"/>
<path d="M103.106 38.5503H99.5188V49.0166H103.106V38.5503Z" stroke="#1F1F21"/>
<path d="M109.014 41.3813H105.427V49.0161H109.014V41.3813Z" stroke="#1F1F21"/>
<path d="M114.922 36.1274H111.339V49.0163H114.922V36.1274Z" stroke="#1F1F21"/>
<path d="M92.4583 49.0161H116.852" stroke="#1F1F21"/>
<path d="M87.787 31.152L96.0881 22.8638H97.9106" stroke="#1F1F21"/>
<path d="M109.183 22.7988H100.139" stroke="#1F1F21"/>
<path d="M109.183 24.5146H100.139" stroke="#1F1F21"/>
<path d="M105.676 26.2305H100.139" stroke="#1F1F21"/>
<path d="M43.0001 46.7581L46.3313 35.6308C46.3313 35.6308 47.8131 35.2907 47.9662 36.097C48.1194 36.9032 48.418 41.439 48.418 41.439C48.418 41.439 43.1533 47.5606 43.0001 46.7581Z" fill="#BFC8D9"/>
<path d="M59.0701 39.9027C58.8021 38.9626 49.3791 40.0708 49.3791 40.0708C49.3791 40.0708 46.293 41.8362 45.3128 42.994C44.3326 44.1518 43.4328 45.26 43.0002 46.7617C42.5675 48.2634 41.2733 51.8554 41.2733 51.8554L51.6535 44.5263L55.2986 42.7571C55.2986 42.7571 59.5602 41.626 59.0701 39.9027Z" fill="#BFC8D9"/>
<path d="M48.3989 40.583C48.3989 40.583 45.8526 42.2185 44.4436 43.9189" stroke="#1F1F21" stroke-linecap="round" stroke-linejoin="round"/>
<path d="M40.3046 54.6907C40.3046 54.6907 40.5496 52.3942 42.1731 49.6658C42.7168 48.7564 43.4098 47.8011 44.3019 46.8649C46.1896 44.8817 47.8207 43.4067 48.9349 42.4552C49.8845 41.6451 51.1748 41.3586 52.3771 41.6834L60.4829 43.8729C60.4829 43.8729 61.1377 46.1427 59.1696 46.3299C58.3158 46.4102 52.4882 46.265 52.4882 46.265C52.4882 46.265 49.3408 48.8519 49.7543 51.1867C50.1678 53.5176 51.5884 52.2986 52.469 51.7637C53.0663 51.4007 55.781 57.1821 52.4728 60.4302C50.5928 62.2758 44.9988 66.0932 40.3161 69.2113L40.3046 54.6945V54.6907Z" fill="#BFC8D9"/>
<path d="M55.8423 42.5394C55.8423 42.5394 50.7766 41.1561 50.298 41.6146C49.8194 42.0732 45.6152 45.5581 45.6152 45.5581" stroke="#1F1F21" stroke-linecap="round" stroke-linejoin="round"/>
<path d="M72.7469 62.5204C82.6308 62.5204 90.6432 54.5241 90.6432 44.6601C90.6432 34.7961 82.6308 26.7998 72.7469 26.7998C62.863 26.7998 54.8506 34.7961 54.8506 44.6601C54.8506 54.5241 62.863 62.5204 72.7469 62.5204Z" fill="#1F1F21"/>
<mask id="mask0_12_895" style="mask-type:luminance" maskUnits="userSpaceOnUse" x="54" y="26" width="37" height="37">
<path d="M72.7469 62.5204C82.6308 62.5204 90.6432 54.5241 90.6432 44.6601C90.6432 34.7961 82.6308 26.7998 72.7469 26.7998C62.863 26.7998 54.8506 34.7961 54.8506 44.6601C54.8506 54.5241 62.863 62.5204 72.7469 62.5204Z" fill="white"/>
</mask>
<g mask="url(#mask0_12_895)">
<path d="M77.8432 33.1279H66.3794C62.7887 33.1279 59.8779 36.0329 59.8779 39.6163V44.0489C59.8779 47.6324 62.7887 50.5373 66.3794 50.5373H77.8432C81.4338 50.5373 84.3447 47.6324 84.3447 44.0489V39.6163C84.3447 36.0329 81.4338 33.1279 77.8432 33.1279Z" fill="#FBEA00"/>
<path d="M75.7105 34.1675H65.9851C63.2107 34.1675 60.9615 36.4121 60.9615 39.1809V42.0124C60.9615 44.7812 63.2107 47.0258 65.9851 47.0258H75.7105C78.4849 47.0258 80.734 44.7812 80.734 42.0124V39.1809C80.734 36.4121 78.4849 34.1675 75.7105 34.1675Z" fill="#1F1F21"/>
<path d="M83.9694 45.7189C85.1325 45.7189 86.0753 43.9328 86.0753 41.7296C86.0753 39.5263 85.1325 37.7402 83.9694 37.7402C82.8064 37.7402 81.8635 39.5263 81.8635 41.7296C81.8635 43.9328 82.8064 45.7189 83.9694 45.7189Z" fill="#FBEA00"/>
<path d="M85.4435 41.7294C85.4435 42.8337 84.9726 43.7317 84.3867 43.7317C83.8009 43.7317 83.33 42.8375 83.33 41.7294C83.33 40.6212 83.8009 39.7271 84.3867 39.7271C84.9726 39.7271 85.4435 40.6212 85.4435 41.7294Z" fill="white"/>
<path d="M83.9694 45.7189C82.8054 45.7189 81.8635 43.9306 81.8635 41.7296C81.8635 40.7017 82.0665 39.7655 82.4034 39.0586" stroke="#1F1F21" stroke-linecap="round" stroke-linejoin="round"/>
<path d="M65.943 71.443L62.0068 61.057C60.28 56.5059 63.6533 51.6377 68.5275 51.6377H76.4035C81.2816 51.6377 84.651 56.5059 82.9242 61.057L78.9881 71.443C76.7175 77.4384 68.2173 77.4384 65.9468 71.443H65.943Z" fill="#FBEA00"/>
<path d="M82.9241 61.057C84.6509 56.5059 81.2777 51.6377 76.4035 51.6377H71.4718C69.9862 55.1073 69.3047 59.8418 69.9824 64.4693L71.6556 75.8908" stroke="#1F1F21" stroke-linecap="round" stroke-linejoin="round"/>
<path d="M76.3996 51.6377H68.5236C66.6512 51.6377 65.0048 52.3561 63.7795 53.4986C63.8331 54.3851 63.8829 55.2717 63.9365 56.1658C64.1088 59.4788 66.2913 60.9691 68.8452 61.5079C71.4067 61.9511 74.3397 61.4429 76.1507 58.5197C77.4028 56.5212 76.8093 53.9151 79.8954 52.5739C78.8808 51.9854 77.6938 51.6377 76.3958 51.6377H76.3996Z" stroke="#1F1F21" stroke-linecap="round" stroke-linejoin="round"/>
<path d="M71.5507 64.3022C73.6997 63.4139 74.7203 60.955 73.8301 58.8103C72.9399 56.6656 70.4762 55.6471 68.3271 56.5355C66.1781 57.4239 65.1575 59.8827 66.0477 62.0274C66.9379 64.1721 69.4016 65.1906 71.5507 64.3022Z" fill="#FBEA00" stroke="#1F1F21" stroke-linecap="round" stroke-linejoin="round"/>
<path d="M69.9403 62.8685C71.2958 62.8685 72.3946 61.7719 72.3946 60.4191C72.3946 59.0664 71.2958 57.9697 69.9403 57.9697C68.5848 57.9697 67.486 59.0664 67.486 60.4191C67.486 61.7719 68.5848 62.8685 69.9403 62.8685Z" fill="white"/>
<path d="M67.6736 36.8345H69.68L72.4023 44.58H70.3194L69.8676 43.1929H67.4439L67.0036 44.58H64.9628L67.6736 36.8345ZM69.3698 41.611L68.6538 39.3565L67.9378 41.611H69.3698Z" fill="white"/>
<path d="M72.9231 36.6167H74.918V38.1223H72.9231V36.6167ZM72.9537 38.6267H74.8835V44.5801H72.9537V38.6267Z" fill="white"/>
</g>
<path d="M52.4384 51.802C52.9897 51.3702 56.4855 49.0087 57.6419 48.5386C58.2047 48.3094 59.1543 48.1183 59.9698 48.1298C59.6712 48.0992 61.0266 48.1298 60.257 48.1451C60.9768 48.2062 61.5282 48.4584 61.4823 49.043C61.3865 50.327 58.7905 51.5918 57.661 53.403C56.5315 55.2105 55.222 58.5769 51.4429 61.2632C50.3976 62.0046 48.1959 62.8147 45.8412 63.9763C44.3785 63.4948 43.3256 62.6886 42.8661 61.5651C41.683 58.6763 51.8908 52.2376 52.4384 51.8058V51.802Z" fill="#BFC8D9"/>
<path d="M47.2502 96.0362C47.2311 96.3304 40.7411 97.5035 35.4725 96.0629C30.828 83.9917 32.195 73.4261 34.3621 66.3684C37.0194 57.721 41.4533 52.3216 41.6409 52.0962L45.7914 55.5314L49.9611 58.9476C49.9266 58.9896 46.5342 63.2082 44.5547 69.9221C41.9778 78.6573 42.8853 87.4461 47.2464 96.0362H47.2502Z" fill="#BFC8D9"/>
<path d="M54.3568 38.1642L46.0519 29.876H44.2294" stroke="#1F1F21"/>
<path d="M32.957 29.8071H42.0047" stroke="#1F1F21"/>
<path d="M32.957 31.5269H42.0047" stroke="#1F1F21"/>
<path d="M36.4681 33.2422H42.0047" stroke="#1F1F21"/>
<path d="M96.7543 63.7966L90.7927 54.8091C92.7838 53.4946 94.8437 52.9253 97.2253 53.0284L96.7543 63.7966Z" fill="#BFC8D9"/>
<path d="M96.7543 63.7965L97.2253 53.0283C103.183 53.2882 107.805 58.3169 107.544 64.2665C107.284 70.2123 102.241 74.8244 96.2834 74.5684C90.3218 74.3086 85.7041 69.2761 85.9606 63.3303C86.1176 59.7613 87.8062 56.7846 90.7889 54.8128L96.7505 63.8003L96.7543 63.7965Z" fill="#FBEA00"/>
<path d="M96.7543 63.7965L106.87 67.5718C108.961 61.9967 106.12 55.7872 100.537 53.7009C99.4192 53.2843 98.416 53.0818 97.2252 53.0283L96.7543 63.7965Z" fill="#1F1F21"/>
<path d="M28.1403 69.5244H30.2041L33.9564 79.9525H31.7165L30.9392 77.7018H27.3401L26.5781 79.9525H24.3956L28.148 69.5244H28.1403ZM30.2768 75.8065L29.1396 72.4285L27.9871 75.8065H30.273H30.2768Z" fill="#1F1F21"/>
<path d="M35.0897 69.2568H37.3028V71.1674H35.0897V69.2568ZM35.1318 72.0119H37.2531V79.9486H35.1318V72.0119Z" fill="#1F1F21"/>
<path d="M31.4255 85.6651C37.6045 85.6651 42.6136 80.7003 42.6136 74.5759C42.6136 68.4516 37.6045 63.4868 31.4255 63.4868C25.2465 63.4868 20.2374 68.4516 20.2374 74.5759C20.2374 80.7003 25.2465 85.6651 31.4255 85.6651Z" stroke="#1F1F21" stroke-miterlimit="10" stroke-dasharray="1.24 1.24"/>
</g>
<defs>
<clipPath id="clip0_12_895">
<rect width="117" height="96" fill="white" transform="translate(20 2)"/>
</clipPath>
</defs>
</svg>
